<svg height="512" viewBox="0 0 512 512" width="512" xmlns="http://www.w3.org/2000/svg">
 <path d="m471.95 253.05c0 120.9-98.01 218.9-218.9 218.9-120.9 0-218.9-98.01-218.9-218.9 0-120.9 98.01-218.9 218.9-218.9 120.9 0 218.9 98.01 218.9 218.9" fill="#924565" fill-rule="evenodd"/>
 <path d="m292.66331 168.67522c0 0 133.81313 99.16484 181.5567 130.78234-11.43012 50.72187-37.16223 67.78225-53.33865 93.22041-26.11666 41.06964-120.50645 72.62345-120.50645 72.62345l-120.0686-83.92693-34.71148-26.39039-4.56927-13.95642-19.27082-19.94293c.72967-111.92601 42.07211-161.91174 67.97494-183.85155 2.54668 8.30768 11.20612 19.47208 22.02582 19.74353 11.8522.29734 26.29665 4.51103 38.13789-2.45324 15.67013-9.21619 15.34062 22.2439 42.76992 14.15173z" fill-rule="evenodd" opacity=".25" stroke="#000000"/>
 <path d="m224.74011 120.81415l241.61479 169.51386 7.67031-42.1867-149.57106-115.8217-46.7889-16.87468z" fill-rule="evenodd" opacity=".25" stroke="#000000"/>
 <g fill-rule="evenodd">
  <path d="m256 1c-140.83 0-255 114.17-255 255s114.17 255 255 255 255-114.17 255-255-114.17-255-255-255m8.827 44.931c120.9 0 218.9 98 218.9 218.9s-98 218.9-218.9 218.9-218.93-98-218.93-218.9 98.03-218.9 218.93-218.9" fill-opacity=".067"/>
  <g fill-opacity=".129">
   <path d="m256 4.433c-138.94 0-251.57 112.63-251.57 251.57s112.63 251.57 251.57 251.57 251.57-112.63 251.57-251.57-112.63-251.57-251.57-251.57m5.885 38.556c120.9 0 218.9 98 218.9 218.9s-98 218.9-218.9 218.9-218.93-98-218.93-218.9 98.03-218.9 218.93-218.9"/>
   <path d="m256 8.356c-136.77 0-247.64 110.87-247.64 247.64s110.87 247.64 247.64 247.64 247.64-110.87 247.64-247.64-110.87-247.64-247.64-247.64m2.942 31.691c120.9 0 218.9 98 218.9 218.9s-98 218.9-218.9 218.9-218.93-98-218.93-218.9 98.03-218.9 218.93-218.9"/>
  </g>
  <path d="m253.04 7.859c-135.42 0-245.19 109.78-245.19 245.19 0 135.42 109.78 245.19 245.19 245.19 135.42 0 245.19-109.78 245.19-245.19 0-135.42-109.78-245.19-245.19-245.19zm0 26.297c120.9 0 218.9 98 218.9 218.9s-98 218.9-218.9 218.9-218.93-98-218.93-218.9 98.03-218.9 218.93-218.9z" fill="#ffffff" stroke="#000000" stroke-opacity=".31" stroke-width="4.904"/>
 </g>
 <path d="m262.8 115.16c-13.22.303-26.23 2.238-38.824 5.681 3.092 1.374 6.141 2.838 9.307 4.132 7.473-2.785 18.822-5.686 34.3-5.423 15.756.268 40.769 7.364 55.31 11.878-13.00183-7.29936-27.08296-12.6122-41.749-15.752-.271-.026-.529.027-.797 0-5.857-.467-11.718-.651-17.551-.517m-10.11 10.07c-6.094.287-10.951.707-15.16 1.291 2.158.856 4.215 1.755 6.382 2.582.277 0 .52-.001.797 0 19.93.09 43.28 4.564 70.47 14.202-17.13-4.257-34.436-6.782-51.06-6.714 21.735 7.925 41.625 15.283 52.12 24.531l-1.064 10.587c0 0 46.37 20 76.58 46.22-9.89462-35.58405-33.63536-66.04466-66.214-84.956-31.15-7.247-55.63-8.558-72.862-7.747m-47.865 2.324c.243 2.966.601 5.603 1.33 8.01 2.389-.89 4.902-1.871 7.446-2.582-2.916-1.625-5.901-3.299-8.775-5.423m-14.09 6.972c-48.996 27.586-83.15 85.19-74.19 175.85.008.088-.008.172 0 .258 2.05946 4.59114 4.36731 9.07339 6.9139 13.428-3.473-41.29-2.076-70.62 12.498-113.62 0 0-12.04 55.727 5.05 137.63.019.087-.019.17 0 .256 3.11541 3.42249 6.39888 6.69715 9.839 9.8126-18.56-75.56-19.655-181.51 43.08-216.91-1.15-1.997-2.263-4.248-3.191-6.714m39.622 6.198c-6.06 1.584-11.744 3.864-17.285 6.456 8.142 8.208 20.09 9.459 25.794 9.04 0 0-20.05 6.77-35.37-4.132-56.90769 90.71556-80.18922 241.9099 47.06724 244.801 87.08363-.0357 154.87594-73.44865 145.46-157.52-5.398 8.126-12.233 21.01-15.689 38.992 0 0-70.28-45.23-125.78-10.587 0 0-76.29-37.16-28.719-89.35 0 0 14.675 7.682 22.603 11.1-39.2 27.802 8.775 61.2 8.775 61.2 0 0 39.02-37.526 113.02 4.39 74 41.916 5.359-17.07 11.966-20.916-36.998-34.645-87.75-51.904-87.75-51.904l1.064-15.235c-31.14-14.992-50.34-20.765-65.15-26.339m33.772 26.08c0 0 14.84 4.648 22.337 4.648 7.497 0 .517 10.698-10.1 13.428-8.122-2.427-12.232-18.08-12.232-18.08" fill="#ffffff"/>
</svg>
