<svg width="512" height="512" version="1.1" viewBox="0 0 512 512" xmlns="http://www.w3.org/2000/svg">
 <path d="m471.95 253.05c0 120.9-98.01 218.9-218.9 218.9-120.9 0-218.9-98.01-218.9-218.9 0-120.9 98.01-218.9 218.9-218.9 120.9 0 218.9 98.01 218.9 218.9" fill="#8197dd" fill-rule="evenodd"/>
 <path d="m171.94 177.06c-40.876 0-73.78 32.937-73.78 73.813v10.25c0 20.845 8.567 39.631 22.375 53.03.062.063.125.125.188.188.154.148.314.291.469.438.32.327.643.648.969.969.257.263.52.522.781.781.421.434.819.889 1.25 1.313.33.337.664.67 1 1 .428.437.874.855 1.313 1.281.253.255.524.499.781.75.263.268.514.549.781.813.272.279.567.538.844.813.421.434.819.889 1.25 1.313.33.337.664.67 1 1 .428.437.874.855 1.313 1.281.253.255.524.499.781.75.289.294.581.586.875.875.242.248.473.506.719.75.426.439.845.884 1.281 1.313.33.337.664.67 1 1 .423.431.879.829 1.313 1.25.259.261.519.524.781.781.289.294.581.586.875.875.242.248.473.506.719.75.426.439.845.884 1.281 1.313.33.337.664.67 1 1 .33.337.664.67 1 1 .428.437.874.855 1.313 1.281.062.063.125.125.188.188.154.148.314.291.469.438.32.327.643.648.969.969.257.263.52.522.781.781.421.434.819.889 1.25 1.313.33.337.664.67 1 1 .428.437.874.855 1.313 1.281.253.255.524.499.781.75.289.294.581.586.875.875.248.253.498.5.75.75.421.434.819.889 1.25 1.313.33.337.664.67 1 1 .423.431.879.829 1.313 1.25.259.261.519.524.781.781.289.294.581.586.875.875.242.248.473.506.719.75.426.439.845.884 1.281 1.313.33.337.664.67 1 1 .33.337.664.67 1 1 .428.437.874.855 1.313 1.281.062.063.125.125.188.188.154.148.314.291.469.438.32.327.643.648.969.969.257.263.52.522.781.781.421.434.819.889 1.25 1.313.33.337.664.67 1 1 .428.437.874.855 1.313 1.281.253.255.524.499.781.75.263.268.514.549.781.813.272.279.567.538.844.813.421.434.819.889 1.25 1.313.33.337.664.67 1 1 .428.437.874.855 1.313 1.281.253.255.524.499.781.75.289.294.581.586.875.875.242.248.473.506.719.75.426.439.845.884 1.281 1.313.33.337.664.67 1 1 .423.431.879.829 1.313 1.25.259.261.519.524.781.781.289.294.581.586.875.875.242.248.473.506.719.75.426.439.845.884 1.281 1.313.33.337.664.67 1 1 .33.337.664.67 1 1 .428.437.874.855 1.313 1.281.062.063.125.125.188.188.154.148.314.291.469.438.32.327.643.648.969.969.257.263.52.522.781.781.421.434.819.889 1.25 1.313.33.337.664.67 1 1 .428.437.874.855 1.313 1.281.253.255.524.499.781.75.289.294.581.586.875.875.248.253.498.5.75.75.421.434.819.889 1.25 1.313.33.337.664.67 1 1 .423.431.879.829 1.313 1.25.259.261.519.524.781.781.289.294.581.586.875.875.242.248.473.506.719.75.426.439.845.884 1.281 1.313.33.337.664.67 1 1 .33.337.664.67 1 1 .428.437.874.855 1.313 1.281.062.063.125.125.188.188.154.148.314.291.469.438.32.327.643.648.969.969.257.263.52.522.781.781.421.434.819.889 1.25 1.313.33.337.664.67 1 1 .428.437.874.855 1.313 1.281.253.255.524.499.781.75.263.268.514.549.781.813.272.279.567.538.844.813.421.434.819.889 1.25 1.313.33.337.664.67 1 1 .428.437.874.855 1.313 1.281.253.255.524.499.781.75.289.294.581.586.875.875.242.248.473.506.719.75.426.439.845.884 1.281 1.313.33.337.664.67 1 1 .423.431.879.829 1.313 1.25.259.261.519.524.781.781.289.294.581.586.875.875.242.248.473.506.719.75.426.439.845.884 1.281 1.313.33.337.664.67 1 1 .33.337.664.67 1 1 .428.437.874.855 1.313 1.281.062.063.125.125.188.188.154.148.314.291.469.438.32.327.643.648.969.969.257.263.52.522.781.781.421.434.819.889 1.25 1.313.33.337.664.67 1 1 .428.437.874.855 1.313 1.281.253.255.524.499.781.75.289.294.581.586.875.875.248.253.498.5.75.75.421.434.819.889 1.25 1.313.33.337.664.67 1 1 .423.431.879.829 1.313 1.25.259.261.519.524.781.781.289.294.581.586.875.875.242.248.473.506.719.75.426.439.845.884 1.281 1.313.33.337.664.67 1 1 .423.431.879.829 1.313 1.25.259.261.519.524.781.781.289.294.581.586.875.875.32.327.643.648.969.969.257.263.52.522.781.781.421.434.819.889 1.25 1.313.33.337.664.67 1 1 .428.437.874.855 1.313 1.281.253.255.524.499.781.75.263.268.514.549.781.813.272.279.567.538.844.813.421.434.819.889 1.25 1.313.33.337.664.67 1 1 .428.437.874.855 1.313 1.281.253.255.524.499.781.75.289.294.581.586.875.875.242.248.473.506.719.75.426.439.845.884 1.281 1.313.33.337.664.67 1 1 .423.431.879.829 1.313 1.25.259.261.519.524.781.781.289.294.581.586.875.875.242.248.473.506.719.75.426.439.845.884 1.281 1.313.33.337.664.67 1 1 .33.337.664.67 1 1 .428.437.874.855 1.313 1.281.062.063.125.125.188.188.021.02.041.042.063.063 101.75-11.07 182.54-91.84 193.63-193.59-.409-.424-.798-.868-1.219-1.281-.33-.337-.664-.67-1-1-.49-.5-.996-.983-1.5-1.469-.192-.192-.4-.373-.594-.563-.32-.326-.642-.649-.969-.969-.147-.155-.289-.315-.438-.469-.062-.063-.125-.125-.188-.188-.426-.439-.845-.884-1.281-1.313-.33-.337-.664-.67-1-1-.49-.5-.996-.983-1.5-1.469-.192-.192-.4-.373-.594-.563-.32-.326-.642-.649-.969-.969-.289-.295-.581-.585-.875-.875-.257-.263-.52-.522-.781-.781-.421-.434-.819-.889-1.25-1.313-.33-.337-.664-.67-1-1-.49-.5-.996-.983-1.5-1.469-.182-.182-.378-.351-.563-.531-.289-.295-.581-.585-.875-.875-.257-.263-.52-.522-.781-.781-.421-.434-.819-.889-1.25-1.313-.33-.337-.664-.67-1-1-.49-.5-.996-.983-1.5-1.469-.192-.192-.4-.373-.594-.563-.32-.326-.642-.649-.969-.969-.147-.155-.289-.315-.438-.469-.068-.068-.15-.12-.219-.188-.421-.434-.819-.889-1.25-1.313-.33-.337-.664-.67-1-1-.49-.5-.996-.983-1.5-1.469-.192-.192-.4-.373-.594-.563-.32-.326-.642-.649-.969-.969-.147-.155-.289-.315-.438-.469-.062-.063-.125-.125-.188-.188-.426-.439-.845-.884-1.281-1.313-.33-.337-.664-.67-1-1-.33-.337-.664-.67-1-1-.49-.5-.996-.983-1.5-1.469-.182-.182-.378-.351-.563-.531-.289-.294-.581-.585-.875-.875-.257-.263-.52-.522-.781-.781-.421-.434-.819-.889-1.25-1.313-.33-.337-.664-.67-1-1-.49-.5-.996-.983-1.5-1.469-.207-.207-.416-.42-.625-.625-.264-.268-.545-.518-.813-.781-.257-.263-.52-.522-.781-.781-.421-.434-.819-.889-1.25-1.313-.33-.337-.664-.67-1-1-.49-.5-.996-.983-1.5-1.469-.192-.192-.4-.373-.594-.563-.32-.326-.642-.649-.969-.969-.147-.155-.289-.315-.438-.469-.062-.063-.125-.125-.188-.188-.426-.439-.845-.884-1.281-1.313-.33-.337-.664-.67-1-1-.49-.5-.996-.983-1.5-1.469-.192-.192-.4-.373-.594-.563-.32-.326-.642-.649-.969-.969-.147-.155-.289-.315-.438-.469-.062-.063-.125-.125-.188-.188-.426-.439-.845-.884-1.281-1.313-.33-.337-.664-.67-1-1-.33-.337-.664-.67-1-1-.49-.5-.996-.983-1.5-1.469-.182-.182-.378-.351-.563-.531-.289-.294-.581-.585-.875-.875-.257-.263-.52-.522-.781-.781-.421-.434-.819-.889-1.25-1.313-.33-.337-.664-.67-1-1-.49-.5-.996-.983-1.5-1.469-.192-.192-.4-.373-.594-.563-.32-.326-.642-.649-.969-.969-.147-.155-.289-.315-.438-.469-.068-.068-.15-.12-.219-.188-.421-.434-.819-.889-1.25-1.313-.33-.337-.664-.67-1-1-.49-.5-.996-.983-1.5-1.469-.192-.192-.4-.373-.594-.563-.32-.326-.642-.649-.969-.969-.147-.155-.289-.315-.438-.469-.062-.063-.125-.125-.188-.188-.426-.439-.845-.884-1.281-1.313-.33-.337-.664-.67-1-1-.33-.337-.664-.67-1-1-13.373-13.639-32.03-22.06-52.719-22.06h-168.12" fill-opacity=".235"/>
 <g fill-rule="evenodd">
  <path d="m256 1c-140.83 0-255 114.17-255 255s114.17 255 255 255 255-114.17 255-255-114.17-255-255-255m8.827 44.931c120.9 0 218.9 98 218.9 218.9s-98 218.9-218.9 218.9-218.93-98-218.93-218.9 98.03-218.9 218.93-218.9" fill-opacity=".067"/>
  <g fill-opacity=".129">
   <path d="m256 4.433c-138.94 0-251.57 112.63-251.57 251.57s112.63 251.57 251.57 251.57 251.57-112.63 251.57-251.57-112.63-251.57-251.57-251.57m5.885 38.556c120.9 0 218.9 98 218.9 218.9s-98 218.9-218.9 218.9-218.93-98-218.93-218.9 98.03-218.9 218.93-218.9"/>
   <path d="m256 8.356c-136.77 0-247.64 110.87-247.64 247.64s110.87 247.64 247.64 247.64 247.64-110.87 247.64-247.64-110.87-247.64-247.64-247.64m2.942 31.691c120.9 0 218.9 98 218.9 218.9s-98 218.9-218.9 218.9-218.93-98-218.93-218.9 98.03-218.9 218.93-218.9"/>
  </g>
  <path d="m253.04 7.859c-135.42 0-245.19 109.78-245.19 245.19 0 135.42 109.78 245.19 245.19 245.19 135.42 0 245.19-109.78 245.19-245.19 0-135.42-109.78-245.19-245.19-245.19zm0 26.297c120.9 0 218.9 98 218.9 218.9s-98 218.9-218.9 218.9-218.93-98-218.93-218.9 98.03-218.9 218.93-218.9z" fill="#ffffff" stroke="#000000" stroke-opacity=".31" stroke-width="4.904"/>
 </g>
 <path d="m171.94 177.06c-40.874 0-73.779 32.936-73.779 73.812v10.25c0 40.876 32.903 73.812 73.779 73.812h168.12c40.874 0 73.779-32.936 73.779-73.812v-10.25c0-40.873-32.898-73.807-73.77-73.812h-168.13zm5.1309 20.969c32.016 0 57.969 25.949 57.969 57.969 0 32.016-25.949 57.969-57.969 57.969-32.016 0-57.969-25.949-57.969-57.969 0-32.016 25.949-57.969 57.969-57.969zm139.31 3.1582 1.4082 2.4707c0.77459 1.3591 6.4519 12.164 12.615 24.012 6.1633 11.847 18.59 35.668 27.617 52.934 12.667 24.228 16.239 31.503 15.648 31.877-0.42089 0.26671-5.4931 0.48738-11.271 0.49219l-10.506 0.00976-3.0996-3.1426c-7.7732-7.882-21.36-15.026-36.543-19.219l-6.8027-1.8789 8.5039-0.42578c7.9877-0.40063 16.999-0.13155 21.926 0.65625 1.6467 0.26334 2.166 0.15597 2.166-0.44922 0-1.4952-20.844-39.596-21.662-39.596-0.59614 0-4.8044 7.3346-21.139 36.846-8.0242 14.497-14.633 26.413-14.688 26.479-0.2418 0.29342-23.006 0.87132-23.006 0.58399 0-0.38382 55.677-106.29 57.543-109.46l1.2891-2.1875z" fill="#ffffff"/>
</svg>
