<svg height="512" viewBox="0 0 512 512" width="512" xmlns="http://www.w3.org/2000/svg">
 <path d="m471.95 253.05c0 120.9-98.01 218.9-218.9 218.9-120.9 0-218.9-98.01-218.9-218.9 0-120.9 98.01-218.9 218.9-218.9 120.9 0 218.9 98.01 218.9 218.9" fill="#0063bc" fill-opacity=".671" fill-rule="evenodd"/>
 <path d="m256 1c-140.83 0-255 114.17-255 255 0 140.83 114.17 255 255 255 140.83 0 255-114.17 255-255 0-140.83-114.17-255-255-255m8.827 44.931c120.9 0 218.9 98 218.9 218.9 0 120.9-98 218.9-218.9 218.9-120.9 0-218.93-98-218.93-218.9 0-120.9 98.03-218.9 218.93-218.9" fill-opacity=".067" fill-rule="evenodd"/>
 <g fill-opacity=".129" fill-rule="evenodd">
  <path d="m256 4.433c-138.94 0-251.57 112.63-251.57 251.57 0 138.94 112.63 251.57 251.57 251.57 138.94 0 251.57-112.63 251.57-251.57 0-138.94-112.63-251.57-251.57-251.57m5.885 38.556c120.9 0 218.9 98 218.9 218.9 0 120.9-98 218.9-218.9 218.9-120.9 0-218.93-98-218.93-218.9 0-120.9 98.03-218.9 218.93-218.9"/>
  <path d="m256 8.356c-136.77 0-247.64 110.87-247.64 247.64 0 136.77 110.87 247.64 247.64 247.64 136.77 0 247.64-110.87 247.64-247.64 0-136.77-110.87-247.64-247.64-247.64m2.942 31.691c120.9 0 218.9 98 218.9 218.9 0 120.9-98 218.9-218.9 218.9-120.9 0-218.93-98-218.93-218.9 0-120.9 98.03-218.9 218.93-218.9"/>
 </g>
 <path d="m253.04 7.859c-135.42 0-245.19 109.78-245.19 245.19 0 135.42 109.78 245.19 245.19 245.19 135.42 0 245.19-109.78 245.19-245.19 0-135.42-109.78-245.19-245.19-245.19zm0 26.297c120.9 0 218.9 98 218.9 218.9 0 120.9-98 218.9-218.9 218.9-120.9 0-218.93-98-218.93-218.9 0-120.9 98.03-218.9 218.93-218.9z" fill="#ffffff" fill-rule="evenodd" stroke="#000000" stroke-opacity=".31" stroke-width="4.904"/>
 <g transform="matrix(12.152702 0 0 12.152702 -45.710008 -60.383173)">
  <path d="m17.508 29.16c.355-.59.68-2.715.559-3.934-.09-.926-.367-1.609-.813-2.027-.211-.195-.367-.281-.879-.48-.543-.211-1.031-.527-1.516-.98l-.402-.375.105-.25c.059-.141.156-.504.219-.813.598-3.074 1.73-5 5.203-6.551.742.145 2.332-.336 3.055-.488 1.563-.336 1.348.91 2.848 1.199.988.191 1.371.305 1.848.547.418.207 1.01.758 1.227 1.137.309.539.281 1.293-.121 3.273-.391 1.93-.383 2.063.262 4.172.484 1.59 1.461 2.637 1.496 3.434-.848 3.516-2.707 5.664-4.719 8.891-3.18.262-4.77-.164-7.953-.141 1.891-3.066.215-3.969-.418-6.613m0 0" fill="#ffffff"/>
  <path d="m14.504 21.281c1.379 1.602 2.082 1.395 2.566 1.73.457.316 1.098 1.012 1.082 2.848-.016 1.863-.59 3.379-.645 3.379-5.148-4.16-13.789.207-8.184-4.125 1.566-1.016 3.01-2.113 4.594-3.293m.586-.539" fill="#2d2d2d"/>
  <path d="m19.984 13.75c0 0 .855.734 2.371 1.477 2.152 1.059 3.371 4.508 3.25 7.379-.109 1.746 2.313 5.5 2.01 7.906-.492 3.887-1.75 5.406-1.75 5.406 0 0 5.625-1.746 9.988-2.273 2.777-.336 4.383.203 4.648-.723-3.125-7.01-11.188-14.32-7.03-16.84.379-.23 1.012-.133 1.453-.566.793-6.316-12.285-2.301-14.938-1.766m0 0" fill="#2e69b0"/>
  <path d="m33.844 12.844c-1.867-.113-4.02 1.418-5.75 2.938-1.727 1.52-3 3.063-3 3.063l-.063.063v.094c0 0 .086 1.121.063 2.469-.023 1.348-.156 2.93-.563 3.75-.535 1.078-1.098 1.961-1.688 2.5-.203.184-.469.422-.656.625-.094.102-.168.199-.219.313-.012.027-.027.043-.031.094-.004.051.012.125.063.188.051.063.109.086.156.094.047.008.09.004.125 0 1.027-.18 2.094-.879 2.938-1.531.844-.652 1.438-1.281 1.438-1.281h.031l5.625-7.313.031-.063v-.063c0 0 .035-.52.156-1.094.059-.285.145-.602.25-.844.105-.242.25-.398.375-.469.41-.242.918-.387 1.281-.531.109-.043.195-.078.281-.125.086-.047.164-.125.219-.219.184-.313.086-.648.063-.875-.016-.156-.074-.324-.125-.469-.051-.145-.094-.25-.094-.25 0 0-.164-.395-.344-.625-.035-.047-.105-.129-.188-.219-.082-.09-.199-.207-.375-.219m-12.719 5.563c-.234.023-.488.086-.719.188-.457.199-.82.531-1.031.906-.211.375-.262.797-.094 1.188.168.391.523.68.938.781.414.102.918.043 1.375-.156.457-.199.82-.531 1.031-.906.211-.375.262-.828.094-1.219-.168-.391-.523-.648-.938-.75-.207-.051-.422-.055-.656-.031m0 0" fill="#2d2d2d"/>
 </g>
</svg>
