<svg height="512" viewBox="0 0 512 512" width="512" xmlns="http://www.w3.org/2000/svg">
 <path d="m471.95 253.05c0 120.9-98.01 218.9-218.9 218.9-120.9 0-218.9-98.01-218.9-218.9 0-120.9 98.01-218.9 218.9-218.9 120.9 0 218.9 98.01 218.9 218.9" fill="#0078ad" fill-rule="evenodd"/>
 <path d="m384.5 126.94l-24.844 24.875c17.67 18.606 30.518 41.839 36.563 67.69-.105-.106-.207-.207-.313-.313h-.031c-.093-.096-.188-.186-.281-.281-.552-.583-1.117-1.147-1.688-1.719l-.031.031c-.087-.09-.162-.192-.25-.281-.56-.59-1.141-1.171-1.719-1.75l-.031.031c-.322-.332-.61-.672-.938-1l-.031.031c-.077-.079-.141-.171-.219-.25-.571-.602-1.161-1.191-1.75-1.781l-.031.031c-.066-.069-.121-.15-.188-.219-.578-.61-1.185-1.215-1.781-1.813l-.031.031c-.056-.058-.1-.13-.156-.188-.585-.617-1.208-1.238-1.813-1.844l-.031.031c-.046-.048-.078-.108-.125-.156-.593-.625-1.201-1.231-1.813-1.844l-.031.031c-.046-.048-.079-.109-.125-.156-.6-.633-1.224-1.255-1.844-1.875l-.031.031c-.036-.037-.058-.088-.094-.125-.607-.64-1.248-1.278-1.875-1.906l-.031.031c-.026-.027-.037-.067-.063-.094-.615-.648-1.241-1.271-1.875-1.906l-.031.031c-.026-.027-.037-.067-.063-.094-.622-.656-1.264-1.294-1.906-1.938l-.031.031c-.015-.016-.016-.047-.031-.063-.629-.664-1.288-1.318-1.938-1.969l-.031.031c-.322-.331-.611-.673-.938-1l-.031.031c-.329-.338-.635-.697-.969-1.031l-.031.031c-.33-.34-.633-.695-.969-1.031l-.031.031c-.327-.336-.636-.698-.969-1.031l-.031.031c-.329-.338-.635-.696-.969-1.031l-.031.031c-.326-.335-.638-.7-.969-1.031l-.031.031c-.328-.337-.636-.698-.969-1.031l-.031.031c-.319-.328-.613-.675-.938-1l-.031.031c-.331-.341-.632-.694-.969-1.031l-.031.031c-.328-.337-.635-.697-.969-1.031l-.031.031c-.33-.339-.634-.695-.969-1.031l-.031.031c-.327-.336-.637-.699-.969-1.031l-.031.031c-.28-.294-.56-.583-.844-.875-.36-.379-.728-.749-1.094-1.125h-.031c-.268-.275-.541-.54-.813-.813-.01-.011-.021-.021-.031-.031-.368-.388-.75-.772-1.125-1.156h-.031c-.267-.274-.542-.541-.813-.813-.699-.737-1.435-1.465-2.156-2.188l-.031.031c-.321-.329-.612-.674-.938-1l-.031.031c-.329-.337-.636-.697-.969-1.031l-.031.031c-.33-.339-.634-.696-.969-1.031l-.031.031c-.327-.336-.637-.699-.969-1.031l-.031.031c-.329-.337-.635-.697-.969-1.031l-.031.031c-.326-.334-.638-.7-.969-1.031l-.031.031c-.322-.33-.611-.673-.938-1l-.031.031c-.329-.338-.635-.697-.969-1.031l-.031.031c-.647-.678-1.303-1.364-1.969-2.031l-23.12 23.19c.36.361.71.729 1.063 1.094.105.177.089.41-.063.563.409.41.819.803 1.219 1.219-.038.157-.096.283-.219.406.419.419.841.856 1.25 1.281-.065.134-.139.263-.25.375.424.425.836.85 1.25 1.281-.075.125-.142.267-.25.375.431.432.86.843 1.281 1.281-.084.128-.2.231-.313.344.436.437.856.901 1.281 1.344-.08.109-.183.214-.281.313.432.433.86.873 1.281 1.313-.087.114-.177.239-.281.344.429.43.863.845 1.281 1.281-.092.119-.172.234-.281.344.432.433.86.873 1.281 1.313-.092.115-.175.237-.281.344.434.435.858.871 1.281 1.313-.092.112-.177.239-.281.344.436.437.856.869 1.281 1.313-.091.108-.179.21-.281.313.439.44.854.897 1.281 1.344-.089.104-.183.214-.281.313.436.436.857.869 1.281 1.313-.096.112-.207.238-.313.344.433.434.859.872 1.281 1.313-.095.108-.178.209-.281.313.431.432.861.874 1.281 1.313-.097.111-.176.238-.281.344.438.439.854.898 1.281 1.344-.093.105-.181.212-.281.313.435.436.858.87 1.281 1.313-.094.105-.18.212-.281.313.438.439.886.867 1.313 1.313-.104.117-.201.232-.313.344.435.435.858.87 1.281 1.313-.095.105-.18.211-.281.313.438.438.855.898 1.281 1.344-.096.105-.18.211-.281.313.434.435.858.87 1.281 1.313-.102.112-.205.236-.313.344.432.433.861.873 1.281 1.313-.095.103-.181.212-.281.313.259.259.527.519.781.781.09.277.163.566.25.844-.01.011-.021.021-.031.031l.063.063c2.921 9.347 4.3 19.05 4.188 28.75-.002-.002-.443-.416-.5-.469-.156-.193-.315-.361-.5-.531l-.5-.469c-.154-.19-.318-.364-.5-.531-.002-.002-.533-.508-.625-.594-.12-.136-.24-.282-.375-.406l-.563-.531c-.137-.162-.279-.323-.438-.469-.002-.002-.414-.387-.469-.438-.157-.193-.346-.392-.531-.563-.002-.002-.413-.385-.469-.438-.158-.195-.345-.391-.531-.563-.002-.002-.411-.384-.469-.438-.159-.196-.312-.358-.5-.531-.002-.002-.523-.499-.625-.594-.123-.141-.236-.278-.375-.406-.002-.002-.409-.382-.469-.438-.161-.198-.341-.387-.531-.563-.002-.002-.407-.381-.469-.438-.162-.199-.34-.386-.531-.563-.002-.002-.429-.403-.5-.469-.154-.186-.32-.366-.5-.531-.002-.002-.491-.468-.594-.563-.126-.144-.264-.306-.406-.438-.002-.002-.379-.352-.438-.406-.165-.203-.336-.383-.531-.563-.002-.002-.423-.398-.5-.469-.157-.189-.317-.363-.5-.531-.002-.002-.377-.35-.438-.406-.171-.213-.358-.406-.563-.594-.002-.002-.481-.458-.594-.563-.129-.148-.26-.303-.406-.438l-.469-.438c-.159-.193-.345-.391-.531-.563-.002-.002-.371-.345-.438-.406-.167-.205-.366-.412-.563-.594l-.438-.406c-.168-.206-.333-.38-.531-.563-.002-.002-.468-.446-.594-.563-.132-.151-.257-.3-.406-.438l-.594-.563c-.133-.152-.256-.299-.406-.438-.002-.002-.363-.337-.438-.406-.171-.209-.361-.408-.563-.594l-.469-.438c-.163-.196-.341-.388-.531-.563-.002-.002-.433-.411-.563-.531-.136-.155-.285-.328-.438-.469l-.563-.531c-.136-.155-.284-.327-.438-.469-.002-.002-.35-.326-.438-.406-.166-.199-.338-.385-.531-.563l-.469-.438c-.167-.201-.337-.384-.531-.563-.002-.002-.344-.32-.438-.406-.174-.213-.358-.405-.563-.594l-.563-.531c-.139-.159-.28-.324-.438-.469-.002-.002-.334-.31-.438-.406-.169-.204-.365-.412-.563-.594-.002-.002-.329-.306-.438-.406-.17-.205-.364-.411-.563-.594-.002-.002-.322-.3-.438-.406-.169-.203-.334-.381-.531-.563-.002-.002-.375-.358-.563-.531-.142-.162-.277-.321-.438-.469-.002-.002-.311-.289-.438-.406-.173-.208-.361-.408-.563-.594-.002-.001-.304-.283-.438-.406-.172-.206-.362-.409-.563-.594-.002-.002-.294-.274-.438-.406-.173-.208-.361-.408-.563-.594-.002-.002-.321-.305-.531-.5-.145-.166-.305-.349-.469-.5-.002-.002-.306-.292-.531-.5-.146-.167-.273-.317-.438-.469-.002-.002-.269-.25-.438-.406-.176-.211-.358-.406-.563-.594-.002-.001-.245-.225-.406-.375-.184-.224-.377-.426-.594-.625-.002-.002-.274-.262-.531-.5-.148-.169-.301-.346-.469-.5-.002-.002-.264-.253-.531-.5-.149-.17-.301-.345-.469-.5-.002-.001-.207-.19-.406-.375-.179-.215-.385-.433-.594-.625-.002-.002-.186-.169-.375-.344-.188-.229-.373-.422-.594-.625-.002-.002-.563-.531-.563-.531-.143-.161-.278-.322-.438-.469-.001-.001-.375-.344-.375-.344l-.156-.156c-.152-.174-.297-.342-.469-.5l-.188-.188-.313-.313c-.153-.175-.327-.341-.5-.5l-36.406-33.719c-1.306-1.2-3.042-1.82-4.813-1.719-3.465.197-6.179 3.06-6.188 6.531v61.875c-.085.073-4.122 3.602-5.5 4.781h-.031l-.813-.813-.906-.906c-.007-.007-.729-.728-.875-.875l-.906-.906c-.007-.007-.731-.73-.875-.875-.007-.007-.733-.732-.875-.875l-.906-.906-.875-.875c-.007-.007-.759-.758-.906-.906l-.875-.875c-.007-.007-.739-.738-.875-.875l-.906-.906-.875-.875c-.007-.007-.743-.742-.875-.875l-.906-.906-.875-.875-.906-.906c-.014-.014-1.29-1.288-1.75-1.75-.014-.014-1.316-1.314-1.781-1.781l-.906-.906-.875-.875c-.007-.007-.753-.752-.875-.875-.007-.007-.777-.776-.906-.906-.007-.007-.755-.754-.875-.875-.326-.327-1.438-1.469-1.438-1.469-.049-.049-.194-.163-.25-.219l-.094-.094c-.014-.014-1.342-1.341-1.781-1.781l-.875-.875-1.781-1.781-.875-.875-.906-.906-.875-.875-1.781-1.781-.875-.875-.188-.188-.094-.094-.031-.031c-.006-.006.006-.025 0-.031l-1.469-1.438-.875-.875-.906-.906-.875-.875-1.781-1.781-.875-.875-1.781-1.781-1.781-1.781-.875-.875-1.781-1.781-1.781-1.781-.875-.875-.063-.063-.125-.125-.094-.125-.031-.031-.125-.125-.219-.219-.625-.625h-.031l-.469-.469-1.125-1.125-.156-.156-.125-.156-.031-.031-.031-.031-.188-.188-.156-.156-.5-.5-.031-.031h-.031l-.281-.281-1.781-1.781-2.656-2.656-1.781-1.781-2.594-2.594-.063-.063c-.034-.035-2.744-2.739-4.438-4.438v-.031l-.031-.031-.219-.219-.219-.219-1.438-1.438-.469-.438-.281-.281-1.781-1.781-2.656-2.656-.813-.813-3.625-3.625-.75-.75-.125-.125-.156-.156-.281-.281-.063-.063-.031-.063-1.656-1.656-1.375-1.344-.063-.063-.219-.219-.688-.688-.156-.156-.063-.094-.031-.031-.031-.031-.031-.031-1.094-1.094-.906-.906h-.031l-3.594-3.594-.063-.063-.125-.125-3.03-3.03-1.719-1.75-1.031-1.031-.031-.031-2.531-2.531-4.406-4.406-7.938-7.938c-4.322-4.334-8.969-8.969-8.969-8.969-70.884 71.03-71.07 186.57-.281 257.5.331.336.666.666 1 1 .329.335.668.667 1 1 .33.336.666.666 1 1 .322.327.644.643.969.969.33.336.667.666 1 1 .332.338.665.664 1 1 .33.336.667.666 1 1 .33.336.667.666 1 1 .33.336.667.666 1 1 .321.327.645.644.969.969.331.337.665.665 1 1 .331.337.666.665 1 1 .329.335.667.667 1 1 .331.337.666.665 1 1 .329.335.668.667 1 1 .322.328.643.643.969.969.005.005.026-.005.031 0 .649.672 1.306 1.336 1.969 2 .33.337.666.666 1 1l .031-.031c.33.337.635.697.969 1.031l.031-.031c.646.67 1.277 1.338 1.938 2l .031-.031c.656.681 1.298 1.36 1.969 2.031l.031-.031c.041.043.084.082.125.125.291.296.55.612.844.906l.031-.031c.652.676 1.303 1.364 1.969 2.031l.031-.031c.051.054.105.103.156.156.278.283.531.593.813.875l.031-.031c.644.669 1.279 1.34 1.938 2l .031-.031c.071.075.148.144.219.219.072.074.147.145.219.219.02.021.042.041.063.063.493.508.967 1.029 1.469 1.531.329.335.668.667 1 1l .031-.031c.081.086.169.164.25.25.062.064.126.124.188.188.015.016.016.046.031.063.49.505.97 1 1.469 1.5.33.337.666.665 1 1l .031-.031c.652.679 1.301 1.362 1.969 2.031l.031-.031c.112.119.232.225.344.344.542.56 1.072 1.134 1.625 1.688.321.328.644.643.969.969l.031-.031c.123.128.252.248.375.375.01.011.021.021.031.031.524.542 1.028 1.09 1.563 1.625.329.336.667.666 1 1l .031-.031c.649.677 1.303 1.364 1.969 2.031.327.334.669.669 1 1 .322.329.643.642.969.969.33.338.665.665 1 1l .031-.031c.652.681 1.3 1.361 1.969 2.031.328.335.668.667 1 1l .031-.031c.102.107.21.206.313.313.082.086.168.164.25.25.464.479.902.964 1.375 1.438.329.337.666.666 1 1 .331.339.664.663 1 1 .329.337.666.666 1 1 .327.335.669.668 1 1 .329.337.667.666 1 1 .321.328.644.643.969.969.329.337.667.666 1 1 .331.339.665.664 1 1 .328.336.667.667 1 1 .33.339.665.664 1 1 .328.336.667.667 1 1 .32.328.644.644.969.969.332.341.663.662 1 1 .33.338.666.665 1 1 .327.336.668.667 1 1 .329.338.666.665 1 1 .644.677 1.337 1.335 2 2 .321.329.643.642.969.969.329.337.666.666 1 1 .331.34.664.663 1 1 .328.337.667.666 1 1 .326.335.669.669 1 1 .328.337.667.666 1 1 .64.675 1.308 1.307 1.969 1.969l.031-.031c.33.339.633.695.969 1.031l.031-.031c.644.68 1.303 1.365 1.969 2.031l.031-.031c.02.022.042.041.063.063.118.121.229.25.344.375 13.843 2.744 28.13 4.219 42.781 4.219 120.9 0 218.91-98.01 218.91-218.91 0-14.662-1.439-28.99-4.188-42.844-.214-.233-.431-.462-.656-.688l-.031.031c-.332-.338-.633-.695-.969-1.031l-.031.031c-.329-.335-.636-.698-.969-1.031l-.031.031c-.329-.335-.636-.698-.969-1.031l-.031.031c-.329-.335-.636-.698-.969-1.031l-.031.031c-.322-.328-.612-.674-.938-1l-.031.031c-.332-.338-.633-.695-.969-1.031l-.031.031c-.332-.338-.633-.695-.969-1.031l-.031.031c-.329-.335-.636-.698-.969-1.031l-.031.031c-.329-.335-.636-.698-.969-1.031l-.031.031c-.329-.335-.636-.698-.969-1.031l-.031.031c-.322-.328-.612-.674-.938-1l-.031.031c-.332-.338-.633-.695-.969-1.031l-.031.031c-.655-.677-1.301-1.362-1.969-2.031l-.031.031c-.329-.335-.636-.698-.969-1.031l-.031.031c-.329-.335-.636-.698-.969-1.031l-.031.031c-.329-.335-.636-.698-.969-1.031l-.031.031c-.322-.328-.612-.674-.938-1l-.031.031c-.655-.677-1.301-1.362-1.969-2.031l-.031.031c-.329-.335-.636-.698-.969-1.031l-.031.031c-.329-.335-.636-.698-.969-1.031l-.031.031c-.329-.335-.636-.698-.969-1.031l-.031.031c-.322-.328-.612-.674-.938-1l-.031.031c-.332-.338-.633-.695-.969-1.031l-.031.031c-.332-.338-.633-.695-.969-1.031l-.031.031c-.329-.335-.636-.698-.969-1.031l-.031.031c-.329-.335-.636-.698-.969-1.031l-.031.031c-.329-.335-.636-.698-.969-1.031l-.031.031c-.322-.328-.612-.674-.938-1l-.031.031c-.332-.338-.633-.695-.969-1.031l-.031.031c-.655-.677-1.301-1.362-1.969-2.031l-.031.031c-.329-.335-.636-.698-.969-1.031l-.031.031c-.329-.335-.636-.698-.969-1.031l-.031.031c-.322-.328-.612-.674-.938-1l-.031.031c-.332-.338-.633-.695-.969-1.031l-.031.031c-.655-.677-1.301-1.362-1.969-2.031l-.031.031c-.329-.335-.636-.698-.969-1.031l-.031.031c-.329-.335-.636-.698-.969-1.031l-.031.031c-.329-.335-.636-.698-.969-1.031l-.031.031c-.322-.328-.612-.674-.938-1l-.031.031c-.332-.338-.633-.695-.969-1.031l-.031.031c-.332-.338-.633-.695-.969-1.031l-.031.031c-.329-.335-.636-.698-.969-1.031l-.031.031c-.329-.335-.636-.698-.969-1.031l-.031.031c-.329-.335-.636-.698-.969-1.031l-.031.031c-.322-.328-.612-.674-.938-1l-.031.031c-.332-.338-.633-.695-.969-1.031l-.031.031c-.332-.338-.633-.695-.969-1.031l-.031.031c-.329-.335-.636-.698-.969-1.031l-.031.031c-.329-.335-.636-.698-.969-1.031l-.031.031c-.329-.335-.636-.698-.969-1.031l-.031.031c-.322-.328-.612-.674-.938-1l-.031.031c-.332-.338-.633-.695-.969-1.031l-.031.031c-.655-.677-1.301-1.362-1.969-2.031l-.031.031c-.329-.335-.636-.698-.969-1.031l-.031.031c-.329-.335-.636-.698-.969-1.031l-.031.031c-.329-.335-.636-.698-.969-1.031l-.031.031c-.322-.328-.612-.674-.938-1l-.031.031c-.655-.677-1.301-1.362-1.969-2.031l-.031.031c-.329-.335-.636-.698-.969-1.031l-.031.031c-.329-.335-.636-.698-.969-1.031l-.031.031c-.329-.335-.636-.698-.969-1.031l-.031.031c-.322-.328-.612-.674-.938-1l-.031.031c-.332-.338-.633-.695-.969-1.031l-.031.031c-.332-.338-.633-.695-.969-1.031l-.031.031c-.329-.335-.636-.698-.969-1.031l-.031.031c-.329-.335-.636-.698-.969-1.031l-.031.031c-.329-.335-.636-.698-.969-1.031l-.031.031c-.322-.328-.612-.674-.938-1l-.031.031c-.332-.338-.633-.695-.969-1.031l-.031.031c-.655-.677-1.301-1.362-1.969-2.031l-.031.031c-.329-.335-.636-.698-.969-1.031l-.031.031c-.329-.335-.636-.698-.969-1.031l-.031.031c-.322-.328-.612-.674-.938-1l-.031.031c-.332-.338-.633-.695-.969-1.031l-.031.031c-.655-.677-1.301-1.362-1.969-2.031" fill-opacity=".235"/>
 <g fill-rule="evenodd">
  <path d="m256 1c-140.83 0-255 114.17-255 255s114.17 255 255 255 255-114.17 255-255-114.17-255-255-255m8.827 44.931c120.9 0 218.9 98 218.9 218.9s-98 218.9-218.9 218.9-218.93-98-218.93-218.9 98.03-218.9 218.93-218.9" fill-opacity=".067"/>
  <g fill-opacity=".129">
   <path d="m256 4.433c-138.94 0-251.57 112.63-251.57 251.57s112.63 251.57 251.57 251.57 251.57-112.63 251.57-251.57-112.63-251.57-251.57-251.57m5.885 38.556c120.9 0 218.9 98 218.9 218.9s-98 218.9-218.9 218.9-218.93-98-218.93-218.9 98.03-218.9 218.93-218.9"/>
   <path d="m256 8.356c-136.77 0-247.64 110.87-247.64 247.64s110.87 247.64 247.64 247.64 247.64-110.87 247.64-247.64-110.87-247.64-247.64-247.64m2.942 31.691c120.9 0 218.9 98 218.9 218.9s-98 218.9-218.9 218.9-218.93-98-218.93-218.9 98.03-218.9 218.93-218.9"/>
  </g>
  <path d="m253.04 7.859c-135.42 0-245.19 109.78-245.19 245.19 0 135.42 109.78 245.19 245.19 245.19 135.42 0 245.19-109.78 245.19-245.19 0-135.42-109.78-245.19-245.19-245.19zm0 26.297c120.9 0 218.9 98 218.9 218.9s-98 218.9-218.9 218.9-218.93-98-218.93-218.9 98.03-218.9 218.93-218.9z" fill="#ffffff" stroke="#000000" stroke-opacity=".31" stroke-width="4.904"/>
 </g>
 <path d="m215.06 285.44l31.783-27.21 50.1-42.899-36.39-33.718v148.79l32.648-32.11-74.929-66.37" fill="none" stroke="#ffffff" stroke-linecap="round" stroke-linejoin="round" stroke-width="13.11"/>
 <g fill="#ffffff">
  <path d="m167.84 167.66c-48.639 48.737-48.786 128.01-.212 176.68l23.13-23.17c-36.08-36.15-35.914-94.13.212-130.33l-23.13-23.17m153.2 22.962c36.08 36.15 36.34 94.56.212 130.76l23.13 23.17c48.639-48.737 48.36-128.44-.212-177.11l-23.13 23.17"/>
  <path d="m384.5 126.94l-24.844 24.875c25.04 26.366 40.44 62.02 40.44 101.25 0 40.652-16.492 77.45-43.16 104.06l27.844 27.938c70.885-71.03 70.51-187.19-.281-258.12m-257 .313c-70.885 71.03-71.07 186.57-.281 257.5l24.781-24.875c-28.323-26.802-46-64.741-46-106.81 0-40.653 16.491-77.48 43.16-104.09l-21.656-21.719"/>
 </g>
</svg>
