<svg xmlns="http://www.w3.org/2000/svg" height="512" width="512" version="1.1" viewBox="0 0 512 512">
 <g fill-rule="evenodd">
  <path d="m471.95 253.05c0 120.9-98.01 218.9-218.9 218.9-120.9 0-218.9-98.01-218.9-218.9 0-120.9 98.01-218.9 218.9-218.9 120.9 0 218.9 98.01 218.9 218.9" fill="#c98260"/>
  <path d="m256 1c-140.83 0-255 114.17-255 255s114.17 255 255 255 255-114.17 255-255-114.17-255-255-255m8.827 44.931c120.9 0 218.9 98 218.9 218.9s-98 218.9-218.9 218.9-218.93-98-218.93-218.9 98.03-218.9 218.93-218.9" fill-opacity=".067"/>
  <g fill-opacity=".129">
   <path d="m256 4.433c-138.94 0-251.57 112.63-251.57 251.57s112.63 251.57 251.57 251.57 251.57-112.63 251.57-251.57-112.63-251.57-251.57-251.57m5.885 38.556c120.9 0 218.9 98 218.9 218.9s-98 218.9-218.9 218.9-218.93-98-218.93-218.9 98.03-218.9 218.93-218.9"/>
   <path d="m256 8.356c-136.77 0-247.64 110.87-247.64 247.64s110.87 247.64 247.64 247.64 247.64-110.87 247.64-247.64-110.87-247.64-247.64-247.64m2.942 31.691c120.9 0 218.9 98 218.9 218.9s-98 218.9-218.9 218.9-218.93-98-218.93-218.9 98.03-218.9 218.93-218.9"/>
  </g>
 </g>
 <path opacity=".25" d="m275.94 114.89c-17.88 0.28-34.82 6.61-40.29 32l33.25 33.25c-28.44 72.74-79.7 188.28-95.4 188l-10.38-0.19-10.34 19.12 83.75 83.76c7.26 0.72 14.61 1.09 22.06 1.09 112.79 0 205.64-85.31 217.59-194.91l-157.62-157.62c-9.07-0.17-24.14-4.12-39.03-4.5-1.2-0.03-2.4-0.02-3.59 0z"/>
 <path d="m280.3 114.76c-19.147-0.49237-38.046 4.9061-43.874 31.991l10.361 0.18598c0-17.878 27.784-18.491 39.017-10.931-16.764 51.899-91.929 232.33-111.55 231.98l-10.361-0.18598-10.361 19.149 20.723 0.37196c16.798 0.30151 45.594-55.66 71.883-114.72l55.369 0.99383c5.8192 49.656 12.554 96.472 17.809 106.66 10.293 19.959 31.084 19.893 51.807 10.597v-38.669c0 9.6674-10.59 16.597-20.723 9.2954-11.705-8.435-31.084-232.57-31.084-242.24-9.0663-0.16272-24.125-4.0937-39.017-4.4766zm10.361 52.299c1.9948 22.276 4.857 53.718 8.5806 87.16l-44.684-0.80204c14.265-33.002 27.024-64.254 36.103-86.358z" fill="#ffffff"/>
 <path d="m253.04 7.859c-135.42 0-245.19 109.78-245.19 245.19 0 135.42 109.78 245.19 245.19 245.19 135.42 0 245.19-109.78 245.19-245.19 0-135.42-109.78-245.19-245.19-245.19zm0 26.297c120.9 0 218.9 98 218.9 218.9s-98 218.9-218.9 218.9-218.93-98-218.93-218.9 98.03-218.9 218.93-218.9z" stroke-opacity=".31" fill-rule="evenodd" stroke="#000000" stroke-width="4.904" fill="#ffffff"/>
</svg>
