<?xml version="1.0" encoding="UTF-8" standalone="no"?>
<svg xmlns="http://www.w3.org/2000/svg" height="512" viewBox="0 0 512 512" width="512" version="1.1">
 <path style="fill:#0f7baa;fill-rule:evenodd;fill-opacity:1" d="m 471.95,253.05 c 0,120.9 -98.01,218.9 -218.9,218.9 -120.9,0 -218.9,-98.01 -218.9,-218.9 0,-120.9 98.01,-218.9 218.9,-218.9 120.9,0 218.9,98.01 218.9,218.9"/>
 <path style="fill-opacity:0.06700003;fill-rule:evenodd" d="M 256,1 C 115.17,1 1,115.17 1,256 1,396.83 115.17,511 256,511 396.83,511 511,396.83 511,256 511,115.17 396.83,1 256,1 m 8.827,44.931 c 120.9,0 218.9,98 218.9,218.9 0,120.9 -98,218.9 -218.9,218.9 -120.9,0 -218.93,-98 -218.93,-218.9 0,-120.9 98.03,-218.9 218.93,-218.9"/>
 <g style="fill-opacity:0.12900002;fill-rule:evenodd">
  <path d="m 256,4.433 c -138.94,0 -251.57,112.63 -251.57,251.57 0,138.94 112.63,251.57 251.57,251.57 138.94,0 251.57,-112.63 251.57,-251.57 C 507.57,117.063 394.94,4.433 256,4.433 m 5.885,38.556 c 120.9,0 218.9,98 218.9,218.9 0,120.9 -98,218.9 -218.9,218.9 -120.9,0 -218.93,-98 -218.93,-218.9 0,-120.9 98.03,-218.9 218.93,-218.9"/>
  <path d="m 256,8.356 c -136.77,0 -247.64,110.87 -247.64,247.64 0,136.77 110.87,247.64 247.64,247.64 136.77,0 247.64,-110.87 247.64,-247.64 C 503.64,119.226 392.77,8.356 256,8.356 m 2.942,31.691 c 120.9,0 218.9,98 218.9,218.9 0,120.9 -98,218.9 -218.9,218.9 -120.9,0 -218.93,-98 -218.93,-218.9 0,-120.9 98.03,-218.9 218.93,-218.9"/>
 </g>
 <g transform="translate(-1.7935546,-1.9389258)" style="fill-rule:evenodd">
  <path style="opacity:0.25" d="m 317.41,117.25 -61.906,51.31 -0.594,-0.594 -63.37,-50.22 -95.37,62.66 56.41,56.41 -55.06,45.656 63,63 0,5.75 119.13,119.13 c 108.35,-13.13 192.31,-105.39 192.31,-217.28 0,-6.368 -0.28,-12.676 -0.813,-18.906 l -58,-58 -95.72,-58.906"/>
  <path style="fill:#ffffff" d="m 317.39,117.26 -61.978,51.38 97.88,58.927 59.82,-51.41 -95.73,-58.896 m -125.87,0.493 -95.35,62.65 63.12,48.941 95.63,-61.39 -63.4,-50.2 m 161.86,111.51 -96.53,60.869 62.2,50.11 96.78,-59.57 -62.44,-51.41 m -193.91,1.819 -61.978,51.38 97.85,58.927 59.852,-51.41 -95.73,-58.896 m 100.99,72.09 0,91.57 90.39,-44.2 0,-20.556 c -10.793,6.644 -21.595,13.284 -32.422,19.879 -19.332,-15.554 -38.644,-31.13 -57.971,-46.691 m -9.58,1.048 c -18.225,15.633 -36.441,31.28 -54.676,46.909 -11.912,-7.158 -23.812,-14.313 -35.72,-21.481 l 0,21.574 90.39,43.33 0,-90.33"/>
 </g>
 <path style="fill:#ffffff;fill-rule:evenodd;stroke:#000000;stroke-width:4.90399981;stroke-opacity:0.31000001" d="m 253.04,7.859 c -135.42,0 -245.19,109.78 -245.19,245.19 0,135.42 109.78,245.19 245.19,245.19 135.42,0 245.19,-109.78 245.19,-245.19 0,-135.42 -109.78,-245.19 -245.19,-245.19 z m 0,26.297 c 120.9,0 218.9,98 218.9,218.9 0,120.9 -98,218.9 -218.9,218.9 -120.9,0 -218.93,-98 -218.93,-218.9 0,-120.9 98.03,-218.9 218.93,-218.9 z"/>
</svg>
