<?xml version="1.0" encoding="UTF-8" standalone="no"?>
<svg xmlns="http://www.w3.org/2000/svg" height="512" viewBox="0 0 512 512" width="512" version="1.1">
 <path style="fill:#ff8b1f;fill-rule:evenodd;fill-opacity:1" d="m 471.95,253.05 c 0,120.9 -98.01,218.9 -218.9,218.9 -120.9,0 -218.9,-98.01 -218.9,-218.9 0,-120.9 98.01,-218.9 218.9,-218.9 120.9,0 218.9,98.01 218.9,218.9"/>
 <path style="fill-opacity:0.06700003;fill-rule:evenodd" d="M 256,1 C 115.17,1 1,115.17 1,256 1,396.83 115.17,511 256,511 396.83,511 511,396.83 511,256 511,115.17 396.83,1 256,1 m 8.827,44.931 c 120.9,0 218.9,98 218.9,218.9 0,120.9 -98,218.9 -218.9,218.9 -120.9,0 -218.93,-98 -218.93,-218.9 0,-120.9 98.03,-218.9 218.93,-218.9"/>
 <g style="fill-opacity:0.12900002;fill-rule:evenodd">
  <path d="m 256,4.433 c -138.94,0 -251.57,112.63 -251.57,251.57 0,138.94 112.63,251.57 251.57,251.57 138.94,0 251.57,-112.63 251.57,-251.57 C 507.57,117.063 394.94,4.433 256,4.433 m 5.885,38.556 c 120.9,0 218.9,98 218.9,218.9 0,120.9 -98,218.9 -218.9,218.9 -120.9,0 -218.93,-98 -218.93,-218.9 0,-120.9 98.03,-218.9 218.93,-218.9"/>
  <path d="m 256,8.356 c -136.77,0 -247.64,110.87 -247.64,247.64 0,136.77 110.87,247.64 247.64,247.64 136.77,0 247.64,-110.87 247.64,-247.64 C 503.64,119.226 392.77,8.356 256,8.356 m 2.942,31.691 c 120.9,0 218.9,98 218.9,218.9 0,120.9 -98,218.9 -218.9,218.9 -120.9,0 -218.93,-98 -218.93,-218.9 0,-120.9 98.03,-218.9 218.93,-218.9"/>
 </g>
 <path style="opacity:0.25" d="m 314.76585,132.29864 -19.98075,-6.49107 -7.67588,-3.70619 25.07814,5.26143 -43.0315,-7.35725 -5.66737,-0.38856 -38.31013,8.38781 -1.113,0.934 -3.41587,6.68676 -18.38043,16.42258 -28.4232,12.58601 -11.6596,10.61425 -19.4042,25.06779 -10.53776,26.0538 1.14905,50.46981 40.84102,104.49943 130.38899,84.54857 c 71.83168,-8.31849 190.89351,-92.26155 165.61,-243.80024 l -126.43173,-91.84964 -23.6009,4.39209"/>
 <path style="fill:#ffffff;fill-rule:evenodd;stroke:#000000;stroke-width:4.90399981;stroke-opacity:0.31000001" d="m 253.04,7.859 c -135.42,0 -245.19,109.78 -245.19,245.19 0,135.42 109.78,245.19 245.19,245.19 135.42,0 245.19,-109.78 245.19,-245.19 0,-135.42 -109.78,-245.19 -245.19,-245.19 z m 0,26.297 c 120.9,0 218.9,98 218.9,218.9 0,120.9 -98,218.9 -218.9,218.9 -120.9,0 -218.93,-98 -218.93,-218.9 0,-120.9 98.03,-218.9 218.93,-218.9 z"/>
 <path d="M 398.81558,213.19672 C 372.04738,101.20686 269.23869,102.14538 207.16379,131.3823 141.84488,164.05707 94.541456,247.80973 120.34054,317.93345 c 39.87687,105.78747 187.7039,104.64492 242.13803,3.61126 15.27133,-35.15368 9.07914,-63.00322 -12.82304,-92.87262 l -4.7334,36.79608 -19.41308,-32.2463 c 0,0 -10.77256,38.35688 -24.23828,51.88381 -18.73978,18.82139 -47.39524,4.90682 -45.65081,11.42545 5.00884,18.73979 47.99711,32.2463 47.99711,32.2463 -102.00279,45.41618 -107.96035,-35.30669 -106.8382,-53.89345 3.22361,-53.49562 50.55764,-93.07666 107.80732,-90.09788 18.26033,1.38738 50.03737,22.67749 50.03737,22.67749 -13.13927,-29.75719 -35.4189,-42.69243 -46.41591,-48.26234 43.1107,-14.1084 71.04185,28.33921 90.61813,53.98527 z" style="fill:#ffffff;fill-opacity:1;fill-rule:evenodd"/>
</svg>
