<svg viewBox="0 0 512 512" xmlns="http://www.w3.org/2000/svg">
 <linearGradient id="a" gradientUnits="userSpaceOnUse" x2="0" y1="-2.02" y2="631.4">
  <stop offset="0" stop-color="#ffffff"/>
  <stop offset="1" stop-color="#ffffff" stop-opacity="0"/>
 </linearGradient>
 <linearGradient id="b" gradientUnits="userSpaceOnUse" x2="0" y1="27.41" y2="470.01">
  <stop offset="0" stop-color="#fcbd39"/>
  <stop offset="1" stop-color="#ff8e04"/>
 </linearGradient>
 <path d="m471.93059 253.06012c0 120.9-98.01001 218.9-218.90001 218.9-120.89999 0-218.9-98.01-218.9-218.9 0-120.9 98.01001-218.90001 218.9-218.90001 120.9 0 218.90001 98.01001 218.90001 218.90001" fill="url(#b)" fill-rule="evenodd"/>
 <path d="m211.00058 38.22011c-27.744 5.396-53.63399 16.01-76.55999 30.813l113.30999 178.72001-177.97-114.47c-14.98 22.873-25.807 48.725-31.375 76.47l206.66 46.25-205.72 44.75c6.067 27.306 17.221 52.679 32.438 75.09l175.97001-111.59-111.81 173.78c22.568 14.315 47.934 24.629 75.09 29.906l44.96899-201 43.53101 200.06c26.696-5.775 51.56299-16.4 73.66-30.938l-108.94-171.81 171.06 110.03c14.684-22.04 25.485-46.904 31.406-73.59l-199.78-44.688 201.16-43.75c-5.119-27.15-15.23-52.52-29.375-75.12l-174.47 110.63 112.69-175.16001c-22.358-15.382-47.698-26.707-75-32.938l-45.938 205.41001-45-206.84001" fill="url(#a)" opacity=".45"/>
 <g fill-rule="evenodd" transform="matrix(3.5433 0 0 3.5433 -.00342 .00012)">
  <path d="m72.25.282c-39.746 0-71.967 32.22-71.967 71.967 0 39.746 32.22 71.967 71.967 71.967 39.746 0 71.967-32.22 71.967-71.967 0-39.746-32.22-71.967-71.967-71.967m2.491 12.681c34.12 0 61.777 27.657 61.777 61.777 0 34.12-27.657 61.777-61.777 61.777-34.12 0-61.786-27.657-61.786-61.777 0-34.12 27.666-61.777 61.786-61.777" fill-opacity=".067"/>
  <g fill-opacity=".129">
   <path d="m72.25 1.251c-39.21 0-70.998 31.787-70.998 70.998 0 39.21 31.787 70.998 70.998 70.998 39.21 0 70.998-31.787 70.998-70.998 0-39.21-31.787-70.998-70.998-70.998m1.661 10.881c34.12 0 61.777 27.657 61.777 61.777 0 34.12-27.657 61.777-61.777 61.777-34.12 0-61.786-27.657-61.786-61.777 0-34.12 27.666-61.777 61.786-61.777"/>
   <path d="m72.25 2.358c-38.6 0-69.891 31.29-69.891 69.891 0 38.6 31.29 69.891 69.891 69.891 38.6 0 69.891-31.29 69.891-69.891 0-38.6-31.29-69.891-69.891-69.891m.83 8.944c34.12 0 61.777 27.657 61.777 61.777 0 34.12-27.657 61.777-61.777 61.777-34.12 0-61.786-27.657-61.786-61.777 0-34.12 27.666-61.777 61.786-61.777"/>
  </g>
  <path d="m71.41 2.218c-38.22 0-69.2 30.981-69.2 69.2 0 38.22 30.981 69.2 69.2 69.2 38.22 0 69.2-30.981 69.2-69.2 0-38.22-30.981-69.2-69.2-69.2zm0 7.422c34.12 0 61.777 27.657 61.777 61.777 0 34.12-27.657 61.777-61.777 61.777-34.12 0-61.786-27.657-61.786-61.777 0-34.12 27.666-61.777 61.786-61.777" fill="#ffffff" stroke="#000000" stroke-opacity=".31" stroke-width="1.384"/>
 </g>
 <path d="m290.24058 117.00012c-1.24-.023-2.474-.022-3.697.002-34.26.67-62.19 19.667-77.56 65.28-2.693 7.989-11.565 37.635-21.19 69.13-16.29399.738-37.98599 3.679-48.27999 13.531-2.117 1.71-3.516 4.24-3.688 7.125-.173 2.927.961 5.632 2.906 7.578l31.748 31.748c.822 4.181 3.253 8.365 7.15199 12.264l18.502 18.502c-.092-.032-.185-.06-.277-.092-4.356-1.519-8.787-3.524-12.945-6.01l-16.92999-16.93c-.812 2.395-3.859 11.804-4.906 14.06-2 4.324-5.126 8.04-8.938 10.906-4.066 2.959-8.774 4.9-13.594 6.281-4.107 1.176-8.646 1.991-11.281 5.719-2.42 3.439-2.293 8.137.469 11.344.172.201.35.393.533.576l102.85999 102.86c7.204.716 14.51 1.088 21.902 1.088 120.89 0 218.90001-98 218.90001-218.9 0-5.217-.196-10.388-.555-15.514l-105.83001-105.83c-3.703-3.622-7.79-6.604-12.188-8.781-1.083-.562-2.186-1.079-3.313-1.563-3.825-1.639-7.782-2.737-11.813-3.375-.956-.153-1.912-.308-2.875-.406-2.01-.201-4.03-.282-6.06-.25-.042.001-.083-.001-.125 0l56.38001 56.38v.004l-56.38001-56.38c-.166.003-.334.027-.5.031-1.029.028-2.061.101-3.094.188-.157.013-.312.049-.469.063-.031.003-.063-.003-.094 0-.021.002-.042-.002-.063 0-.593.057-1.187.081-1.781.156-.042.005-.083.026-.125.031-.103.013-.209.017-.313.031-.032.004-.062.027-.094.031-.032.004-.062.027-.094.031-.041.006-.084-.006-.125 0-.083.011-.167.019-.25.031-.062.009-.125.022-.188.031-.031.005-.063-.005-.094 0-.595.089-1.186.173-1.781.281-.032.006-.061.025-.094.031-.042.008-.083.023-.125.031-.032.006-.062.025-.094.031-.03.006-.063-.006-.094 0-.032.006-.062.025-.094.031-.072.014-.146.017-.219.031-.032.006-.062.025-.094.031-.032.006-.062.025-.094.031-.062.012-.126.019-.188.031-.032.007-.062.025-.094.031-.042.009-.083.023-.125.031-.03.006-.064-.006-.094 0-.052.011-.105.02-.156.031-.146.031-.291.062-.438.094-.354.077-.709.135-1.063.219-.032.008-.062.024-.094.031-.032.008-.062.024-.094.031-.062.015-.126.016-.188.031-.032.008-.062.023-.094.031-.032.008-.062.023-.094.031-.032.008-.06.023-.092.031-.032.008-.062.023-.094.031-.032.008-.062.023-.094.031-.013.003-.018.026-.031.029-.029.008-.064-.008-.094 0-.022.006-.04.025-.063.031-.02.005-.043-.005-.063 0-.042.011-.083.02-.125.031-.032.008-.062.023-.094.031-.032.009-.062.023-.094.031-.01.003-.022-.003-.031 0-.051.013-.105.018-.156.031-.487.129-.982.233-1.469.375-.032.009-.062.022-.094.031-.032.009-.062.022-.094.031-.022.007-.041.025-.063.031-.032.01-.062.022-.094.031-.032.01-.062.022-.094.031-.022.007-.041.025-.063.031-.032.01-.062.022-.094.031-.032.01-.062.021-.094.031-.032.01-.062.021-.094.031-.022.007-.041.024-.063.031-.032.01-.062.021-.094.031-.032.01-.062.021-.094.031-.022.007-.04.024-.063.031-.032.01-.062.021-.094.031-.616.192-1.261.319-1.875.531-.022.008-.041.024-.063.031-.022.008-.041.024-.063.031-.084.029-.166.064-.25.094-.883.311-1.747.617-2.625.969-.229.092-.458.186-.688.281-.218.09-.434.196-.652.289l-4.506-4.506c-.151-.014-.319-.05-.469-.063-3.851-.47-7.644-.746-11.365-.814" opacity=".25"/>
 <path d="m286.54058 117.00012c-34.26.67-62.19 19.667-77.56 65.28-2.693 7.989-11.565 37.635-21.19 69.13-16.29399.738-37.98599 3.679-48.27999 13.531-2.117 1.71-3.516 4.24-3.688 7.125-.326 5.533 4.01 10.268 9.688 10.594 3.151.18 6.05-1 8.06-3.063 3.346-3.626 14.761-6.176 27.81299-7.375-.339 1.09-.671 2.199-1 3.281-1.118 3.513-2.212 7.02-3.313 10.531-1.522 4.833-3.05099 9.675-4.59399 14.5-.766 2.405-1.531 4.814-2.313 7.219-.212 6.757 3.97 13.74 11.87499 19.719 12.149 9.188 34.09 16.16 53.56 9.75 2.15-6.767 5.01-15.812 8.188-25.781 1.76-5.566 3.641-10.336 5.594-14.438 3.644 3.305 7.249 6.956 10.438 10.469 2.033 2.569 2.601 3.906 4.406 5.656 4.89301 4.734 11.49301 5.448 15.71901 1.156 4.221-4.284 3.667-11.576-1.219-16.313-.233-.223-.471-.454-.719-.656-3.576-4.188-9.606-10.841-16.75001-17.06 3.366-2.926 6.73801-4.593 10.00001-5.438-2.222-1.837-4.301-3.859-6.21901-6.06-23.881-27.737-24.05-69.57-9.313-101.62 9.05-20.902 25.57501-39.724 46.34-49.25-.151-.014-.319-.05-.469-.063-5.134-.627-10.168-.908-15.06-.813m42.625.344c-.166.003-.334.027-.5.031-1.029.028-2.06099.101-3.094.188-.15699.013-.312.049-.469.063-.031.003-.063-.003-.094 0-.021.002-.042-.002-.063 0-.593.057-1.187.081-1.78099.156-.042.005-.083.026-.125.031-.10301.013-.20901.017-.31301.031-.032.004-.062.027-.094.031-.032.004-.062.027-.094.031-.041.006-.084-.006-.125 0-.083.011-.167.019-.25.031-.062.009-.125.022-.188.031-.031.005-.063-.005-.094 0-.595.089-1.186.173-1.781.281-.032.006-.061.025-.094.031-.042.008-.083.023-.125.031-.032.006-.062.025-.094.031-.03.006-.063-.006-.094 0-.032.006-.062.025-.094.031-.072.014-.146.017-.219.031-.032.006-.062.025-.094.031-.032.006-.062.025-.094.031-.062.012-.126.019-.188.031-.032.007-.062.025-.094.031-.042.009-.083.022-.125.031-.03.006-.063-.006-.094 0-.052.011-.105.02-.156.031-.146.031-.291.062-.438.094-.354.077-.709.135-1.063.219-.032.008-.062.024-.094.031-.032.008-.062.023-.094.031-.062.015-.126.016-.188.031-.032.008-.062.023-.094.031-.032.008-.062.023-.094.031-.032.008-.062.023-.094.031-.032.008-.062.023-.094.031-.032.008-.062.023-.094.031-.013.003-.018.028-.031.031-.029.008-.064-.008-.094 0-.022.006-.04.025-.063.031-.02.005-.043-.005-.063 0-.042.011-.083.02-.125.031-.032.008-.062.023-.094.031-.032.009-.062.023-.094.031-.01.003-.022-.003-.031 0-.051.013-.105.018-.156.031-.487.129-.982.233-1.469.375-.032.009-.062.022-.094.031-.031.009-.062.022-.094.031-.022.007-.041.025-.063.031-.032.01-.062.022-.094.031-.031.01-.062.022-.094.031-.022.007-.041.025-.063.031-.032.01-.062.022-.094.031-.031.01-.062.021-.094.031-.031.01-.062.021-.094.031-.022.007-.041.024-.063.031-.032.01-.062.021-.094.031-.031.01-.062.021-.094.031-.022.007-.04.024-.063.031-.032.01-.062.021-.094.031-.616.192-1.261.319-1.875.531-.022.008-.041.024-.063.031-.022.008-.041.023-.063.031-.084.029-.166.064-.25.094-.883.311-1.747.617-2.625.969-.229.092-.458.186-.688.281-17.827 7.368-34.38199 23.03-44.875 44.969-20.702 43.25-10.548 94.42 24.844 110.53 35.771 16.291 78.57-11.581 93.91001-58.16 10.941-33.21 4.45-66.42-13.50001-85.59-.338-.369-.686-.706-1.031-1.063-.347-.351-.677-.721-1.031-1.063-3.703-3.622-7.79-6.604-12.188-8.781-1.083-.562-2.185-1.079-3.312-1.563-3.825-1.639-7.782-2.737-11.813-3.375-.956-.153-1.912-.308-2.875-.406-2.01-.201-4.03-.282-6.06-.25-.042.001-.083-.001-.125 0zm2.188 23.09c.874-.011 1.748.006 2.625.063 6.22901.395 11.639 2.653 16.656 6.313 10.518 7.68 17.13 19.835 19.844 32.406 3.058 14.18 1.635 28.65-3.187 42.25-1.062 3-2.339 5.892-3.844 8.656-.012.02-.031.042-.031.063-.754 1.366-1.559 2.698-2.406 4-.03.038-.061.082-.094.125-4.282 6.57-9.79 12.305-16.28099 16.938-8.81601 6.302-19.63101 10.398-30.59401 9.5-7.602-.625-14.625-3.769-20.5-8.438-10.02999-9.03-15.37699-22.398-16.21899-36.906-.529-24.905 10.895-52.41 34.15999-69.03.733-.529 1.48001-1.02 2.219-1.5 5.508-2.669 11.536-4.361 17.656-4.438m-9.09 42.781c-5.852.427-12.01 10.238-13.25 21.375-1.171 10.606 2.759 17.301 8.31301 15.531 5.17899-1.659 10.24599-10.227 11.68799-19.594 1.517-9.774-1.338-17.707-6.75-17.313m30.31 14.906c-.43799.015-.93099.101-1.469.375-3.66899 1.831-6.73599 11.09-7.312 12.938-.80699 2.595-3.29399 11.338-1.188 14.563.556.842 1.37901 1.34 2.313 1.469 2.31901.314 3.97701-1.851 5.03001-3.5.61199-.956 1.26-2.107 1.875-3.438.88799-1.899 1.711-4.101 2.406-6.344 1.67199-5.331 3.851-14.475-.531-15.906-.289-.094-.687-.171-1.125-.156m-186.59 121c-.812 2.395-3.859 11.804-4.906 14.06-2 4.324-5.126 8.04-8.938 10.906-4.066 2.959-8.774 4.9-13.594 6.281-4.107 1.176-8.646 1.991-11.281 5.719-2.42 3.439-2.293 8.137.469 11.344 3.126 3.647 8.115 4.322 12.594 3.406 5.275-1.07 10.514-2.861 15.438-5.03 4.319-1.907 8.937-3.866 12.344-7.25 2.572 3.675 5.851 6.847 9.59399 9.313 1.864 1.221 3.838 2.275 5.906 3.125 1.146.468 4.693 1.39 4.625 1.375-1.97299 1.166-4.053 2.313-6.375 3.375-.357.124-.697.283-1.031.438-1.345.799-2.566 1.716-3.563 2.844-1.118 1.436-1.86499 3.175-2.06299 5.125-.546 5.442 3.36499 10.289 8.71899 10.813 1.753.174 3.44-.125 4.938-.813v.063c12.136-5.404 20.79-12.233 26.938-18.938 3.487-3.93 6.5-8.213 9.125-12.75-.534.574-1.088 1.121-1.656 1.656 1.143-1.172 2.159-2.468 2.938-3.906 2.734-5.058 4.95-10.369 6.688-15.844-12.22 2.82-25.23 1.737-37.03-2.375-11.716-4.087-24.03999-11.573-29.87499-22.938m31.27999 54.781c.822.032 1.647.024 2.469 0-.824.024-1.639.034-2.469 0" fill="#ffffff"/>
</svg>
