<svg width="512" height="512" version="1.1" viewBox="0 0 512 512" xmlns="http://www.w3.org/2000/svg">
 <g fill-rule="evenodd">
  <path d="m471.95 253.05c0 120.9-98.01 218.9-218.9 218.9-120.9 0-218.9-98.01-218.9-218.9 0-120.9 98.01-218.9 218.9-218.9 120.9 0 218.9 98.01 218.9 218.9" fill="#dab542"/>
  <path d="m256 1c-140.83 0-255 114.17-255 255s114.17 255 255 255 255-114.17 255-255-114.17-255-255-255m8.827 44.931c120.9 0 218.9 98 218.9 218.9s-98 218.9-218.9 218.9-218.93-98-218.93-218.9 98.03-218.9 218.93-218.9" fill-opacity=".067"/>
  <g transform="translate(0,-540.36)" fill-opacity=".129">
   <path d="m256 544.79c-138.94 0-251.57 112.63-251.57 251.57s112.63 251.54 251.57 251.54 251.57-112.6 251.57-251.54-112.63-251.57-251.57-251.57m5.885 38.556c120.9 0 218.9 98 218.9 218.9s-98 218.9-218.9 218.9-218.93-98-218.93-218.9 98.03-218.9 218.93-218.9"/>
   <path d="m256 548.72c-136.77 0-247.64 110.87-247.64 247.64s110.87 247.64 247.64 247.64 247.64-110.87 247.64-247.64-110.87-247.64-247.64-247.64m2.942 31.691c120.9 0 218.9 98 218.9 218.9s-98 218.9-218.9 218.9-218.93-98-218.93-218.9 98.03-218.9 218.93-218.9"/>
  </g>
  <path d="m394.27 196.21 85.973 71.019c-13.703 80.612-78.002 168.6-143.98 186.2l-145.59-107.55 39.157-5.272-54.279-39.664 95.624-74.768 2.0173-46.339 63.578 55.005c12.313 1.8668 37.862-35.275 57.493-38.63z" fill="#000000" opacity=".25"/>
 </g>
 <path d="m142.46 47.116c-0.29283 0.09765-0.50447 0.28781-0.65052 0.57088 0.29449-0.26227 0.65052-0.57088 0.65052-0.57088zm119.14 128.18c-9.1971 0-16.662 7.4512-16.662 16.648 0 0.73335 0.0541 1.4424 0.146 2.1507-21.832 7.1233-46.679 23.486-46.679 23.486h-16.516c-14.701-0.66345-29.905-34.696-54.313-38.076l-28.955 4.328c31.482 5.5277 36.969 28.698 40.638 52.547 2.3699 15.402 3.9848 31.091 11.378 42.497 17.55 23.398 51.573 39.082 87.105 43.944l-4.8723 12.559-42.152 10.541h126.43l-42.139-10.541-4.7396-11.218c34.91-2.0302 66.796-15.75 80.878-44.223 7.2562 11.724 20.554 29.848 31.451 25.729 34.565-13.064 40.653-90.337 9.6518-110.44-12.618-8.184-39.444 21.919-39.444 21.919l0.0665 0.4381h-27.243s-25.476-16.765-47.502-23.738c0.0712-0.62528 0.11948-1.2542 0.11948-1.8985 0-9.1971-7.4511-16.648-16.648-16.648zm111.43 42.935c2.383-0.0295 4.7198 1.2008 7.2621 3.4784 14.845 13.448 12.966 43.505 0.47793 54.631-2.5374 2.16-5.6061 4.0737-8.6826 2.8942-6.1592-2.4399-11.886-14.298-14.405-20.18 1.3114-8.2625 1.4524-17.388 0.23894-27.402 1.8611-2.7454 4.5924-6.4276 7.5807-9.3464 2.7116-2.7486 5.1445-4.0463 7.5276-4.0758z" fill="#ffffff"/>
 <path d="m253.04 7.86c-135.42 0-245.19 109.78-245.19 245.19 0 135.42 109.78 245.19 245.19 245.19 135.42 0 245.19-109.78 245.19-245.19 0-135.42-109.78-245.19-245.19-245.19zm0 26.297c120.9 0 218.9 98 218.9 218.9s-98 218.9-218.9 218.9-218.93-98-218.93-218.9 98.03-218.9 218.93-218.9z" fill="#ffffff" fill-rule="evenodd" stroke="#000000" stroke-opacity=".31" stroke-width="4.904"/>
</svg>
