<svg viewBox="0 0 512 512" xmlns="http://www.w3.org/2000/svg">
 <path d="m252.06 33.19c-120.89 0-218.87 97.97-218.87 218.88v1c0 120.9 97.99 218.88 218.88 218.88h1c120.89 0 218.88-97.98 218.88-218.87v-1c0-120.9-97.99-218.87-218.87-218.87h-1" fill="#66aabe"/>
 <g fill-rule="evenodd">
  <path d="m256 1c-140.83 0-255 114.17-255 255 0 140.83 114.17 255 255 255 140.83 0 255-114.17 255-255 0-140.83-114.17-255-255-255m8.827 44.931c120.9 0 218.9 98 218.9 218.9 0 120.9-98 218.9-218.9 218.9-120.9 0-218.93-98-218.93-218.9 0-120.9 98.03-218.9 218.93-218.9" fill-opacity=".067"/>
  <g fill-opacity=".129">
   <path d="m256 4.433c-138.94 0-251.57 112.63-251.57 251.57 0 138.94 112.63 251.57 251.57 251.57 138.94 0 251.57-112.63 251.57-251.57 0-138.94-112.63-251.57-251.57-251.57m5.885 38.556c120.9 0 218.9 98 218.9 218.9 0 120.9-98 218.9-218.9 218.9-120.9 0-218.93-98-218.93-218.9 0-120.9 98.03-218.9 218.93-218.9"/>
   <path d="m256 8.356c-136.77 0-247.64 110.87-247.64 247.64 0 136.77 110.87 247.64 247.64 247.64 136.77 0 247.64-110.87 247.64-247.64 0-136.77-110.87-247.64-247.64-247.64m2.942 31.691c120.9 0 218.9 98 218.9 218.9 0 120.9-98 218.9-218.9 218.9-120.9 0-218.93-98-218.93-218.9 0-120.9 98.03-218.9 218.93-218.9"/>
  </g>
  <path d="m253.04 7.859c-135.42 0-245.19 109.78-245.19 245.19 0 135.42 109.78 245.19 245.19 245.19 135.42 0 245.19-109.78 245.19-245.19 0-135.42-109.78-245.19-245.19-245.19zm0 26.297c120.9 0 218.9 98 218.9 218.9 0 120.9-98 218.9-218.9 218.9-120.9 0-218.93-98-218.93-218.9 0-120.9 98.03-218.9 218.93-218.9z" fill="#ffffff" stroke="#000000" stroke-opacity=".31" stroke-width="4.904"/>
 </g>
 <g fill-rule="evenodd">
  <path d="m275.66 116.98c-.25-.006-.498-.002-.746.012-.596.032-1.193.133-1.764.27-.209.05-.422.093-.627.156-3.071.953-5.601 3.417-6.498 6.766l-.85 3.195 7.131 7.131-92.04.016c-1.01 0-2.01.141-2.926.424-3.957 1.226-6.811 4.897-6.811 9.268v7.818l5.857 5.857-70.71 18.955c-5.195 1.392-8.271 6.664-6.879 11.859l53.36 199.13c.458 1.709 1.34 3.188 2.504 4.352l78.977 78.977c6.079.507 12.224.779 18.434.779h1c120.89 0 218.88-97.98 218.88-218.87v-1c0-13.778-1.287-27.25-3.721-40.33l-57.51-57.51c-1.165-1.165-2.645-2.049-4.359-2.508l-128.42-34.418c-.761-.204-1.52-.308-2.27-.324" opacity=".25"/>
  <path d="m274.92 116.99c-.596.032-1.194.131-1.764.268-.209.05-.421.093-.625.156-3.071.953-5.602 3.418-6.499 6.767l-.849 3.194c13.419.047 26.834.06 40.25-.045 8.966-1.676 20.03 1.638 23.54 10.742 1.329 8.525.534 17.406.983 26.06.282 54.629.145 109.26.022 163.88-.743 9.56 1.994 19.528-1.362 28.743-.883 2.679-2.469 4.781-4.489 6.387l23.852 6.432c5.195 1.392 10.489-1.661 11.881-6.856l53.36-199.13c1.392-5.195-1.661-10.489-6.856-11.881l-128.42-34.416c-1.015-.272-2.02-.366-3.01-.313m38.26 17.51l-132.91.022c-1.01 0-2.01.142-2.926.424-3.957 1.226-6.812 4.898-6.812 9.268v7.817c19.989-5.266 39.973-10.506 59.832-16.214 7.588-2.477 16.958.367 20.882 7.549 18.591 65.03 35.24 130.63 53.02 195.89 3.109 6.305 3.475 14.761-.179 20.815l9.09-.022c5.379 0 9.715-4.314 9.715-9.693l.022-206.14c0-5.379-4.359-9.715-9.737-9.715m-76.2 7.593c-.955-.036-1.929.074-2.903.335l-128.4 34.416c-5.195 1.392-8.271 6.664-6.879 11.859l53.35 199.13c1.392 5.195 6.708 8.249 11.904 6.856l128.4-34.394c5.196-1.392 8.271-6.708 6.879-11.904l-53.35-199.1c-1.131-4.221-4.861-7.04-9-7.191m-22.602 78.7c24.462-.911 51 36.417-4.243 89.04-78.986-19.13-68.929-69.62-43.752-76.78 7.708-2.192 16.839-.321 25.26 7.75 3.909-13.44 13.164-19.654 22.736-20.01" fill="#ffffff"/>
 </g>
</svg>
