<?xml version="1.0" encoding="UTF-8" standalone="no"?>
<svg xmlns="http://www.w3.org/2000/svg" height="512" viewBox="0 0 512 512" width="512" version="1.1">
 <path d="m471.95 253.05c0 120.9-98.01 218.9-218.9 218.9-120.9 0-218.9-98.01-218.9-218.9 0-120.9 98.01-218.9 218.9-218.9 120.9 0 218.9 98.01 218.9 218.9" fill="#1793d1" fill-rule="evenodd" style="fill:#7ca345;fill-opacity:1"/>
 <path d="m256 1c-140.83 0-255 114.17-255 255 0 140.83 114.17 255 255 255 140.83 0 255-114.17 255-255 0-140.83-114.17-255-255-255m8.827 44.931c120.9 0 218.9 98 218.9 218.9 0 120.9-98 218.9-218.9 218.9-120.9 0-218.93-98-218.93-218.9 0-120.9 98.03-218.9 218.93-218.9" fill-opacity=".067" fill-rule="evenodd"/>
 <g fill-opacity=".129" fill-rule="evenodd">
  <path d="m256 4.433c-138.94 0-251.57 112.63-251.57 251.57 0 138.94 112.63 251.57 251.57 251.57 138.94 0 251.57-112.63 251.57-251.57 0-138.94-112.63-251.57-251.57-251.57m5.885 38.556c120.9 0 218.9 98 218.9 218.9 0 120.9-98 218.9-218.9 218.9-120.9 0-218.93-98-218.93-218.9 0-120.9 98.03-218.9 218.93-218.9"/>
  <path d="m256 8.356c-136.77 0-247.64 110.87-247.64 247.64 0 136.77 110.87 247.64 247.64 247.64 136.77 0 247.64-110.87 247.64-247.64 0-136.77-110.87-247.64-247.64-247.64m2.942 31.691c120.9 0 218.9 98 218.9 218.9 0 120.9-98 218.9-218.9 218.9-120.9 0-218.93-98-218.93-218.9 0-120.9 98.03-218.9 218.93-218.9"/>
 </g>
 <path d="m 300.32036,115.49581 c -11.198,0.1 8.968,-2.086 2.236,-0.568 -0.849,0.192 -1.489,0.381 -2.236,0.568 l 11.867,11.867 c -12.395,-6.969 -27.615,-11.738 -46.14,-12.02 -1.129,-0.018 -2.246,-0.024 -3.336,0 -16.356,0.358 -28.394,5.332 -37.533,12.662 -0.379,0.304 -0.744,0.621 -1.113,0.934 l -4.193,-4.193 c -8.754,-2.926 -9.88422,15.69299 -30.67823,15.71099 19.64187,29.14819 -22.07475,-9.15337 -23.90675,-9.05237 -14.657,0.81 -8.04716,21.07265 -18.14916,31.38465 -10.1,10.313 -20.38316,7.1072 -18.96516,34.2672 0.286,5.357 -15.04171,8.03953 -11.08271,25.03953 3.958,17 17.97834,33.96188 24.74034,51.67588 6.535,17.12 71.0703,110.35717 78.9503,118.23517 l 94.68983,73.88095 c 97.12,-22.39 158.68254,-109.4 158.68254,-213.31 0,-14.14 1.89724,2.40188 -0.66576,-10.99712 L 357.48302,130.79645 c 0,0 -24.95566,-3.61064 -45.29566,-3.43364" style="opacity:0.25"/>
 <path d="m253.04 7.859c-135.42 0-245.19 109.78-245.19 245.19 0 135.42 109.78 245.19 245.19 245.19 135.42 0 245.19-109.78 245.19-245.19 0-135.42-109.78-245.19-245.19-245.19zm0 26.297c120.9 0 218.9 98 218.9 218.9 0 120.9-98 218.9-218.9 218.9-120.9 0-218.93-98-218.93-218.9 0-120.9 98.03-218.9 218.93-218.9z" fill="#ffffff" fill-rule="evenodd" stroke="#000000" stroke-opacity=".31" stroke-width="4.904"/>
 <path d="m 253.83051,111.66101 c -24.41808,0 -85.46328,0 -109.88136,24.41808 -48.836148,48.83616 -24.41808,109.88136 0,158.71752 24.41808,48.83616 73.25424,109.88135 109.88136,109.88135 36.62712,0 85.46328,-61.04519 109.88136,-109.88135 24.41808,-48.83616 48.83615,-109.88136 0,-158.71752 -24.41808,-24.41808 -85.46328,-24.41808 -109.88136,-24.41808 z" style="fill:#ffffff;fill-opacity:1;fill-rule:evenodd"/>
</svg>
