<?xml version="1.0" encoding="UTF-8" standalone="no"?>
<svg xmlns="http://www.w3.org/2000/svg" viewBox="0 0 512 512" version="1.1">
 <defs>
  <clipPath clipPathUnits="userSpaceOnUse" id="clipPath5910">
   <g transform="translate(-0.87894558,0)">
    <rect style="fill:#5e5e5e;fill-opacity:1" y="189.39" x="121.22" height="11.133" width="267.38"/>
    <rect style="fill:#5e5e5e;fill-opacity:1" width="267.38" height="11.133" x="121.22" y="256.23"/>
    <rect style="fill:#5e5e5e;fill-opacity:1" y="323.1" x="121.22" height="11.133" width="267.38"/>
    <rect style="fill:#5e5e5e;fill-opacity:1" width="267.38" height="11.133" x="-389.94" y="-188.06" transform="matrix(0,-1,-1,0,0,0)"/>
    <rect style="fill:#5e5e5e;fill-opacity:1" transform="matrix(0,-1,-1,0,0,0)" y="-254.89" x="-389.94" height="11.133" width="267.38"/>
    <rect style="fill:#5e5e5e;fill-opacity:1" width="267.38" height="11.133" x="-389.94" y="-321.77" transform="matrix(0,-1,-1,0,0,0)"/>
   </g>
  </clipPath>
 </defs>
 <path style="fill:#89fb8d;fill-rule:evenodd;fill-opacity:1" d="m 471.95,253.05 c 0,120.9 -98.01,218.91 -218.91,218.91 -120.9,0 -218.91,-98.01 -218.91,-218.91 0,-120.9 98.01,-218.91 218.91,-218.91 120.9,0 218.91,98.01 218.91,218.91"/>
 <path style="fill-opacity:0.06700003;fill-rule:evenodd" d="M 256,1 C 115.17,1 1,115.17 1,256 1,396.83 115.17,511 256,511 396.83,511 511,396.83 511,256 511,115.17 396.83,1 256,1 m 8.827,44.931 c 120.9,0 218.9,98 218.9,218.9 0,120.9 -98,218.9 -218.9,218.9 -120.9,0 -218.93,-98 -218.93,-218.9 0,-120.9 98.03,-218.9 218.93,-218.9"/>
 <g style="fill-opacity:0.12900002;fill-rule:evenodd">
  <path d="M 256,4.43 C 117.06,4.43 4.43,117.06 4.43,256 4.43,394.94 117.06,507.57 256,507.57 394.94,507.57 507.57,394.94 507.57,256 507.57,117.06 394.94,4.43 256,4.43 m 5.885,38.556 c 120.9,0 218.9,98 218.9,218.9 0,120.9 -98,218.9 -218.9,218.9 -120.9,0 -218.93,-98 -218.93,-218.9 0,-120.9 98.03,-218.9 218.93,-218.9"/>
  <path d="M 256,8.36 C 119.23,8.36 8.36,119.23 8.36,256 8.36,392.77 119.23,503.64 256,503.64 392.77,503.64 503.64,392.77 503.64,256 503.64,119.23 392.77,8.36 256,8.36 m 2.942,31.691 c 120.9,0 218.9,98 218.9,218.9 0,120.9 -98,218.9 -218.9,218.9 -120.9,0 -218.93,-98 -218.93,-218.9 0,-120.9 98.03,-218.9 218.93,-218.9"/>
 </g>
 <path style="fill:#ffffff;fill-rule:evenodd;stroke:#000000;stroke-width:4.90399981;stroke-opacity:0.31000001" d="M 253.04,7.86 C 117.62,7.86 7.85,117.64 7.85,253.05 c 0,135.42 109.78,245.19 245.19,245.19 135.42,0 245.19,-109.78 245.19,-245.19 C 498.23,117.63 388.45,7.86 253.04,7.86 m 0,26.297 c 120.9,0 218.9,98 218.9,218.9 0,120.9 -98,218.9 -218.9,218.9 -120.9,0 -218.93,-98 -218.93,-218.9 0,-120.9 98.03,-218.9 218.93,-218.9 z"/>
 <path d="m 253.6478,122.59779 -10.01523,53.37482 -56.02336,-53.50189 -5.29039,36.09346 -2.77421,40.90393 -59.63997,0.13243 61.08901,58.0728 -61.20059,8.59875 55.67462,52.32918 3.75931,7.67154 -58.75403,8.19481 59.54506,44.03565 -3.96995,11.42734 L 286.275,469.452 c 105.13,-16.01 185.67,-106.8 185.67,-216.4 0,-2.288 -0.046,-4.565 -0.115,-6.836 -28.43432,-24.43574 -134.40998,-108.21075 -150.34019,-121.95131 -14.26003,2.6472 -6.79544,30.33615 -6.46084,50.73018" style="opacity:0.25"/>
 <path style="fill:#ffffff;fill-opacity:1" mask="none" clip-path="url(#clipPath5910)" d="M 110.05273 111.38477 L 110.05273 401.06836 L 399.73633 401.06836 L 399.73633 111.38477 L 110.05273 111.38477 z"/>
</svg>
