<svg height="512" viewBox="0 0 512 512" width="512" xmlns="http://www.w3.org/2000/svg">
 <path d="m471.95 253.05c0 120.9-98.01 218.9-218.9 218.9-120.9 0-218.9-98.01-218.9-218.9 0-120.9 98.01-218.9 218.9-218.9 120.9 0 218.9 98.01 218.9 218.9" fill="#55405f" fill-rule="evenodd"/>
 <g fill-rule="evenodd">
  <path d="m256 1c-140.83 0-255 114.17-255 255s114.17 255 255 255 255-114.17 255-255-114.17-255-255-255m8.827 44.931c120.9 0 218.9 98 218.9 218.9s-98 218.9-218.9 218.9-218.93-98-218.93-218.9 98.03-218.9 218.93-218.9" fill-opacity=".067"/>
  <g fill-opacity=".129">
   <path d="m256 4.433c-138.94 0-251.57 112.63-251.57 251.57s112.63 251.57 251.57 251.57 251.57-112.63 251.57-251.57-112.63-251.57-251.57-251.57m5.885 38.556c120.9 0 218.9 98 218.9 218.9s-98 218.9-218.9 218.9-218.93-98-218.93-218.9 98.03-218.9 218.93-218.9"/>
   <path d="m256 8.356c-136.77 0-247.64 110.87-247.64 247.64s110.87 247.64 247.64 247.64 247.64-110.87 247.64-247.64-110.87-247.64-247.64-247.64m2.942 31.691c120.9 0 218.9 98 218.9 218.9s-98 218.9-218.9 218.9-218.93-98-218.93-218.9 98.03-218.9 218.93-218.9"/>
  </g>
  <path d="m253.04 7.859c-135.42 0-245.19 109.78-245.19 245.19 0 135.42 109.78 245.19 245.19 245.19 135.42 0 245.19-109.78 245.19-245.19 0-135.42-109.78-245.19-245.19-245.19zm0 26.297c120.9 0 218.9 98 218.9 218.9s-98 218.9-218.9 218.9-218.93-98-218.93-218.9 98.03-218.9 218.93-218.9z" fill="#ffffff" stroke="#000000" stroke-opacity=".31" stroke-width="4.904"/>
 </g>
 <g fill="#ffffff" fill-rule="evenodd" transform="matrix(-1.1159 0 0 1.1159 2670 -1.363)">
  <path d="m2130.6 83.25c-.435-.072-.495.538-.188 1.813 2.032 8.435 2.89 20.577 2.438 34.19-.556 16.73-1.934 23.23-10.25 48.47-5.825 17.677-6.21 20.754-3.531 26.875 1.171 2.674 3.953 7.605 6.219 10.969l4.125 6.125 8.594-8.719c4.729-4.799 11.212-10.379 14.375-12.375l5.75-3.625v-12.25c0-13.614-2.184-36.742-4.5-47.75-2.604-12.381-8.726-25.411-17.688-37.688-2.855-3.912-4.618-5.912-5.344-6.03"/>
  <path d="m2259.6 98.78l-11.5 14.281c-12.717 15.774-31.717 35.487-42.5 44.09-3.85 3.073-13.3 9.733-21 14.813-22.509 14.85-37.624 26.729-46.969 36.906-2.226 2.424-4.51 4.899-5.094 5.5-.583.601-2.352 3.691-3.906 6.875-3.517 7.205-4.226 16.09-2.219 27.22.794 4.4 1.294 8.153 1.125 8.344s-1.284-2.734-2.469-6.5c-2.937-9.336-3.044-21.72-.25-29.75l2.063-5.906-6-7.594c-6.845-8.665-9.826-14.14-12.188-22.344-2.941-10.212-9.1-14.75-20-14.75-9.509 0-17.891 6.529-20.313 15.875-.729 2.813-1.682 3.664-6.25 5.5-2.97 1.194-5.541 2.623-5.719 3.156-.177.533 1.781 2.095 4.375 3.469 11.762 6.23 16.256 13.983 19.688 34.13 3.745 21.979 15.873 47.27 28.28 59 7.555 7.142 18.472 12.287 33.594 15.813 7.482 1.745 12.707 2.51 31.375 4.656 3.437.395 5.995 2.02 15 9.563 5.971 5 14.925 12.373 19.875 16.375 4.95 4 14.175 11.642 20.5 16.969l11.5 9.688 6.281-.625c3.465-.348 8.776-1.563 11.781-2.688 12.08-4.518 16.197-11.671 17.938-31.03l.719-7.656-14.875-7.219c-8.172-3.965-20.919-10.02-28.344-13.469-22.404-10.396-28.22-13.09-35.06-16.344-5.771-2.741-7.175-4.03-11.844-10.719-4.068-5.826-5.703-7.422-6.969-6.875-4.361 1.883-12.15 2.712-15.344 1.625l-3.281-1.125 3.156.531c4.606.763 10.838-1.232 14.844-4.75 5.084-4.464 5.208-6.456.906-14.281-3.628-6.601-3.661-6.786-1.813-8.594 1.038-1.016 6.828-4.805 12.844-8.438 16.728-10.1 26.07-17.13 36.594-27.531 17.805-17.593 26.26-34.27 30.375-59.813 1.87-11.612 2.931-35.11 1.875-41.531l-.781-4.844m-175.91 88.28c.718-.001 1.431.494 2.469 1.531 1.842 1.842 1.946 2.353.781 4.219-1.395 2.233-3.433 2.679-5.688 1.25-1.772-1.123-1.121-5.131 1.063-6.5.513-.322.944-.5 1.375-.5m102.16 108c .672.023 1.242.564 2.094 1.813 1.62 2.374 5.323 11.26 4.875 11.688-.124.119-1.793-.602-3.719-1.594-6.863-3.534-9.01-8.801-4.656-11.406.569-.34 1-.514 1.406-.5"/>
  <path d="m2171 312.19c-.968-.051-1.944.351-2.937 1.25-2.61 2.362-2.531 4.812.25 7.969 2.453 2.784 9.211 6.437 12 6.5 1.619.037 1.582-.105-.156-1.844-1.034-1.034-2.646-4.209-3.594-7.06-1.444-4.346-3.433-6.699-5.563-6.813"/>
 </g>
</svg>
