<svg height="1814.17" viewBox="0 0 512 512" width="1814.17" xmlns="http://www.w3.org/2000/svg">
 <g transform="matrix(3.7943493 0 0 3.7943493 92.504217 -343.14585)">
  <g fill-rule="evenodd" transform="matrix(.26458334 0 0 .26458334 -24.644056 90.171432)">
   <path d="m471.95 253.05c0 120.9-98.01 218.91-218.91 218.91-120.9 0-218.91-98.01-218.91-218.91 0-120.9 98.01-218.91 218.91-218.91 120.9 0 218.91 98.01 218.91 218.91" fill="#34a8f0"/>
   <path d="m256 1c-140.83 0-255 114.17-255 255 0 140.83 114.17 255 255 255 140.83 0 255-114.17 255-255 0-140.83-114.17-255-255-255m8.827 44.931c120.9 0 218.9 98 218.9 218.9 0 120.9-98 218.9-218.9 218.9-120.9 0-218.93-98-218.93-218.9 0-120.9 98.03-218.9 218.93-218.9" fill-opacity=".067"/>
   <g fill-opacity=".129">
    <path d="m256 4.43c-138.94 0-251.57 112.63-251.57 251.57 0 138.94 112.63 251.57 251.57 251.57 138.94 0 251.57-112.63 251.57-251.57 0-138.94-112.63-251.57-251.57-251.57m5.885 38.556c120.9 0 218.9 98 218.9 218.9 0 120.9-98 218.9-218.9 218.9-120.9 0-218.93-98-218.93-218.9 0-120.9 98.03-218.9 218.93-218.9"/>
    <path d="m256 8.36c-136.77 0-247.64 110.87-247.64 247.64 0 136.77 110.87 247.64 247.64 247.64 136.77 0 247.64-110.87 247.64-247.64 0-136.77-110.87-247.64-247.64-247.64m2.942 31.691c120.9 0 218.9 98 218.9 218.9 0 120.9-98 218.9-218.9 218.9-120.9 0-218.93-98-218.93-218.9 0-120.9 98.03-218.9 218.93-218.9"/>
   </g>
   <path d="m253.04 7.86c-135.42 0-245.19 109.78-245.19 245.19 0 135.42 109.78 245.19 245.19 245.19 135.42 0 245.19-109.78 245.19-245.19 0-135.42-109.78-245.19-245.19-245.19m0 26.297c120.9 0 218.9 98 218.9 218.9 0 120.9-98 218.9-218.9 218.9-120.9 0-218.93-98-218.93-218.9 0-120.9 98.03-218.9 218.93-218.9z" fill="#ffffff" stroke="#000000" stroke-opacity=".31" stroke-width="4.904"/>
  </g>
  <path d="m52.384093 110.70045c-25.175105 0-53.4961065 28.321-53.4961065 53.49611l50.4242945 50.4243c28.231045-3.4044 50.207335-27.11451 50.895259-56.09432l-47.823447-47.82344" opacity=".25"/>
  <path d="m52.384093 110.70045c-25.175105 0-53.4961065 28.321-53.4961065 53.49611h6.292057l.01667-.008c0-22.01598 25.1592305-47.19373 47.1857945-47.19373v-6.29206m0 12.58412c-18.880668 0-40.909877 22.04243-40.909877 40.91252h6.300523l.0082-.008c0-15.73477 18.867439-34.60221 34.60221-34.60221v-6.30053m0 12.59258c-12.587288 0-28.318355 15.73213-28.318355 28.31836h6.292056c0-9.4406 12.585965-22.02656 22.026564-22.02656v-6.29206m-6.292057 12.58438c-3.476625 0-6.292056 2.8149-6.292056 6.29205 0 3.47663 2.814902 6.30053 6.292056 6.30053 3.476625 0 6.292057-2.82311 6.292057-6.30053 0-3.47662-2.814903-6.29205-6.292057-6.29205m-.7112 18.88596c-3.083983 0-5.580063 2.49713-5.580063 5.58006v26.6065c0 3.07446 2.497138 5.57213 5.580063 5.57213h1.438804c3.074459 0 5.564188-2.4982 5.564188-5.57213v-26.6065c0-3.08398-2.489994-5.58006-5.564188-5.58006z" fill="#f9f9f9"/>
 </g>
</svg>
