<svg xmlns="http://www.w3.org/2000/svg" height="512" width="512" version="1.1" viewBox="0 0 512 512">
 <g fill-rule="evenodd">
  <path opacity=".705" d="m471.95 253.05c0 120.9-98.01 218.9-218.9 218.9-120.9 0-218.9-98.01-218.9-218.9 0-120.9 98.01-218.9 218.9-218.9 120.9 0 218.9 98.01 218.9 218.9" fill="#989898"/>
  <path d="m256 1c-140.83 0-255 114.17-255 255s114.17 255 255 255 255-114.17 255-255-114.17-255-255-255m8.827 44.931c120.9 0 218.9 98 218.9 218.9s-98 218.9-218.9 218.9-218.93-98-218.93-218.9 98.03-218.9 218.93-218.9" fill-opacity=".067"/>
  <g fill-opacity=".129">
   <path d="m256 4.433c-138.94 0-251.57 112.63-251.57 251.57s112.63 251.57 251.57 251.57 251.57-112.63 251.57-251.57-112.63-251.57-251.57-251.57m5.885 38.556c120.9 0 218.9 98 218.9 218.9s-98 218.9-218.9 218.9-218.93-98-218.93-218.9 98.03-218.9 218.93-218.9"/>
   <path d="m256 8.356c-136.77 0-247.64 110.87-247.64 247.64s110.87 247.64 247.64 247.64 247.64-110.87 247.64-247.64-110.87-247.64-247.64-247.64m2.942 31.691c120.9 0 218.9 98 218.9 218.9s-98 218.9-218.9 218.9-218.93-98-218.93-218.9 98.03-218.9 218.93-218.9"/>
  </g>
  <path d="m253.04 7.859c-135.42 0-245.19 109.78-245.19 245.19 0 135.42 109.78 245.19 245.19 245.19 135.42 0 245.19-109.78 245.19-245.19 0-135.42-109.78-245.19-245.19-245.19zm0 26.297c120.9 0 218.9 98 218.9 218.9s-98 218.9-218.9 218.9-218.93-98-218.93-218.9 98.03-218.9 218.93-218.9z" stroke-opacity=".31" stroke="#000000" stroke-width="4.904" fill="#ffffff"/>
 </g>
 <path opacity=".25" d="m253.41 411.62 62.227 50.417c84.71-19.07 150.9-79.3 156.3-208.97 0-6.93-0.339-13.797-0.969-20.563-0.246-0.244-0.505-0.474-0.75-0.719-0.058-0.056-0.098-0.132-0.156-0.188-0.273-0.28-0.567-0.537-0.844-0.813-0.058-0.056-0.098-0.132-0.156-0.188-0.324-0.333-0.67-0.642-1-0.969-0.218-0.224-0.436-0.436-0.656-0.656-0.111-0.107-0.201-0.237-0.313-0.344-65.484-61.956-10.834-9.6095-66.81-61.485" fill="#000000"/>
 <path d="m241.21 404.77c-55.009-29.611-99.85-89.709-122.15-163.7-7.9956-26.535-16.334-71.087-13.862-74.065 0.64631-0.77876 5.8114-2.9423 11.478-4.8079 45.88-15.105 96.479-38.833 123.87-58.088 4.4817-3.1504 8.7286-5.728 9.4377-5.728 0.70909 0 5.4279 2.3246 10.486 5.1657 22.369 12.564 64.305 30.756 119.44 51.813 10.232 3.9077 19.244 7.7195 20.027 8.4709 1.568 1.5038 0.96871 7.2016-3.1404 29.854-15.22 83.905-55.417 154.94-111.69 197.36-8.0415 6.063-30.333 19.345-32.42 19.318-0.61748-0.008-5.7836-2.5239-11.48-5.5904z" fill="#ffffff"/>
</svg>
