<svg width="512" height="512" version="1.1" viewBox="0 0 512 512" xmlns="http://www.w3.org/2000/svg">
 <g fill-rule="evenodd">
  <path d="m471.95 253.05c0 120.9-98.01 218.9-218.9 218.9-120.9 0-218.9-98.01-218.9-218.9 0-120.9 98.01-218.9 218.9-218.9 120.9 0 218.9 98.01 218.9 218.9" fill="#7f7feb"/>
  <path d="m256 1c-140.83 0-255 114.17-255 255s114.17 255 255 255 255-114.17 255-255-114.17-255-255-255m8.827 44.931c120.9 0 218.9 98 218.9 218.9s-98 218.9-218.9 218.9-218.93-98-218.93-218.9 98.03-218.9 218.93-218.9" fill-opacity=".067"/>
  <g fill-opacity=".129">
   <path d="m256 4.433c-138.94 0-251.57 112.63-251.57 251.57s112.63 251.57 251.57 251.57 251.57-112.63 251.57-251.57-112.63-251.57-251.57-251.57m5.885 38.556c120.9 0 218.9 98 218.9 218.9s-98 218.9-218.9 218.9-218.93-98-218.93-218.9 98.03-218.9 218.93-218.9"/>
   <path d="m256 8.356c-136.77 0-247.64 110.87-247.64 247.64s110.87 247.64 247.64 247.64 247.64-110.87 247.64-247.64-110.87-247.64-247.64-247.64m2.942 31.691c120.9 0 218.9 98 218.9 218.9s-98 218.9-218.9 218.9-218.93-98-218.93-218.9 98.03-218.9 218.93-218.9"/>
  </g>
 </g>
 <path d="m370.91 140.25-87.57-52.848-61.528 59.321 11.388 4.4149-11.936 0.5608 2.554 27.69 0.6862 13.398-34.555-22.506-53.999-3.0211-25.421 21.271-2.1302 109.45 75.236 49.043 4.2683 46.47 116.72 72.393c61.419-10.482 100.01-50.818 135.94-94.63 29.567-47.243 55.707-127.01 28.704-191.81l-93.208-61.828" opacity=".25"/>
 <path d="m253.04 7.859c-135.42 0-245.19 109.78-245.19 245.19 0 135.42 109.78 245.19 245.19 245.19 135.42 0 245.19-109.78 245.19-245.19 0-135.42-109.78-245.19-245.19-245.19zm0 26.297c120.9 0 218.9 98 218.9 218.9s-98 218.9-218.9 218.9-218.93-98-218.93-218.9 98.03-218.9 218.93-218.9z" fill="#ffffff" fill-rule="evenodd" stroke="#000000" stroke-opacity=".31" stroke-width="4.904"/>
 <g transform="translate(-2.0057 -32.666)" fill="#ffffff">
  <path d="m322.44 214.59c9.2155 0.22806 16.504 7.876 16.291 17.092v102.56c0.35923 15.44-1.7398 30.409-7.6729 43.617 8.003 3.7596 15.88 5.6066 25.308 5.6052h0.29296c34.278 0 62.064-27.789 62.064-62.066v-89.92c0-9.3266-7.5601-16.887-16.887-16.887z" stroke-width=".17147"/>
  <g stroke-width=".13171">
   <circle cx="358.55" cy="174.24" r="30.722"/>
   <path d="m262.98 114.21a44.376 44.376 0 0 0-44.377 44.377 44.376 44.376 0 0 0 5.2207 20.812h19.678c6.9113 0 12.516 5.6025 12.516 12.514v10.443a44.376 44.376 0 0 0 6.9629 0.60547 44.376 44.376 0 0 0 44.375-44.375 44.376 44.376 0 0 0-44.375-44.377z"/>
   <path d="m116.18 181.7c-6.9111 0-12.514 5.6025-12.514 12.514v125.17c0 6.9111 5.6024 12.514 12.514 12.514h125.17c6.9111 0 12.516-5.6024 12.516-12.514v-125.17c0-6.9111-5.6044-12.514-12.516-12.514zm29.65 34.422h65.867v13.217h-25.021v68.135h-15.941v-68.135h-24.904z"/>
  </g>
  <path d="m256.69 217.59v104.79c0 6.9112-5.6045 12.514-12.516 12.514h-104.15v2.3438c-1.2869 55.303 42.466 101.2 97.768 102.55 55.302-1.3534 99.056-47.247 97.77-102.55v-102.56c0.21348-9.2158-7.0775-16.864-16.293-17.092z" stroke-width=".17147"/>
 </g>
</svg>
