<svg xmlns="http://www.w3.org/2000/svg" height="512" viewBox="0 0 512 512" width="512">
 <path d="M471.95 253.05c0 120.9-98.01 218.9-218.9 218.9-120.9 0-218.9-98.01-218.9-218.9 0-120.9 98.01-218.9 218.9-218.9 120.9 0 218.9 98.01 218.9 218.9" fill="#7bc76b" fill-rule="evenodd"/>
 <path d="M250.59 114.117c-52.51-2-103.71 38.21-116.833 97.114-13.254 59.494 11.834 137.696 11.834 137.696l144.037 117.238c2.59 20.226 185.593-26.632 183.853-228.948-.02-.02-.04-.042-.063-.063l-.22-.22c-.094-.093-.185-.187-.28-.28-.167-.166-.332-.334-.5-.5-.333-.335-.664-.67-1-1l-.125-.125c-.612-.625-1.22-1.26-1.844-1.875-.33-.332-.666-.67-1-1-.328-.33-.67-.643-1-.97-.333-.334-.664-.668-1-1l-.438-.437c-.117-.112-.226-.232-.344-.344l-.22-.22-.124-.124c-.612-.625-1.22-1.26-1.844-1.875-.33-.332-.666-.67-1-1-.333-.335-.664-.67-1-1-.33-.332-.667-.64-1-.97l-.22-.218c-.073-.073-.143-.146-.218-.22-.116-.11-.227-.232-.344-.343l-.22-.22-.124-.124c-.612-.625-1.22-1.26-1.844-1.875-.33-.332-.666-.67-1-1-.333-.335-.664-.67-1-1-.33-.332-.667-.64-1-.97l-.22-.218c-.073-.073-.143-.146-.218-.22l-.063-.062c-.167-.166-.332-.334-.5-.5-.333-.335-.664-.67-1-1l-.125-.125c-.612-.625-1.22-1.26-1.844-1.875-.33-.332-.666-.67-1-1-.33-.332-.667-.64-1-.97l-.22-.218c-.094-.094-.185-.188-.28-.28-.167-.167-.332-.335-.5-.5-.333-.336-.664-.67-1-1l-.125-.126c-.612-.626-1.22-1.262-1.844-1.876-.332-.332-.667-.67-1-1-.334-.335-.665-.67-1-1-.33-.332-.668-.64-1-.97l-.22-.218c-.074-.073-.144-.146-.22-.22-.115-.11-.226-.232-.343-.343l-.22-.22-.124-.124c-.612-.626-1.22-1.262-1.844-1.876-.332-.332-.667-.67-1-1-.334-.335-.665-.67-1-1-.33-.332-.668-.64-1-.97l-.22-.218c-.074-.073-.144-.146-.22-.22l-.062-.062c-.167-.166-.332-.334-.5-.5-.333-.335-.664-.67-1-1l-.125-.125c-.612-.626-1.22-1.262-1.844-1.876-.332-.332-.667-.67-1-1-.33-.332-.668-.64-1-.97l-.22-.218c-.095-.094-.186-.188-.28-.28-.168-.167-.333-.335-.5-.5-.334-.336-.665-.67-1-1l-.126-.126c-.612-.625-1.22-1.26-1.844-1.875-.33-.332-.666-.67-1-1-.328-.33-.67-.643-1-.97-.333-.334-.664-.668-1-1l-.438-.437c-.116-.11-.227-.233-.344-.344l-.22-.22-.124-.124c-.612-.625-1.22-1.26-1.844-1.875-.33-.332-.666-.67-1-1-.333-.335-5.14-5.415-5.475-5.746-35.202-27.346-70.805-31.403-52.6-35.996-25.68-25.1-53.63-2.66-92.65-18.93" fill-opacity=".235"/>
 <g fill-rule="evenodd">
  <path d="M256 1C115.17 1 1 115.17 1 256s114.17 255 255 255 255-114.17 255-255S396.83 1 256 1m8.827 44.93c120.9 0 218.9 98 218.9 218.9s-98 218.9-218.9 218.9-218.93-98-218.93-218.9 98.03-218.9 218.93-218.9" fill-opacity=".067"/>
  <g fill-opacity=".129">
   <path d="M256 4.433c-138.94 0-251.57 112.63-251.57 251.57S117.06 507.573 256 507.573s251.57-112.63 251.57-251.57S394.94 4.433 256 4.433m5.885 38.556c120.9 0 218.9 98 218.9 218.9s-98 218.9-218.9 218.9-218.93-98-218.93-218.9 98.03-218.9 218.93-218.9"/>
   <path d="M256 8.356c-136.77 0-247.64 110.87-247.64 247.64S119.23 503.636 256 503.636s247.64-110.87 247.64-247.64S392.77 8.356 256 8.356m2.942 31.69c120.9 0 218.9 98 218.9 218.9s-98 218.9-218.9 218.9-218.93-98-218.93-218.9 98.03-218.9 218.93-218.9"/>
  </g>
  <path d="M253.04 7.86C117.62 7.86 7.85 117.64 7.85 253.05c0 135.42 109.78 245.19 245.19 245.19 135.42 0 245.19-109.78 245.19-245.19 0-135.42-109.78-245.19-245.19-245.19zm0 26.296c120.9 0 218.9 98 218.9 218.9s-98 218.9-218.9 218.9-218.93-98-218.93-218.9 98.03-218.9 218.93-218.9z" fill="#ffffff" stroke="#000000" stroke-opacity=".31" stroke-width="4.904"/>
 </g>
 <path d="M368.833 328.62c28.054-42.563 29.85-94.94 9.73-138.305l31.19-3.43c.21-.105.355-.308.547-.44 4.11-.715 5.95-6.85 2.96-9.775l-88.44-82.817c-2.4-2.45-7.133-1.863-8.974 1.016l-8.667 24.935c-62.694-27.994-138.38-7.46-177.177 51.403-43.14 65.455-24.838 154.2 40.944 197.557 65.78 43.356 154.74 25.305 197.88-40.148zm-45.76-9.38c-4.198 6.192-9.72 11.958-16.342 17.483-37.606 26.99-79.385 36.16-120.586 9.005-53.334-35.152-68.13-106.304-33.155-159.37 31.935-48.453 94.004-64.53 145.174-40.233L276.77 208.25c-2.17 3.528 1.058 8.993 5.207 8.76l30.45-10.845c1.508 1.658 11.21-2.23 23.014 46.854 5.574 23.158 1.084 46.32-12.36 66.24" fill="#ffffff"/>
 <g fill="none" stroke="#ffffff" stroke-width="9.08" stroke-linecap="round" stroke-linejoin="round">
  <path d="M327.458 301.35l-12.173-8.022M183.928 206.75l-13.612-8.972M197.765 328.09l7.836-11.888" stroke-width="14.27"/>
 </g>
 <path d="M259.534 349.49c.165-.43.395-.812.546-1.24.738-1.512 1.107-3.204 1.078-4.887l-1.022-91.19c1.554-6.852-5.426-14.164-12.36-12.946l-.182-.12c-.252.094-.498.2-.74.313-.12.003-.204.042-.31.06-.252.094-.498.2-.74.313-.12.004-.204.043-.31.062-.253.094-.5.2-.74.313-.12.003-.204.042-.312.062l-.303.067c-.165.068-.287.165-.435.247l-.123.186-50.468 25.37c-5.04 2.54-7.285 9.44-4.72 14.477 2.566 5.04 9.487 7.317 14.526 4.777l35.723-18.034.972 76.232c-.166 4.704 3.164 9.327 7.69 10.675 4.524 1.348 9.823-.704 12.234-4.74z" fill="#ffffff"/>
 <path d="M245.41 255.8l-42.21-79" fill="none" stroke="#ffffff" stroke-width="7.138" stroke-linecap="round"/>
</svg>
