<svg height="512" viewBox="0 0 512 512" width="512" xmlns="http://www.w3.org/2000/svg">
 <g transform="translate(0 -540.36)">
  <g fill-rule="evenodd">
   <path d="m471.95 793.41c0 120.9-98.01 218.9-218.9 218.9-120.9 0-218.9-98.01-218.9-218.9 0-120.9 98.01-218.9 218.9-218.9 120.9 0 218.9 98.01 218.9 218.9" fill="#ffffff"/>
   <path d="m562.86-316.57c0 198.82-161.18 360-360 360s-360-161.18-360-360 161.18-360 360-360 360 161.18 360 360" fill="#6788cc" transform="matrix(.63095 0 0 .63095 125.99 996.1)"/>
  </g>
  <path d="m290.88 137.06l-106.53 183.66c-17.11 28.404-30.351 39.06-47.781 39.06l-1.594 15.16h1.094l-.094 1h1.094c-.013.123-.094 1-.094 1h1.094c-.013.123-.094 1-.094 1h1.063c-.012.116-.094.969-.094.969h1.094c-.013.123-.094 1-.094 1h1.094c-.013.123-.094 1-.094 1h1.094l-.094 1h1.094c-.013.123-.094 1-.094 1h1.094c-.013.123-.094 1-.094 1h1.063c-.012.116-.094.969-.094.969h1.094c-.013.123-.094 1-.094 1h1.094l-.094 1h1.094c-.013.123-.094 1-.094 1h1.094c-.013.123-.094 1-.094 1h1.094c-.013.123-.094 1-.094 1h1.063c-.012.116-.094.969-.094.969h1.094c-.013.123-.094 1-.094 1h1.094c-.013.123-.094 1-.094 1h1.094c-.013.123-.094 1-.094 1h1.094c-.013.123-.094 1-.094 1h1.094c-.013.123-.094 1-.094 1h1.063c-.012.116-.094.969-.094.969h1.094c-.013.123-.094 1-.094 1h1.094c-.013.123-.094 1-.094 1h1.094c-.013.123-.094 1-.094 1h1.094c-.013.123-.094 1-.094 1h1.094c-.013.123-.094 1-.094 1h1.094c-.013.123-.094 1-.094 1h1.063c-.012.116-.094.969-.094.969h1.094c-.013.123-.094 1-.094 1h1.094c-.013.123-.094 1-.094 1h1.094c-.013.123-.094 1-.094 1h1.094c-.013.123-.094 1-.094 1h1.094c-.013.123-.094 1-.094 1h1.063c-.012.116-.094.969-.094.969h1.094c-.013.123-.094 1-.094 1h1.094c-.013.123-.094 1-.094 1h1.094c-.013.123-.094 1-.094 1h1.094c-.013.123-.094 1-.094 1h1.094c-.013.123-.094 1-.094 1h1.063c-.012.116-.094.969-.094.969h1.094c-.013.123-.094 1-.094 1h1.094c-.013.123-.094 1-.094 1h1.094c-.013.123-.094 1-.094 1h1.094c-.013.123-.094 1-.094 1h1.094c-.013.123-.094 1-.094 1h1.094c-.013.123-.094 1-.094 1h1.063c-.012.116-.094.969-.094.969h1.094l-.094 1h1.094c-.013.123-.094 1-.094 1h1.094c-.013.123-.094 1-.094 1h1.094c-.013.123-.094 1-.094 1h1.094c-.013.123-.094 1-.094 1h1.063c-.012.115-.094.969-.094.969h1.094c-.013.123-.094 1-.094 1h1.094c-.013.123-.094 1-.094 1h1.094c-.013.123-.094 1-.094 1h1.094c-.013.123-.094 1-.094 1h1.094c-.013.123-.094 1-.094 1h1.063c-.012.115-.094.969-.094.969h1.094c-.013.123-.094 1-.094 1h1.094c-.013.123-.094 1-.094 1h1.094c-.013.123-.094 1-.094 1h1.094c-.013.123-.094 1-.094 1h1.094l-.094 1h1.063c-.012.115-.094.969-.094.969h1.094c-.013.123-.094 1-.094 1h1.094c-.013.123-.094 1-.094 1h1.094c-.013.123-.094 1-.094 1h1.094c-.013.123-.094 1-.094 1h1.094c-.013.123-.094 1-.094 1h1.094c-.013.123-.094 1-.094 1h1.063c-.012.115-.094.969-.094.969h1.094c-.013.123-.094 1-.094 1h1.094c-.013.123-.094 1-.094 1h1.094c-.013.123-.094 1-.094 1h1.094c-.013.123-.094 1-.094 1h1.094c-.013.123-.094 1-.094 1h1.063c-.012.115-.094.969-.094.969h1.094c-.013.123-.094 1-.094 1h1.094c-.013.123-.094 1-.094 1h1.094c-.013.123-.094 1-.094 1h1.094c-.013.123-.094 1-.094 1h1.094c-.013.123-.094 1-.094 1h1.063c-.012.115-.094.969-.094.969h1.094c-.013.123-.094 1-.094 1h1.094c-.013.123-.094 1-.094 1h1.094c-.013.123-.094 1-.094 1h1.094c-.013.123-.094 1-.094 1h1.094c-.013.123-.094 1-.094 1h1.094c-.013.123-.094 1-.094 1h1.063c-.012.115-.094.969-.094.969h1.094c-.013.123-.094 1-.094 1h1.094c-.013.123-.094 1-.094 1h1.094c-.013.123-.094 1-.094 1h1.094c-.013.123-.094 1-.094 1h1.094c-.013.123-.094 1-.094 1h1.063c-.012.115-.094.969-.094.969h1.094c-.013.123-.094 1-.094 1h1.094c-.013.123-.094 1-.094 1h1.094c-.013.123-.094 1-.094 1h1.094c-.013.123-.094 1-.094 1h1.094c-.013.123-.094 1-.094 1h1.063c-.012.115-.094.969-.094.969h1.094c-.013.122-.094 1-.094 1h1.094c-.013.122-.094 1-.094 1h1.094c-.013.122-.094 1-.094 1h1.094c-.013.122-.094 1-.094 1h1.094c-.006.057-.011.248-.031.469 3.473.158 6.957.281 10.469.281 107.48 0 197.54-74.65 221.13-174.94h-.656c-.002-.01-.188-1-.188-1h-.813c-.002-.01-.188-1-.188-1h-.813c-.002-.01-.188-1-.188-1h-.813c-.002-.01-.188-1-.188-1h-.813c-.002-.01-.188-1-.188-1h-.781c-.002-.009-.188-.969-.188-.969h-.813l-.188-1h-.813l-.188-1h-.813l-.188-1h-.813l-.188-1h-.813c-.002-.01-.188-1-.188-1h-.781c-.002-.009-.188-.969-.188-.969h-.813c-.002-.01-.188-1-.188-1h-.813c-.002-.01-.188-1-.188-1h-.813c-.002-.01-.188-1-.188-1h-.813c-.002-.01-.188-1-.188-1h-.813c-.002-.01-.188-1-.188-1h-.813c-.002-.01-.188-1-.188-1h-.781c-.002-.009-.188-.969-.188-.969h-.813c-.002-.01-.188-1-.188-1h-.813c-.002-.01-.188-1-.188-1h-.813c-.002-.01-.188-1-.188-1h-.813c-.002-.01-.188-1-.188-1h-.813c-.002-.01-.188-1-.188-1h-.781c-.002-.009-.188-.969-.188-.969h-.813c-.002-.01-.188-1-.188-1h-.813c-.002-.01-.188-1-.188-1h-.813l-.188-1h-.813l-.188-1h-.813c-.002-.01-.188-1-.188-1h-.781c-.002-.009-.188-.969-.188-.969h-.813c-.002-.01-.188-1-.188-1h-.813c-.002-.01-.188-1-.188-1h-.813c-.002-.01-.188-1-.188-1h-.813c-.002-.01-.188-1-.188-1h-.813c-.002-.01-.188-1-.188-1h-.781c-.002-.009-.188-.969-.188-.969h-.813l-.188-1h-.813l-.188-1h-.813l-.188-1h-.813l-.188-1h-.813c-.002-.01-.188-1-.188-1h-.813c-.002-.01-.188-1-.188-1h-.781c-.002-.009-.188-.969-.188-.969h-.813c-.002-.01-.188-1-.188-1h-.813c-.002-.01-.188-1-.188-1h-.813c-.002-.01-.188-1-.188-1h-.813c-.002-.01-.188-1-.188-1h-.813l-.188-1h-.781l-.188-.969h-.813l-.188-1h-.813l-.188-1h-.813c-.002-.01-.188-1-.188-1h-.813c-.002-.01-.188-1-.188-1h-.813c-.002-.01-.188-1-.188-1h-.781c-.002-.009-.188-.969-.188-.969h-.813c-.002-.01-.188-1-.188-1h-.813c-.002-.01-.188-1-.188-1h-.813c-.002-.01-.188-1-.188-1h-.813c-.002-.01-.188-1-.188-1h-.813c-.002-.01-.188-1-.188-1h-.813l-.188-1h-.781l-.188-.969h-.813c-.002-.01-.188-1-.188-1h-.813c-.002-.01-.188-1-.188-1h-.813c-.002-.01-.188-1-.188-1h-.813c-.002-.01-.188-1-.188-1h-.813c-.002-.01-.188-1-.188-1h-.781c-.002-.009-.188-.969-.188-.969h-.813c-.002-.01-.188-1-.188-1h-.813c-.002-.01-.188-1-.188-1h-.813c-.002-.01-.188-1-.188-1h-.813l-.188-1h-.813l-.188-1h-.781l-.188-.969h-.813c-.002-.01-.188-1-.188-1h-.813c-.002-.01-.188-1-.188-1h-.813c-.002-.01-.188-1-.188-1h-.813c-.002-.01-.188-1-.188-1h-.813c-.002-.01-.188-1-.188-1h-.781c-.002-.009-.188-.969-.188-.969h-.813c-.002-.01-.188-1-.188-1h-.813c-.002-.01-.188-1-.188-1h-.813c-.002-.01-.188-1-.188-1h-.813l-.188-1h-.813l-.188-1h-.813c-.002-.01-.188-1-.188-1h-.781c-.002-.009-.188-.969-.188-.969h-.813c-.002-.01-.188-1-.188-1h-.813c-.002-.01-.188-1-.188-1h-.813c-.002-.01-.188-1-.188-1h-.813c-.002-.01-.188-1-.188-1h-.813c-.002-.01-.188-1-.188-1h-.781c-.002-.009-.188-.969-.188-.969h-.813c-.002-.01-.188-1-.188-1h-.813l-.188-1h-.813l-.188-1h-.813c-.002-.01-.188-1-.188-1h-.813c-.002-.01-.188-1-.188-1h-.781c-.002-.009-.188-.969-.188-.969h-.813c-.002-.01-.188-1-.188-1h-.813c-.002-.01-.188-1-.188-1h-.813c-.002-.01-.188-1-.188-1h-.813c-.002-.01-.188-1-.188-1h-.813c-.002-.01-.188-1-.188-1h-.813c-.002-.01-.188-1-.188-1h-.781l-.188-.969h-.813l-.188-1h-.813l-.188-1h-.813c-.002-.01-.188-1-.188-1h-.813c-.002-.01-.188-1-.188-1h-.813c-.002-.01-.188-1-.188-1h-.781c-.002-.009-.188-.969-.188-.969h-.813c-.002-.01-.188-1-.188-1h-.813c-.002-.01-.188-1-.188-1h-.813c-.002-.01-.188-1-.188-1h-.813c-.002-.01-.188-1-.188-1h-.813c-.002-.01-.188-1-.188-1h-.781l-.188-.969h-.813l-.188-1h-.813c-.002-.01-.188-1-.188-1h-.813c-.002-.01-.188-1-.188-1h-.813c-.002-.01-.188-1-.188-1h-.813c-.002-.01-.188-1-.188-1h-.781c-.002-.009-.188-.969-.188-.969h-.813c-.002-.01-.188-1-.188-1h-.813c-.002-.01-.188-1-.188-1h-.813c-.002-.01-.188-1-.188-1h-.813c-.002-.01-.188-1-.188-1h-.813l-.188-1h-.813l-.188-1h-.781l-.188-.969h-.813c-.002-.01-.188-1-.188-1h-.813c-.002-.01-.188-1-.188-1h-.813c-.002-.01-.188-1-.188-1h-.813c-.002-.01-.188-1-.188-1h-.813c-.002-.01-.188-1-.188-1h-.781c-.002-.009-.188-.969-.188-.969h-.813c-.002-.01-.188-1-.188-1h-.813c-.002-.01-.188-1-.188-1h-.813c-.002-.01-.188-1-.188-1h-.813l-.188-1h-.813l-.188-1h-.781c-.002-.009-.188-.969-.188-.969h-.813c-.002-.01-.188-1-.188-1h-.813c-.002-.01-.188-1-.188-1h-.813c-.002-.01-.188-1-.188-1h-.813c-.002-.01-.188-1-.188-1h-.813c-.002-.01-.188-1-.188-1h-.813c-.002-.01-.188-1-.188-1h-.781c-.002-.009-.188-.969-.188-.969h-.813c-.002-.01-.188-1-.188-1h-.813l-.188-1h-.813l-.188-1h-.813l-.188-1h-.813c-.002-.01-.188-1-.188-1h-.781c-.002-.009-.188-.969-.188-.969h-.813c-.002-.01-.188-1-.188-1h-.813l-.188-1h-.813c-.002-.01-.188-1-.188-1h-.813c-.002-.01-.188-1-.188-1h-.813c-.002-.01-.188-1-.188-1h-.781c-.002-.009-.188-.969-.188-.969h-.813c-.002-.01-.188-1-.188-1h-.813l-.188-1h-.813l-.188-1h-.813c-.002-.01-.188-1-.188-1h-.813c-.002-.01-.188-1-.188-1h-.781c-.002-.009-.188-.969-.188-.969h-.813c-.002-.01-.188-1-.188-1h-.813c-.002-.01-.188-1-.188-1h-.813c-.002-.01-.188-1-.188-1h-13.35" fill-opacity=".235" opacity=".876" transform="translate(0 540.36)"/>
  <g fill="#ffffff">
   <path d="m292.17 640.29c-29.542 0-51.54 6.309-74.22 21.295-22.757 15.04-42.557 38.793-52.19 62.52-3.667 9.04-5.315 11.62-7.24 11.3-1.37-.227-8.556-.477-15.928-.568-24.26-.3-41.83 6.708-58.6 23.481-11.03 11.03-17.695 22.459-21.238 36.2-2.449 9.499-3.234 28.16-1.533 36.598l.994 4.969-8.177 1.675c-7.765 1.604-15.05 4.683-21.579 8.944 8.793 38.863 27.521 73.937 53.41 102.41.041.045.073.097.114.142 1.149 1.262 2.344 2.512 3.521 3.748.364.382.74.756 1.107 1.136.955.989 1.895 1.981 2.868 2.953.782.781 1.564 1.559 2.357 2.328.264.256.53.512.795.767.851.817 1.72 1.609 2.584 2.413 1.128 1.05 2.258 2.096 3.407 3.123.524.469 1.061.927 1.59 1.391.8.702 1.603 1.41 2.413 2.101.041.035.073.079.114.114.967.824 1.943 1.634 2.924 2.442h.028c39.24 32.31 89.5 51.732 144.29 51.732 55.12 0 105.64-19.648 144.97-52.3h.028c.413-.343.811-.705 1.221-1.051.95-.8 1.902-1.598 2.839-2.413.197-.172.4-.339.596-.511.116-.102.225-.211.341-.312 1.414-1.244 2.82-2.497 4.202-3.776 1.323-1.224 2.624-2.465 3.918-3.719.168-.163.343-.319.511-.483.959-.936 1.897-1.887 2.839-2.839.758-.766 1.525-1.523 2.271-2.3.671-.698 1.325-1.423 1.988-2.129.472-.503.952-.997 1.42-1.505.114-.124.227-.245.341-.369.208-.227.417-.453.625-.681 36.682-40.34 59.03-93.93 59.03-152.75 0-3.035-.081-6.05-.199-9.06-12.681-10.998-28.11-18.967-45.34-22.544l-7.439-1.533-1.732-10.818c-4.02-25.842-15.868-49.24-35.406-69.875-27.325-28.862-58.61-42.25-98.84-42.25" fill-opacity=".446" fill-rule="evenodd"/>
   <text line-height="125%" style="opacity:.876;font-size:322.78;font-family:Century Schoolbook L;font-style:italic;word-spacing:0;letter-spacing:0" x="161.43" y="915.31">
    <tspan x="161.43" y="915.31">A</tspan>
   </text>
  </g>
  <g fill-rule="evenodd">
   <path d="m256 541.36c-140.83 0-255 114.17-255 255s114.17 255 255 255 255-114.17 255-255-114.17-255-255-255m8.827 44.931c120.9 0 218.9 98 218.9 218.9s-98 218.9-218.9 218.9-218.93-98-218.93-218.9 98.03-218.9 218.93-218.9" fill-opacity=".067"/>
   <g fill-opacity=".129">
    <path d="m256 544.79c-138.94 0-251.57 112.63-251.57 251.57s112.63 251.54 251.57 251.54 251.57-112.6 251.57-251.54-112.63-251.57-251.57-251.57m5.885 38.556c120.9 0 218.9 98 218.9 218.9s-98 218.9-218.9 218.9-218.93-98-218.93-218.9 98.03-218.9 218.93-218.9"/>
    <path d="m256 548.72c-136.77 0-247.64 110.87-247.64 247.64s110.87 247.64 247.64 247.64 247.64-110.87 247.64-247.64-110.87-247.64-247.64-247.64m2.942 31.691c120.9 0 218.9 98 218.9 218.9s-98 218.9-218.9 218.9-218.93-98-218.93-218.9 98.03-218.9 218.93-218.9"/>
   </g>
   <path d="m253.04 548.22c-135.42 0-245.19 109.78-245.19 245.19 0 135.42 109.78 245.19 245.19 245.19 135.42 0 245.19-109.78 245.19-245.19 0-135.42-109.78-245.19-245.19-245.19zm0 26.297c120.9 0 218.9 98 218.9 218.9s-98 218.9-218.9 218.9-218.93-98-218.93-218.9 98.03-218.9 218.93-218.9z" fill="#ffffff" stroke="#000000" stroke-opacity=".31" stroke-width="4.904"/>
  </g>
  <text x="729.64" y="771.72">
   
  </text>
  <text x="1310.91" y="691.72">
   
  </text>
  <text x="239.33" y="510.46">
   
  </text>
  <text x="1337.38" y="293.99">
   
  </text>
  <text x="1918.65" y="213.99">
   
  </text>
  <text x="1529.53" y="-258.41">
   
  </text>
  <text x="2110.79" y="-338.42">
   
  </text>
  <text x="277.99" y="1076.3">
   
  </text>
 </g>
</svg>
