<svg xmlns="http://www.w3.org/2000/svg" height="512" viewBox="0 0 512 512" width="512">
 <path d="M471.95 253.05c0 120.9-98.01 218.9-218.9 218.9-120.9 0-218.9-98.01-218.9-218.9 0-120.9 98.01-218.9 218.9-218.9 120.9 0 218.9 98.01 218.9 218.9" fill="#d13517" fill-rule="evenodd"/>
 <path d="M256 1C115.17 1 1 115.17 1 256c0 140.83 114.17 255 255 255 140.83 0 255-114.17 255-255C511 115.17 396.83 1 256 1m8.827 44.93c120.9 0 218.9 98 218.9 218.9s-98 218.9-218.9 218.9-218.93-98-218.93-218.9 98.03-218.9 218.93-218.9" fill-opacity=".067" fill-rule="evenodd"/>
 <g fill-opacity=".129" fill-rule="evenodd">
  <path d="M256 4.433c-138.94 0-251.57 112.63-251.57 251.57S117.06 507.573 256 507.573s251.57-112.63 251.57-251.57S394.94 4.433 256 4.433m5.885 38.556c120.9 0 218.9 98 218.9 218.9s-98 218.9-218.9 218.9-218.93-98-218.93-218.9 98.03-218.9 218.93-218.9"/>
  <path d="M256 8.356c-136.77 0-247.64 110.87-247.64 247.64 0 136.77 110.87 247.64 247.64 247.64 136.77 0 247.64-110.87 247.64-247.64 0-136.77-110.87-247.64-247.64-247.64m2.942 31.69c120.9 0 218.9 98 218.9 218.9s-98 218.9-218.9 218.9-218.93-98-218.93-218.9 98.03-218.9 218.93-218.9"/>
 </g>
 <path d="M320.878 133.92l-23.648 13.002-28-3.2-15.288 7.294 5.023-2.9-19.53 2.312-8.936 11.823-34.817-28.33-70.578 12.896-9.092 135.063 65.31 21.258-65.31 81.174 188.61 81.576c72.13-25.404 150.613-32.212 169.53-213.31l-3.92-76.37-81.066-42.287-38.59 11.753" opacity=".25"/>
 <path d="M253.04 7.86C117.62 7.86 7.85 117.64 7.85 253.05c0 135.42 109.78 245.19 245.19 245.19 135.42 0 245.19-109.78 245.19-245.19 0-135.42-109.78-245.19-245.19-245.19zm0 26.296c120.9 0 218.9 98 218.9 218.9s-98 218.9-218.9 218.9-218.93-98-218.93-218.9 98.03-218.9 218.93-218.9z" fill="#fff" fill-rule="evenodd" stroke="#000" stroke-opacity=".31" stroke-width="4.904"/>
 <g fill="#fff">
  <path d="M116.013 133.92h79.67v147.96h-79.67zM207.064 202.21h113.814v125.194H207.064zM207.064 338.786h182.103v45.526H207.064zM207.064 133.92h113.814v56.908H207.064zM332.26 202.21h56.907v125.194H332.26z"/>
  <path fill-rule="evenodd" d="M116.013 293.26h79.67v91.052h-79.67z"/>
  <path d="M332.26 133.92h56.907v56.908H332.26z"/>
 </g>
</svg>
