<svg height="512" viewBox="0 0 512 512" width="512" xmlns="http://www.w3.org/2000/svg">
 <path d="m471.95 252.95c0 120.9-98.01 218.9-218.9 218.9-120.9 0-218.9-98.01-218.9-218.9 0-120.9 98.01-218.9 218.9-218.9 120.9 0 218.9 98.01 218.9 218.9" fill="#68af4c" fill-rule="evenodd"/>
 <path d="m241.91625 82.574028l68.89801 70.433802-112.37875 112.32728-68.97119-64.94461z" fill-opacity=".118" fill-rule="evenodd"/>
 <path d="m126.70241 410.90067l48.5802 47.92371c83.1353 25.04334 157.79414 8.64623 225.17578-43.32829 86.60409-66.14021 61.94781-135.31207 73.52679-198.25972l-77.46573-86.65657-28.88552 37.41988 102.41231 105.03826v18.38171l-70.90083-71.55733-97.0634-58.17295c0 0-94.74063 95.18126-142.17741 142.61428l-31.23272 106.59702z" fill-opacity=".118" fill-rule="evenodd"/>
 <g fill-rule="evenodd">
  <path d="m256 .9c-140.83 0-255 114.17-255 255s114.17 255 255 255 255-114.17 255-255-114.17-255-255-255m8.827 44.931c120.9 0 218.9 98 218.9 218.9s-98 218.9-218.9 218.9-218.93-98-218.93-218.9 98.03-218.9 218.93-218.9" fill-opacity=".067"/>
  <g fill-opacity=".129">
   <path d="m256 4.333c-138.94 0-251.57 112.63-251.57 251.57s112.63 251.57 251.57 251.57 251.57-112.63 251.57-251.57-112.63-251.57-251.57-251.57m5.885 38.556c120.9 0 218.9 98 218.9 218.9s-98 218.9-218.9 218.9-218.93-98-218.93-218.9 98.03-218.9 218.93-218.9"/>
   <path d="m256 8.256c-136.77 0-247.64 110.87-247.64 247.64s110.87 247.64 247.64 247.64 247.64-110.87 247.64-247.64-110.87-247.64-247.64-247.64m2.942 31.691c120.9 0 218.9 98 218.9 218.9s-98 218.9-218.9 218.9-218.93-98-218.93-218.9 98.03-218.9 218.93-218.9"/>
  </g>
  <path d="m253.04 7.759c-135.42 0-245.19 109.78-245.19 245.19 0 135.42 109.78 245.19 245.19 245.19 135.42 0 245.19-109.78 245.19-245.19 0-135.42-109.78-245.19-245.19-245.19zm0 26.297c120.9 0 218.9 98 218.9 218.9s-98 218.9-218.9 218.9-218.93-98-218.93-218.9 98.03-218.9 218.93-218.9z" fill="#ffffff" stroke="#000000" stroke-opacity=".31" stroke-width="4.904"/>
 </g>
 <g fill="#ffffff" fill-rule="evenodd" transform="matrix(.54833505 .54833505 -.54833505 .54833505 562.83403 -302.3586)">
  <path d="m185.53 141.97v245.63l56.656 109.75a15.316 17.064 0 0 0 15.469 8.5 15.316 17.064 0 0 0 11.031-8.4062l57.75-111v-244.47h-140.91m71.344 211.97a4.2743 4.2743 0 0 1 3.4375 1.375l24.03 26.375h9.219a4.2743 4.2743 0 0 1 3.6875 6.4062l-29.16 50.44a4.2743 4.2743 0 0 1 -3.6875 2.1562h-15.438a4.2743 4.2743 0 0 1 -3.75-2.1875l-29.28-52.5a4.2743 4.2743 0 0 1 3.7188-6.375h12.406l21.938-24.281a4.2743 4.2743 0 0 1 2.875-1.4062" transform="translate(0 540.36)"/>
  <rect height="56.5" rx="62.13" ry="28.25" width="140.92" x="185.55" y="546.36"/>
  <path d="m185.55 574.38h140.92v33.24h-140.92z"/>
  <path d="m185.55 625.89h140.92v34.899h-140.92z"/>
 </g>
 <rect fill="#ffffff" fill-rule="evenodd" height="37.824" rx="0" ry="15.783" transform="matrix(.70710678 .70710678 -.70710678 .70710678 0 0)" width="163.672" x="154.4" y="-50.01"/>
 <rect fill="#ffffff" fill-rule="evenodd" height="37.824" rx="0" ry="15.783" transform="matrix(-.70710678 .70710678 -.70710678 -.70710678 0 0)" width="163.672" x="-112.94" y="-255.15"/>
</svg>
