<svg height="512" viewBox="0 0 512 512" width="512" xmlns="http://www.w3.org/2000/svg">
 <path d="m471.95 253.05c0 120.9-98.01 218.9-218.9 218.9-120.9 0-218.9-98.01-218.9-218.9 0-120.9 98.01-218.9 218.9-218.9 120.9 0 218.9 98.01 218.9 218.9" fill="#3595ac" fill-rule="evenodd"/>
 <path d="m253.03 34.16c-1.889 0-3.747.015-5.625.063-56.667 1.436-108.01 24.404-146.09 61.03v192.34c-15.935 4.661-12.647 7.576-16.625 16 43.15 43.39 115.04 114.38 158.25 157.81 3.528 3.517 7.06 7.04 10.594 10.563 120.67-.27 218.41-98.18 218.41-218.91 0-118.73-94.53-215.39-212.44-218.81-.271-.007-.542-.025-.813-.031-.166-.004-.334.004-.5 0-1.718-.033-3.44-.062-5.156-.063" fill-opacity=".235"/>
 <path d="m253.0293 34.158203v.001953c-58.902 0-112.36875 19.242594-151.71875 50.558594v208.08008h309.3789v-203.169924c-39.818-34.2-95.74015-55.470703-157.66015-55.470703zm-64.87696 51.457031h9.08985v21.083986c5.63479.24236 11.08811.84893 16.35937 1.81836 5.27126.90884 10.42032 2.1805 15.44922 3.8164v15.90625c-5.0289-2.54474-10.20917-4.51465-15.54101-5.9082-5.27126-1.39355-10.69338-2.21077-16.26758-2.45312v38.80664c13.75374 2.12062 23.87242 5.90634 30.35547 11.35937 6.48304 5.45303 9.72461 12.90551 9.72461 22.35742 0 10.23958-3.45416 18.32984-10.36133 24.26758-6.84658 5.87715-16.75266 9.2689-29.71875 10.17774v27.53906h-9.08985l-.08984-27.35742c-6.36187-.12118-12.72407-.84673-19.08594-2.17969-6.36186-1.39355-12.75332-3.45513-19.17578-6.18164v-16.35742c6.1801 3.87771 12.41943 6.81501 18.7207 8.81445 6.36187 1.93885 12.90546 2.93941 19.63086 3v-41.44336c-13.39021-2.18121-23.14416-5.87722-29.26367-11.08789-6.05892-5.21067-9.08789-12.36084-9.08789-21.44922 0-9.87604 3.30203-17.66204 9.90625-23.35742 6.60422-5.69538 16.08512-8.96621 28.44531-9.81445zm0 34.171876c-7.02834.78766-12.38999 2.78682-16.08593 5.99805-3.69594 3.21122-5.54297 7.4826-5.54297 12.81445 0 5.21067 1.69685 9.27141 5.08984 12.17969 3.45359 2.90828 8.96541 4.99716 16.53906 6.26953zm9.08985 54.71289v39.35156c7.69483-1.03001 13.47971-3.21056 17.35742-6.54297 3.9383-3.3324 5.9082-7.7247 5.9082-13.17773 0-5.33185-1.87823-9.57397-5.63476-12.72461-3.69594-3.15064-9.5725-5.45211-17.63086-6.90625zm113.05859 83.42969h96.70117v12.99804h-96.70117z" fill="#ffffff"/>
 <g fill-rule="evenodd">
  <path d="m256 1c-140.83 0-255 114.17-255 255s114.17 255 255 255 255-114.17 255-255-114.17-255-255-255m8.827 44.931c120.9 0 218.9 98 218.9 218.9s-98 218.9-218.9 218.9-218.93-98-218.93-218.9 98.03-218.9 218.93-218.9" fill-opacity=".067"/>
  <g fill-opacity=".129">
   <path d="m256 4.433c-138.94 0-251.57 112.63-251.57 251.57s112.63 251.57 251.57 251.57 251.57-112.63 251.57-251.57-112.63-251.57-251.57-251.57m5.885 38.556c120.9 0 218.9 98 218.9 218.9s-98 218.9-218.9 218.9-218.93-98-218.93-218.9 98.03-218.9 218.93-218.9"/>
   <path d="m256 8.356c-136.77 0-247.64 110.87-247.64 247.64s110.87 247.64 247.64 247.64 247.64-110.87 247.64-247.64-110.87-247.64-247.64-247.64m2.942 31.691c120.9 0 218.9 98 218.9 218.9s-98 218.9-218.9 218.9-218.93-98-218.93-218.9 98.03-218.9 218.93-218.9"/>
  </g>
  <path d="m253.04 7.859c-135.42 0-245.19 109.78-245.19 245.19 0 135.42 109.78 245.19 245.19 245.19 135.42 0 245.19-109.78 245.19-245.19 0-135.42-109.78-245.19-245.19-245.19zm0 26.297c120.9 0 218.9 98 218.9 218.9s-98 218.9-218.9 218.9-218.93-98-218.93-218.9 98.03-218.9 218.93-218.9z" fill="#ffffff" stroke="#000000" stroke-opacity=".31" stroke-width="4.904"/>
 </g>
 <path d="m84.64 287.61v15.989h342.72v-15.99h-342.72" fill="#ffffff" fill-rule="evenodd"/>
</svg>
