<?xml version="1.0" encoding="UTF-8" standalone="no"?>
<svg xmlns="http://www.w3.org/2000/svg" height="512" viewBox="0 0 512 512" width="512" version="1.1">
 <path d="m471.95 253.05c0 120.9-98.01 218.9-218.9 218.9-120.9 0-218.9-98.01-218.9-218.9 0-120.9 98.01-218.9 218.9-218.9 120.9 0 218.9 98.01 218.9 218.9" fill="#1793d1" fill-rule="evenodd" style="fill:#747474;fill-opacity:1"/>
 <path d="m256 1c-140.83 0-255 114.17-255 255 0 140.83 114.17 255 255 255 140.83 0 255-114.17 255-255 0-140.83-114.17-255-255-255m8.827 44.931c120.9 0 218.9 98 218.9 218.9 0 120.9-98 218.9-218.9 218.9-120.9 0-218.93-98-218.93-218.9 0-120.9 98.03-218.9 218.93-218.9" fill-opacity=".067" fill-rule="evenodd"/>
 <g fill-opacity=".129" fill-rule="evenodd">
  <path d="m256 4.433c-138.94 0-251.57 112.63-251.57 251.57 0 138.94 112.63 251.57 251.57 251.57 138.94 0 251.57-112.63 251.57-251.57 0-138.94-112.63-251.57-251.57-251.57m5.885 38.556c120.9 0 218.9 98 218.9 218.9 0 120.9-98 218.9-218.9 218.9-120.9 0-218.93-98-218.93-218.9 0-120.9 98.03-218.9 218.93-218.9"/>
  <path d="m256 8.356c-136.77 0-247.64 110.87-247.64 247.64 0 136.77 110.87 247.64 247.64 247.64 136.77 0 247.64-110.87 247.64-247.64 0-136.77-110.87-247.64-247.64-247.64m2.942 31.691c120.9 0 218.9 98 218.9 218.9 0 120.9-98 218.9-218.9 218.9-120.9 0-218.93-98-218.93-218.9 0-120.9 98.03-218.9 218.93-218.9"/>
 </g>
 <path d="m 313.72142,146.53859 c -82.533,3.45754 -152.92754,18.39748 -174.80992,51.28472 0.286,5.357 -25.78015,7.2725 -21.82115,24.2725 3.958,17 9.541,37.03 16.303,54.744 6.535,17.12 -33.950464,46.8212 -34.477243,58.767 l 205.707253,130.281 c 97.12,-22.39 169.53,-109.4 169.53,-213.31 0,-14.14 0.94409,1.17618 -1.61891,-12.22282 l -93.17171,-75.53" style="opacity:0.25"/>
 <path d="m253.04 7.859c-135.42 0-245.19 109.78-245.19 245.19 0 135.42 109.78 245.19 245.19 245.19 135.42 0 245.19-109.78 245.19-245.19 0-135.42-109.78-245.19-245.19-245.19zm0 26.297c120.9 0 218.9 98 218.9 218.9 0 120.9-98 218.9-218.9 218.9-120.9 0-218.93-98-218.93-218.9 0-120.9 98.03-218.9 218.93-218.9z" fill="#ffffff" fill-rule="evenodd" stroke="#000000" stroke-opacity=".31" stroke-width="4.904"/>
 <path style="fill:#ececec;fill-opacity:1;stroke-width:12.57062054" d="M 260.5625 136.16602 C 134.85629 136.16602 97.144531 173.87701 97.144531 331.00977 C 97.144531 356.11709 185.13805 299.58295 210.2793 261.87109 L 310.84375 261.87109 C 335.985 299.58295 423.98047 355.76811 423.98047 331.00977 C 423.98047 173.87701 386.26871 136.16602 260.5625 136.16602 z M 185.13867 173.87695 L 197.70898 173.87695 L 197.70898 199.01758 L 222.84961 199.01758 L 222.84961 211.58789 L 197.70898 211.58789 L 197.70898 236.73047 L 185.13867 236.73047 L 185.13867 211.58789 L 159.99805 211.58789 L 159.99805 199.01758 L 185.13867 199.01758 L 185.13867 173.87695 z M 310.84375 173.87695 A 12.570621 12.570621 0 0 1 323.41602 186.44727 A 12.570621 12.570621 0 0 1 310.84375 199.01758 A 12.570621 12.570621 0 0 1 298.27344 186.44727 A 12.570621 12.570621 0 0 1 310.84375 173.87695 z M 348.55664 173.87695 A 12.570621 12.570621 0 0 1 361.12695 186.44727 A 12.570621 12.570621 0 0 1 348.55664 199.01758 A 12.570621 12.570621 0 0 1 335.98633 186.44727 A 12.570621 12.570621 0 0 1 348.55664 173.87695 z M 310.84375 211.58789 A 12.570621 12.570621 0 0 1 323.41602 224.16016 A 12.570621 12.570621 0 0 1 310.84375 236.73047 A 12.570621 12.570621 0 0 1 298.27344 224.16016 A 12.570621 12.570621 0 0 1 310.84375 211.58789 z M 348.55664 211.58789 A 12.570621 12.570621 0 0 1 361.12695 224.16016 A 12.570621 12.570621 0 0 1 348.55664 236.73047 A 12.570621 12.570621 0 0 1 335.98633 224.16016 A 12.570621 12.570621 0 0 1 348.55664 211.58789 z"/>
</svg>
