<svg width="512" height="512" version="1.1" viewBox="0 0 512 512" xmlns="http://www.w3.org/2000/svg">
 <g fill-rule="evenodd">
  <path d="m471.95 253.05c0 120.9-98.01 218.9-218.9 218.9-120.9 0-218.9-98.01-218.9-218.9 0-120.9 98.01-218.9 218.9-218.9 120.9 0 218.9 98.01 218.9 218.9" fill="#878787"/>
  <path d="m327.58 117.4 147.99 103.14c12.971 74.821-17.358 122.22-48.208 169.29-31.24 42.414-68.416 59.897-107.07 71.19l-146.86-83.522c-64.399-61.401-66.323-112.39-59.979-162 8.0751-31.068 21.645-52.062 38.678-66.706 27.203-26.781 56.135-39.725 86.325-42.602 5.2736-14.523 90.37 19.908 89.128 11.211z" opacity=".25"/>
  <path d="m256 1c-140.83 0-255 114.17-255 255s114.17 255 255 255 255-114.17 255-255-114.17-255-255-255m8.827 44.931c120.9 0 218.9 98 218.9 218.9s-98 218.9-218.9 218.9-218.93-98-218.93-218.9 98.03-218.9 218.93-218.9" fill-opacity=".067"/>
  <g fill-opacity=".129">
   <path d="m256 4.433c-138.94 0-251.57 112.63-251.57 251.57s112.63 251.57 251.57 251.57 251.57-112.63 251.57-251.57-112.63-251.57-251.57-251.57m5.885 38.556c120.9 0 218.9 98 218.9 218.9s-98 218.9-218.9 218.9-218.93-98-218.93-218.9 98.03-218.9 218.93-218.9"/>
   <path d="m256 8.356c-136.77 0-247.64 110.87-247.64 247.64s110.87 247.64 247.64 247.64 247.64-110.87 247.64-247.64-110.87-247.64-247.64-247.64m2.942 31.691c120.9 0 218.9 98 218.9 218.9s-98 218.9-218.9 218.9-218.93-98-218.93-218.9 98.03-218.9 218.93-218.9"/>
  </g>
  <path d="m253.04 7.859c-135.42 0-245.19 109.78-245.19 245.19 0 135.42 109.78 245.19 245.19 245.19 135.42 0 245.19-109.78 245.19-245.19 0-135.42-109.78-245.19-245.19-245.19zm0 26.297c120.9 0 218.9 98 218.9 218.9s-98 218.9-218.9 218.9-218.93-98-218.93-218.9 98.03-218.9 218.93-218.9z" fill="#ffffff" stroke="#000000" stroke-opacity=".31" stroke-width="4.904"/>
 </g>
 <circle cx="253.85" cy="250.53" r="146.02" fill="none" stroke="#ffffff" stroke-linecap="square" stroke-linejoin="round" stroke-width="10"/>
 <path d="m253.82 106.13c-80.214 0-145.25 65.026-145.25 145.25 0 80.214 65.027 145.25 145.25 145.25 80.214 0 145.25-65.027 145.25-145.25 0-80.214-65.025-145.25-145.25-145.25zm-44.533 53.865a18.498 29.709 0 0 1 18.498 29.709 18.498 29.709 0 0 1-18.498 29.709 18.498 29.709 0 0 1-18.498-29.709 18.498 29.709 0 0 1 18.498-29.709zm98.098 0a18.498 29.709 0 0 1 18.498 29.709 18.498 29.709 0 0 1-18.498 29.709 18.498 29.709 0 0 1-18.5-29.709 18.498 29.709 0 0 1 18.5-29.709zm28.916 131.97 3.8262 5.1309c-23.725 17.688-46.281 34.884-73.295 39.219-27.013 4.3346-57.883-4.6266-97.162-37.652l4.1191-4.8984c38.463 32.339 67.102 40.232 92.027 36.232 24.926-3.9995 46.739-20.328 70.484-38.031z" fill="#ffffff" fill-rule="evenodd"/>
</svg>
