<svg version="1.1" viewBox="0 0 512 512" xmlns="http://www.w3.org/2000/svg">
 <clipPath id="d">
  <rect x="6" y="6" width="84" height="84" rx="6"/>
 </clipPath>
 <path d="m252.06 33.19c-120.89 0-218.87 97.97-218.87 218.88v1c0 120.9 97.99 218.88 218.88 218.88h1c120.89 0 218.88-97.98 218.88-218.87v-1c0-120.9-97.99-218.87-218.87-218.87h-1" fill="#888888"/>
 <g fill-rule="evenodd">
  <path d="m256 1c-140.83 0-255 114.17-255 255s114.17 255 255 255 255-114.17 255-255-114.17-255-255-255m8.827 44.931c120.9 0 218.9 98 218.9 218.9s-98 218.9-218.9 218.9-218.93-98-218.93-218.9 98.03-218.9 218.93-218.9" fill-opacity=".067"/>
  <g fill-opacity=".129">
   <path d="m256 4.433c-138.94 0-251.57 112.63-251.57 251.57s112.63 251.57 251.57 251.57 251.57-112.63 251.57-251.57-112.63-251.57-251.57-251.57m5.885 38.556c120.9 0 218.9 98 218.9 218.9s-98 218.9-218.9 218.9-218.93-98-218.93-218.9 98.03-218.9 218.93-218.9"/>
   <path d="m256 8.356c-136.77 0-247.64 110.87-247.64 247.64s110.87 247.64 247.64 247.64 247.64-110.87 247.64-247.64-110.87-247.64-247.64-247.64m2.942 31.691c120.9 0 218.9 98 218.9 218.9s-98 218.9-218.9 218.9-218.93-98-218.93-218.9 98.03-218.9 218.93-218.9"/>
  </g>
  <path d="m253.04 7.859c-135.42 0-245.19 109.78-245.19 245.19 0 135.42 109.78 245.19 245.19 245.19 135.42 0 245.19-109.78 245.19-245.19 0-135.42-109.78-245.19-245.19-245.19zm0 26.297c120.9 0 218.9 98 218.9 218.9s-98 218.9-218.9 218.9-218.93-98-218.93-218.9 98.03-218.9 218.93-218.9z" fill="#ffffff" stroke="#000000" stroke-opacity=".31" stroke-width="4.904"/>
 </g>
 <path d="m161.31 133.25c-.67 0-1.324.036-1.982.082l29.947 29.947c-.009.127-.017.254-.027.381l-30.27-30.27c-.814.068-1.625.136-2.418.271l32.387 32.387c-.005.031-.01.063-.016.094l-32.453-32.453c-.881.153-1.759.337-2.609.57l34.496 34.496c-.014.05-.023.102-.037.152l-34.594-34.594c-.83.232-1.651.482-2.447.787l36.23 36.23c-.032.085-.068.168-.102.252l-36.37-36.37c-1.621.638-3.162 1.423-4.619 2.338l38.66 38.66c-.122.194-.245.387-.371.578l-38.859-38.859c-.667.442-1.332.891-1.957 1.387l39.41 39.41c-.016.02-.033.04-.049.061l-39.42-39.42c-.622.496-1.215 1.03-1.793 1.576l39.648 39.648c-.128.134-.26.265-.391.396l-39.666-39.666c-.599.589-1.167 1.209-1.711 1.85l39.525 39.525c-.039.033-.08.065-.119.098l-39.516-39.516c-.553.658-1.057 1.359-1.549 2.066l39.01 39.01c-.075.052-.151.102-.227.152l-38.949-38.949c-2.045 3-3.513 6.424-4.268 10.11l33.1 33.1c-.15.03-.299.064-.449.092l-32.73-32.73c-.143.762-.274 1.528-.354 2.311l30.777 30.777c-.024.003-.048.005-.072.008l-30.705-30.705c-.091.917-.137 1.858-.137 2.799l28.04 28.04c-.137 0-.272.002-.408 0l63.11 63.11c-.206-.003-.412-.011-.617-.02l-63.12-63.12c-.049-.002-.096-.008-.145-.01l-26.838-26.838c.036.864.105 1.712.217 2.555l24.04 24.04c-.127-.017-.253-.036-.379-.055l-23.611-23.611c.402 2.74 1.201 5.351 2.336 7.773l13.484 13.484c-.052-.024-.103-.05-.154-.074l-13.221-13.221c.367.767.735 1.529 1.168 2.256l9.771 9.771c-.071-.042-.14-.088-.211-.131l-9.424-9.424c.469.771.983 1.508 1.521 2.229l5.719 5.719c-.113-.085-.226-.17-.338-.256l-5.109-5.109c.458.593.936 1.185 1.439 1.738l.082.082c.297.324.6.641.91.951l63.13 63.13 15.5 15.502c-.116.018-.234.024-.35.043l32.28 32.28c-.021.124-.038.249-.061.373l-32.568-32.568c-1.742.312-3.44.769-5.05 1.387l36.22 36.22c-.032.085-.069.167-.102.252l-36.36-36.36c-.775.305-1.544.633-2.283 1l37.635 37.635c-.067.133-.13.268-.199.4l-37.816-37.816c-1.585.826-3.095 1.778-4.484 2.879l39.39 39.39c-.016.02-.033.04-.049.061l-39.4-39.4c-1.353 1.078-2.59 2.282-3.723 3.588l39.557 39.555c-.155.135-.314.265-.473.396l-39.49-39.49c-.465.561-.883 1.144-1.305 1.74l39.06 39.06c-.133.093-.26.194-.395.285l-38.965-38.965c-.977 1.436-1.826 2.982-2.527 4.592l36.904 36.904c-.082.036-.165.07-.248.105l-36.766-36.766v.027l36.746 36.746c-.064.027-.127.054-.191.08l-36.637-36.637c-.671 1.62-1.189 3.298-1.549 5.05l33.13 33.13c-.098.02-.195.04-.293.059l-32.887-32.887c-.158.818-.295 1.658-.381 2.5l30.744 30.744c-.017.001-.034.002-.051.004l-30.693-30.693c-.092.926-.137 1.849-.137 2.799l28.07 28.07c-.009 0-.017.002-.025.002-.483 0-.962-.024-1.439-.051l-26.578-26.578c.233 4.681 1.607 9.05 3.859 12.852l63.21 63.21c.025.043.049.087.074.129l-53.605-53.605c-.051-.031-.1-.063-.15-.094l-9.361-9.361c.937 1.542 2.027 2.992 3.234 4.32l.123.123c.284.309.573.614.869.91l143.02 143.02c42.43-20.371 77.27-54.02 99.15-95.57l-221.63-221.63c-.254-.007-.506-.027-.762-.027-.667 0-1.33.036-1.984.082l29.945 29.945c-.008.11-.014.22-.023.33l-30.25-30.25c-.783.064-1.545.145-2.309.271l32.26 32.26c-.021.125-.038.251-.061.375l-32.557-32.557c-.826.148-1.648.324-2.447.543l34.477 34.477c-.018.065-.029.133-.047.197l-34.619-34.619c-.821.231-1.629.485-2.418.787l36.23 36.23c-.032.085-.068.168-.102.252l-36.37-36.37c-1.62.638-3.164 1.423-4.621 2.338l38.662 38.662c-.122.194-.245.387-.371.578l-38.861-38.861c-.667.442-1.332.891-1.957 1.387l39.41 39.41c-.016.02-.033.04-.049.061l-39.42-39.42c-.622.496-1.215 1.03-1.793 1.576l39.65 39.65c-.128.134-.26.265-.391.396l-39.668-39.668c-.599.589-1.167 1.209-1.711 1.85l39.525 39.525c-.039.033-.08.065-.119.098l-39.516-39.516c-.553.658-1.057 1.359-1.549 2.066l39.02 39.02c-.075.052-.151.101-.227.152l-38.951-38.951c-2.045 3-3.513 6.424-4.268 10.11l33.1 33.1c-.098.02-.195.04-.293.059l-32.863-32.863c-.07.363-.134.725-.193 1.09l-15.744-15.744c-.314-.314-.635-.622-.967-.918l2.174 2.174c.064.071.126.145.189.217l-2.58-2.58c-.628-.55-1.281-1.083-1.957-1.576l6.129 6.129c.023.032.045.064.068.096l-6.307-6.307c-2.959-2.137-6.358-3.71-10.03-4.564l20.924 20.924c.019.079.033.16.051.24l-21.19-21.19c-.84-.189-1.688-.349-2.555-.461l24.2 24.2c.006.043.014.084.02.127l-24.322-24.322c-.883-.11-1.785-.193-2.691-.219l35.19 35.19c.006.025.013.049.02.074l-35.26-35.26c-.254-.007-.504-.027-.76-.027m189.38 0c-.661 0-1.333.037-1.982.082l29.953 29.953c-.008.108-.022.214-.031.322l-30.25-30.25c-.836.068-1.659.159-2.473.299l32.412 32.412c-.008.047-.015.094-.023.141l-32.525-32.525c-.822.145-1.623.328-2.418.543l34.404 34.404c-.042.156-.09.31-.135.465l-34.732-34.732c-.755.218-1.501.454-2.229.732l36.22 36.22c-.033.086-.06.174-.094.26l-36.37-36.37c-1.694.667-3.322 1.504-4.836 2.473l38.742 38.742c-.021.033-.043.066-.064.1l-38.787-38.787c-.765.494-1.49 1.013-2.201 1.576l39.4 39.4c-.016.02-.033.04-.049.061l-39.41-39.41c-.599.477-1.181.998-1.738 1.521l39.637 39.637c-.22.232-.448.459-.676.684l-39.641-39.641c-1.188 1.196-2.276 2.492-3.234 3.885l38.977 38.977c-.022.015-.043.03-.064.045l-38.967-38.967c-1.518 2.22-2.725 4.667-3.559 7.283l35.25 35.25c-.187.059-.375.115-.564.17l-34.848-34.848c-.453 1.531-.793 3.1-.979 4.729l31.09 31.09c-.309.038-.619.076-.93.102l113.33 113.33c3.634-15.706 5.571-32.06 5.623-48.859l-120.48-120.48c-.254-.007-.504-.027-.76-.027h-.002m-125.44.027l221.6 221.6c1.249-2.373 2.467-4.766 3.631-7.189l-79.986-79.986c-.031-.031-.065-.059-.096-.09l-63.01-63.01c-.023-.023-.049-.045-.072-.068l-63.21-63.21c-.314-.314-.635-.622-.967-.918l2.178 2.178c.065.072.127.146.191.219l-2.559-2.559c-3.415-2.999-7.567-5.188-12.146-6.25l20.947 20.947c.008.036.017.072.025.107l-21.08-21.08c-.861-.196-1.748-.346-2.637-.461l24.2 24.2c.008.061.014.123.021.184l-24.379-24.379c-.871-.107-1.743-.193-2.637-.219m126.25 0l120.43 120.43c.001-.215.008-.429.008-.645v-1c0-3.134-.083-6.248-.213-9.35l-100.36-100.36c.019.021.036.044.055.064l-.928-.928c-3.64-3.64-8.262-6.303-13.449-7.506l20.943 20.943c.008.034.015.069.023.104l-21.07-21.07c-.861-.196-1.748-.348-2.637-.463l24.2 24.2c.008.061.014.123.021.184l-24.379-24.379c-.871-.107-1.743-.191-2.637-.217m-28.777 26.03c-.047.664-.109 1.333-.109 2.01l28.04 28.04c-.135 0-.274.002-.408 0l115.5 115.5c.164-.677.338-1.351.496-2.031l-143.52-143.52m-.055 3.479c.089 1.732.345 3.42.734 5.05l20.729 20.729c-.115-.028-.233-.047-.348-.076l-20.301-20.301c.439 1.743 1.046 3.405 1.795 5l13.51 13.51c-.072-.034-.142-.071-.213-.105l-13.215-13.215c.363.76.767 1.508 1.195 2.229l9.863 9.863c-.099-.058-.193-.122-.291-.182l-9.438-9.438c.469.771.958 1.508 1.496 2.229l.025.027c.532.709 1.09 1.41 1.686 2.064l.082.082c.267.292.539.576.818.855l132.61 132.61c.798-2.771 1.533-5.568 2.223-8.383l-116.01-116.01c-.148-.005-.292-.024-.439-.031l-26.518-26.518m-161.36 159.84c-.67 0-1.324.008-1.982.055l29.949 29.949c-.007.102-.013.203-.021.305l-30.23-30.23c-.833.067-1.662.188-2.473.326l32.383 32.383c-.007.039-.013.078-.02.117l-32.473-32.473c-.892.156-1.776.332-2.637.57l34.537 34.537c-.008.028-.014.058-.021.086l-34.596-34.596c-.821.23-1.631.513-2.42.814l36.21 36.21c-.035.091-.074.181-.109.271l-36.37-36.37c-.781.308-1.536.63-2.281 1l37.633 37.633c-.043.085-.083.171-.127.256l-37.752-37.752c-1.632.839-3.193 1.833-4.619 2.963l39.4 39.4c-.016.02-.031.041-.047.061l-39.41-39.41c-1.353 1.078-2.59 2.282-3.723 3.588l39.557 39.555c-.155.135-.314.265-.473.396l-39.49-39.49c-.465.561-.883 1.144-1.305 1.74l39.06 39.06c-.133.093-.26.194-.395.285l-38.965-38.965c-2.045 3-3.513 6.422-4.268 10.11l33.13 33.13c-.166.034-.331.069-.498.1l-32.707-32.707c-.139.748-.276 1.513-.354 2.281l30.762 30.762c-.016.002-.032.004-.049.006l-30.713-30.713c-.092.926-.137 1.849-.137 2.799l28.07 28.07c-.009 0-.017.002-.025.002-.39 0-.772-.024-1.156-.041l-26.859-26.859c.035.852.107 1.695.217 2.525l117.55 117.55c.333.001.663.014.996.014h1c17.843 0 35.18-2.15 51.785-6.178l-143.13-143.13c-.137-.002-.271 0-.408 0m1.088.027l142.97 142.97c2.806-.688 5.592-1.424 8.354-2.219l-132.7-132.7c-.331-.331-.671-.653-1.02-.965l1.77 1.77c.248.269.496.538.734.816l-2.857-2.857c-2.543-2.201-5.478-3.956-8.697-5.135l16.707 16.707c.03.081.055.164.084.246l-17.06-17.06c-.099-.035-.199-.075-.299-.109l17.461 17.461c.028.082.057.164.084.246l-17.762-17.762c-1.565-.521-3.19-.902-4.863-1.141l23.764 23.764c.033.233.072.463.1.697l-24.57-24.57c-.723-.084-1.463-.134-2.201-.162m-28.805 32.2c.84 5.604 3.317 10.669 6.957 14.674l1.902 1.902c-.206-.187-.404-.383-.604-.576l-.918-.918c.189.2.38.396.574.59l101.19 101.19c2.768.116 5.547.186 8.34.199l-93.45-93.45c-.15-.02-.298-.045-.447-.066l-23.547-23.547" opacity=".25"/>
 <g fill="#ffffff">
  <path d="m161.31 133.25c-.67 0-1.325.035-1.984.082a28.054 28.054 0 0 0 -.35322.0543c-.814.068-1.626.136-2.419.272a28.054 28.054 0 0 0 -.0817.0271c-.881.153-1.758.337-2.609.571a28.054 28.054 0 0 0 -.13592.0543c-.83.232-1.649.483-2.446.788a28.054 28.054 0 0 0 -.24452.1087c-1.621.638-3.163 1.422-4.62 2.337a28.054 28.054 0 0 0 -.57061.38044c-.667.442-1.331.891-1.957 1.386a28.054 28.054 0 0 0 -.0539.0543c-.622.496-1.216 1.03-1.793 1.576a28.054 28.054 0 0 0 -.40765.38043c-.599.589-1.168 1.207-1.712 1.848a28.054 28.054 0 0 0 -.1087.1087c-.553.658-1.057 1.357-1.549 2.065a28.054 28.054 0 0 0 -.16296.2174c-2.045 3-3.512 6.424-4.266 10.11a28.054 28.054 0 0 0 -.0817.46196c-.143.762-.274 1.527-.353 2.31a28.054 28.054 0 0 0 0 .0815c-.09.917-.136 1.858-.136 2.799a28.054 28.054 0 0 0 .0269 1.1685c.036.864.105 1.712.217 2.554a28.054 28.054 0 0 0 .0539.38044c.402 2.74 1.202 5.349 2.337 7.772a28.054 28.054 0 0 0 .1087.19022c.367.767.736 1.529 1.168 2.255a28.054 28.054 0 0 0 .13592.21739c.469.771.983 1.508 1.522 2.228a28.054 28.054 0 0 0 .27174.35326c.458.593.937 1.186 1.44 1.739a28.054 28.054 0 0 0 .0817.0815c.58.633 1.185 1.243 1.821 1.821a28.054 28.054 0 0 0 .46191.40762c1.294 1.125 2.699 2.141 4.185 3.02a28.054 28.054 0 0 0 .0539.0271c.789.462 1.61.865 2.446 1.25a28.054 28.054 0 0 0 .027.0271c.757.348 1.518.671 2.31.951a28.054 28.054 0 0 0 .51635.16304c2.474.823 5.1 1.314 7.826 1.413a28.054 28.054 0 0 0 .62496.0271c.137.002.271 0 .408 0 .667 0 1.329-.009 1.984-.054a28.054 28.054 0 0 0 .27174-.0271c.857-.068 1.694-.183 2.527-.326a28.054 28.054 0 0 0 .19026-.0543c1.792-.321 3.534-.796 5.19-1.44a28.054 28.054 0 0 0 .1087-.0543c.832-.328 1.654-.684 2.446-1.087a28.054 28.054 0 0 0 .21739-.13587c1.596-.831 3.113-1.797 4.511-2.908a28.054 28.054 0 0 0 .027-.0271c1.451-1.157 2.798-2.441 3.995-3.859a28.054 28.054 0 0 0 .19017-.24457c.53-.642 1.022-1.295 1.495-1.984a28.054 28.054 0 0 0 .10869-.16304c.486-.719.94-1.464 1.359-2.228a28.054 28.054 0 0 0 .0539-.0815c1.309-2.409 2.268-5.03 2.826-7.799a28.054 28.054 0 0 0 .0269-.21739c.335-1.735.516-3.521.516-5.353a28.054 28.054 0 0 0 -.027-1.4402c-.24-4.739-1.661-9.184-3.967-13.02a28.054 28.054 0 0 0 -.0539-.1087c-.961-1.581-2.071-3.046-3.315-4.402a28.054 28.054 0 0 0 -.29887-.29891c-.542-.573-1.097-1.132-1.685-1.658a28.054 28.054 0 0 0 -.21739-.19022c-.628-.55-1.281-1.083-1.957-1.576a28.054 28.054 0 0 0 -.1087-.0815c-2.959-2.137-6.358-3.711-10.03-4.565a28.054 28.054 0 0 0 -.21739-.0271c-.84-.189-1.687-.35-2.554-.462a28.054 28.054 0 0 0 -.10869 0c-.883-.11-1.784-.191-2.69-.217a28.054 28.054 0 0 0 -.0548 0c-.254-.007-.505-.027-.761-.027z"/>
  <path d="m224.44 133.25c-.667 0-1.329.036-1.984.082a28.054 28.054 0 0 0 -.32609.0271c-.783.064-1.547.145-2.31.272a28.054 28.054 0 0 0 -.3533.0815c-.826.148-1.647.325-2.446.543a28.054 28.054 0 0 0 -.19026.0543c-.821.231-1.63.486-2.418.788a28.054 28.054 0 0 0 -.24461.10869c-1.62.638-3.163 1.422-4.62 2.337a28.054 28.054 0 0 0 -.57061.38043c-.667.442-1.332.891-1.957 1.386a28.054 28.054 0 0 0 -.0548.0543c-.622.496-1.216 1.03-1.793 1.576a28.054 28.054 0 0 0 -.40766.38044c-.599.589-1.168 1.207-1.712 1.848a28.054 28.054 0 0 0 -.1087.1087c-.553.658-1.057 1.357-1.549 2.065a28.054 28.054 0 0 0 -.16305.21739c-2.045 3-3.512 6.424-4.266 10.11a28.054 28.054 0 0 0 -.0539.29891c-.158.816-.295 1.633-.381 2.473a28.054 28.054 0 0 0 0 .0815c-.09.917-.136 1.858-.136 2.799a28.054 28.054 0 0 0 .0269 1.4674c.242 4.681 1.625 9.06 3.886 12.853a28.054 28.054 0 0 0 .13583.21739c.469.771.983 1.508 1.522 2.228a28.054 28.054 0 0 0 .27182.35326c.458.593.937 1.186 1.44 1.739a28.054 28.054 0 0 0 .0817.0815c.58.633 1.185 1.243 1.821 1.821a28.054 28.054 0 0 0 .48914.43479c1.286 1.114 2.683 2.121 4.158 2.989a28.054 28.054 0 0 0 .0548.0271c1.513.887 3.106 1.634 4.783 2.228a28.054 28.054 0 0 0 .51627.16304c2.474.823 5.1 1.314 7.826 1.413a28.054 28.054 0 0 0 .62496.0271c.137.002.271 0 .408 0 .67 0 1.325-.008 1.984-.054a28.054 28.054 0 0 0 .29896-.0271c.833-.067 1.662-.187 2.473-.326a28.054 28.054 0 0 0 .0817-.0271c1.84-.32 3.628-.807 5.326-1.467a28.054 28.054 0 0 0 .10869-.0543c.832-.328 1.654-.684 2.446-1.087a28.054 28.054 0 0 0 .2174-.13587c1.596-.831 3.113-1.797 4.511-2.908a28.054 28.054 0 0 0 .027-.0271c1.451-1.157 2.798-2.441 3.995-3.859a28.054 28.054 0 0 0 .19018-.24457c.53-.642 1.023-1.295 1.495-1.984a28.054 28.054 0 0 0 .10869-.16305c.486-.719.94-1.464 1.359-2.228a28.054 28.054 0 0 0 .0539-.0815c1.309-2.409 2.268-5.03 2.826-7.799a28.054 28.054 0 0 0 .0539-.43478c.309-1.667.489-3.379.489-5.136a28.054 28.054 0 0 0 -.027-1.1685c-.038-.938-.116-1.887-.245-2.799a28.054 28.054 0 0 0 -.0539-.32609c-.561-3.674-1.827-7.104-3.669-10.163a28.054 28.054 0 0 0 -.0539-.10869c-.961-1.581-2.071-3.046-3.315-4.402a28.054 28.054 0 0 0 -.29888-.29892c-.542-.573-1.097-1.132-1.685-1.658a28.054 28.054 0 0 0 -.19026-.16304c-3.415-2.999-7.568-5.188-12.147-6.25a28.054 28.054 0 0 0 -.10869-.0271c-.861-.196-1.747-.347-2.636-.462a28.054 28.054 0 0 0 -.16295 0c-.871-.107-1.742-.192-2.636-.217a28.054 28.054 0 0 0 -.0539 0c-.254-.007-.505-.027-.761-.027"/>
  <path d="m350.69 133.25c-.661 0-1.334.037-1.984.082a28.054 28.054 0 0 0 -.32609.0271c-.836.068-1.659.159-2.473.299a28.054 28.054 0 0 0 -.13591.0271c-.822.145-1.623.329-2.418.543a28.054 28.054 0 0 0 -.46191.13587c-.755.218-1.501.455-2.228.734a28.054 28.054 0 0 0 -.24452.10869c-1.694.667-3.323 1.505-4.837 2.473a28.054 28.054 0 0 0 -.1087.0543c-.765.494-1.49 1.013-2.201 1.576a28.054 28.054 0 0 0 -.0539.0543c-.599.477-1.182.998-1.739 1.522a28.054 28.054 0 0 0 -.67939.67936c-1.188 1.196-2.276 2.493-3.234 3.886a28.054 28.054 0 0 0 -.0548.0543c-1.518 2.22-2.726 4.667-3.56 7.283a28.054 28.054 0 0 0 -.16304.57066c-.453 1.531-.792 3.1-.978 4.728a28.054 28.054 0 0 0 -.0817 1.2228c-.047.664-.109 1.335-.109 2.01a28.054 28.054 0 0 0 .0548 1.4674c.089 1.732.344 3.42.734 5.05a28.054 28.054 0 0 0 .0817.35326c.439 1.743 1.045 3.404 1.794 5a28.054 28.054 0 0 0 .0817.19022c.363.76.768 1.508 1.196 2.228a28.054 28.054 0 0 0 .13592.24456c.469.771.956 1.508 1.495 2.228a28.054 28.054 0 0 0 .027.0271c.532.709 1.089 1.41 1.685 2.065a28.054 28.054 0 0 0 .0817.0815c.628.686 1.291 1.336 1.984 1.957a28.054 28.054 0 0 0 .0817.0815c1.345 1.194 2.817 2.259 4.375 3.179a28.054 28.054 0 0 0 .38053.19022c1.432.818 2.935 1.534 4.511 2.092a28.054 28.054 0 0 0 .51636.16304c2.472.822 5.076 1.313 7.799 1.413a28.054 28.054 0 0 0 .62497.0271c.143.002.291 0 .435 0 .67 0 1.325-.008 1.984-.054a28.054 28.054 0 0 0 .29887-.0271c.833-.067 1.662-.187 2.473-.326a28.054 28.054 0 0 0 .0817-.0271c1.843-.321 3.625-.805 5.326-1.467a28.054 28.054 0 0 0 .21739-.1087c.792-.317 1.582-.648 2.337-1.033a28.054 28.054 0 0 0 .27174-.16304c1.574-.825 3.049-1.784 4.429-2.88a28.054 28.054 0 0 0 .027-.0271c1.45-1.156 2.799-2.442 3.995-3.859a28.054 28.054 0 0 0 .19017-.24457c.53-.642 1.05-1.295 1.522-1.984a28.054 28.054 0 0 0 .10869-.16305c.488-.723.938-1.46 1.359-2.228a28.054 28.054 0 0 0 .0269-.0815c2.159-3.975 3.397-8.528 3.397-13.37a28.054 28.054 0 0 0 -.0269-1.1685c-.038-.938-.116-1.887-.245-2.799a28.054 28.054 0 0 0 -.0539-.32609c-.126-.826-.293-1.618-.489-2.418a28.054 28.054 0 0 0 -.0817-.29892c-.209-.813-.455-1.609-.734-2.391a28.054 28.054 0 0 0 -.0817-.24457c-.294-.802-.615-1.598-.978-2.364a28.054 28.054 0 0 0 -.0817-.16304c-1.202-2.494-2.741-4.776-4.592-6.794a28.054 28.054 0 0 0 -.27183-.24457c-3.726-3.956-8.572-6.855-14.05-8.125a28.054 28.054 0 0 0 -.1087-.0271c-.861-.196-1.747-.347-2.636-.462a28.054 28.054 0 0 0 -.16314 0c-.871-.107-1.742-.192-2.636-.217a28.054 28.054 0 0 0 -.0539 0c-.254-.007-.505-.027-.761-.027z"/>
  <path d="m224.44 196.38c-.667 0-1.329.036-1.984.082a28.054 28.054 0 0 0 -.32609.0271c-.783.064-1.547.145-2.31.272a28.054 28.054 0 0 0 -.3533.0815c-.826.148-1.647.325-2.446.543a28.054 28.054 0 0 0 -.19026.0543c-.821.231-1.63.486-2.418.788a28.054 28.054 0 0 0 -.24461.10869c-.775.305-1.543.635-2.283 1.01a28.054 28.054 0 0 0 -.38044.21739c-.711.37-1.392.768-2.065 1.196a28.054 28.054 0 0 0 -.21739.13587c-.751.487-1.502.995-2.201 1.549a28.054 28.054 0 0 0 -.0548.0543c-.69.55-1.349 1.128-1.984 1.739a28.054 28.054 0 0 0 -.19026.19022c-.541.531-1.052 1.084-1.549 1.658a28.054 28.054 0 0 0 -.40766.46196c-2.31 2.784-4.09 6.03-5.19 9.565a28.054 28.054 0 0 0 0 .0271c-.27.871-.494 1.731-.679 2.636a28.054 28.054 0 0 0 -.0539.29892c-.158.818-.295 1.658-.381 2.5a28.054 28.054 0 0 0 0 .0543c-.092.926-.136 1.876-.136 2.826a28.054 28.054 0 0 0 .0269 1.4131c.234 4.701 1.617 9.09 3.886 12.908a28.054 28.054 0 0 0 .13583.21739c.937 1.542 2.026 2.992 3.234 4.321a28.054 28.054 0 0 0 .0817.0815c.58.633 1.185 1.243 1.821 1.821a28.054 28.054 0 0 0 .16305.13587c1.299 1.163 2.712 2.191 4.212 3.098a28.054 28.054 0 0 0 .67931.40761c2.22 1.258 4.629 2.209 7.174 2.826a28.054 28.054 0 0 0 .46192.1087c1.987.446 4.047.707 6.169.707 1.623 0 3.208-.143 4.756-.408a28.054 28.054 0 0 0 .0817-.0271c1.84-.32 3.628-.807 5.326-1.467a28.054 28.054 0 0 0 .1087-.0543c.832-.328 1.654-.684 2.446-1.087a28.054 28.054 0 0 0 .21739-.13587c.765-.399 1.506-.812 2.228-1.277a28.054 28.054 0 0 0 .0539-.0543c.761-.493 1.52-1.013 2.228-1.576a28.054 28.054 0 0 0 .027-.0271c1.451-1.157 2.798-2.441 3.995-3.859a28.054 28.054 0 0 0 .19017-.24457c1.123-1.36 2.109-2.817 2.962-4.375a28.054 28.054 0 0 0 .0539-.0815c.428-.788.816-1.615 1.169-2.446a28.054 28.054 0 0 0 0-.0271c.72-1.703 1.284-3.47 1.658-5.326a28.054 28.054 0 0 0 .0539-.43479c.309-1.667.489-3.379.489-5.136a28.054 28.054 0 0 0 -.027-1.1685c-.038-.945-.115-1.88-.245-2.799a28.054 28.054 0 0 0 -.0539-.32609c-.562-3.681-1.821-7.126-3.669-10.19a28.054 28.054 0 0 0 -.0539-.0815c-2.36-3.884-5.645-7.137-9.538-9.484a28.054 28.054 0 0 0 -.65218-.38044c-2.3-1.303-4.8-2.294-7.446-2.908a28.054 28.054 0 0 0 -.10869-.0271c-.861-.196-1.747-.347-2.636-.462a28.054 28.054 0 0 0 -.16296 0c-.871-.107-1.742-.192-2.636-.217a28.054 28.054 0 0 0 -.0539 0c-.254-.007-.505-.027-.761-.027"/>
  <path d="m287.56 196.38c-.667 0-1.329.036-1.984.082a28.054 28.054 0 0 0 -.32609.0271c-.783.064-1.546.145-2.31.272a28.054 28.054 0 0 0 -.35322.0815c-.826.148-1.647.325-2.446.543a28.054 28.054 0 0 0 -.16304.0543c-.83.232-1.649.483-2.446.788a28.054 28.054 0 0 0 -.27174.10869c-.721.285-1.429.61-2.12.951a28.054 28.054 0 0 0 -.76087.38044c-1.497.798-2.919 1.726-4.239 2.772a28.054 28.054 0 0 0 -.0539.0543c-.69.55-1.349 1.128-1.984 1.739a28.054 28.054 0 0 0 -.19026.19022c-.541.531-1.052 1.084-1.549 1.658a28.054 28.054 0 0 0 -.40766.46196c-2.31 2.784-4.09 6.03-5.19 9.565a28.054 28.054 0 0 0 0 .0271c-.542 1.749-.923 3.558-1.114 5.435a28.054 28.054 0 0 0 0 .0543c-.092.926-.163 1.876-.163 2.826a28.054 28.054 0 0 0 .0539 1.4131c.087 1.751.34 3.457.734 5.109a28.054 28.054 0 0 0 .0817.32609c.415 1.653.964 3.233 1.658 4.755a28.054 28.054 0 0 0 .2174.48913c.36.752.772 1.488 1.196 2.201a28.054 28.054 0 0 0 .13583.24457c.937 1.542 2.026 2.992 3.234 4.321a28.054 28.054 0 0 0 .0817.0815c.58.633 1.185 1.243 1.821 1.821a28.054 28.054 0 0 0 .16313.13587c1.358 1.216 2.825 2.271 4.402 3.207a28.054 28.054 0 0 0 .38052.24457c2.247 1.285 4.701 2.254 7.283 2.88a28.054 28.054 0 0 0 .46191.1087c1.987.446 4.047.707 6.169.707 1.623 0 3.208-.143 4.755-.408a28.054 28.054 0 0 0 .0817-.0271c1.84-.32 3.628-.807 5.326-1.467a28.054 28.054 0 0 0 .1087-.0543c.837-.329 1.651-.682 2.446-1.087a28.054 28.054 0 0 0 .29888-.16305c.736-.387 1.451-.802 2.147-1.25a28.054 28.054 0 0 0 .0817-.0543c.761-.494 1.494-1.013 2.201-1.576a28.054 28.054 0 0 0 .38052-.32609c1.306-1.078 2.522-2.266 3.614-3.56a28.054 28.054 0 0 0 .19026-.24457c1.123-1.36 2.136-2.817 2.989-4.375a28.054 28.054 0 0 0 .0548-.0815c.428-.788.816-1.615 1.168-2.446a28.054 28.054 0 0 0 0-.0271c.721-1.704 1.284-3.47 1.658-5.326a28.054 28.054 0 0 0 .0539-.43479c.309-1.667.489-3.379.489-5.136a28.054 28.054 0 0 0 -.0269-1.1685c-.038-.945-.115-1.88-.245-2.799a28.054 28.054 0 0 0 -.0539-.32609c-.416-2.725-1.223-5.31-2.364-7.717a28.054 28.054 0 0 0 -.0817-.16305c-2.378-4.935-6.149-9.06-10.815-11.875a28.054 28.054 0 0 0 -.62505-.35326c-2.309-1.312-4.814-2.319-7.473-2.935a28.054 28.054 0 0 0 -.1087-.0271c-.861-.196-1.747-.347-2.636-.462a28.054 28.054 0 0 0 -.16305 0c-.871-.107-1.742-.192-2.636-.217a28.054 28.054 0 0 0 -.0539 0c-.254-.007-.505-.027-.761-.027z"/>
  <path d="m224.44 259.51c-1.575 0-3.115.131-4.62.38a28.054 28.054 0 0 0 -.3533.0815c-1.742.312-3.44.768-5.05 1.386a28.054 28.054 0 0 0 -.24461.10869c-.775.305-1.543.635-2.283 1.01a28.054 28.054 0 0 0 -.38044.21739c-1.585.826-3.094 1.779-4.484 2.88a28.054 28.054 0 0 0 -.0548.0543c-1.353 1.078-2.59 2.281-3.723 3.587a28.054 28.054 0 0 0 -.40766.46196c-.465.561-.883 1.143-1.304 1.739a28.054 28.054 0 0 0 -.29888.38044c-.977 1.436-1.826 2.982-2.527 4.592a28.054 28.054 0 0 0 -.1087.24456v.027a28.054 28.054 0 0 0 -.0817.19022c-.671 1.62-1.189 3.298-1.549 5.05a28.054 28.054 0 0 0 -.0539.29892c-.158.818-.295 1.658-.381 2.5a28.054 28.054 0 0 0 0 .0543c-.092.926-.136 1.849-.136 2.799a28.054 28.054 0 0 0 .0269 1.4402c.233 4.681 1.606 9.05 3.859 12.853a28.054 28.054 0 0 0 .16295.27174c.937 1.542 2.026 2.992 3.234 4.321a28.054 28.054 0 0 0 .0817.0815c.58.633 1.185 1.243 1.821 1.821a28.054 28.054 0 0 0 .16305.13587c.688.616 1.4 1.193 2.147 1.739a28.054 28.054 0 0 0 .19017.13587c.604.434 1.236.837 1.875 1.223a28.054 28.054 0 0 0 .67931.40761c2.22 1.258 4.629 2.209 7.174 2.826a28.054 28.054 0 0 0 .46191.1087c.813.183 1.635.324 2.473.435a28.054 28.054 0 0 0 .0817.0271c1.183.152 2.39.245 3.614.245.67 0 1.325-.035 1.984-.082a28.054 28.054 0 0 0 .3533-.0543c.814-.068 1.626-.136 2.419-.272a28.054 28.054 0 0 0 .0817-.0271c.901-.157 1.794-.357 2.663-.598a28.054 28.054 0 0 0 .10869-.0271c.868-.244 1.722-.519 2.554-.842a28.054 28.054 0 0 0 .1087-.0543c1.72-.677 3.357-1.512 4.891-2.5a28.054 28.054 0 0 0 .51627-.35327c.602-.407 1.199-.826 1.766-1.277a28.054 28.054 0 0 0 .0269-.0271c.719-.573 1.406-1.181 2.065-1.821a28.054 28.054 0 0 0 .29887-.29891c1.881-1.881 3.495-4.03 4.783-6.386a28.054 28.054 0 0 0 .0539-.0815c1.296-2.385 2.238-4.978 2.799-7.717a28.054 28.054 0 0 0 .10869-.57066c.301-1.646.462-3.349.462-5.082a28.054 28.054 0 0 0 -.027-1.1685c-.038-.938-.116-1.86-.245-2.772a28.054 28.054 0 0 0 -.0539-.32609c-.562-3.681-1.821-7.126-3.669-10.19a28.054 28.054 0 0 0 -.0539-.0815c-2.42-3.982-5.814-7.316-9.837-9.674a28.054 28.054 0 0 0 -.1087-.0543c-1.572-.912-3.227-1.686-4.973-2.283a28.054 28.054 0 0 0 -.2174-.0543c-.818-.272-1.65-.51-2.5-.707a28.054 28.054 0 0 0 -.10869-.0271c-1.686-.384-3.431-.614-5.217-.679a28.054 28.054 0 0 0 -.54349-.0271c-.164-.003-.325 0-.489 0"/>
  <path d="m350.69 259.51c-1.626 0-3.232.142-4.783.408a28.054 28.054 0 0 0 -.13591.0271c-1.768.312-3.472.787-5.109 1.413a28.054 28.054 0 0 0 -.27165.10869c-.721.285-1.429.61-2.12.951a28.054 28.054 0 0 0 -.76088.38043c-1.497.798-2.919 1.726-4.239 2.772a28.054 28.054 0 0 0 -.0539.0543c-.696.555-1.371 1.122-2.01 1.739a28.054 28.054 0 0 0 -.16296.16304c-.578.567-1.131 1.179-1.658 1.793a28.054 28.054 0 0 0 -.29887.35327c-.518.624-1 1.261-1.467 1.929a28.054 28.054 0 0 0 -.1087.16305c-1.549 2.269-2.78 4.765-3.614 7.446a28.054 28.054 0 0 0 -.1087.38043c-.442 1.497-.763 3.057-.951 4.647a28.054 28.054 0 0 0 -.1087 1.3315c-.046.659-.109 1.313-.109 1.984a28.054 28.054 0 0 0 .0548 1.4402c.087 1.75.34 3.43.734 5.082a28.054 28.054 0 0 0 .0817.35327c.437 1.733 1.024 3.412 1.766 5a28.054 28.054 0 0 0 .1087.2174c.347.725.736 1.431 1.141 2.12a28.054 28.054 0 0 0 .19027.35326c.937 1.542 1.999 2.992 3.206 4.321a28.054 28.054 0 0 0 .0817.0815c1.815 1.98 3.91 3.687 6.223 5.082a28.054 28.054 0 0 0 .78809.43479c2.19 1.227 4.563 2.165 7.07 2.772a28.054 28.054 0 0 0 .46201.10869c1.987.446 4.047.707 6.168.707.67 0 1.325-.035 1.984-.082a28.054 28.054 0 0 0 .35322-.0543c.814-.068 1.626-.136 2.418-.272a28.054 28.054 0 0 0 .0817-.0271c.901-.157 1.794-.357 2.663-.598a28.054 28.054 0 0 0 .1087-.0271c.872-.245 1.719-.517 2.554-.842a28.054 28.054 0 0 0 .19026-.0815c1.678-.668 3.282-1.508 4.783-2.473a28.054 28.054 0 0 0 .0539-.0271c.775-.501 1.508-1.031 2.228-1.603a28.054 28.054 0 0 0 .027-.0271c.719-.573 1.433-1.181 2.092-1.821a28.054 28.054 0 0 0 .29896-.29892c.567-.567 1.087-1.153 1.603-1.766a28.054 28.054 0 0 0 .19017-.21739c1.126-1.364 2.134-2.84 2.989-4.402a28.054 28.054 0 0 0 .0269-.0815c2.159-3.975 3.397-8.528 3.397-13.37a28.054 28.054 0 0 0 -.0269-1.1685c-.038-.938-.116-1.86-.245-2.772a28.054 28.054 0 0 0 -.0539-.32609c-.126-.826-.293-1.645-.489-2.446a28.054 28.054 0 0 0 -.0817-.29891c-.446-1.733-1.041-3.386-1.793-4.973a28.054 28.054 0 0 0 -.0817-.16304c-2.428-5.04-6.312-9.25-11.11-12.07a28.054 28.054 0 0 0 -.1087-.0543c-1.579-.916-3.245-1.685-5-2.283a28.054 28.054 0 0 0 -.0817-.0271c-.852-.287-1.723-.528-2.609-.734a28.054 28.054 0 0 0 -.1087-.0271c-1.686-.384-3.431-.614-5.217-.679a28.054 28.054 0 0 0 -.54348-.0271c-.164-.003-.325 0-.489 0"/>
  <path d="m161.31 322.63c-.67 0-1.325.008-1.984.054a28.054 28.054 0 0 0 -.29896.0271c-.833.067-1.662.187-2.473.326a28.054 28.054 0 0 0 -.1087.0271c-.892.156-1.775.332-2.636.571a28.054 28.054 0 0 0 -.0817.0271c-.821.23-1.629.514-2.419.815a28.054 28.054 0 0 0 -.27165.1087c-.781.308-1.537.631-2.283 1.01a28.054 28.054 0 0 0 -.24461.13587c-1.632.839-3.193 1.832-4.62 2.962a28.054 28.054 0 0 0 -.0539.0543c-1.353 1.078-2.591 2.281-3.723 3.587a28.054 28.054 0 0 0 -.40757.46196c-.465.561-.883 1.143-1.304 1.739a28.054 28.054 0 0 0 -.29887.38043c-2.045 3-3.512 6.423-4.266 10.11a28.054 28.054 0 0 0 -.0817.51631c-.139.748-.275 1.515-.353 2.283a28.054 28.054 0 0 0 0 .0543c-.092.926-.136 1.849-.136 2.799a28.054 28.054 0 0 0 .0269 1.1685c.035.852.108 1.697.217 2.527a28.054 28.054 0 0 0 .0817.48913c.84 5.604 3.317 10.669 6.957 14.674a28.054 28.054 0 0 0 .38053.40761c.489.517.995 1.016 1.522 1.495a28.054 28.054 0 0 0 .35322.32609c1.992 1.75 4.253 3.214 6.685 4.348a28.054 28.054 0 0 0 .38044.19022c1.578.706 3.23 1.278 4.946 1.685a28.054 28.054 0 0 0 .24461.0543c.826.188 1.676.321 2.527.435a28.054 28.054 0 0 0 .1087.0271c1.187.153 2.385.245 3.614.245.667 0 1.329-.036 1.984-.082a28.054 28.054 0 0 0 .32609-.0271c.839-.068 1.657-.159 2.473-.299a28.054 28.054 0 0 0 .19026-.0543c.854-.153 1.702-.342 2.527-.571a28.054 28.054 0 0 0 .0817-.0271c2.716-.761 5.266-1.906 7.582-3.397a28.054 28.054 0 0 0 .51626-.35327c.602-.407 1.199-.826 1.766-1.277a28.054 28.054 0 0 0 .027-.0271c.718-.572 1.407-1.182 2.065-1.821a28.054 28.054 0 0 0 .29896-.29891c.567-.567 1.114-1.153 1.63-1.766a28.054 28.054 0 0 0 .0269-.0271c.59-.702 1.138-1.443 1.658-2.201a28.054 28.054 0 0 0 .1087-.16305c.486-.72.94-1.463 1.359-2.228a28.054 28.054 0 0 0 .0539-.0815c1.309-2.409 2.268-5.03 2.826-7.799a28.054 28.054 0 0 0 .0269-.21739c.335-1.735.516-3.521.516-5.353a28.054 28.054 0 0 0 -.027-1.4402c-.241-4.747-1.654-9.18-3.967-13.02a28.054 28.054 0 0 0 -.0539-.0815c-.472-.777-.978-1.53-1.522-2.255a28.054 28.054 0 0 0 -.27174-.32609c-1.055-1.365-2.221-2.656-3.506-3.804a28.054 28.054 0 0 0 -.35322-.27174c-2.543-2.201-5.476-3.957-8.696-5.136a28.054 28.054 0 0 0 -.27174-.1087c-.099-.035-.199-.075-.299-.109a28.054 28.054 0 0 0 -.21739-.0543c-1.565-.521-3.191-.902-4.864-1.141a28.054 28.054 0 0 0 -.70653-.1087c-.723-.084-1.463-.135-2.201-.163a28.054 28.054 0 0 0 -.67931-.0271c-.137-.002-.271 0-.408 0"/>
  <path d="m287.56 322.63c-.667 0-1.329.009-1.984.054a28.054 28.054 0 0 0 -.27175.0271c-.792.063-1.565.172-2.337.299a28.054 28.054 0 0 0 -.40757.0815c-.845.152-1.683.317-2.5.543a28.054 28.054 0 0 0 -.0817.0271c-.821.23-1.629.514-2.418.815a28.054 28.054 0 0 0 -.29896.1087c-.749.296-1.485.622-2.201.978a28.054 28.054 0 0 0 -.40766.19021c-1.599.83-3.111 1.825-4.511 2.935a28.054 28.054 0 0 0 -.0539.0543c-1.353 1.078-2.591 2.281-3.723 3.587a28.054 28.054 0 0 0 -.40765.46196c-.518.624-1 1.261-1.467 1.929a28.054 28.054 0 0 0 -.1087.16304c-2.565 3.756-4.245 8.171-4.728 12.935a28.054 28.054 0 0 0 0 .0543c-.092.926-.163 1.849-.163 2.799a28.054 28.054 0 0 0 .0539 1.4674c.089 1.732.344 3.42.734 5.05a28.054 28.054 0 0 0 .0817.35326c1.143 4.535 3.392 8.63 6.44 11.984a28.054 28.054 0 0 0 .38035.40761c.489.517.995 1.016 1.522 1.495a28.054 28.054 0 0 0 .38052.35326c.619.542 1.264 1.062 1.929 1.549a28.054 28.054 0 0 0 .13592.10869c1.459 1.054 3.02 1.956 4.674 2.717a28.054 28.054 0 0 0 .16295.0815c1.572.712 3.235 1.27 4.946 1.685a28.054 28.054 0 0 0 .46192.1087c.813.183 1.635.324 2.473.435a28.054 28.054 0 0 0 .0817.0271c1.183.152 2.39.245 3.614.245.67 0 1.325-.035 1.984-.082a28.054 28.054 0 0 0 .35322-.0543c.814-.068 1.626-.136 2.419-.272a28.054 28.054 0 0 0 .0817-.0271c.901-.157 1.794-.357 2.663-.598a28.054 28.054 0 0 0 .0817-.0271c2.716-.761 5.266-1.906 7.582-3.397a28.054 28.054 0 0 0 .51636-.35327c.608-.411 1.193-.821 1.766-1.277a28.054 28.054 0 0 0 .38053-.32609c.584-.482 1.169-.995 1.712-1.522a28.054 28.054 0 0 0 .29887-.29892c.566-.566 1.087-1.154 1.603-1.766a28.054 28.054 0 0 0 .19026-.21739c.531-.643 1.049-1.322 1.522-2.01a28.054 28.054 0 0 0 .1087-.16305c.486-.72.94-1.463 1.359-2.228a28.054 28.054 0 0 0 .0548-.0815c1.309-2.409 2.268-5.03 2.826-7.799a28.054 28.054 0 0 0 .0539-.43479c.309-1.667.489-3.379.489-5.136a28.054 28.054 0 0 0 -.027-1.1685c-.038-.938-.116-1.86-.245-2.772a28.054 28.054 0 0 0 -.0539-.32609c-.416-2.723-1.224-5.311-2.364-7.717a28.054 28.054 0 0 0 -.0817-.16305c-.791-1.642-1.717-3.202-2.799-4.647a28.054 28.054 0 0 0 -.84235-1.0326c-.858-1.039-1.775-2.029-2.772-2.935a28.054 28.054 0 0 0 -1.0325-.86957c-2.425-2-5.172-3.6-8.179-4.701a28.054 28.054 0 0 0 -.29888-.1087c-.091-.032-.18-.077-.272-.109a28.054 28.054 0 0 0 -.2174-.0543c-1.563-.52-3.192-.902-4.864-1.141a28.054 28.054 0 0 0 -.76088-.10869c-.711-.082-1.42-.135-2.147-.163a28.054 28.054 0 0 0 -.6794-.0271c-.137-.002-.271 0-.408 0z"/>
  <path d="m350.69 322.63c-.661 0-1.334.009-1.984.054a28.054 28.054 0 0 0 -.24452.0271c-.826.064-1.641.164-2.446.299a28.054 28.054 0 0 0 -.27174.0543c-.824.146-1.621.327-2.418.543a28.054 28.054 0 0 0 -.38052.10869c-.764.219-1.519.48-2.255.761a28.054 28.054 0 0 0 -.29887.10869c-.749.296-1.486.622-2.201.978a28.054 28.054 0 0 0 -.40757.19022c-1.599.83-3.111 1.825-4.511 2.935a28.054 28.054 0 0 0 -.0539.0543c-.701.559-1.367 1.144-2.01 1.766a28.054 28.054 0 0 0 -.16296.13587c-.578.567-1.131 1.179-1.658 1.793a28.054 28.054 0 0 0 -.29887.35326c-.518.624-1 1.261-1.467 1.929a28.054 28.054 0 0 0 -.1087.16305c-1.549 2.269-2.78 4.765-3.614 7.446a28.054 28.054 0 0 0 -.1087.38044c-.442 1.497-.763 3.057-.951 4.647a28.054 28.054 0 0 0 -.1087 1.3315c-.046.659-.109 1.313-.109 1.984a28.054 28.054 0 0 0 .0548 1.4674c.089 1.732.344 3.42.734 5.05a28.054 28.054 0 0 0 .0817.35327c1.143 4.535 3.364 8.63 6.413 11.984a28.054 28.054 0 0 0 .51635.54348c.45.47.904.921 1.386 1.359a28.054 28.054 0 0 0 .19018.16304c1.385 1.236 2.9 2.343 4.511 3.288a28.054 28.054 0 0 0 .027.0271c.781.457 1.592.869 2.419 1.25a28.054 28.054 0 0 0 .16304.0815c1.572.712 3.235 1.27 4.946 1.685a28.054 28.054 0 0 0 .46201.1087c1.987.446 4.047.707 6.168.707.67 0 1.325-.035 1.984-.082a28.054 28.054 0 0 0 .35322-.0543c.814-.068 1.626-.136 2.418-.272a28.054 28.054 0 0 0 .0817-.0271c.901-.157 1.794-.357 2.663-.598a28.054 28.054 0 0 0 .0817-.0271c2.708-.759 5.244-1.912 7.555-3.397a28.054 28.054 0 0 0 .0539-.0271c.775-.501 1.508-1.031 2.228-1.603a28.054 28.054 0 0 0 .0269-.0271c.718-.572 1.434-1.182 2.092-1.821a28.054 28.054 0 0 0 .29896-.29891c.566-.566 1.087-1.154 1.603-1.766a28.054 28.054 0 0 0 .19018-.2174c.531-.643 1.049-1.322 1.522-2.01a28.054 28.054 0 0 0 .10869-.16305c.489-.723.938-1.459 1.359-2.228a28.054 28.054 0 0 0 .027-.0815c2.159-3.975 3.397-8.528 3.397-13.37a28.054 28.054 0 0 0 -.027-1.1685c-.038-.938-.116-1.86-.245-2.772a28.054 28.054 0 0 0 -.0539-.32609c-.126-.826-.293-1.645-.489-2.446a28.054 28.054 0 0 0 -.0817-.29892c-.209-.813-.455-1.609-.734-2.391a28.054 28.054 0 0 0 -.0817-.24457c-.293-.801-.616-1.572-.978-2.337a28.054 28.054 0 0 0 -.0817-.16305c-.791-1.642-1.717-3.202-2.799-4.647a28.054 28.054 0 0 0 -.84235-1.0326c-.911-1.103-1.895-2.146-2.962-3.098a28.054 28.054 0 0 0 -.0817-.0543c-2.755-2.443-5.977-4.358-9.538-5.571a28.054 28.054 0 0 0 -.0817-.0271c-1.595-.538-3.264-.924-4.973-1.168a28.054 28.054 0 0 0 -.76088-.1087c-.711-.082-1.42-.135-2.147-.163a28.054 28.054 0 0 0 -.6794-.0271c-.136-.002-.271 0-.408 0"/>
 </g>
</svg>
