<svg width="512" height="512" version="1.1" viewBox="0 0 512 512" xmlns="http://www.w3.org/2000/svg">
 <g fill-rule="evenodd">
  <path d="m471.95 253.05c0 120.9-98.01 218.9-218.9 218.9-120.9 0-218.9-98.01-218.9-218.9 0-120.9 98.01-218.9 218.9-218.9 120.9 0 218.9 98.01 218.9 218.9" fill="#747474"/>
  <path d="m256 1c-140.83 0-255 114.17-255 255s114.17 255 255 255 255-114.17 255-255-114.17-255-255-255m8.827 44.931c120.9 0 218.9 98 218.9 218.9s-98 218.9-218.9 218.9-218.93-98-218.93-218.9 98.03-218.9 218.93-218.9" fill-opacity=".067"/>
  <g fill-opacity=".129">
   <path d="m256 4.433c-138.94 0-251.57 112.63-251.57 251.57s112.63 251.57 251.57 251.57 251.57-112.63 251.57-251.57-112.63-251.57-251.57-251.57m5.885 38.556c120.9 0 218.9 98 218.9 218.9s-98 218.9-218.9 218.9-218.93-98-218.93-218.9 98.03-218.9 218.93-218.9"/>
   <path d="m256 8.356c-136.77 0-247.64 110.87-247.64 247.64s110.87 247.64 247.64 247.64 247.64-110.87 247.64-247.64-110.87-247.64-247.64-247.64m2.942 31.691c120.9 0 218.9 98 218.9 218.9s-98 218.9-218.9 218.9-218.93-98-218.93-218.9 98.03-218.9 218.93-218.9"/>
  </g>
 </g>
 <path d="m334.65 151.84-9.3113-5.9973-14.711-3.771-12.54-4.9466-28.242-0.0878-13.641-7.0508-26.143 6.6959-9.2486-1.7779-7.4472 1.2307-31.956 6.8948-18.515 8.83-24.757 20.158-19.469 20.583c2.1863 12.182-19.197 23.486-1.5766 29.494l57.523 91.625-34.33 31.162 164.34 121c64.463-31.672 137.86-19.045 169.53-213.31l-0.62721-13.167-108.65-85.293-17.756-2.2781" opacity=".25"/>
 <path d="m253.04 7.859c-135.42 0-245.19 109.78-245.19 245.19 0 135.42 109.78 245.19 245.19 245.19 135.42 0 245.19-109.78 245.19-245.19 0-135.42-109.78-245.19-245.19-245.19zm0 26.297c120.9 0 218.9 98 218.9 218.9s-98 218.9-218.9 218.9-218.93-98-218.93-218.9 98.03-218.9 218.93-218.9z" fill="#ffffff" fill-rule="evenodd" stroke="#000000" stroke-opacity=".31" stroke-width="4.904"/>
 <path d="m159.99 354.56-19.702-9.6716 8.225-15.314c4.5309-8.4522 7.7468-15.733 7.2328-16.199-0.60971-0.46625-5.4634-4.0647-10.831-7.8903-58.376-42.404-53.989-111.42 9.5281-151.35 52.769-33.068 135.28-36.702 193.75-8.4522 28.764 13.916 48.179 31.848 58.89 54.634 5.4634 11.632 7.4719 20.084 7.6153 32.039 0.14346 30.497-17.466 58.938-49.589 79.907l-3.1322 2.0084 7.5675 14.286c4.1603 7.8425 7.7468 14.705 7.8903 15.219 0.41843 0.93249-38.806 20.551-41.101 20.551-0.56189 0-17.98-31.705-38.579-70.511-20.682-38.806-37.921-70.511-38.388-70.511-0.41843 0-17.693 31.573-38.34 70.236-21.902 41.053-38.34 70.331-39.416 70.475-1.0281 0.27496-10.736-4.0647-21.674-9.3847m53.14-143.04c19.283-35.351 34.789-64.497 34.562-64.772-0.2391-0.2391-5.7025 0.27496-12.194 0.98031-84.713 10.461-127.54 65.513-84.713 109.36 8.4522 8.6435 25.261 20.503 26.899 19.008 0.19128-0.2391 16.163-29.278 35.447-64.581m144.3 54.73c14.203-10.09 24.149-24.615 26.385-38.435 5.9297-37.12-35.447-70.989-97.278-79.62-7.9381-1.076-14.705-1.7335-15.087-1.3987-0.56189 0.51406 50.665 95.879 65.705 122.3l4.3397 7.6632 4.0169-2.379c2.1997-1.2553 7.5675-4.9972 11.907-8.1294" fill="#ffffff" stroke-width="11.955"/>
</svg>
