<svg width="512" height="512" version="1.1" viewBox="0 0 512 512" xmlns="http://www.w3.org/2000/svg">
 <g fill-rule="evenodd">
  <path d="m471.95 253.05c0 120.9-98.01 218.9-218.9 218.9-120.9 0-218.9-98.01-218.9-218.9 0-120.9 98.01-218.9 218.9-218.9 120.9 0 218.9 98.01 218.9 218.9" fill="#747474"/>
  <path d="m256 1c-140.83 0-255 114.17-255 255s114.17 255 255 255 255-114.17 255-255-114.17-255-255-255m8.827 44.931c120.9 0 218.9 98 218.9 218.9s-98 218.9-218.9 218.9-218.93-98-218.93-218.9 98.03-218.9 218.93-218.9" fill-opacity=".067"/>
  <g fill-opacity=".129">
   <path d="m256 4.433c-138.94 0-251.57 112.63-251.57 251.57s112.63 251.57 251.57 251.57 251.57-112.63 251.57-251.57-112.63-251.57-251.57-251.57m5.885 38.556c120.9 0 218.9 98 218.9 218.9s-98 218.9-218.9 218.9-218.93-98-218.93-218.9 98.03-218.9 218.93-218.9"/>
   <path d="m256 8.356c-136.77 0-247.64 110.87-247.64 247.64s110.87 247.64 247.64 247.64 247.64-110.87 247.64-247.64-110.87-247.64-247.64-247.64m2.942 31.691c120.9 0 218.9 98 218.9 218.9s-98 218.9-218.9 218.9-218.93-98-218.93-218.9 98.03-218.9 218.93-218.9"/>
  </g>
 </g>
 <path d="m334.53 150.25-63.419-52.579 3.325 13.991-1.3643-4.0489-7.5967-3.5827-9.0887 12.848 22.251 18.184-0.96769 3.8824 38.369 31.787-150.13 50.28-32.511 55.829 10.122 72.54 144.84 125.19c219.85-74.607 204.85-154.74 184.17-235l-3.92-41.37-107.27-99.139-23.172 40.266" opacity=".25"/>
 <path d="m253.04 7.859c-135.42 0-245.19 109.78-245.19 245.19 0 135.42 109.78 245.19 245.19 245.19 135.42 0 245.19-109.78 245.19-245.19 0-135.42-109.78-245.19-245.19-245.19zm0 26.297c120.9 0 218.9 98 218.9 218.9s-98 218.9-218.9 218.9-218.93-98-218.93-218.9 98.03-218.9 218.93-218.9z" fill="#ffffff" fill-rule="evenodd" stroke="#000000" stroke-opacity=".31" stroke-width="4.904"/>
 <g transform="matrix(.60027 0 0 .60027 -339.45 -36.376)" fill="#ffffff" stroke-width="20.723">
  <rect x="863.76" y="635.59" width="82.891" height="41.445" rx="20.723"/>
  <rect x="1071" y="635.59" width="82.891" height="41.445" rx="20.723"/>
  <path d="m843.03 345.47c-34.317 0-62.168 27.851-62.168 62.168v186.42c0 34.317 27.851 62.168 62.168 62.168h331.56c34.317 0 62.168-27.768 62.168-62.168v-186.42c0-34.317-27.851-62.168-62.168-62.168zm93.252 82.891c17.158 0 31.084 16.268 31.084 36.266 0 19.997-13.926 36.264-31.084 36.264-17.158 0-31.084-16.266-31.084-36.264 0-19.997 13.926-36.266 31.084-36.266zm145.06 0c17.158 0 31.084 16.268 31.084 36.266 0 19.997-13.926 36.264-31.084 36.264-17.158 0-31.084-16.266-31.084-36.264 0-19.997 13.926-36.266 31.084-36.266zm-145.06 20.723c-5.7402 0-10.361 9.3045-10.361 20.723 0 11.418 4.6212 20.723 10.361 20.723 5.7402 0 10.361-9.3045 10.361-20.723 0-11.418-4.6211-20.723-10.361-20.723zm145.06 0c-5.7402 0-10.361 9.3045-10.361 20.723 0 11.418 4.6212 20.723 10.361 20.723 5.74 0 10.361-9.3045 10.361-20.723 0-11.418-4.6213-20.723-10.361-20.723zm-135.34 93.895h0.041c19.086 6.1546 40.201 9.7188 62.789 9.7188 22.567 0 43.683-3.5641 62.789-9.7188l10.361 16.186c-21.614 8.5999-46.21 14.256-73.17 14.256-26.96 0-51.558-5.6767-73.172-14.256z"/>
  <path d="m1133.1 345.47c0 22.899-18.547 41.445-41.445 41.445-22.899 0-41.445-18.547-41.445-41.445 0-22.899 18.547-41.445 41.445-41.445 22.898 0 41.445 18.547 41.445 41.445"/>
  <path d="m1013.4 239.56-9.2215 4.6212 23.914 47.89 19.914-19.873 18.049 54.19 9.8018-3.2327-23.354-70.146-21.614 21.572-17.49-35.001z" solid-color="#000000" style="isolation:auto;mix-blend-mode:normal;white-space:normal" isolation="auto" mix-blend-mode="normal"/>
  <path d="m1149.3 239.56-41.445 82.891 9.2216 4.6212 41.445-82.891z" solid-color="#000000" style="isolation:auto;mix-blend-mode:normal;white-space:normal" isolation="auto" mix-blend-mode="normal"/>
  <path d="m1029.5 241.86c0 11.418-9.3045 20.723-20.723 20.723-11.418 0-20.723-9.3045-20.723-20.723 0-11.418 9.3045-20.723 20.723-20.723 11.418 0 20.723 9.3045 20.723 20.723"/>
  <path d="m1174.6 241.86c0 11.418-9.3045 20.723-20.723 20.723s-20.723-9.3045-20.723-20.723c0-11.418 9.3044-20.723 20.723-20.723s20.723 9.3045 20.723 20.723"/>
 </g>
</svg>
