<svg width="512" height="512" version="1.1" viewBox="0 0 512 512" xmlns="http://www.w3.org/2000/svg" xmlns:xlink="http://www.w3.org/1999/xlink">
 <g fill-rule="evenodd">
  <path d="m471.95 253.05c0 120.9-98.01 218.9-218.9 218.9-120.9 0-218.9-98.01-218.9-218.9 0-120.9 98.01-218.9 218.9-218.9 120.9 0 218.9 98.01 218.9 218.9" fill="#737475"/>
  <path d="m256 1c-140.83 0-255 114.17-255 255s114.17 255 255 255 255-114.17 255-255-114.17-255-255-255m8.827 44.931c120.9 0 218.9 98 218.9 218.9s-98 218.9-218.9 218.9-218.93-98-218.93-218.9 98.03-218.9 218.93-218.9" fill-opacity=".067"/>
  <g fill-opacity=".129">
   <path d="m256 4.433c-138.94 0-251.57 112.63-251.57 251.57s112.63 251.57 251.57 251.57 251.57-112.63 251.57-251.57-112.63-251.57-251.57-251.57m5.885 38.556c120.9 0 218.9 98 218.9 218.9s-98 218.9-218.9 218.9-218.93-98-218.93-218.9 98.03-218.9 218.93-218.9"/>
   <path d="m256 8.356c-136.77 0-247.64 110.87-247.64 247.64s110.87 247.64 247.64 247.64 247.64-110.87 247.64-247.64-110.87-247.64-247.64-247.64m2.942 31.691c120.9 0 218.9 98 218.9 218.9s-98 218.9-218.9 218.9-218.93-98-218.93-218.9 98.03-218.9 218.93-218.9"/>
  </g>
 </g>
 <path d="m335.6 165.35-62.535-62.535-7.0214 12.525h-3.336l-10.687 11.128-0.34597 13.974-7.2611 16.517-12.558 16.242-69.641-20.322 25.572 73.571-72.868 3.7845v47.829l60.657 58.602 0.0128 40.054 106.02 99.137c113.73-31.759 200.76-112.85 190.34-222.81l-99.491-105.87" opacity=".25"/>
 <path d="m253.04 7.859c-135.42 0-245.19 109.78-245.19 245.19 0 135.42 109.78 245.19 245.19 245.19 135.42 0 245.19-109.78 245.19-245.19 0-135.42-109.78-245.19-245.19-245.19zm0 26.297c120.9 0 218.9 98 218.9 218.9s-98 218.9-218.9 218.9-218.93-98-218.93-218.9 98.03-218.9 218.93-218.9z" fill="#ffffff" fill-rule="evenodd" stroke="#000000" stroke-opacity=".31" stroke-width="4.904"/>
 <g transform="matrix(-9.9623 0 0 -9.9623 503.45 493.24)" fill="#ffffff">
  <path d="m16.484 20.5a0.5 0.5 0 0 0-0.193 0.047l-6.5 3a0.5 0.5 0 0 0 0 0.906l6.084 2.807-2.346 6.572a0.5 0.5 0 0 0 0.639 0.639l6.57-2.346 2.809 6.084a0.5 0.5 0 0 0 0.906 0l2.809-6.084 6.57 2.346a0.5 0.5 0 0 0 0.639-0.639l-2.5-7a0.5 0.5 0 0 0-0.821-0.186l-4.357 4.354h-5.583l-4.21-4.207v-5.793a0.5 0.5 0 0 0-0.516-0.5m-0.484 1.281v4.439l-4.809-2.22 4.809-2.219m0.705 6.131 3.383 3.383-5.262 1.879zm14.59 0 1.879 5.262-5.262-1.879zm-9.514 4.088h4.439l-2.22 4.809-2.219-4.809" fill-rule="evenodd" solid-color="#000000" style="isolation:auto;mix-blend-mode:normal;white-space:normal" isolation="auto" mix-blend-mode="normal"/>
  <circle cx="16.5" cy="27" r="1.5"/>
  <circle cx="10" cy="24" r="1.5"/>
  <circle transform="rotate(-45)" cx="-13.999" cy="33.941" r="1.5"/>
  <circle transform="rotate(-90)" cx="-31.5" cy="21" r="1.5"/>
  <circle transform="rotate(-90)" cx="-31.5" cy="27" r="1.5"/>
  <path d="m21.6 9-0.465 3.873a11.5 11.5 0 0 0-2.975 1.234l-3.07-2.41-3.393 3.393 2.41 3.07 0.699 0.891 2.217 2.217a7.5 7.5 0 0 1 6.977-4.768 7.5 7.5 0 0 1 7.5 7.5 7.5 7.5 0 0 1-0.631 3h3.131l1.123-0.135 3.877-0.465v-4.801l-3.873-0.465a11.5 11.5 0 0 0-1.234-2.975l2.41-3.07-3.393-3.393-3.07 2.41a11.5 11.5 0 0 0-2.975-1.23l-0.465-3.877h-4.801" fill="#ffffff"/>
  <circle cx="16.5" cy="21" r="1.5"/>
  <circle transform="rotate(-90)" cx="-38" cy="24" r="1.5"/>
  <circle transform="rotate(225)" cx="-47.94" r="1.5"/>
  <circle transform="scale(-1)" cx="-31.5" cy="-27" r="1.5"/>
 </g>
</svg>
