<svg width="512" height="512" version="1.1" viewBox="0 0 512 512" xmlns="http://www.w3.org/2000/svg">
 <path d="m471.95 253.05c0 120.9-98.01 218.9-218.9 218.9-120.9 0-218.9-98.01-218.9-218.9 0-120.9 98.01-218.9 218.9-218.9 120.9 0 218.9 98.01 218.9 218.9" fill="#747474" fill-rule="evenodd"/>
 <path d="m250.59 114.12c-52.51-1.9983-103.71 38.212-116.83 97.114-13.254 59.493 11.834 137.7 11.834 137.7l144.04 117.24c2.589 20.226 185.59-26.632 183.85-228.95-0.021-0.021-0.041-0.042-0.063-0.063l-0.219-0.219c-0.095-0.094-0.186-0.188-0.281-0.281-0.167-0.166-0.332-0.334-0.5-0.5-0.333-0.335-0.664-0.669-1-1l-0.125-0.125c-0.612-0.625-1.221-1.261-1.844-1.875-0.331-0.332-0.666-0.671-1-1-0.328-0.329-0.669-0.643-1-0.969-0.333-0.335-0.664-0.669-1-1-0.146-0.146-0.291-0.292-0.438-0.438-0.117-0.112-0.226-0.232-0.344-0.344-0.073-0.073-0.145-0.146-0.219-0.219l-0.125-0.125c-0.612-0.625-1.221-1.261-1.844-1.875-0.331-0.332-0.666-0.671-1-1-0.333-0.335-0.664-0.669-1-1-0.33-0.332-0.667-0.64-1-0.969l-0.219-0.219c-0.074-0.073-0.144-0.146-0.219-0.219-0.116-0.111-0.227-0.233-0.344-0.344-0.073-0.073-0.145-0.146-0.219-0.219l-0.125-0.125c-0.612-0.625-1.221-1.261-1.844-1.875-0.331-0.332-0.666-0.671-1-1-0.333-0.335-0.664-0.669-1-1-0.33-0.332-0.667-0.64-1-0.969l-0.219-0.219c-0.074-0.073-0.144-0.146-0.219-0.219-0.021-0.02-0.041-0.042-0.063-0.063-0.167-0.166-0.332-0.334-0.5-0.5-0.333-0.335-0.664-0.669-1-1l-0.125-0.125c-0.612-0.625-1.221-1.261-1.844-1.875-0.331-0.332-0.666-0.671-1-1-0.33-0.332-0.667-0.64-1-0.969l-0.219-0.219c-0.095-0.094-0.186-0.188-0.281-0.281-0.167-0.166-0.332-0.334-0.5-0.5-0.333-0.335-0.664-0.669-1-1l-0.125-0.125c-0.612-0.625-1.221-1.261-1.844-1.875-0.331-0.332-0.666-0.671-1-1-0.333-0.335-0.664-0.669-1-1-0.33-0.332-0.667-0.64-1-0.969l-0.219-0.219c-0.074-0.073-0.144-0.146-0.219-0.219-0.116-0.111-0.227-0.233-0.344-0.344-0.073-0.073-0.145-0.146-0.219-0.219l-0.125-0.125c-0.612-0.625-1.221-1.261-1.844-1.875-0.331-0.332-0.666-0.671-1-1-0.333-0.335-0.664-0.669-1-1-0.33-0.332-0.667-0.64-1-0.969l-0.219-0.219c-0.074-0.073-0.144-0.146-0.219-0.219-0.021-0.02-0.041-0.042-0.063-0.063-0.167-0.166-0.332-0.334-0.5-0.5-0.333-0.335-0.664-0.669-1-1l-0.125-0.125c-0.612-0.625-1.221-1.261-1.844-1.875-0.331-0.332-0.666-0.671-1-1-0.33-0.332-0.667-0.64-1-0.969l-0.219-0.219c-0.095-0.094-0.186-0.188-0.281-0.281-0.167-0.166-0.332-0.334-0.5-0.5-0.333-0.335-0.664-0.669-1-1l-0.125-0.125c-0.612-0.625-1.221-1.261-1.844-1.875-0.331-0.332-0.666-0.671-1-1-0.328-0.329-0.669-0.643-1-0.969-0.333-0.335-0.664-0.669-1-1-0.146-0.146-0.291-0.292-0.438-0.438-0.116-0.111-0.227-0.233-0.344-0.344-0.073-0.073-0.145-0.146-0.219-0.219l-0.125-0.125c-0.612-0.625-1.221-1.261-1.844-1.875-0.331-0.332-0.666-0.671-1-1-0.333-0.335-5.1386-5.4148-5.4746-5.7458-35.202-27.346-70.806-31.403-52.6-35.996-25.68-25.1-53.629-2.6589-92.652-18.93" fill-opacity=".235"/>
 <g fill-rule="evenodd">
  <path d="m256 1c-140.83 0-255 114.17-255 255s114.17 255 255 255 255-114.17 255-255-114.17-255-255-255m8.827 44.931c120.9 0 218.9 98 218.9 218.9s-98 218.9-218.9 218.9-218.93-98-218.93-218.9 98.03-218.9 218.93-218.9" fill-opacity=".067"/>
  <g fill-opacity=".129">
   <path d="m256 4.433c-138.94 0-251.57 112.63-251.57 251.57s112.63 251.57 251.57 251.57 251.57-112.63 251.57-251.57-112.63-251.57-251.57-251.57m5.885 38.556c120.9 0 218.9 98 218.9 218.9s-98 218.9-218.9 218.9-218.93-98-218.93-218.9 98.03-218.9 218.93-218.9"/>
   <path d="m256 8.356c-136.77 0-247.64 110.87-247.64 247.64s110.87 247.64 247.64 247.64 247.64-110.87 247.64-247.64-110.87-247.64-247.64-247.64m2.942 31.691c120.9 0 218.9 98 218.9 218.9s-98 218.9-218.9 218.9-218.93-98-218.93-218.9 98.03-218.9 218.93-218.9"/>
  </g>
  <path d="m253.04 7.859c-135.42 0-245.19 109.78-245.19 245.19 0 135.42 109.78 245.19 245.19 245.19 135.42 0 245.19-109.78 245.19-245.19 0-135.42-109.78-245.19-245.19-245.19zm0 26.297c120.9 0 218.9 98 218.9 218.9s-98 218.9-218.9 218.9-218.93-98-218.93-218.9 98.03-218.9 218.93-218.9z" fill="#ffffff" stroke="#000000" stroke-opacity=".31" stroke-width="4.904"/>
 </g>
 <g transform="matrix(-.86488 1.3122 -1.3122 -.86488 272.91 723.18)">
  <path d="m-243.21 87.2c-32.437 0-60.892 17.387-76.886 43.26l-12.744-15.368c-0.129-0.075-0.288-0.082-0.425-0.138-1.819-1.932-5.723-0.761-6.23 1.85l-13.03 75.986c-0.461 2.134 1.508 4.442 3.682 4.412l16.283-4.127c7.08 43.11 44.491 76.13 89.35 76.13 49.881 0 90.62-40.799 90.62-90.93 0-50.13-40.74-91.07-90.62-91.07zm11.04 27.595c4.759 0.063 9.756 0.977 15.01 2.561 27.508 10.529 47.01 29.514 47.01 60.912 0 40.644-32.62 73.42-73.06 73.42-36.925 0-67.2-27.347-72.21-63.04l40.496-10.388c2.635-0.082 4.408-3.711 2.832-5.834l-16.425-12.38c0.353-1.381-5.11-5.173 16.834-28.633 10.352-11.07 24.23-16.795 39.521-16.627" fill="#ffffff"/>
  <g fill="none" stroke="#ffffff" stroke-linecap="round" stroke-linejoin="round" stroke-width="9.08">
   <path d="m-243.21 118.73v9.277"/>
   <path d="m-243.21 228.11v10.374"/>
   <path d="m-183.59 178.27h-9.06"/>
  </g>
  <path d="m-193.85 137.96c-0.286 0.063-0.57 0.075-0.85 0.144-1.062 0.138-2.09 0.534-2.974 1.139l-48.09 32.475c-4.184 1.573-5.624 7.842-2.549 11.1v0.138c0.138 0.101 0.28 0.195 0.425 0.283 0.044 0.063 0.094 0.094 0.141 0.144 0.138 0.101 0.28 0.195 0.425 0.283 0.044 0.063 0.094 0.094 0.142 0.144 0.138 0.101 0.28 0.195 0.425 0.283 0.044 0.063 0.094 0.094 0.142 0.144l0.142 0.138c0.093 0.063 0.188 0.094 0.283 0.144h0.142l31.15 17.929c3.114 1.788 7.566 0.565 9.345-2.561 1.779-3.129 0.565-7.603-2.549-9.391l-22.09-12.664 40.16-27.21c2.557-1.559 3.847-4.947 2.979-7.823s-3.814-4.973-6.802-4.841z" fill="#ffffff"/>
  <path d="m-238.68 178.27-27.19 50.09" fill="none" stroke="#ffffff" stroke-linecap="round" stroke-width="4.542"/>
 </g>
</svg>
