<svg viewBox="0 0 16 16" xmlns="http://www.w3.org/2000/svg">
 <path d="m14.826 33.17c-.457-.457-1.69 0-2.907 1.217l-1.789 1.789-7.69-1.623c-.553-.104-.713-.108-.992.167-.655.655-.655.655.422 1.279l5.589 2.848-3.078 3.078-2.431-.466c-.285-.06-.28-.081-.458.097l-.176.176c-.269.269.134.587.134.587l2.504 1.723 1.723 2.504c0 0 .318.403.587.134l.176-.176c.178-.178.157-.173.097-.458l-.466-2.431 3.078-3.078 2.848 5.589c.624 1.077.624 1.076 1.279.422.274-.279.271-.438.167-.992l-1.623-7.69 1.789-1.789c1.217-1.217 1.674-2.45 1.217-2.907z" fill="#fcfcfc" transform="translate(0 -32)"/>
</svg>
