<svg height="24" viewBox="0 0 512 512" width="24" xmlns="http://www.w3.org/2000/svg">
 <text x="729.64" y="231.36">
  
 </text>
 <text x="1310.91" y="151.36">
  
 </text>
 <text x="239.33" y="-29.9">
  
 </text>
 <text x="1337.38" y="-246.37">
  
 </text>
 <text x="1918.65" y="-326.38">
  
 </text>
 <text x="1529.53" y="-798.78">
  
 </text>
 <text x="2110.79" y="-878.78">
  
 </text>
 <text x="277.99" y="535.94">
  
 </text>
 <text x="-1767.82" y="470.64">
  
 </text>
 <path d="m256 106.37c-49.42 0-92.62 26.587-116.19 66.18-5.539 9.305-9.962 19.321-13.159 29.888l129.96 38.456h-164.56c-.001.258 0 .532 0 .791 0 90.55 73.4 163.95 163.95 163.95s163.95-73.4 163.95-163.95c0-.258.001-.532 0-.791h-28.817c-.116-24.979-7.02-48.31-18.948-68.34-23.567-39.59-66.767-66.18-116.19-66.18" fill="#fdfdfd" fill-rule="evenodd"/>
</svg>
