<svg viewBox="0 0 24 24" xmlns="http://www.w3.org/2000/svg">
 <path d="m21 12a9 9 0 0 1 -18 0 9 9 0 1 1 18 0z" fill="#ebebeb" fill-rule="evenodd"/>
 <path d="m11.984 5.484c-.551.008-.992.465-.984 1.016v5.5c0 .234.082.461.234.641l2.5 3c .223.301.59.449.957.395.367-.059.672-.313.793-.664.121-.352.035-.742-.219-1.012l-2.266-2.719v-5.141c.004-.27-.102-.531-.293-.723-.191-.191-.453-.297-.723-.293z" fill="#fdfdfd"/>
 <path d="m12 2c-5.512 0-10 4.488-10 10 0 5.512 4.488 10 10 10 5.512 0 10-4.488 10-10 0-5.512-4.488-10-10-10zm0 2c4.43 0 8 3.57 8 8 0 4.43-3.57 8-8 8-4.43 0-8-3.57-8-8 0-4.43 3.57-8 8-8z" fill="#fdfdfd"/>
 <path d="m11 18a5 5 0 0 1 -10 0 5 5 0 1 1 10 0" fill="#dc322f" fill-rule="evenodd"/>
 <g fill-rule="evenodd" transform="matrix(1.2005135 0 0 1.2005135 -15.610546 -3.6105441)">
  <path d="m15.503 15.5v.833c-.018.234.06.472.235.634l1.068 1.051-1.068 1.051c-.156.157-.235.377-.235.598v.833h.833c.221 0 .441-.079.598-.235l1.068-1.069 1.068 1.069c.156.157.377.235.598.235h.833v-.833c0-.221-.079-.441-.235-.598l-1.05-1.051 1.068-1.051c.179-.166.217-.396.217-.634v-.833h-.833c-.2.006-.359.08-.579.272l-1.086 1.051-1.068-1.051c-.148-.153-.349-.262-.561-.272-.009 0-.028 0-.036 0h-.833z" fill="#ffffff"/>
  <path d="m15.503 15.5v.833c-.018.234.06.472.235.634l1.068 1.051-1.068 1.051c-.156.157-.235.377-.235.598v.833h.833c.221 0 .441-.079.598-.235l1.068-1.069 1.068 1.069c.156.157.377.235.598.235h.833v-.833c0-.221-.079-.441-.235-.598l-1.05-1.051 1.068-1.051c.179-.166.217-.396.217-.634v-.833h-.833c-.2.006-.359.08-.579.272l-1.086 1.051-1.068-1.051c-.148-.153-.349-.262-.561-.272-.009 0-.028 0-.036 0h-.833z" fill="#dc322f" fill-opacity=".1"/>
 </g>
</svg>
