<svg viewBox="0 0 16 16" xmlns="http://www.w3.org/2000/svg">
 <g transform="translate(-425.00038 231.00336)">
  <path d="m9 .004c-.554 0-1 .446-1 1v6c0 .554.446 1 1 1h6c .554 0 1-.446 1-1v-6c0-.554-.446-1-1-1zm2 1h2v4h-2zm0 5h2v1h-2z" fill="#ff8000" transform="translate(425.00038 -231.00336)"/>
  <path d="m432-229.92c-3.382.489-6 3.406-6 6.92 0 3.854 3.146 7 7 7 3.512 0 6.427-2.616 6.918-5.996h-2.02c-.461 2.288-2.471 3.996-4.9 3.996-2.773 0-5-2.227-5-5 0-2.431 1.71-4.441 4-4.9zm-1 6.42c-.277 0-.5.223-.5.5 0 .277.223.5.5.5h1.695c-.299-.262-.519-.607-.623-1z" fill="#fcfcfc"/>
 </g>
</svg>
