<svg viewBox="0 0 24 24" xmlns="http://www.w3.org/2000/svg">
 <path d="m11 3c-4.418 0-8 3.582-8 8 0 4.418 3.582 8 8 8 4.418 0 8-3.582 8-8 0-4.418-3.582-8-8-8zm-3.75 2h3a1 1 0 0 1 .75.342 1 1 0 0 1 .75-.342h3a1 1 0 0 1 1 1v1.914c.201.282.385.578.531.898l1.219-.469-1 3.469-.75-.418v1.408l.594.229c-.157.376-.364.718-.594 1.043v1.926a1 1 0 0 1 -1 1h-3a1 1 0 0 1 -.75-.34 1 1 0 0 1 -.75.34h-3a1 1 0 0 1 -1-1v-1.939c-.202-.285-.387-.582-.531-.904l-1.219.438 1-3.375.75.402v-1.393l-.594-.229c.153-.382.362-.73.594-1.061v-1.939a1 1 0 0 1 1-1zm5.5 2.75v6.492c.372-.181.708-.42 1-.707v-3.254l-.563-.312.563-.219v-1.285c-.291-.29-.626-.534-1-.715m-3.5.01c-.373.186-.708.431-1 .723v3.215l.563.303-.563.219v1.293c.291.294.627.54 1 .727v-6.479z" fill="#fdfdfd" opacity=".4" transform="matrix(1.00000001 0 0 1.00000001 .99999999 .99999982)"/>
 <g fill="#fdfdfd" transform="translate(1.25 .9999998)">
  <path d="m11.5 6h3v10h-3z"/>
  <path d="m7 6h3v10h-3z"/>
 </g>
</svg>
