<svg viewBox="0 0 24 24" xmlns="http://www.w3.org/2000/svg">
 <g fill="#fdfdfd" transform="matrix(.9 0 0 .9 -9.5999999 -9.6)">
  <path d="m4.699 3.801c-1.8 0-1.799-.001-1.799 1.799v12.6c0 1.8-.001 1.801 1.799 1.801h12.602c1.8 0 1.799-.001 1.799-1.801v-12.6c0-1.979.001-1.799-1.799-1.799h-.9v12.6h-10.801v-12.6h-.9z" fill-rule="evenodd" transform="matrix(1.1111111 0 0 1.1111111 11.777778 11.777778)"/>
  <path d="m20 14v4h8v-4z"/>
  <path d="m20 20v2h8v-2z"/>
  <path d="m20 24v2h8v-2z"/>
 </g>
</svg>
