<svg height="512" viewBox="0 0 512 512" width="512" xmlns="http://www.w3.org/2000/svg">
 <linearGradient id="a" gradientUnits="userSpaceOnUse" x2="0" y1="213.78" y2="454.64">
  <stop offset="0" stop-color="#6a6a6a"/>
  <stop offset=".47"/>
  <stop offset=".494" stop-color="#ffffff"/>
  <stop offset=".901" stop-color="#ffffff"/>
  <stop offset=".955"/>
  <stop offset="1"/>
 </linearGradient>
 <path d="m34.906 222.66c-7.787 0-15.279 1.659-21.469 4.469l280.81 227.56h28.594l-286.28-232.03h-1.656m30.25 0l286.31 232.03h28.563l-286.24-232.03h-28.627m57.22 0l286.31 232.03h28.594l-286.28-232.03h-28.625m57.25 0l282.34 228.84c6.316-2.573 11.362-6.538 14.719-11.25l-268.5-217.59h-28.563m57.22 0l245.47 199 3.219-20.625-220.12-178.37h-28.563m57.22 0l194.69 157.81 3.188-20.594-169.31-137.22h-28.563m57.19 0l143.91 116.63 3.219-20.594-118.53-96.03h-28.594m57.22 0l93.09 75.47.469-3 2.469-17.813-67.44-54.656h-28.594m57.19 0l41.688 33.781 2.906-20.844-8.781-7.094c-6.666-3.658-15.229-5.844-24.281-5.844h-11.531m-463.91 18.19l2.875 25.5 232.41 188.34h28.594l-263.88-213.86m5.969 51.19l3.281 25.813 168.84 136.84h28.563l-200.69-162.66m6.594 51.719l3.281 25.844 104.97 85.09h28.59l-136.84-110.94m6.594 51.719l3.281 25.844 41.16 33.375h28.625l-73.06-59.21" fill="#ffffff" fill-rule="evenodd" opacity=".1"/>
 <text x="729.64" y="233.74">
  
 </text>
 <text x="1310.91" y="153.74">
  
 </text>
 <text x="239.33" y="-27.52">
  
 </text>
 <text x="1337.38" y="-243.99">
  
 </text>
 <text x="1918.65" y="-324">
  
 </text>
 <text x="1529.53" y="-796.4">
  
 </text>
 <text x="2110.8" y="-876.4">
  
 </text>
 <text x="277.99" y="538.32">
  
 </text>
 <text x="3833.78" y="-509.14">
  
 </text>
 <text x="4415.05" y="-589.14">
  
 </text>
 <text x="3343.47" y="-770.39">
  
 </text>
 <text x="4441.52" y="-986.87">
  
 </text>
 <text x="5022.79" y="-1066.87">
  
 </text>
 <text x="4633.67" y="-1539.27">
  
 </text>
 <text x="5214.93" y="-1619.27">
  
 </text>
 <text x="3382.13" y="-204.56">
  
 </text>
 <text x="90.12" y="140.66">
  
 </text>
 <text x="671.39" y="60.66">
  
 </text>
 <text x="-400.19" y="-120.6">
  
 </text>
 <text x="697.86" y="-337.07">
  
 </text>
 <text x="1279.13" y="-417.08">
  
 </text>
 <text x="890.01" y="-889.48">
  
 </text>
 <text x="1471.27" y="-969.48">
  
 </text>
 <text x="-361.53" y="445.24">
  
 </text>
 <text x="-2585.36" y="426.28">
  
 </text>
 <text x="-1879.02" y="270.65">
  
 </text>
 <text x="-1845.65" y="262.53">
  
 </text>
 <text x="-695.23" y="108.12">
  
 </text>
 <text x="-113.97" y="28.12">
  
 </text>
 <text x="-1185.55" y="-153.14">
  
 </text>
 <text x="-87.5" y="-369.61">
  
 </text>
 <text x="493.77" y="-449.61">
  
 </text>
 <text x="104.65" y="-922.01">
  
 </text>
 <text x="685.91" y="-1002.02">
  
 </text>
 <text x="-1146.89" y="412.7">
  
 </text>
 <text x="-745.68" y="-630.89">
  
 </text>
 <text x="-164.41" y="-710.89">
  
 </text>
 <text x="-1235.99" y="-892.15">
  
 </text>
 <text x="-137.94" y="-1108.62">
  
 </text>
 <text x="443.32" y="-1188.63">
  
 </text>
 <text x="54.2" y="-1661.03">
  
 </text>
 <text x="635.47" y="-1741.03">
  
 </text>
 <text x="-1197.34" y="-326.31">
  
 </text>
 <text x="2358.46" y="-1373.77">
  
 </text>
 <text x="2939.72" y="-1453.77">
  
 </text>
 <text x="1868.14" y="-1635.02">
  
 </text>
 <text x="2966.19" y="-1851.5">
  
 </text>
 <text x="3547.46" y="-1931.5">
  
 </text>
 <text x="3158.34" y="-2403.9">
  
 </text>
 <text x="3739.61" y="-2483.9">
  
 </text>
 <text x="1906.8" y="-1069.19">
  
 </text>
 <text x="-2635.81" y="-315.11">
  
 </text>
 <text x="-2635.81" y="-315.11">
  
 </text>
 <text x="-2969.36" y="317.8">
  
 </text>
 <text x="-2263.02" y="162.17">
  
 </text>
 <path d="m108.62 57.37c-7.963 0-15.223 2.323-20.688 6.25-4.545 3.266-7.749 7.867-8.75 13.13h-11.906c-16.447 0-29.875 13.02-29.875 29.19v66.75c0 .505.005 1 .031 1.5-.001.011.001.021 0 .031-.026.499-.031 1.026-.031 1.531v66.72c0 16.17 13.428 29.22 29.875 29.22h377.47c16.447 0 29.875-13.05 29.875-29.22v-66.72c0-.505-.005-1.032-.031-1.531.001-.011-.001-.021 0-.031.026-.499.031-.995.031-1.5v-66.75c0-16.17-13.428-29.19-29.875-29.19h-262.91c-1-5.255-4.205-9.857-8.75-13.12-5.465-3.927-12.756-6.25-20.719-6.25h-43.75" fill="#cccccc" fill-rule="evenodd"/>
 <text x="-1160.49" y="549.52">
  
 </text>
 <text x="-1160.49" y="549.52">
  
 </text>
 <text x="729.63" y="233.74">
  
 </text>
 <text x="1310.9" y="153.74">
  
 </text>
 <text x="239.32" y="-27.52">
  
 </text>
 <text x="1337.37" y="-243.99">
  
 </text>
 <text x="1918.64" y="-323.99">
  
 </text>
 <text x="1529.52" y="-796.39">
  
 </text>
 <text x="2110.79" y="-876.4">
  
 </text>
 <text x="277.98" y="538.32">
  
 </text>
 <text x="3833.77" y="-509.13">
  
 </text>
 <text x="4415.04" y="-589.14">
  
 </text>
 <text x="3343.46" y="-770.39">
  
 </text>
 <text x="4441.51" y="-986.87">
  
 </text>
 <text x="5022.78" y="-1066.87">
  
 </text>
 <text x="4633.66" y="-1539.27">
  
 </text>
 <text x="5214.92" y="-1619.27">
  
 </text>
 <text x="3382.12" y="-204.56">
  
 </text>
 <path d="m108.54 57.31c-7.963 0-15.11 2.403-20.572 6.33-4.545 3.266-7.702 7.931-8.703 13.187h-12.13c-17.677 0-29.802 12.771-29.802 30.661v3.956c0-16.17 13.355-29.27 29.802-29.27h14.286c1-5.256 2-9.657 6.549-12.923 5.465-3.927 12.609-6.33 20.572-6.33h43.78c7.963 0 15.371 2.403 20.835 6.33 4.545 3.266 5.766 7.668 6.769 12.923h264.88c16.447 0 29.802 11.455 29.802 27.625v-3.956c0-16.17-13.355-29.01-29.802-29.01h-262.95c-1-5.256-4.159-9.921-8.703-13.187-5.465-3.927-12.872-6.33-20.835-6.33z" fill="#ffffff" fill-rule="evenodd" opacity=".764"/>
 <path d="m37.35 213.72c-19.928 0-38.06 11.337-36.23 25.697l24.26 190.23c1.733 13.594 16.271 25.05 36.2 25.05h383.41c19.933 0 34.1-11.5 36.2-24.98l29.632-190.23c1.123-7.206-3.137-13.807-9.971-18.394-6.833-4.587-16.258-7.371-26.22-7.371h-437.27" fill="#6997c7" fill-rule="evenodd"/>
 <path d="m37.34 213.71c-19.928 0-38.05 11.353-36.22 25.713l.406 3.136c3-11.423 18.732-19.755 35.812-19.755h437.28c9.966 0 19.386 2.782 26.22 7.369 4.736 3.178 8.234 7.317 9.563 11.96l.406-2.643c1.123-7.206-3.134-13.825-9.969-18.411-6.833-4.587-16.252-7.369-26.22-7.369h-437.28" fill="#ffffff" fill-rule="evenodd" opacity=".4"/>
 <path d="m37.35 213.72c-19.928 0-38.06 11.337-36.23 25.697l24.26 190.23c1.733 13.594 16.271 25.05 36.2 25.05h383.41c19.933 0 34.1-11.5 36.2-24.98l29.632-190.23c1.123-7.206-3.137-13.807-9.971-18.394-6.833-4.587-16.258-7.371-26.22-7.371h-437.27" fill="url(#a)" fill-rule="evenodd" opacity=".05"/>
</svg>
