<svg viewBox="0 0 24 24" xmlns="http://www.w3.org/2000/svg">
 <path d="m20.418 12.703c-.002 0-.004 0-.006 0h-.002c-.772 0-1.914-.459-2.494-1-.018-.017-.036-.034-.054-.052-.126-.124-.264-.28-.409-.455-.178-.214-.369-.458-.565-.708-.799-1.021-1.553-1.985-2.206-1.985-.464 0-.999.261-1.516.513-.431.21-.876.427-1.166.427-.29 0-.735-.217-1.166-.427-.517-.252-1.052-.513-1.516-.513-.653 0-1.408.964-2.206 1.985-.149.19-.294.376-.434.548-.45.618-1.056 1.061-1.642 1.319-.491.213-1.024.351-1.447.351-.286 0-.399-.068-.427-.088-.195-.145-.384-.219-.562-.219-.252 0-.464.159-.555.414-.111.315-.019.702.248 1.035.767.959 2.433 1.545 4.624 1.641.211.009.426.014.646.014.018 0 .036 0 .054 0 1.626-.022 3.09-1.051 3.923-2.02.171-.198.394-.208.437-.208h.002l.008.004.03-.003h.006c.043 0 .266.01.437.208.821.95 2.255 1.963 3.853 2.01.041.001.082.002.124.002.403 0 .79-.016 1.16-.046 1.937-.159 3.404-.726 4.11-1.609.266-.333.359-.72.248-1.035-.09-.255-.303-.414-.555-.414-.178 0-.367.074-.562.219-.028.02-.139.087-.419.088z" fill="#fdfdfd" fill-rule="evenodd"/>
</svg>
