<svg viewBox="0 0 24 24" xmlns="http://www.w3.org/2000/svg">
 <path d="m23.672 10c-7.582 0-13.84 6.141-14.613 14.07-.004.02 0 .047 0 .07v.023c-.004.027 0 .047 0 .07-.086 1.141-.066 2.082 0 3.145 2.961 12.898 11.824 11.895 11.824 8.141l-4.01-6.922c-.863-.59-1.762.418-2.594.961 0 0-.338.745-.955-.865-.719-1.898-.816-4.913.27-7.441 2.246-5.25 5.358-7.437 10.05-7.523h.699c4.672.102 7.81 2.292 10.05 7.524 1.082 2.527.989 5.537.27 7.44-.609 1.609-.958.865-.958.865-.824-.547-1.723-1.551-2.594-.961l-4.01 6.922c0 3.75 8.867 4.758 11.828-8.141.063-1.063.086-2 0-3.145-.004-.023.004-.043 0-.07v-.023c-.004-.023.004-.047 0-.07-.777-7.938-6.992-14.07-14.574-14.07h-.699" fill="#fdfdfd" transform="matrix(.53350319 0 0 .53580409 -.80246521 -.85804087)"/>
</svg>
