<svg viewBox="0 0 24 24" xmlns="http://www.w3.org/2000/svg">
 <path d="m11 3c-4.424 0-8 3.576-8 8 0 4.424 3.576 8 8 8v3c4.612-2.165 8-6.765 8-11 0-4.424-3.576-8-8-8zm-.139 3c .554 0 1.01.079 1.371.236.36.148.647.336.859.566.212.231.36.485.443.762.083.277.125.546.125.805 0 .314-.062.594-.182.844-.111.249-.252.481-.428.693-.175.212-.365.415-.568.609-.203.185-.393.379-.568.582-.175.194-.323.401-.443.623-.111.222-.166.471-.166.748v.166c0 .055.004.111.014.166h-1.439c-.018-.092-.034-.189-.043-.291-.009-.111-.014-.212-.014-.305 0-.305.051-.576.152-.816.102-.24.232-.463.389-.666.157-.203.323-.393.498-.568.185-.175.355-.35.512-.525.157-.175.287-.356.389-.541.102-.185.152-.388.152-.609 0-.305-.106-.554-.318-.748-.203-.203-.512-.305-.928-.305-.323 0-.632.042-.928.125-.295.074-.605.2-.928.375l-.473-1.289c.342-.194.73-.346 1.164-.457.443-.12.896-.18 1.357-.18m-.221 7.797c.314 0 .577.108.789.32.212.203.318.466.318.789 0 .323-.106.586-.318.789-.212.203-.475.305-.789.305-.305 0-.569-.102-.791-.305-.212-.203-.318-.466-.318-.789 0-.323.106-.586.318-.789.222-.212.486-.32.791-.32z" fill="#fdfdfd" opacity=".4" transform="matrix(1 0 0 1 1 .9999999)"/>
</svg>
