<svg height="24" viewBox="0 0 6.77 6.77" width="24" xmlns="http://www.w3.org/2000/svg">
 <path d="m2.409 1.411a.282.282 0 0 0 -.244.141l-.978 1.693a.282.282 0 0 0 0 .283l.978 1.693a.282.282 0 0 0 .244.141h1.955a.282.282 0 0 0 .244-.14l.979-1.694a.282.282 0 0 0 0-.283l-.979-1.693a.282.282 0 0 0 -.243-.141h-1.955zm.162.564h1.63l.109.189-.923.923-.924-.923.108-.188m-.328.567l.844.844-.843.843-.487-.844zm2.286.001l.481.844-.481.842-.843-.843zm-1.142 1.142l.924.924-.109.188h-1.63l-.109-.188z" fill="#fdfdfd"/>
</svg>
