<svg viewBox="0 0 24 24" xmlns="http://www.w3.org/2000/svg">
 <path d="m11 1.25l-3 3.75h2v9.24l-3-2.064v-.5c.741-.221 1.249-.902 1.25-1.676 0-.966-.784-1.75-1.75-1.75-.966 0-1.75.784-1.75 1.75.001.773.509 1.455 1.25 1.676v.803c-.004.183.06.37.258.486l3.744 2.575v1.015c-.73.374-1.189 1.125-1.189 1.945 0 1.208.979 2.187 2.188 2.188 1.208 0 2.187-.979 2.188-2.188-.001-.819-.459-1.569-1.188-1.943v-3.097l3.584-2.452c.222-.113.414-.335.416-.506v-1.502h1v-3h-3v3h1v1.182l-3 1.994v-7.176h2" fill="#fdfdfd" transform="matrix(.9999999 0 0 .99999989 .99999979 1.00049974)"/>
</svg>
