<svg height="24" viewBox="0 0 50 50" width="24" xmlns="http://www.w3.org/2000/svg">
 <path d="m31.25 6.25c-6.904 0-12.5 5.596-12.5 12.5.004 1.771.383 3.521 1.115 5.135l-1.115 1.115-6.25-6.25h-6.25v6.25l6.25 6.25-6.25 6.25v6.25h6.25l6.25-6.25 6.25 6.25h6.25v-6.25l-6.25-6.25 1.119-1.119c1.612.731 3.36 1.112 5.131 1.119 6.904 0 12.5-5.596 12.5-12.5 0-6.904-5.596-12.5-12.5-12.5zm3.125 6.25c1.725 0 3.125 1.4 3.125 3.125 0 1.725-1.4 3.125-3.125 3.125-1.725 0-3.125-1.4-3.125-3.125 0-1.725 1.4-3.125 3.125-3.125z" fill="#fdfdfd"/>
</svg>
