<svg height="24" viewBox="0 0 6.77 6.77" width="24" xmlns="http://www.w3.org/2000/svg">
 <path d="m3.387 1.129c-1.247 0-2.258 1.01-2.258 2.258 0 .453.135.874.365 1.228l.747-1.497.017-.035v-.023l-.235-.136.141-.244c.029-.049.061-.096.095-.141.275-.367.716-.582 1.181-.564.361.013.637.252.885.5l.956-.317c-.403-.619-1.099-1.029-1.892-1.029m1.893 1.03l-.764 1.532v.023l.235.136-.141.244c-.029.049-.061.096-.095.141-.275.367-.716.582-1.181.564-.361-.013-.637-.252-.885-.5l-.955.318c.403.619 1.099 1.029 1.892 1.029 1.247 0 2.258-1.01 2.258-2.258 0-.453-.135-.874-.365-1.228z" fill="#fdfdfd"/>
 <path d="m28.721 6.125c1.309.048 2.5.737 3.203 1.818l1.389-.463-1.572 3.146-3.145-1.574 1.277-.426c-.338-.294-.761-.485-1.227-.502-.742-.027-1.435.355-1.807.998l-1.732-1c .74-1.282 2.134-2.053 3.613-1.998zm-3.313 3.498l3.145 1.574-1.277.426c.338.294.761.485 1.227.502.742.027 1.435-.355 1.807-.998l1.732 1c-.74 1.282-2.134 2.053-3.613 1.998-1.309-.048-2.5-.737-3.203-1.818l-1.389.463z" fill="#fdfdfd" transform="matrix(.28222222 0 0 .28222222 -4.6776128 .52916681)"/>
</svg>
