<svg height="16" width="16" xmlns="http://www.w3.org/2000/svg">
 <path d="m .68 6.5155s2.3182-2.6355 7.3056-2.6355c4.9628 0 7.3344 2.64 7.3344 2.64" fill="none" opacity=".3" stroke="#000000" stroke-linecap="round" stroke-width="1.36"/>
 <path d="m .68 5.7155s2.3182-2.6355 7.3056-2.6355c4.9624 0 7.3344 2.64 7.3344 2.64" fill="none" stroke="#dfdbd2" stroke-linecap="round" stroke-width="1.36"/>
 <path d="m2.68 8.6021s1.7175-1.7726 5.32-1.7095c3.632.0635 5.32 1.738 5.32 1.738" fill="none" opacity=".3" stroke="#000000" stroke-linecap="round" stroke-width="1.36"/>
 <path d="m2.68 7.8021s1.7175-1.7726 5.32-1.7095c3.632.0635 5.32 1.738 5.32 1.738" fill="none" stroke="#dfdbd2" stroke-linecap="round" stroke-width="1.36"/>
 <path d="m5.08 10.553s.77352-.85759 2.8789-.87377c2.0791-.0161 2.9611.8738 2.9611.8738" fill="none" opacity=".3" stroke="#000000" stroke-linecap="round" stroke-width="1.36"/>
 <path d="m5.08 9.7528s.77352-.85759 2.8789-.87377c2.0791-.0159 2.9611.8738 2.9611.8738" fill="none" stroke="#dfdbd2" stroke-linecap="round" stroke-width="1.36"/>
 <path d="m7.3161 12c-.37752 0-.68392.23893-.68392.53333 0 .10941.04232.21115.11487.29582l.80608.64115c.11989.0808.27611.12969.44688.12969.20264 0 .38479-.06884.51006-.17815l.72073-.56832c.086033-.08919.13704-.20008.13704-.32019 0-.294-.3064-.533-.6839-.533h-1.3678z" fill-rule="evenodd" opacity=".3"/>
 <path d="m7.3161 11.2c-.37752 0-.68392.23893-.68392.53333 0 .10941.04232.21115.11487.29582l.80608.64115c.11989.0808.27611.12969.44688.12969.20264 0 .38479-.06884.51006-.17815l.72073-.56832c.086033-.08919.13704-.20008.13704-.32019 0-.2944-.30639-.53333-.68392-.53333h-1.3678z" fill="#dfdbd2" fill-rule="evenodd"/>
</svg>
