<svg viewBox="0 0 24 24" xmlns="http://www.w3.org/2000/svg">
 <path d="m21 21v-16l-16 16" fill="#fdfdfd" fill-rule="evenodd"/>
 <path d="m-2.528 4.649q-1.825 0-2.786-1.17-.961-1.17-.961-3.33 0-1.073.293-1.909.293-.836.808-1.407.529-.585 1.24-.878.724-.307 1.574-.307.46 0 .822.084.376.07.655.167.279.098.46.209.195.111.293.167l-.446 1.365q-.32-.209-.78-.348-.446-.153-1.031-.153-.404 0-.794.153-.376.139-.683.488-.293.334-.488.906-.181.571-.181 1.421 0 1.477.502 2.271.515.78 1.672.78.669 0 1.101-.153.446-.153.711-.307l.432 1.351q-.362.223-.989.418-.613.181-1.421.181" fill="#fdfdfd" transform="translate(9.6676358 7.351483)"/>
</svg>
