<svg viewBox="0 0 24 24" xmlns="http://www.w3.org/2000/svg">
 <g fill="#fdfdfd">
  <path d="m21 21v-16l-16 16" fill-rule="evenodd"/>
  <path d="m3.662 12q-.356 0-.759-.062-.387-.046-.759-.124-.356-.077-.666-.17-.31-.093-.48-.17l.372-1.594q.356.155.913.325.573.17 1.362.17.975 0 1.362-.418.402-.418.402-1.037 0-.759-.604-1.053-.604-.31-1.533-.31h-.588v-1.579h.712q.294 0 .588-.062.294-.062.526-.201.232-.139.372-.372.155-.232.155-.588 0-.526-.325-.82-.31-.31-.867-.31-.542 0-1.084.186-.526.17-.913.433l-.681-1.393q.418-.279 1.099-.557.697-.294 1.563-.294.805 0 1.393.201.604.201.991.573.387.356.573.851.186.495.186 1.068 0 .573-.325 1.099-.325.526-.867.805.743.31 1.146.913.418.604.418 1.44 0 .666-.217 1.223-.217.557-.666.975-.449.402-1.146.635-.697.217-1.656.217"/>
  <path d="m11.88 4.03c-.278.014-.481.043-.806.216-.325.173-.596.418-.813.732-.206.303-.359.719-.456 1.106-.102.407-.167.834-.125 1.252.064.635.152 1.342.565 1.829.403.478.938.846 1.675.846.12 0 .08-.007.08-.007v-3.504h2v4.797c-.238.087-.606.25-.924.32-.431.096-.781.135-1.32.135-.629 0-1.199-.108-1.708-.325-.499-.228-.927-.558-1.285-.992-.358-.445-.634-.992-.829-1.643-.195-.661-.23-1.111-.227-1.675.003-.633.048-1.228.276-1.879.228-.661.536-1.214.927-1.659.39-.445.851-.776 1.382-.992.531-.228.874-.253 1.326-.281.342-.022.686.028 1.025.082.275.044.586.12.813.195.228.076.412.157.553.244l.341.195-.521 1.594c-.238-.152-.531-.288-.878-.406-.362-.141-.712-.196-1.074-.178"/>
 </g>
</svg>
