<svg height="24" viewBox="0 0 24 24" width="24" xmlns="http://www.w3.org/2000/svg">
 <path d="m12 4.4915254c-.594242 0-1.072639.4783971-1.072639 1.0726392 0 .011652-.000365.02196 0 .03352-1.8535137.4806197-3.2179179 2.1593601-3.2179179 4.189997 0 .022838-.0003434.044286 0 .06704 0 2.1508985.0007411 6.4358355-1.9106386 6.4358355-.1273376 0-.2346399.119599-.2346399.26816l0 .536319c0 .148561.1073023.26816.2346399.26816l1.9106386 0 8.5811139 0 1.910639 0c .127337 0 .234639-.119599.234639-.26816l0-.536319c0-.148561-.107302-.26816-.234639-.26816-1.918859 0-1.910639-4.285325-1.910639-6.4358355.000343-.022751 0-.044203 0-.06704 0-2.0306369-1.364405-3.7093773-3.217918-4.189997.000365-.01156 0-.021868 0-.03352 0-.5942421-.478397-1.0726392-1.072639-1.0726392zm-2.0111985 13.9443096c.2930855.626873 1.0752635 1.07264 2.0111985 1.07264.935935 0 1.718114-.445767 2.011199-1.07264z" fill="#fdfdfd" overflow="visible"/>
</svg>
