<svg height="24" width="24" xmlns="http://www.w3.org/2000/svg">
 <path d="m17.964844 4.7597656l-2.769532 2.7695313c-.533723-.725938-1.298433-1.2654845-2.195312-1.4980469.00034-.0107772 0-.0203873 0-.03125 0-.554-.446-1-1-1-.554 0-1 .446-1 1 0 .010863-.00034.020473 0 .03125-1.7279934.4480721-3 2.013128-3 3.90625 0 .021291-.0003201.041287 0 .0625 0 2.005239.0006909 6-1.78125 6-.1187143 0-.21875.1115-.21875.25l0 .474609-1.578125 1.578125.9355469.9375 13.5449221-13.5449215-.9375-.9355469zm-1.964844 5.1738282l-7.0683594 7.0664062 7.0683594 0 1.78125 0c .118714 0 .21875-.1115.21875-.25l0-.5c0-.1385-.100036-.25-.21875-.25-1.788913 0-1.78125-3.995122-1.78125-6 .00032-.02121 0-.04121 0-.0625l0-.0039062zm-5.875 8.0664062c.273238.584421 1.002447 1 1.875 1 .872553 0 1.601763-.415579 1.875-1l-3.75 0z" fill="#fdfdfd" opacity=".4" overflow="visible"/>
</svg>
