<svg viewBox="0 0 24 24" xmlns="http://www.w3.org/2000/svg">
 <path d="m10.188 4c-.967 0-1.788.589-2.188 1.438-.23-.195-.524-.313-.844-.313-.739 0-1.344.635-1.344 1.406 0 .299.097.585.25.813-.518.344-.904.878-1.094 1.5-.092-.011-.186-.031-.281-.031-1.354 0-2.438 1.149-2.438 2.563 0 1.413 1.083 2.563 2.438 2.563.577 0 1.112-.214 1.531-.563.256.347.641.594 1.094.594.623 0 1.13-.445 1.313-1.031.609.62 1.457 1 2.375 1 .902 0 1.706-.368 2.313-.969.486.624 1.231 1.031 2.063 1.031.717 0 1.367-.299 1.844-.781.255.368.657.594 1.125.594.775 0 1.406-.629 1.406-1.438 0-.808-.632-1.469-1.406-1.469-.12 0-.233.002-.344.031-.143-1.387-1.258-2.469-2.625-2.469-.011 0-.021 0-.031 0-.046-1.37-1.144-2.469-2.469-2.469-.096 0-.189.02-.281.031-.229-1.166-1.221-2.031-2.406-2.031" fill="#fdfdfd" transform="matrix(1.00000001 0 0 .99999999 .99999977 2.00000003)"/>
</svg>
