<svg viewBox="0 0 24 24" xmlns="http://www.w3.org/2000/svg">
 <path d="m8 4l-4 4h7v-4zm5 0v4h7l-4-4zm-9 6v10h7.25c.008-.008.019-.021.027-.029l.508-.508c-.037-.252-.162-.472-.162-.732 0-2.911 2.402-5.313 5.313-5.313 1.14 0 2.194.377 3.064 1v-4.418" fill="#fdfdfd"/>
 <path d="m20.25 18.731c0-1.831-1.481-3.313-3.313-3.313-1.831 0-3.313 1.483-3.313 3.313 0 .506.112.98.311 1.411l-1.243 1.243c-.588.584-.588.59 0 1.178.584.584.59.584 1.178 0l1.139-1.139c.547.389 1.208.621 1.929.621 1.832 0 3.313-1.483 3.313-3.313zm-1.657-.052c.014.448-.155.883-.467 1.205-.312.322-.742.503-1.19.503-.915 0-1.656-.742-1.656-1.657 0-.915.741-1.657 1.656-1.657.895-.001 1.628.71 1.657 1.605z" fill="#54cdee" fill-rule="evenodd"/>
</svg>
