<svg viewBox="0 0 24 24" xmlns="http://www.w3.org/2000/svg">
 <path d="m6.535 4c-.294.029-.537.304-.537.598v5.927h-1.436c-.018 0-.043 0-.064 0-.272.032-.501.304-.498.602v6.754c0 .315.269.602.562.602h1.436v.92c0 .312.286.598.602.598h10.8c.315 0 .602-.286.602-.598v-.92h1.436c.294 0 .562-.286.562-.602v-6.754c0-.315-.269-.602-.562-.602h-1.436v-4.913c-.401-.408-2.02-1.214-2.403-1.611h-8.999c-.021 0-.043 0-.064 0zm .466.999h7.499v2h2.5v3.499h-9.998zm-2 6.5h14v3h-14zm13.5 4.501c.222 0 .501.279.501.501 0 .218-.279.498-.501.498-.218 0-.498-.279-.498-.498 0-.222.279-.501.498-.501zm-11.499-.501h9.998v3.502h-9.998z" fill="#fdfdfd"/>
</svg>
