<svg height="24" viewBox="0 0 6.77 6.77" width="24" xmlns="http://www.w3.org/2000/svg">
 <path d="m .767 1.13a.564.562 0 0 0 .115 1.118h.318c.135 0 .182.032.282.123.1.092.232.264.371.475.11.168.23.361.397.546-.164.184-.288.379-.397.546-.139.211-.27.375-.371.466-.1.092-.147.123-.282.123h-.318a.563.561 0 0 0 0 1.118h.318c.42 0 .812-.206 1.059-.431.246-.225.4-.475.538-.686.139-.211.244-.375.344-.466.075-.069.119-.11.194-.123.027.002.052 0 .079 0 .135 0 .182.032.282.123.1.092.241.255.379.466.139.211.283.461.529.686.246.225.612.431 1.032.431h.344a.563.561 0 0 0 0-1.118h-.344c-.135 0-.182-.032-.282-.123-.1-.092-.205-.255-.344-.466-.113-.172-.232-.374-.406-.563.058-.062.113-.132.159-.194.261-.351.441-.673.591-.81.1-.091.148-.123.282-.123h.344a.563.561 0 0 0 0-1.118h-.344c-.419 0-.786.207-1.032.431-.37.338-.534.724-.715.968-.181.244-.274.317-.476.317-.135 0-.173-.04-.273-.132-.1-.092-.205-.255-.344-.467-.138-.211-.292-.461-.538-.686-.248-.225-.639-.431-1.059-.431h-.318a.56.558 0 0 0 -.062 0 .564.562 0 0 0 -.053 0z" fill="#fdfdfd"/>
</svg>
