<svg viewBox="0 0 24 24" xmlns="http://www.w3.org/2000/svg">
 <path d="m15.756 4.693c1.442.756 2.337 1.88 2.236 2.706l-5.882-3.084c-.018-.008-.036-.017-.054-.026.736-.495 2.258-.353 3.701.404z" fill="#fdfdfd" fill-rule="evenodd"/>
 <rect fill="#fdfdfd" fill-rule="evenodd" height="10.144" rx=".83" transform="matrix(-.88564913 -.46435505 -.53650623 .84389636 0 0)" width="2.079" x="-19.28" y="-1.48"/>
 <rect fill="#fdfdfd" fill-rule="evenodd" height="10.144" rx=".83" transform="matrix(-.88564913 -.46435505 -.53650623 .84389636 0 0)" width="2.079" x="-16.91" y="-1.48"/>
 <rect fill="#fdfdfd" fill-rule="evenodd" height="10.144" rx=".83" transform="matrix(-.88564913 -.46435505 -.53650623 .84389636 0 0)" width="2.079" x="-14.54" y="-1.48"/>
 <path d="m12.21 16.584c.004-.131-5.866-3.206-5.99-3.138-.123.068-.3 6.49-.18 6.553.12.063 6.166-3.284 6.17-3.415z" fill="#fdfdfd" fill-rule="evenodd"/>
</svg>
