<svg height="24" viewBox="0 0 6.77 6.77" width="24" xmlns="http://www.w3.org/2000/svg">
 <path d="m3.387 1.129c-1.247 0-2.258 1.01-2.258 2.258 0 .893.518 1.662 1.27 2.028.036.017.069.037.106.053.061.027.126.049.194.071.005.002.012-.002.018 0 .049.015.097.032.15.044.021.005.04.013.062.018.039.007.074.012.115.018.063.01.129.013.194.018.067.005.141.009.212.009h.079c.03 0 .059-.007.088-.009.078-.005.153-.019.229-.035.122-.025.24-.065.353-.115.022-.009.049-.008.071-.018.009-.004.017-.013.026-.018.795-.35 1.349-1.14 1.349-2.064 0-1.247-1.01-2.258-2.258-2.258zm0 .282c1.091 0 1.976.885 1.976 1.976 0 .596-.27 1.128-.688 1.49-.028.006-.057.018-.088.018.521-.43.632-1.075.168-1.693.034.403-.189.612-.379.75.298-.568.302-1.212-.282-1.782.047.14.085.252.053.379.031-.151-.402-.83-1.032-1.12.089-.012.181-.018.273-.018m-.317.026c.422.721.017.861-.071 1.446.044-.034.081-.066.132-.088.077-.033.167-.053.256-.053.089 0 .179.02.256.053.077.033.144.074.203.132.058.058.1.126.132.203.033.077.053.167.053.256 0 .089-.02.179-.053.256-.033.077-.074.144-.132.203-.058.058-.126.1-.203.132-.077.033-.167.053-.256.053-.089 0-.179-.02-.256-.053-.077-.033-.144-.074-.203-.132-.058-.058-.1-.126-.132-.203-.033-.077-.053-.167-.053-.256 0-.089.02-.179.053-.256.013-.032.035-.05.053-.079-.061-.09-.145-.163-.326-.203.43.753-.513.668-.423 1.323-.116-.032-.22-.245-.132-.512-.303.374-.189.692.026 1.014-.215-.215-.219-.103-.326-.406.002.043.012.082.018.123-.174-.294-.273-.638-.273-1.01 0-.983.718-1.797 1.658-1.949zm.317 1.623c-.089 0-.171.039-.229.097-.058.058-.097.14-.097.229 0 .089.039.171.097.229.058.058.14.097.229.097.089 0 .171-.039.229-.097.058-.058.097-.14.097-.229 0-.089-.039-.171-.097-.229-.058-.058-.14-.097-.229-.097z" fill="#fdfdfd"/>
</svg>
