<svg height="24" viewBox="0 0 6.77 6.77" width="24" xmlns="http://www.w3.org/2000/svg">
 <g fill="#fdfdfd" transform="translate(.28222219 .28222238)">
  <path d="m2.904.871c-.426.036-.843.108-1.093.2-.5.184-.58.196-.541.377.173.271.262.578.421.858.047.036.102.055.183.02.664-.272 1.35-.405 2.308-.173.266-.18.372-.642.447-.935.042-.166-.014-.218-.581-.327-.284-.055-.718-.055-1.143-.02m-1 .583c.052-.004.098.036.102.089.004.053-.035.1-.087.105-.052.004-.098-.036-.102-.089-.004-.053.035-.1.087-.105zm2.083-.165c.052-.004.097.036.102.089.004.053-.035.1-.087.105-.052.004-.098-.036-.102-.089-.004-.053.035-.1.087-.105z"/>
  <path d="m3.104 1.411c-1.091 0-1.976.884-1.976 1.976 0 1.091.884 1.976 1.976 1.976 1.091 0 1.976-.884 1.976-1.976 0-1.091-.884-1.976-1.976-1.976zm0 1.358c.34 0 .617.277.617.617 0 .34-.277.617-.617.617-.34 0-.617-.277-.617-.617 0-.34.277-.617.617-.617zm0 .123c-.273 0-.494.22-.494.494 0 .274.22.494.494.494.273 0 .494-.22.494-.494 0-.274-.22-.494-.494-.494zm0 .185c.17 0 .309.138.309.309 0 .17-.138.309-.309.309-.17 0-.309-.138-.309-.309 0-.17.138-.309.309-.309z"/>
 </g>
</svg>
