<svg viewBox="0 0 24 24" xmlns="http://www.w3.org/2000/svg">
 <path d="m9.09 8.591c-2.958 0-5.357 2.399-5.357 5.357 0 .122.004.244.011.362-1.038.501-1.748 1.508-1.748 2.675 0 1.672 1.45 3.02 3.255 3.02h13.493c1.801 0 3.252-1.343 3.252-3.02 0-1.239-.799-2.303-1.952-2.765.029-.19.043-.38.043-.577 0-2.12-1.719-3.839-3.839-3.839-1.064 0-2.03.433-2.725 1.132-.963-1.418-2.589-2.346-4.433-2.346m-2.217 1.633c.58 0 1.049.448 1.049.999 0 .551-.469.999-1.049.999-.58 0-1.049-.448-1.049-.999 0-.551.469-.999 1.049-.999zm5.124 1.483c1.898 0 3.449 1.558 3.449 3.456 0 1.898-1.551 3.456-3.449 3.456-1.898 0-3.452-1.558-3.452-3.456 0-1.898 1.554-3.456 3.452-3.456zm0 1.486c-1.096 0-1.966.874-1.966 1.97 0 1.099.87 1.97 1.966 1.97 1.092 0 1.966-.87 1.966-1.97 0-1.096-.874-1.97-1.966-1.97z" fill="#fdfdfd"/>
 <path d="m18.387 9.733l-.401-.38-.541.115.24-.498-.279-.48.548.072.372-.412.1.544.505.226-.487.265z" fill="#fdfdfd"/>
 <path d="m18.834 8.723l.018-.258-.201-.165.254-.057.093-.244.136.222.258.014-.168.197.064.251-.24-.1z" fill="#fdfdfd"/>
 <path d="m19.07 10.227l-.05-.394-.351-.183.358-.168.064-.39.272.29.39-.057-.19.344.175.355-.387-.075z" fill="#fdfdfd"/>
</svg>
