<svg height="24" viewBox="0 0 35.63 35.63" width="24" xmlns="http://www.w3.org/2000/svg">
 <path d="m18.609 5.943c-.64-.019-.769.004-.954.169-.302.264-.286.832.027 1.073.169.126.298.153 1.044.195 2.206.126 3.889.709 5.518 1.905 1.954 1.43 3.179 3.423 3.642 5.918.118.636.177 1.169.216 1.993.024.537.043.655.114.793.224.418.879.479 1.177.107.157-.192.177-.341.149-1.012-.075-1.966-.51-3.752-1.275-5.255-.549-1.077-1.067-1.771-2-2.687-.997-.97-1.75-1.503-2.928-2.066-1.197-.571-2.288-.889-3.638-1.054-.267-.031-.757-.069-1.091-.08" fill="#fdfdfd" opacity=".4"/>
 <path d="m9.748 6.349c-.373.077-.84.349-1.852 1.085-.608.445-1.444 1.242-1.64 1.564-.455.763-.428 1.411.126 2.902.95 2.557 2.339 5.02 4.164 7.398 3.493 4.55 7.892 7.861 13.402 10.08.702.284.93.33 1.48.303.667-.031 1.173-.234 1.888-.763.789-.586 1.919-1.959 2.209-2.691.275-.694.204-1.322-.204-1.813-.232-.272-1.943-1.637-2.743-2.185-.608-.414-1.55-.985-1.982-1.204-.569-.284-1.134-.333-1.688-.149-.436.146-.581.272-1.217 1.054-.33.399-.632.759-.671.793-.043.035-.181.111-.31.169-.514.234-1.217.092-2.366-.468-.895-.433-1.688-.981-2.586-1.786-.765-.682-1.538-1.572-1.97-2.265-.557-.893-.981-2.054-.985-2.695 0-.276.114-.667.255-.866.055-.08.404-.383.777-.678.93-.732 1.138-.962 1.264-1.399.122-.406-.008-.954-.396-1.694-.679-1.296-2.755-3.89-3.501-4.373-.122-.077-.334-.184-.471-.23-.283-.1-.726-.142-.981-.088" fill="#fdfdfd" opacity=".4"/>
 <path d="m18.515 9.02c-.188.28-.165.617.059.866.145.165.357.241.742.272 1.064.084 2.229.425 3.02.885.918.533 1.672 1.299 2.19 2.227.455.813.718 1.859.718 2.852 0 .644.09.882.392 1.031.181.092.506.1.659.023.141-.073.306-.249.357-.379.055-.138.055-.97.004-1.426-.145-1.246-.569-2.407-1.248-3.396-1.209-1.756-3.053-2.836-5.435-3.178-.938-.138-1.252-.088-1.456.222z" fill="#fdfdfd" opacity=".4"/>
 <path d="m20.14 11.616c-.33-.019-.392-.011-.542.061-.396.199-.506.74-.22 1.073.157.18.302.234.785.291 1.028.123 1.636.498 1.982 1.223.161.341.255.709.306 1.234.043.395.102.54.29.678.259.195.687.188.918-.019.247-.222.29-.491.184-1.173-.157-1.046-.514-1.775-1.166-2.376-.506-.464-1.099-.751-1.872-.912-.161-.034-.463-.069-.667-.08z" fill="#fdfdfd" opacity=".4"/>
</svg>
