<svg height="24" viewBox="0 0 6.77 6.77" width="24" xmlns="http://www.w3.org/2000/svg">
 <path d="m3.387 1.129c-1.251 0-2.258 1.01-2.258 2.258 0 1.251 1.01 2.258 2.258 2.258 1.251 0 2.258-1.01 2.258-2.258 0-1.251-1.01-2.258-2.258-2.258zm-.6 1.385c.67-.02 1.471.129 2.01.494.086.059.111.178.053.265-.058.086-.17.111-.256.053-.626-.422-1.699-.514-2.328-.362-.102.024-.205-.04-.229-.141-.025-.101.04-.196.141-.22.181-.044.385-.082.609-.088m.044.706c.595-.011 1.218.155 1.667.467.071.05.084.141.035.212-.05.071-.141.102-.212.053-.521-.364-1.352-.518-2-.362-.084.021-.165-.03-.185-.115-.02-.084.03-.165.115-.185.186-.045.384-.067.582-.071m.018.653c.535-.007.992.131 1.376.397.057.039.066.11.026.168-.04.057-.111.075-.168.035-.455-.316-1.055-.419-1.764-.3-.068.011-.13-.037-.141-.106-.011-.068.037-.13.106-.141.194-.033.386-.051.564-.053" fill="#fdfdfd" fill-rule="evenodd"/>
</svg>
