<svg height="24" viewBox="0 0 6.77 6.77" width="24" xmlns="http://www.w3.org/2000/svg">
 <path d="m3.157 1.693c-.191 0-.369.081-.494.212-.031.033-.054.067-.079.106-.018.027-.03.058-.044.088-.065-.055-.148-.088-.238-.088-.209 0-.379.179-.379.397 0 .084.027.165.071.229-.127.085-.232.206-.291.353-.009.022-.011.048-.018.071-.026-.003-.053-.009-.079-.009-.382 0-.688.324-.688.723 0 .399.306.723.688.723.048 0 .096-.008.141-.018.109-.023.207-.072.291-.141.01.014.014.031.026.044.018.019.041.038.062.053.021.015.038.025.062.035.024.01.054.021.079.026.026.005.052.009.079.009.176 0 .319-.126.37-.291.128.13.294.226.476.265.062.013.128.018.194.018.066 0 .132-.004.194-.018.178-.038.332-.13.459-.256.077.099.177.179.291.229.045.02.092.034.141.044.049.01.098.018.15.018.052 0 .101-.007.15-.018.142-.03.27-.101.37-.203.042.061.1.111.168.141.024.01.045.012.071.018.026.005.052.009.079.009.219 0 .397-.178.397-.406 0-.228-.178-.415-.397-.415-.034 0-.066.001-.097.009-.04-.391-.355-.697-.741-.697-.003 0-.006 0-.009 0-.013-.387-.323-.697-.697-.697-.027 0-.053.006-.079.009-.065-.329-.345-.573-.679-.573" fill="#fdfdfd" opacity=".4"/>
 <path d="m1.411 4.798v.847h.847v-.282h.564v-.282h-.564v-.282z" fill="#fdfdfd" opacity=".4"/>
 <path d="m5.362 5.644v-.847h-.847v.282h-.564v.282h.564v.282z" fill="#fdfdfd" opacity=".4"/>
</svg>
