<svg viewBox="0 0 24 24" xmlns="http://www.w3.org/2000/svg">
 <path d="m10.188 4c-.788 0-1.461.396-1.906 1a1.3 1.3 0 0 1 .031.031l2.688 2.719 1.75-1.75c-.053.007-.104.025-.156.031-.229-1.166-1.221-2.031-2.406-2.031m-5.03 4.406c-.071.143-.14.282-.188.438-.092-.011-.186-.031-.281-.031-1.354 0-2.438 1.149-2.438 2.563 0 1.413 1.083 2.563 2.438 2.563.062 0 .127.005.188 0a1.3 1.3 0 0 1 .156-.219l2.719-2.719-2.594-2.594m11.375.344l-2.25 2.25 2.531 2.531h.031c.139-.096.256-.192.375-.313.255.368.657.594 1.125.594.775 0 1.406-.629 1.406-1.438 0-.808-.632-1.469-1.406-1.469-.12 0-.233.002-.344.031-.1-.966-.669-1.78-1.469-2.188" fill="#ef555c" transform="matrix(1.00000001 0 0 .99999999 .99999977 2.00028043)"/>
 <path d="m17.01 16.581l-8.665-8.667-1.428 1.402 8.666 8.692" fill="#ef555c" stroke="#ef555c" stroke-linejoin="round" stroke-width=".3"/>
 <path d="m8.413 18.09l8.667-8.665-1.402-1.428-8.692 8.666" fill="#ef555c" stroke="#ef555c" stroke-linejoin="round" stroke-width=".3"/>
</svg>
