<svg viewBox="0 0 24 24" xmlns="http://www.w3.org/2000/svg">
 <path d="m10.188 4c-.967 0-1.788.589-2.188 1.438-.23-.195-.524-.313-.844-.313-.739 0-1.344.635-1.344 1.406 0 .299.097.585.25.813-.518.344-.904.878-1.094 1.5-.092-.011-.186-.031-.281-.031-1.354 0-2.438 1.149-2.438 2.563 0 1.413 1.083 2.563 2.438 2.563.253 0 .489-.05.719-.125l1.125-1.094c.361-.373.92-.373 1.281 0l .625.625c.083-.124.142-.26.188-.406.434.442.978.759 1.594.906l4.188-7.281c-.424-.351-.952-.563-1.531-.563-.096 0-.189.02-.281.031-.229-1.166-1.221-2.031-2.406-2.031m7.094 5.344l-2.656 4.531c.243.077.484.125.75.125.717 0 1.367-.299 1.844-.781.255.368.657.594 1.125.594.775 0 1.406-.629 1.406-1.438 0-.808-.632-1.469-1.406-1.469-.12 0-.233.002-.344.031-.064-.619-.332-1.165-.719-1.594z" fill="#fdfdfd" transform="matrix(1.00000001 0 0 .99999999 .99999977 2.00021283)"/>
 <path d="m6.871 16.696l4.596 4.596 7.248-12.551-1.724-1.016-5.966 10.297-2.74-2.74z" fill="#fdfdfd" stroke="#ececec" stroke-linejoin="round" stroke-width=".3"/>
</svg>
