<svg viewBox="0 0 24 24" xmlns="http://www.w3.org/2000/svg">
 <path d="m17.523 3.273c-2.363 0-4.297 1.965-4.297 4.363 0 2.398 1.934 4.367 4.297 4.367 2.359 0 4.293-1.969 4.293-4.367 0-2.398-1.934-4.363-4.293-4.363zm0 1.465c1.586 0 2.852 1.285 2.852 2.898 0 1.613-1.266 2.902-2.852 2.902-1.59 0-2.855-1.289-2.855-2.902 0-1.613 1.266-2.898 2.855-2.898z" fill="#fdfdfd"/>
 <path d="m19.363 7.633c0 1.031-.824 1.871-1.844 1.871-1.016 0-1.84-.84-1.84-1.871 0-1.035.824-1.871 1.84-1.871 1.02 0 1.844.836 1.844 1.871z" fill="#fdfdfd"/>
 <path d="m13.84 9.504v5.613l3.066.621 2.621-4.656h-2.738z" fill="#fdfdfd"/>
 <path d="m14.453 14.492c-1.688 0-3.07 1.402-3.07 3.117 0 1.715 1.383 3.117 3.07 3.117 1.684 0 3.066-1.402 3.066-3.117 0-1.715-1.383-3.117-3.066-3.117zm0 1.047c1.133 0 2.039.918 2.039 2.07 0 1.152-.906 2.07-2.039 2.07-1.137 0-2.039-.918-2.039-2.07 0-1.152.902-2.07 2.039-2.07z" fill="#fdfdfd"/>
 <path d="m5.25 10.125c-1.688 0-3.066 1.406-3.066 3.121 0 1.711 1.379 3.117 3.066 3.117 1.688 0 3.07-1.406 3.07-3.117 0-1.715-1.383-3.121-3.07-3.121zm-.004 1.25c1.227 0 1.84.621 1.84 1.871 0 1.246-.613 1.867-1.84 1.867-1.23 0-1.844-.621-1.844-1.867 0-1.25.613-1.871 1.844-1.871z" fill="#fdfdfd"/>
 <path d="m5.922 12.13c-.695-.301-1.5.031-1.793.738-.297.707.027 1.523.727 1.824l9.117 4.164c.695.301 1.5-.031 1.797-.738.293-.707-.031-1.523-.727-1.824z" fill="#fdfdfd"/>
</svg>
