<svg viewBox="0 0 24 24" xmlns="http://www.w3.org/2000/svg">
 <g transform="translate(0 -104)">
  <path d="m12.81 109.7c-.549.001-1.156.046-1.826.133-.755.097-1.596.245-2.52.445-.825.189-1.608.398-2.35.625-.727.222-1.419.468-2.076.744-1.315.541-1.993.984-2.035 1.33-.042.357.272.561.943.609.35.027.77.012 1.26-.049.168-.016 1.045-.131 1.045-.158 0-.032-.001 0-.635-.24-.226-.086-.269-.081-.396-.139-.068-.031-.157-.047-.195-.111-.019-.031-.044-.066-.002-.109.32-.33 2.32-.991 2.762-1.119.741-.216.769-.216 1.65-.416 1.748-.378 2.689-.613 3.654-.592 1.021.032 1.307.028 1.307.477-.031.222-.135.324-.24.465-.601.735-2.146 1.605-5.545 3.768-.028.027-.056.051-.084.072-.014.016-.021.033-.021.049 0 .059 1.765.412 1.947.412.196 0 .37-.043.523-.129.21-.135.503-.304.881-.504.392-.2.604-.324 1.178-.605.685-.335 1.369-.65 2.055-.941.685-.292 1.386-.571 2.1-.836 1.762-.632 1.953-.676 2.736-.842.391-.083.425-.088.635-.088.322 0 .433.005.482.17.037.123-.077.195-.23.309 0 0-.636.418-1.324.881l.574.574c.25-.183.505-.36.758-.539l.766-.766.148.148c.436-.256.9-.485 1.201-.885.038-.05.058-.115.063-.178.006-.074-.004-.157-.041-.221-.074-.128-.208-.213-.336-.285-.135-.076-.289-.118-.441-.145-.165-.029-.308-.032-.504-.016-1.231.076-2.978.543-5.244 1.402-.839.314-1.609.616-2.309.908-.685.292-1.315.578-1.889.859-.126.086-.236.131-.334.131-.056 0-.084-.013-.084-.033 0-.038.049-.087.146-.146 1.119-.724 1.994-1.335 2.623-1.832.643-.503 1.062-.9 1.258-1.191.07-.124.105-.249.105-.373 0-.286-.161-.516-.482-.689-.35-.211-.832-.321-1.447-.332-.068-.001-.139-.002-.209-.002zm1.209 7.627c-.222.249-.451.503-.641.727-.28.335-.512.624-.693.867-.159.235-.248.398-.27.488-.747.368-2.233.993-3.812 2.9 2.665-1.226 2.748-1.421 4.195-2.086.23.208.229.207.23.207.227.171.508.174.771.172.217-.002.403-.032.592-.074l-.877-.877.865-.865c-.242.109-.483.204-.723.322.008-.083.046-.186.115-.309.154-.243.378-.532.672-.867.026-.028.064-.062.09-.09l-.516-.516z" fill="#3370d0" fill-rule="evenodd"/>
  <path d="m20.586 115.4l-1.414 1.414-1.414-1.414-1.415 1.414 1.414 1.414-1.414 1.414 1.414 1.414 1.414-1.414 1.414 1.414 1.415-1.414-1.414-1.414 1.414-1.414z" fill="#ee545b"/>
 </g>
</svg>
