<svg viewBox="0 0 24 24" xmlns="http://www.w3.org/2000/svg">
 <path d="m12.811 109.7c-.549.001-1.158.045-1.828.131-.755.097-1.595.246-2.518.446-.825.189-1.609.397-2.35.624-.727.222-1.42.47-2.077.746-1.315.541-1.993.984-2.035 1.33-.042.357.273.559.944.608.35.027.769.012 1.259-.049.168-.016 1.044-.13 1.044-.157 0-.032 0 0-.634-.241-.226-.086-.27-.081-.398-.139-.068-.031-.156-.046-.194-.11-.019-.031-.045-.066-.003-.109.32-.33 2.321-.993 2.763-1.12.741-.216.769-.215 1.65-.415 1.748-.378 2.69-.613 3.655-.592 1.021.032 1.306.027 1.306.476-.031.222-.135.325-.24.465-.601.735-2.146 1.605-5.545 3.767-.028.027-.056.052-.084.073-.014.016-.021.032-.021.049 0 .059 1.764.413 1.945.413.196 0 .371-.043.525-.13.21-.135.504-.303.881-.503.392-.2.603-.326 1.176-.607.685-.335 1.371-.649 2.056-.941.685-.292 1.385-.57 2.098-.835 1.762-.632 1.953-.676 2.737-.842.391-.083.426-.089.635-.089.322 0 .433.005.483.17.037.123-.077.195-.231.308 0 0-1.691 1.084-2.493 1.687-.319.24-.622.501-.92.767-.354.317-.693.651-1.028.989-.358.362-.699.732-1.049 1.111-.35.384-.664.741-.944 1.07-.28.335-.511.624-.692.868-.159.235-.248.397-.27.488-.747.368-2.234.993-3.813 2.901 2.665-1.226 2.748-1.421 4.196-2.086.23.208.229.208.23.208.227.171.508.173.772.172.575-.004.937-.171 1.678-.398.66-.208 1.341-.473 2.194-.925 5.916-3.137.593-2.445-4.01-.173.008-.083.046-.186.115-.308.154-.243.378-.532.671-.868.308-.335.664-.697 1.07-1.086.42-.384.834-.757 1.259-1.127.394-.343.788-.687 1.196-1.014.315-.252.64-.491.965-.73.492-.361.987-.714 1.49-1.062.505-.35 1.138-.575 1.511-1.07.038-.05.058-.115.063-.178.006-.074-.005-.155-.042-.219-.074-.128-.208-.214-.336-.286-.135-.076-.289-.117-.441-.144-.165-.029-.308-.032-.504-.016-1.231.076-2.979.543-5.245 1.403-.839.314-1.609.616-2.308.908-.685.292-1.315.578-1.888.859-.126.086-.238.13-.336.13-.056 0-.084-.012-.084-.032 0-.038.049-.087.147-.146 1.119-.724 1.993-1.335 2.623-1.832.643-.503 1.063-.9 1.259-1.192.07-.124.105-.249.105-.373 0-.286-.161-.516-.483-.689-.35-.211-.832-.322-1.448-.332-.068-.001-.137-.001-.207-.001zm5.592 8.2c.324.003.059.417-1.281.967-.971.398-2.06.83-3.097.848-.181 0-.289-.053-.323-.159 2.284-1.015 4.215-1.662 4.701-1.656z" fill="#3370d0" fill-rule="evenodd" transform="translate(0 -104)"/>
</svg>
