<svg viewBox="0 0 24 24" xmlns="http://www.w3.org/2000/svg">
 <g fill="#fdfdfd" transform="translate(1 1)">
  <path d="m10 3v8h2v-8z"/>
  <path d="m14 8v2h5.34375c.369331 0 .65625-.223.65625-.5v-1c0-.277-.286919-.5-.65625-.5zm0 4v2h5.34375c.369331 0 .65625-.223.65625-.5v-1c0-.277-.286919-.5-.65625-.5zm0 4v2h5.34375c.369331 0 .65625-.223.65625-.5v-1c0-.277-.286919-.5-.65625-.5z"/>
  <path d="m8 3.594c-2.934 1.186-5 4.048-5 7.406 0 4.418 3.582 8 8 8 .334 0 .676-.023 1-.063v-2.031c-.325.055-.66.094-1 .094-3.314 0-6-2.686-6-6 0-2.221 1.207-4.15 3-5.188v-2.219zm6 0v2.219c.099.057.186.125.281.188h2.938c-.845-1.057-1.941-1.89-3.219-2.406z" fill-rule="evenodd"/>
 </g>
</svg>
