<svg height="24" viewBox="0 0 6.77 6.77" width="24" xmlns="http://www.w3.org/2000/svg">
 <path d="m1.693 3.387l.847-.847v.564h1.693v-.564l.847.847-.847.847v-.564h-1.693v.564z" fill="#fdfdfd" fill-rule="evenodd"/>
 <path d="m30.565 21.238l1.414 1.414-1.793 1.793h5.172v2h-5.172l1.793 1.793-1.414 1.414-4.207-4.207z" fill="#fdfdfd" transform="matrix(.28222222 0 0 .28222222 -3.4879161 -2.1012677)"/>
 <path d="m3.386.847c-1.399 0-2.539 1.139-2.539 2.539 0 1.399 1.139 2.541 2.539 2.541.246 0 .484-.037.71-.103l-.476-.476c-.077.009-.155.015-.234.015-1.094 0-1.974-.882-1.974-1.977 0-1.094.88-1.974 1.974-1.974 1.094 0 1.977.88 1.977 1.974 0 .043-.003.084-.006.126l.491.491c.05-.198.079-.404.079-.617 0-1.399-1.142-2.539-2.541-2.539z" fill="#fdfdfd"/>
</svg>
