<svg height="24" viewBox="0 0 6.77 6.77" width="24" xmlns="http://www.w3.org/2000/svg">
 <path d="m1.693 3.387l.847-.847v.564h1.693v-.564l.847.847-.847.847v-.564h-1.693v.564z" fill="#fdfdfd" fill-rule="evenodd"/>
 <path d="m5.881 3.881l.399.399-1.796 1.796-1.098-1.098.399-.399.698.698" fill="#fdfdfd"/>
 <path d="m3.386.847c-1.399 0-2.539 1.139-2.539 2.539 0 1.399 1.139 2.541 2.539 2.541.111 0 .219-.01.326-.024l-.555-.555c-.985-.113-1.746-.946-1.746-1.963 0-1.094.88-1.974 1.974-1.974 1.094 0 1.977.88 1.977 1.974 0 .165-.022.324-.06.477l.279-.279.301-.3.041.041c-.033-1.371-1.159-2.477-2.538-2.477" fill="#fdfdfd"/>
</svg>
