<svg viewBox="0 0 24 24" xmlns="http://www.w3.org/2000/svg">
 <path d="m12 5.863c-3.391 0-6.137 2.746-6.137 6.137 0 .027 0 .051 0 .078-.199-.043-.402-.078-.613-.078-1.695 0-3.066 1.375-3.066 3.066 0 1.695 1.371 3.07 3.066 3.07h12.273c2.371 0 4.293-1.922 4.293-4.297 0-2.344-1.879-4.254-4.219-4.293-.949-2.16-3.086-3.684-5.598-3.684m-2.418 3.336c.414-.07.832.074 1.113.383l1.305 1.305 1.305-1.305c.402-.418 1.039-.496 1.535-.191.039.023.078.051.113.078.273.223.441.551.453.902.016.352-.121.695-.375.938l-1.305 1.305 1.305 1.305c.363.293.531.773.426 1.23-.105.457-.465.816-.922.922-.457.105-.938-.063-1.23-.426l-1.305-1.305-1.305 1.305c-.293.363-.773.531-1.23.426-.457-.105-.816-.465-.922-.922-.105-.457.063-.938.426-1.23l1.266-1.305-1.266-1.305c-.418-.402-.496-1.039-.191-1.531.176-.297.469-.508.805-.578z" fill="#ef555c"/>
</svg>
