<svg viewBox="0 0 24 24" xmlns="http://www.w3.org/2000/svg">
 <path d="m10.02 6c-.392.011-.792.084-1.188.219-1.691.575-2.966 2.242-3.344 4.313-1.11.268-2.047 1.248-2.375 2.656-.465 2 .503 4.063 2.156 4.625.027.008.035.024.063.031.228.099.493.156.75.156h11.969c.429 0 .821-.147 1.156-.406 1.34-.774 2.072-2.619 1.656-4.406-.307-1.321-1.167-2.29-2.188-2.625-.009-.044.01-.081 0-.125-.465-2-2.191-3.156-3.844-2.594-.317.108-.609.255-.875.469-.911-1.481-2.392-2.354-3.938-2.313m1.969 4l3 3h-1.5v3h-3v-3h-1.5z" fill="#fdfdfd"/>
</svg>
