<svg viewBox="0 0 24 24" xmlns="http://www.w3.org/2000/svg">
 <path d="m10.04 6c-.392.011-.791.083-1.186.217-1.691.575-2.975 2.228-3.352 4.298-1.11.268-2.061 1.257-2.389 2.666-.465 2 .502 4.078 2.155 4.64.027.008.055.013.082.02.228.099.472.158.729.158h11.988c.429 0 .824-.156 1.159-.415 1.34-.774 2.07-2.615 1.654-4.403-.307-1.321-1.162-2.278-2.182-2.613-.009-.044-.017-.087-.027-.132-.465-2-2.183-3.169-3.836-2.606-.317.108-.61.28-.876.494-.911-1.481-2.372-2.365-3.918-2.323" fill="#fdfdfd" opacity=".4"/>
</svg>
