<svg viewBox="0 0 24 24" xmlns="http://www.w3.org/2000/svg">
 <g fill="#4cd278" transform="translate(4 4)">
  <path d="m8 0c-4.418 0-8 3.134-8 7 0 3.866 3.582 7 8 7 4.418 0 8-3.134 8-7 0-3.866-3.582-7-8-7zm2.875 3c .402-.011.809.206 1 .531.191.325.169.728-.063 1.031l-3.625 5.03c-.178.244-.468.384-.781.406-.313.023-.649-.072-.875-.281l-2.188-2c-.442-.36-.451-1.054-.031-1.438.419-.384 1.173-.379 1.563.031l1.25 1.125 2.875-3.969c.191-.271.523-.458.875-.469z"/>
  <path d="m8.336 12l5.664 4-1-6z"/>
 </g>
</svg>
