<svg viewBox="0 0 21.82 24" xmlns="http://www.w3.org/2000/svg">
 <path d="m10.409 5c-4.14 0-7.5 3.36-7.5 7.5 0 4.14 3.36 7.5 7.5 7.5 1.965 0 3.756-.762 5.094-2h5.406l-3.344-3.344c.208-.687.344-1.401.344-2.156 0-4.14-3.36-7.5-7.5-7.5zm0 3c2.484 0 4.5 2.02 4.5 4.5 0 2.484-2.02 4.5-4.5 4.5-2.484 0-4.5-2.02-4.5-4.5 0-2.484 2.02-4.5 4.5-4.5z" fill="#fdfdfd" fill-rule="evenodd"/>
 <path d="m12.171 12.499h-1.762v-2.5" fill="none" stroke="#ececec" stroke-linecap="round" stroke-linejoin="round"/>
</svg>
