<svg viewBox="0 0 24 24" xmlns="http://www.w3.org/2000/svg">
 <g fill="#fdfdfd" transform="translate(4 4)">
  <path d="m8 0c-4.418 0-8 3.134-8 7 0 3.866 3.582 7 8 7 4.418 0 8-3.134 8-7 0-3.866-3.582-7-8-7zm-2.063 4c .218-.024.445.039.594.188l1.469 1.469 1.469-1.469c.297-.297.848-.246 1.219.125.371.371.422.922.125 1.219l-1.469 1.469 1.469 1.469c.297.297.246.848-.125 1.219-.371.371-.922.422-1.219.125l-1.469-1.469-1.469 1.469c-.297.297-.848.246-1.219-.125-.371-.371-.422-.922-.125-1.219l1.469-1.469-1.469-1.469c-.297-.297-.246-.848.125-1.219.185-.185.407-.288.625-.313z"/>
  <path d="m8.336 12l5.664 4-1-6z"/>
 </g>
</svg>
