<svg viewBox="0 0 24 24" xmlns="http://www.w3.org/2000/svg">
 <g fill="#eedb58" transform="translate(4 4)">
  <path d="m8 0c-4.418 0-8 3.134-8 7 0 3.866 3.582 7 8 7 4.418 0 8-3.134 8-7 0-3.866-3.582-7-8-7zm .031 3c .265 0 .547.11.75.313l2.906 2.906c.016.016.016.045.031.063.099.113.17.237.219.375.035.1.063.211.063.313 0 .011 0 .02 0 .031 0 .011 0 .021 0 .031 0 .01.001.021 0 .031 0 .01.001.021 0 .031-.014.244-.125.5-.313.688l-2.906 2.906c-.406.406-1.063.406-1.469 0-.406-.406-.406-1.063 0-1.469l1.219-1.219h-3.531c-.554 0-1-.446-1-1 0-.554.446-1 1-1h3.531l-1.219-1.219c-.406-.406-.406-1.063 0-1.469.203-.203.454-.313.719-.313z"/>
  <path d="m8.336 12l5.664 4-1-6z"/>
 </g>
</svg>
