<svg viewBox="0 0 24 24" xmlns="http://www.w3.org/2000/svg">
 <path d="m9.1 4.5c-.155-.001-.318.007-.486.029-2.692.357-2.609 2.738-2.609 2.738-1.103.193-2 1.186-2 2.223 0 1.037 1.152 1.954 2.117 2.221.574.159 1.328 0 1.328 0 .341.619 1.462 1.031 2.246 1.031 1.278 0 2.59-.436 2.893-1.031 0 0 5.292.436 6.391 0 1.599-.635 1.103-2.622.039-3.293-1.064-.671-2.459-.199-2.459-.199 0 0-.003-1.365-1.508-2.02-1.505-.653-2.779.789-2.779.789 0 0-.84-2.475-3.168-2.49zm4.535 8.826c-.043.011-.073.053-.07.1v.297l-.256-.168c-.104-.071-.205.093-.1.162l.355.234v.541l-.445-.27-.018-.439c-.002-.063-.061-.108-.119-.09-.042.013-.069.054-.066.1l.014.316-.244-.148c-.11-.094-.226.106-.096.164l.246.148-.266.148c-.137.048-.029.26.086.168l.369-.203.449.273-.449.268-.369-.197c-.115-.092-.223.12-.086.168l.266.143-.246.15c-.107.066-.011.234.096.168l.244-.148-.014.316c-.003.129.182.134.186.006l.018-.438.445-.268v.541l-.355.232c-.104.069-.004.233.1.164l.256-.168v.297c0 .129.184.129.184 0v-.297l.25.168c.104.069.204-.095.1-.164l-.35-.232v-.545l.445.271.018.438c.004.128.188.123.186-.006l-.016-.316.246.148c.109.071.205-.107.09-.168l-.24-.15.264-.143c.137-.048.031-.26-.084-.168l-.373.197-.445-.268.445-.268.373.197c.115.092.221-.12.084-.168l-.27-.148.246-.148c.146-.048.023-.272-.09-.164l-.246.148.016-.316c.004-.067-.058-.119-.119-.1-.038.012-.065.048-.066.09l-.018.439-.445.27v-.541l.35-.234c.105-.069.005-.233-.1-.162l-.25.168v-.297c.001-.055-.041-.101-.094-.1-.006-.001-.013-.001-.02 0zm-6.04.959c-.043.011-.073.053-.07.1v.297l-.256-.168c-.104-.071-.203.093-.098.162l.354.234v.541l-.443-.27-.02-.441c-.002-.063-.061-.106-.119-.088-.042.013-.069.052-.066.098l.016.318-.246-.148c-.11-.094-.226.106-.096.164l.246.148-.264.148c-.137.048-.031.26.084.168l.369-.203.449.273-.449.268-.369-.199c-.115-.092-.221.122-.084.17l.264.143-.246.15c-.107.066-.011.234.096.168l.246-.148-.016.316c-.003.129.182.134.186.006l.02-.438.443-.268v.541l-.354.232c-.104.069-.006.233.098.164l.256-.168v.297c0 .129.184.129.184 0v-.297l.252.168c.104.069.204-.095.1-.164l-.352-.232v-.545l.445.271.02.438c.004.128.186.123.184-.006l-.014-.316.246.148c.109.071.205-.107.09-.168l-.242-.15.266-.143c.137-.048.029-.262-.086-.17l-.373.199-.445-.268.445-.268.373.197c.115.092.223-.12.086-.168l-.27-.148.246-.148c.146-.048.023-.272-.09-.164l-.246.148.014-.318c.004-.067-.058-.117-.119-.098-.038.012-.063.046-.064.088l-.02.441-.445.27v-.541l.35-.234c.105-.069.007-.233-.098-.162l-.252.168v-.297c.001-.055-.041-.101-.094-.1-.006-.001-.013-.001-.02 0zm10.309 1.055c-.043.011-.075.053-.072.1v.297l-.254-.168c-.104-.071-.205.093-.1.162l.354.234v.541l-.443-.27-.02-.441c-.002-.063-.059-.106-.117-.088-.042.013-.069.052-.066.098l.014.318-.246-.148c-.11-.094-.224.106-.094.164l.244.148-.264.148c-.137.048-.029.26.086.168l.367-.203.449.273-.449.268-.367-.199c-.115-.092-.223.122-.086.17l.264.143-.244.15c-.107.066-.013.234.094.168l.246-.148-.014.316c-.003.129.18.134.184.006l.02-.438.443-.268v.541l-.354.232c-.104.069-.004.233.1.164l.254-.168v.297c0 .129.186.129.186 0v-.297l.25.168c.104.069.204-.095.1-.164l-.35-.232v-.545l.443.271.02.438c.003.128.186.123.184-.006l-.014-.316.246.148c.109.071.205-.107.09-.168l-.242-.15.266-.143c.137-.048.029-.262-.086-.17l-.373.199-.443-.268.443-.268.373.197c.115.092.223-.12.086-.168l-.27-.148.246-.148c.146-.048.023-.272-.09-.164l-.246.148.014-.318c.004-.067-.056-.117-.117-.098-.038.012-.065.046-.066.088l-.02.441-.443.27v-.541l.35-.234c.105-.069.005-.233-.1-.162l-.25.168v-.297c.001-.055-.043-.101-.096-.1-.006-.001-.012 0-.018 0zm-5.924 1.494c-.043.011-.073.053-.07.1v.297l-.256-.168c-.104-.071-.205.095-.1.164l.355.232v.541l-.445-.268-.018-.441c-.002-.063-.061-.108-.119-.09-.042.013-.069.054-.066.1l.014.316-.244-.148c-.11-.094-.226.106-.096.164l.246.148-.264.148c-.137.048-.031.262.084.17l.369-.203.449.271-.449.268-.369-.197c-.115-.092-.221.12-.084.168l.264.145-.246.148c-.107.066-.011.234.096.168l.244-.148-.014.318c-.003.129.182.132.186.004l.018-.436.445-.268v.539l-.355.234c-.104.069-.004.232.1.162l.256-.168v.297c0 .129.184.129.184 0v-.297l.25.168c.104.069.204-.093.1-.162l-.35-.234v-.545l.445.273.018.436c.004.128.188.125.186-.004l-.014-.318.244.148c.109.071.205-.107.09-.168l-.24-.148.264-.145c.137-.048.031-.26-.084-.168l-.373.197-.445-.268.445-.268.373.199c.115.092.221-.122.084-.17l-.27-.148.246-.148c.146-.048.023-.272-.09-.164l-.244.148.014-.316c.004-.067-.058-.119-.119-.1-.038.012-.065.048-.066.09l-.018.441-.445.268v-.541l.35-.232c.105-.069.005-.235-.1-.164l-.25.168v-.297c.001-.055-.041-.101-.094-.1-.006-.001-.013-.001-.02 0z" fill="#fdfdfd"/>
</svg>
