<svg viewBox="0 0 24 24" xmlns="http://www.w3.org/2000/svg">
 <g fill="#fdfdfd" transform="translate(1 1)">
  <path d="m9.438 3c-.239 1.98-1.374 2.452-2.938 1.219.537 1.92-.365 2.791-2.281 2.25 1.231 1.569.759 2.673-1.219 2.906 1.737.978 1.738 2.215 0 3.188 1.98.239 2.452 1.374 1.219 2.938.44-.123.8-.146 1.125-.125.321-.645.923-1.14 1.625-1.438.037-.285.003-.401.219-.813.396-.757 1.297-1.541 2.719-1.719.195-.024.368-.031.531-.031h.031c1.576.009 2.426.802 2.969 1.563.626-.32 1.496-.523 2.469-.125.571.234.941.603 1.219.969.125-.619.761-1.025 1.875-1.156-1.738-.978-1.738-2.215 0-3.188-1.98-.239-2.452-1.374-1.219-2.938-1.92.537-2.791-.365-2.25-2.281-1.569 1.231-2.673.759-2.906-1.219-.978 1.737-2.215 1.737-3.188 0m .719 10.375c-.876.11-1.075.414-1.219.688-.143.274-.125.5-.125.5l.031.875-.875.125c-.484.08-.875.589-.875.813 0 .026.066.211.281.406.156.142.365.235.563.313.169-.005.356.034.5.094.186-.003.406 0 .406 0l .688-.125.375.594c-.047-.08.073.091.313.188.047.019.103.046.156.063.412-.242.84-.227 1.25.031.008.005.024-.005.031 0 .196-.033.375-.074.531-.125.164-.054.285-.145.344-.188l.313-.5.656.031c0 0 .109-.002.125 0 .269-.084.592-.034.938.094.255.018.539.016.844.031-.119-.752.028-1.289.406-1.594v-.313c0 0 .011-.064-.063-.219-.073-.154-.178-.33-.594-.5-.622-.255-1.281.406-1.281.406l-1.094 1.188-.563-1.531c0 0-.463-1.336-1.781-1.344-.101 0-.189-.011-.281 0z"/>
  <path d="m10.451 12.361c-.132 0-.274.006-.418.024-2.297.288-2.227 2.205-2.227 2.205-.941.156-1.707.954-1.707 1.789 0 .835.98 1.574 1.804 1.789.49.128 1.132 0 1.132 0 .291.499 1.25.831 1.919.831 1.091 0 2.211-.352 2.47-.831 0 0 4.516.352 5.454 0 1.365-.512.938-2.11.03-2.651-.908-.541-2.094-.163-2.094-.163 0 0-.005-1.101-1.289-1.627-1.284-.526-2.367.639-2.367.639 0 0-.719-1.994-2.706-2.01z"/>
 </g>
</svg>
