<svg viewBox="0 0 24 24" xmlns="http://www.w3.org/2000/svg">
 <path d="m5.574 15.993c-1.224-.343.029-2.66.781-3.417.362 1 .443 3.76-.781 3.417z" fill="#fdfdfd"/>
 <path d="m8.435 18.419c-1.393-.39.033-3.03.888-3.888.412 1.139.505 4.278-.888 3.888" fill="#fdfdfd"/>
 <path d="m12.194 16.467c-1.248-.35.03-2.712.796-3.485.369 1.021.452 3.834-.796 3.485z" fill="#fdfdfd"/>
 <path d="m14.478 18.965c-1.465-.41.035-3.183.934-4.09.433 1.198.531 4.5-.934 4.09z" fill="#fdfdfd"/>
 <path d="m17.292 16.269c-1.32-.37.031-2.869.842-3.686.39 1.08.478 4.056-.842 3.686z" fill="#fdfdfd"/>
 <path d="m9.185 4.5c-.154-.001-.311.007-.478.03-2.67.358-2.588 2.745-2.588 2.745-1.094.194-1.988 1.188-1.988 2.228 0 1.039 1.143 1.96 2.1 2.228.57.159 1.313 0 1.313 0 .338.621 1.454 1.034 2.232 1.034 1.268 0 2.564-.438 2.865-1.034 0 0 5.254.438 6.343 0 1.586-.637 1.093-2.629.038-3.302-1.055-.673-2.438-.199-2.438-.199 0 0-.008-1.369-1.5-2.024-1.492-.655-2.752.791-2.752.791 0 0-.837-2.481-3.146-2.496z" fill="#fdfdfd"/>
</svg>
