<svg viewBox="0 0 24 24" xmlns="http://www.w3.org/2000/svg">
 <path d="m12.498 4c-4.279 0-7.748 3.452-7.748 7.711 0 1.689.545 3.254 1.471 4.524.264-.644.742-1.199 1.404-1.482.606-1.403 2.045-2.643 3.698-2.554.008 0 .016 0 .024 0-.01-.162-.012-.324-.012-.488 0-3.087 1.823-5.744 4.455-6.976-1-.468-2.115-.735-3.293-.735m-1.047 9.361c-.132 0-.274.006-.418.024-2.297.288-2.227 2.205-2.227 2.205-.941.156-1.707.954-1.707 1.789 0 .835.98 1.574 1.804 1.789.49.128 1.132 0 1.132 0 .291.499 1.25.831 1.919.831 1.091 0 2.211-.352 2.47-.831 0 0 4.516.352 5.454 0 1.365-.512.938-2.11.03-2.651-.908-.541-2.094-.163-2.094-.163 0 0-.005-1.101-1.289-1.627-1.284-.526-2.367.639-2.367.639 0 0-.719-1.994-2.706-2.01z" fill="#fdfdfd"/>
</svg>
