<svg viewBox="0 0 24 24" xmlns="http://www.w3.org/2000/svg">
 <path d="m9.1 4.5c-.155-.001-.318.007-.487.03-2.692.357-2.609 2.738-2.609 2.738-1.103.193-2 1.185-2 2.222 0 1.037 1.152 1.955 2.118 2.222.574.159 1.328 0 1.328 0 .341.619 1.461 1.032 2.245 1.032 1.278 0 2.59-.436 2.893-1.032 0 0 5.292.436 6.391 0 1.599-.635 1.102-2.622.038-3.293-1.064-.671-2.458-.198-2.458-.198 0 0-.003-1.366-1.508-2.02-1.505-.653-2.779.789-2.779.789 0 0-.839-2.475-3.167-2.49zm-3.323 8.163a.092.097 0 0 0 -.071.099v.298l-.251-.169a.092.097 0 0 0 -.099.164l.35.233v.541l-.444-.268-.019-.436a.092.097 0 0 0 -.113-.094.092.097 0 0 0 -.071.099l.014.317-.246-.149a.092.097 0 1 0 -.095.164l.251.149-.269.149a.092.097 0 1 0 .085.169l.373-.198.444.268-.449.268-.369-.198a.092.097 0 1 0 -.085.169l.265.144-.246.149a.093.098 0 1 0 .095.169l.246-.149-.014.317a.092.097 0 1 0 .184.005l.019-.436.444-.268v.541l-.35.233a.092.097 0 1 0 .099.164l.251-.169v.298a.092.097 0 0 0 .184 0v-.298l.255.169a.092.097 0 1 0 .099-.164l-.355-.233v-.546l.444.273.019.436a.092.097 0 0 0 .184-.005l-.014-.317.246.149a.093.098 0 1 0 .095-.169l-.246-.149.265-.144a.092.097 0 1 0 -.085-.169l-.369.198-.449-.268.444-.268.373.198a.092.097 0 1 0 .085-.169l-.269-.149.251-.149a.092.097 0 1 0 -.095-.164l-.246.149.014-.317a.092.097 0 0 0 -.118-.099.092.097 0 0 0 -.066.094l-.019.436-.444.268v-.541l.355-.233a.092.097 0 0 0 -.099-.164l-.255.169v-.298a.092.097 0 0 0 -.095-.099.092.097 0 0 0 -.019 0zm11.713.243a.092.097 0 0 0 -.076.099v.298l-.251-.169a.092.097 0 0 0 -.099.164l.35.233v.541l-.444-.268-.019-.436a.092.097 0 0 0 -.113-.094.092.097 0 0 0 -.071.099l.014.317-.246-.149a.092.097 0 1 0 -.09.164l.246.149-.269.149a.092.097 0 1 0 .085.169l.373-.198.444.268-.444.268-.373-.198a.092.097 0 1 0 -.085.169l.265.144-.241.149a.092.097 0 1 0 .09.169l.246-.149-.014.317a.092.097 0 1 0 .184.005l.019-.436.444-.268v.541l-.35.233a.092.097 0 0 0 .099.164l.251-.169v.298a.092.097 0 0 0 .184 0v-.298l.255.169a.092.097 0 1 0 .099-.164l-.355-.233v-.546l.444.273.019.436a.092.097 0 0 0 .184-.005l-.014-.317.246.149a.093.098 0 1 0 .095-.169l-.241-.149.26-.144a.092.097 0 1 0 -.085-.169l-.369.198-.444-.268.444-.268.369.198a.092.097 0 1 0 .085-.169l-.265-.149.246-.149a.092.097 0 1 0 -.095-.164l-.246.149.014-.317a.092.097 0 0 0 -.113-.099.092.097 0 0 0 -.071.094l-.019.436-.444.268v-.541l.355-.233a.092.097 0 0 0 -.099-.164l-.255.169v-.298a.092.097 0 0 0 -.09-.099.092.097 0 0 0 -.009 0 .092.097 0 0 0 -.009 0zm-4.354.337a.123.129 0 0 0 -.095.134v.397l-.34-.228a.123.129 0 1 0 -.132.218l.473.312v.729l-.596-.362-.024-.59a.123.129 0 0 0 -.142-.124.123.129 0 0 0 -.104.139l.014.417-.326-.198a.125.131 0 1 0 -.123.228l.326.198-.355.193a.123.129 0 1 0 .113.228l.496-.268.596.357-.596.362-.496-.268a.123.129 0 1 0 -.113.228l.355.193-.326.198a.123.129 0 1 0 .123.223l.326-.198-.014.422a.123.129 0 1 0 .246.01l.024-.585.596-.362v.724l-.473.312a.123.129 0 0 0 .132.218l.34-.228v.402a.123.129 0 1 0 .246 0v-.402l.34.228a.123.129 0 0 0 .132-.218l-.473-.312v-.724l.6.362.019.585a.123.129 0 1 0 .246-.01l-.014-.422.326.198a.123.129 0 1 0 .123-.223l-.326-.198.355-.193a.123.129 0 1 0 -.113-.228l-.492.268-.6-.357.6-.362.492.268a.123.129 0 1 0 .113-.228l-.355-.193.326-.198a.125.131 0 1 0 -.123-.228l-.326.198.014-.417a.123.129 0 0 0 -.142-.139.123.129 0 0 0 -.104.124l-.019.585-.6.362v-.724l.473-.312a.123.129 0 0 0 -.132-.218l-.34.228v-.397a.123.129 0 0 0 -.137-.134.123.129 0 0 0 -.014 0zm-4.264 2.579a.123.129 0 0 0 -.014.005.123.129 0 0 0 -.095.129v.402l-.34-.228a.123.129 0 0 0 -.132.218l.473.312v.724l-.6-.362-.019-.585a.123.129 0 0 0 -.156-.124.123.129 0 0 0 -.09.134l.014.422-.326-.198a.123.129 0 1 0 -.123.223l.326.198-.355.193a.123.129 0 1 0 .113.228l.492-.268.596.357-.596.362-.492-.268a.123.129 0 1 0 -.113.228l.355.193-.326.198a.125.131 0 0 0 .123.228l.326-.198-.014.417a.123.129 0 1 0 .246.015l.019-.585.6-.362v.724l-.473.312a.123.129 0 1 0 .132.218l.34-.228v.397a.123.129 0 1 0 .246 0v-.397l.34.228a.123.129 0 1 0 .132-.218l-.473-.312v-.724l.6.362.019.585a.123.129 0 1 0 .246-.015l-.014-.417.326.198a.125.131 0 1 0 .123-.228l-.326-.198.355-.193a.123.129 0 1 0 -.113-.228l-.492.268-.6-.362.6-.357.492.268a.123.129 0 1 0 .113-.228l-.355-.193.326-.198a.123.129 0 1 0 -.123-.223l-.326.198.014-.422a.123.129 0 0 0 -.118-.139.123.129 0 0 0 -.128.129l-.019.585-.6.362v-.724l.473-.312a.123.129 0 1 0 -.132-.218l-.34.228v-.402a.123.129 0 0 0 -.137-.134m7.332 1.012a.092.097 0 0 0 -.071.099v.298l-.255-.169a.092.097 0 1 0 -.099.164l.355.233v.541l-.444-.268-.019-.441a.092.097 0 0 0 -.118-.089.092.097 0 0 0 -.066.099l.014.317-.246-.149a.092.097 0 1 0 -.095.164l.246.149-.265.149a.092.097 0 1 0 .085.169l.369-.203.449.273-.449.268-.369-.198a.092.097 0 1 0 -.085.169l.265.144-.246.149a.093.098 0 0 0 .095.169l.246-.149-.014.317a.092.097 0 0 0 .184.005l.019-.436.444-.268v.541l-.355.233a.092.097 0 0 0 .099.164l.255-.169v.298a.092.097 0 0 0 .184 0v-.298l.251.169a.092.097 0 0 0 .099-.164l-.35-.233v-.546l.444.273.019.436a.092.097 0 0 0 .184-.005l-.014-.317.246.149a.092.097 0 1 0 .09-.169l-.241-.149.265-.144a.092.097 0 1 0 -.085-.169l-.373.198-.444-.268.444-.268.373.198a.092.097 0 1 0 .085-.169l-.269-.149.246-.149a.092.097 0 1 0 -.09-.164l-.246.149.014-.317a.092.097 0 0 0 -.118-.099.092.097 0 0 0 -.066.089l-.019.441-.444.268v-.541l.35-.233a.092.097 0 1 0 -.099-.164l-.251.169v-.298a.092.097 0 0 0 -.095-.099.092.097 0 0 0 -.019 0z" fill="#fdfdfd"/>
</svg>
