<svg viewBox="0 0 24 24" xmlns="http://www.w3.org/2000/svg">
 <path d="m9.185 4.5c-.154-.001-.311.007-.478.03-2.67.358-2.588 2.745-2.588 2.745-1.094.194-1.988 1.188-1.988 2.228 0 1.039 1.143 1.96 2.1 2.228.57.159 1.313 0 1.313 0 .338.621 1.454 1.034 2.232 1.034 1.268 0 2.564-.438 2.865-1.034 0 0 5.254.438 6.343 0 1.586-.637 1.093-2.629.038-3.302-1.055-.673-2.438-.199-2.438-.199 0 0-.008-1.369-1.5-2.023-1.492-.655-2.752.79-2.752.79 0 0-.837-2.481-3.146-2.496zm-2.818 7.985c-.797.392-2.719 1.835-2.311 2.377.408.541 1.924-1.543 2.311-2.377zm12.142.259c-.797.392-2.724 1.83-2.316 2.372.408.541 1.928-1.538 2.316-2.372zm-3.066.124c-.797.392-2.724 1.835-2.316 2.377.408.541 1.928-1.543 2.316-2.377zm-2.761.398c-.797.392-2.724 1.835-2.316 2.377.408.541 1.928-1.543 2.316-2.377zm-3.258.363c-.797.392-2.724 1.835-2.316 2.377.408.541 1.928-1.543 2.316-2.377zm-2.963 1.8c-.797.392-2.724 1.835-2.316 2.377.408.541 1.928-1.543 2.316-2.377zm8.837.244c-.797.392-2.724 1.835-2.316 2.377.408.541 1.928-1.543 2.316-2.377zm-3.165.666c-.797.392-2.724 1.835-2.316 2.377.408.541 1.928-1.543 2.316-2.377zm4.759.482c-.797.392-2.724 1.835-2.316 2.377.408.541 1.928-1.543 2.316-2.377zm-7.839.214c-.797.392-2.724 1.835-2.316 2.377.408.541 1.928-1.543 2.316-2.377" fill="#fdfdfd"/>
</svg>
