<svg viewBox="0 0 24 24" xmlns="http://www.w3.org/2000/svg">
 <path d="m9.1 4.5c-.155-.001-.318.007-.487.03-2.692.357-2.609 2.738-2.609 2.738-1.103.193-2 1.185-2 2.222 0 1.037 1.152 1.955 2.118 2.222.574.159 1.328 0 1.328 0 .341.619 1.461 1.032 2.245 1.032 1.278 0 2.59-.436 2.893-1.032 0 0 5.292.436 6.391 0 1.599-.635 1.102-2.622.038-3.293-1.064-.671-2.458-.198-2.458-.198 0 0-.003-1.366-1.508-2.02-1.505-.653-2.779.789-2.779.789 0 0-.839-2.475-3.167-2.49zm-3.323 8.163c-.043.011-.073.052-.071.099v.298l-.251-.169c-.104-.069-.203.094-.099.164l.35.233v.541l-.444-.268-.019-.436c0-.063-.055-.109-.113-.094-.043.011-.073.052-.071.099l.014.317-.246-.149c-.11-.094-.225.105-.095.164l.251.149-.269.149c-.137.048-.03.26.085.169l.373-.198.444.268-.449.268-.369-.198c-.115-.092-.222.12-.085.169l.265.144-.246.149c-.107.066-.013.235.095.169l.246-.149-.014.317c-.004.13.182.134.184.005l.019-.436.444-.268v.541l-.35.233c-.105.069-.005.234.099.164l.251-.169v.298c0 .129.184.129.184 0v-.298l.255.169c.104.071.204-.095.099-.164l-.355-.233v-.546l.444.273.019.436c.004.128.187.124.184-.005l-.014-.317.246.149c.107.066.202-.102.095-.169l-.246-.149.265-.144c.137-.048.03-.26-.085-.169l-.369.198-.449-.268.444-.268.373.198c.115.092.222-.12.085-.169l-.269-.149.251-.149c.131-.058.015-.258-.095-.164l-.246.149.014-.317c.004-.067-.057-.118-.118-.099-.04.012-.067.051-.066.094l-.019.436-.444.268v-.541l.355-.233c.104-.069.005-.233-.099-.164l-.255.169v-.298c.001-.055-.042-.101-.095-.099-.006-.001-.013-.001-.019 0zm11.713.243c-.045.009-.078.051-.076.099v.298l-.251-.169c-.104-.068-.202.094-.099.164l.35.233v.541l-.444-.268-.019-.436c0-.063-.055-.109-.113-.094-.043.011-.073.052-.071.099l.014.317-.246-.149c-.113-.108-.235.115-.09.164l.246.149-.269.149c-.137.048-.03.26.085.169l.373-.198.444.268-.444.268-.373-.198c-.115-.092-.222.12-.085.169l.265.144-.241.149c-.115.06-.019.239.09.169l.246-.149-.014.317c-.004.13.182.134.184.005l.019-.436.444-.268v.541l-.35.233c-.104.069-.005.233.099.164l.251-.169v.298c0 .129.184.129.184 0v-.298l.255.169c.104.069.203-.094.099-.164l-.355-.233v-.546l.444.273.019.436c.004.128.187.123.184-.005l-.014-.317.246.149c.107.066.202-.103.095-.169l-.241-.149.26-.144c.137-.048.03-.26-.085-.169l-.369.198-.444-.268.444-.268.369.198c.115.092.222-.12.085-.169l-.265-.149.246-.149c.131-.058.015-.258-.095-.164l-.246.149.014-.317c.003-.065-.054-.114-.113-.099-.042.01-.071.049-.071.094l-.019.436-.444.268v-.541l.355-.233c.103-.07.004-.232-.099-.164l-.255.169v-.298c.001-.053-.039-.098-.09-.099h-.009-.009zm-5.744-.286c-.058.015-.098.071-.095.134v.397l-.34-.228c-.139-.093-.271.126-.132.218l.473.312v.729l-.596-.362-.024-.59c-.002-.078-.069-.136-.142-.124-.064.01-.11.071-.104.139l.014.417-.326-.198c-.145-.086-.268.142-.123.228l.326.198-.355.193c-.168.071-.038.332.113.228l.496-.268.596.357-.596.362-.496-.268c-.152-.104-.282.157-.113.228l.355.193-.326.198c-.161.08-.024.329.123.223l.326-.198-.014.422c-.018.183.25.193.246.01l.024-.585.596-.362v.724l-.473.312c-.138.093-.006.31.132.218l.34-.228v.402c-.013.185.259.185.246 0v-.402l.34.228c.138.092.27-.125.132-.218l-.473-.312v-.724l.6.362.019.585c-.004.184.263.173.246-.01l-.014-.422.326.198c.147.106.284-.143.123-.223l-.326-.198.355-.193c.168-.071.038-.332-.113-.228l-.492.268-.6-.357.6-.362.492.268c.152.104.282-.157.113-.228l-.355-.193.326-.198c.145-.086.022-.314-.123-.228l-.326.198.014-.417c.007-.084-.063-.152-.142-.139-.059.01-.102.062-.104.124l-.019.585-.6.362v-.724l.473-.312c.138-.093.006-.311-.132-.218l-.34.228v-.397c.003-.079-.062-.143-.137-.134-.005 0-.009 0-.014 0zm-2.873 3.202c-.005.001-.01.003-.014.005-.057.014-.096.068-.095.129v.402l-.34-.228c-.139-.093-.271.126-.132.218l.473.312v.724l-.6-.362-.019-.585c0-.085-.078-.147-.156-.124-.056.017-.094.073-.09.134l.014.422-.326-.198c-.147-.106-.284.143-.123.223l.326.198-.355.193c-.168.071-.038.332.113.228l.492-.268.596.357-.596.362-.492-.268c-.152-.104-.282.157-.113.228l.355.193-.326.198c-.145.086-.022.314.123.228l.326-.198-.014.417c-.018.18.244.195.246.015l.019-.585.6-.362v.724l-.473.312c-.139.093-.006.311.132.218l.34-.228v.397c-.013.185.259.185.246 0v-.397l.34.228c.139.093.272-.126.132-.218l-.473-.312v-.724l.6.362.019.585c.002.18.264.165.246-.015l-.014-.417.326.198c.145.086.268-.142.123-.228l-.326-.198.355-.193c.168-.071.038-.332-.113-.228l-.492.268-.6-.362.6-.357.492.268c.152.104.282-.157.113-.228l-.355-.193.326-.198c.161-.08.024-.329-.123-.223l-.326.198.014-.422c.005-.073-.048-.136-.118-.139-.07-.003-.127.056-.128.129l-.019.585-.6.362v-.724l.473-.312c.143-.092.007-.315-.132-.218l-.34.228v-.402c.003-.079-.062-.143-.137-.134zm7.332 1.012c-.043.011-.073.052-.071.099v.298l-.255-.169c-.104-.071-.205.095-.099.164l.355.233v.541l-.444-.268-.019-.441c-.002-.063-.06-.107-.118-.089-.042.013-.069.054-.066.099l.014.317-.246-.149c-.11-.094-.225.105-.095.164l.246.149-.265.149c-.137.048-.03.26.085.169l.369-.203.449.273-.449.268-.369-.198c-.115-.092-.222.12-.085.169l.265.144-.246.149c-.107.066-.013.235.095.169l.246-.149-.014.317c-.003.129.181.133.184.005l.019-.436.444-.268v.541l-.355.233c-.104.069-.005.233.099.164l.255-.169v.298c0 .129.184.129.184 0v-.298l.251.169c.104.069.203-.094.099-.164l-.35-.233v-.546l.444.273.019.436c.003.128.187.124.184-.005l-.014-.317.246.149c.109.071.204-.108.09-.169l-.241-.149.265-.144c.137-.048.03-.26-.085-.169l-.373.198-.444-.268.444-.268.373.198c.115.092.222-.12.085-.169l-.269-.149.246-.149c.146-.048.023-.272-.09-.164l-.246.149.014-.317c.004-.067-.057-.118-.118-.099-.038.012-.065.048-.066.089l-.019.441-.444.268v-.541l.35-.233c.105-.069.005-.235-.099-.164l-.251.169v-.298c.001-.055-.042-.101-.095-.099-.006-.001-.013-.001-.019 0z" fill="#fdfdfd"/>
 <g fill="#fdfdfd" transform="translate(.93450012 1.000014)">
  <path d="m4.91 17.821c-1.224-.343.029-2.66.781-3.417.362 1 .443 3.76-.781 3.417z"/>
  <path d="m7.25 14.598c-1.065-.298.025-2.315.679-2.974.315.871.386 3.273-.679 2.974z"/>
  <path d="m11.166 18.11c-1.065-.298.025-2.315.679-2.974.315.871.386 3.273-.679 2.974z"/>
  <path d="m13.574 15.616c-1.465-.41.035-3.183.934-4.09.433 1.198.531 4.5-.934 4.09z"/>
 </g>
</svg>
