<svg viewBox="0 0 24 24" xmlns="http://www.w3.org/2000/svg">
 <path d="m9.1 5.75c-.155-.001-.314.009-.482.033-2.691.39-2.607 2.988-2.607 2.988-1.102.211-2 1.294-2 2.426 0 1.132 1.152 2.134 2.117 2.426.574.173 1.322 0 1.322 0 .341.676 1.467 1.127 2.25 1.127.374 0 .742-.051 1.096-.125.019-.252.062-.497.156-.721.108-.255.246-.492.414-.709.154-.199.317-.385.49-.559l.006-.006.004-.004c.157-.149.302-.298.434-.445.119-.133.212-.263.283-.393.051-.092.074-.186.074-.309 0-.158-.028-.216-.123-.303l-.008-.008-.008-.008c-.062-.062-.19-.129-.482-.129-.248 0-.479.032-.699.094l-.008.002-.008.002c-.217.054-.456.15-.717.291l-.51.277-.768-2.102.367-.209c.351-.199.744-.352 1.172-.461.439-.118.888-.178 1.344-.178.544 0 1.019.077 1.428.254.374.154.698.36.947.631.237.257.412.556.51.881.087.29.135.579.135.865 0 .344-.069.676-.211.973-.118.263-.269.507-.453.73-.171.207-.354.404-.551.592l-.004.004-.006.004c-.014.012-.024.027-.037.039 1.643.108 4.262.225 5.01-.1 1.598-.694 1.103-2.863.039-3.596-1.063-.733-2.457-.217-2.457-.217 0 0-.008-1.49-1.512-2.203-1.504-.713-2.773.861-2.773.861 0 0-.844-2.703-3.17-2.719z" fill="#fdfdfd" opacity=".4"/>
 <path d="m12.03 10.536q-.436 0-.835.112-.399.1-.835.337l-.424-1.159q.461-.262 1.047-.411.598-.162 1.222-.162.748 0 1.234.212.486.199.773.511.287.312.399.686.112.374.112.723 0 .424-.162.76-.15.337-.386.623-.237.287-.511.548-.274.249-.511.524-.237.262-.399.561-.15.299-.15.673 0 .062 0 .15 0 .075.012.15h-1.296q-.025-.125-.037-.262-.012-.15-.012-.274 0-.411.137-.735.137-.324.349-.598.212-.274.449-.511.249-.237.461-.474.212-.237.349-.486.137-.249.137-.548 0-.411-.287-.673-.274-.274-.835-.274zm.972 6.731q0 .436-.287.711-.287.274-.711.274-.411 0-.711-.274-.287-.274-.287-.711 0-.436.287-.711.299-.287.711-.287.424 0 .711.287.287.274.287.711z" fill="#fdfdfd"/>
</svg>
