<svg viewBox="0 0 24 24" xmlns="http://www.w3.org/2000/svg">
 <path d="m12.507 5c-.676-.01-.676 1.01 0 1 .499 0 .963.276 1.221.742.258.466.258 1.049 0 1.515-.258.466-.722.742-1.221.742-.141-.002-.508 0-.508 0h-7.492c-.676-.01-.676 1.01 0 1h7.492c0 0 .232.004.508 0 .87 0 1.669-.487 2.096-1.257.426-.771.426-1.713 0-2.483-.426-.771-1.226-1.257-2.096-1.257z" fill="#fdfdfd" fill-rule="evenodd"/>
 <path d="m4.507 14c-.676-.01-.676 1.01 0 1h5.492c0 0 .339.002.508 0 .499 0 .965.276 1.223.742.258.466.258 1.049 0 1.515-.258.466-.724.742-1.223.742-.282-.003-.51.226-.506.508.004.275.23.495.506.492.87 0 1.671-.487 2.098-1.258.426-.771.426-1.713 0-2.484-.426-.771-1.228-1.258-2.098-1.258-.169-.002-.508 0-.508 0h-5.492z" fill="#fdfdfd" fill-rule="evenodd"/>
 <path d="m17.507 8.5c-.676-.01-.676 1.01 0 1 .275 0 .547.163.709.479.162.316.162.727 0 1.043-.162.316-.434.479-.709.479h-.508-12.492c-.676-.01-.676 1.01 0 1h12.492.508c.676 0 1.284-.409 1.598-1.021.314-.612.314-1.345 0-1.957-.314-.612-.922-1.021-1.598-1.021" fill="#fdfdfd" fill-rule="evenodd"/>
</svg>
