<svg viewBox="0 0 24 24" xmlns="http://www.w3.org/2000/svg">
 <path d="m11.01 9.25l.25 6h1.5l.25-6zm0 7v2h2v-2z" fill="#ef555c"/>
 <path d="m9.1 5.75c-.155-.002-.3.007-.469.031-2.692.39-2.625 3-2.625 3-1.103.211-2 1.274-2 2.406 0 1.132 1.16 2.146 2.125 2.438.574.173 1.313 0 1.313 0 .341.676 1.466 1.125 2.25 1.125.354 0 .694-.058 1.031-.125l-.219-5.344-.031-.531h.531 2 .531l-.031.531-.188 4.406c1.436.109 4.792.312 5.656-.063 1.599-.694 1.095-2.861.031-3.594-1.064-.733-2.438-.219-2.438-.219 0 0 .005-1.506-1.5-2.219-1.505-.713-2.781.875-2.781.875 0 0-.86-2.703-3.188-2.719z" fill="#fdfdfd"/>
</svg>
