<svg viewBox="0 0 24 24" xmlns="http://www.w3.org/2000/svg">
 <path d="m3.273 4.363c-.605 0-1.09.488-1.09 1.09v14.184c0 .605.484 1.09 1.09 1.09h6.543c.605 0 1.094-.484 1.094-1.09v-14.184c0-.602-.488-1.09-1.094-1.09zm.543 1.09h5.457c.301 0 .543.246.543.547v7.637c0 .301-.242.547-.543.547h-5.457c-.301 0-.543-.246-.543-.547v-7.637c0-.301.242-.547.543-.547zm0 10.91c.305 0 .547.242.547.547 0 .301-.242.543-.547.543-.301 0-.543-.242-.543-.543 0-.305.242-.547.543-.547zm2.184 0c .301 0 .547.242.547.547 0-.305.242-.547.543-.547.305 0 .547.242.547.547 0 .301-.242.543-.547.543-.301 0-.543-.242-.543-.543 0 .301-.246.543-.547.543-.301 0-.547-.242-.547-.543 0-.305.246-.547.547-.547zm3.273 0c .301 0 .543.242.543.547 0 .301-.242.543-.543.543-.305 0-.547-.242-.547-.543 0-.305.242-.547.547-.547zm-5.457 2.184c.305 0 .547.242.547.543 0 .305-.242.547-.547.547-.301 0-.543-.242-.543-.547 0-.301.242-.543.543-.543zm2.184 0c .301 0 .547.242.547.543 0-.301.242-.543.543-.543.305 0 .547.242.547.543 0 .305-.242.547-.547.547-.301 0-.543-.242-.543-.547 0 .305-.246.547-.547.547-.301 0-.547-.242-.547-.547 0-.301.246-.543.547-.543zm3.273 0c .301 0 .543.242.543.543 0 .305-.242.547-.543.547-.305 0-.547-.242-.547-.547 0-.301.242-.543.547-.543z" fill="#fdfdfd" fill-rule="evenodd"/>
 <path d="m17.188 2.188c-.898-.108-1.841.475-1.906 1.469v.031.031c0 .22.001.435 0 .656h-.563c-.896 0-1.625.729-1.625 1.625v13.09c0 .896.726 1.625 1.625 1.625h5.469c.897 0 1.625-.726 1.625-1.625v-13.09c0-.899-.731-1.625-1.625-1.625h-.563c.005-.155.037-.278.031-.469-.01-.343-.084-.762-.375-1.125-.315-.405-.779-.556-1.156-.594-.365-.036-.679.008-.906 0-.008 0-.024 0-.031 0zm-.125 1.094h.031.031c.35.017.653-.022.875 0 .222.022.308.061.406.188.092.114.149.234.156.469.003.113.005.294 0 .438h-2.188c.001-.21 0-.412 0-.625.02-.3.36-.514.688-.469zm-2.344 2.188h5.469c.309 0 .531.219.531.531v13.09c0 .312-.225.531-.531.531h-5.469c-.312 0-.531-.217-.531-.531v-13.09c0-.315.217-.531.531-.531z" fill="#fdfdfd"/>
 <path d="m15.816 15.273h3.273c.301 0 .547.242.547.543v2.184c0 .301-.246.547-.547.547h-3.273c-.301 0-.543-.246-.543-.547v-2.184c0-.301.242-.543.543-.543z" fill="#fdfdfd" fill-rule="evenodd"/>
</svg>
