<svg viewBox="0 0 24 24" xmlns="http://www.w3.org/2000/svg">
 <path d="m12.355 6.896l.008.131-.703.08c-1.892.214-3.528 1.562-4.152 3.484-.022.067-.032.136-.051.203.131-.052.266-.102.4-.152.565-1.666 1.977-2.877 3.687-3.098l.797-.104.035.586.834-.775c-.224-.119-.454-.232-.658-.303-.04-.014-.14-.036-.197-.053m-1.41 2.357c-.352.153-.664.383-.934.662.313-.094.624-.19.947-.277.003-.001.005-.001.008-.002zm6.877.1c-.012 0-.027.002-.039.002.605 1.428.693 3.075.186 4.637-.057.176-.132.34-.203.508 2.77-1.302 4.489-2.769 4.203-3.846-.23-.872-1.747-1.349-4.146-1.301m-1.715.115c-.133.014-.274.036-.41.053.733 1.133.955 2.553.518 3.9-.323.994-.962 1.819-1.779 2.383.322-.105.628-.214.936-.324.518-.545.929-1.207 1.172-1.953.46-1.417.257-2.87-.436-4.059zm-2.074.305c-.565.102-1.136.22-1.717.357l-1.252 1.164-.049-.836c-.573.159-1.13.327-1.668.506-.027.068-.063.127-.086.197-.394 1.212-.019 2.54.896 3.307l.553.463 2.244-2.146.119 2.072c.787-.34 1.429-1.017 1.715-1.898.379-1.167.069-2.392-.756-3.186zm-6.383 1.812c-.121.048-.245.095-.363.145-.108 1.334.321 2.647 1.16 3.637l.254-.314c-.807-.959-1.193-2.212-1.051-3.467m-1.879.828c-2.507 1.247-4.01 2.616-3.74 3.635.3 1.14 2.759 1.521 6.078 1.15l-.119-.1c-1.396-1.166-2.161-2.89-2.219-4.686m5.873 3.701l-.643.615c.219-.047.446-.108.668-.16z" fill="#fdfdfd" fill-opacity=".941"/>
 <path d="m-25.406 14.5c2.304 0 4.367 1.303 5.281 3.313l1.219-.469-1 3.469-3.313-1.844 1.281-.5c-.621-1.31-1.954-2.125-3.469-2.125-1.573 0-2.996.94-3.563 2.344l-1.781-.688c.845-2.104 2.985-3.5 5.344-3.5zm-5.5 4.719l3.313 1.781-1.281.5c.613 1.305 1.964 2.156 3.469 2.156 1.576 0 2.979-.91 3.563-2.313l1.781.688c-.877 2.103-2.979 3.469-5.344 3.469-2.292 0-4.387-1.339-5.281-3.344l-1.219.438z" fill="#fdfdfd" transform="matrix(.309017 -.95105652 .95105652 .309017 .84200664 -18.30750034)"/>
</svg>
