<svg viewBox="0 0 24 24" xmlns="http://www.w3.org/2000/svg">
 <path d="m12.951 7.223l-.021.402c.798.198 1.523.608 2.105 1.174.151-.021.295-.037.443-.055-.191-.212-.4-.403-.621-.578-.059-.029-.121-.05-.18-.08-.328-.167-.542-.32-.957-.553-.088-.049-.196-.108-.297-.164-.156-.055-.312-.107-.473-.146m-2.811.08l-.988.025c-.028.022-.055.04-.082.063l.268.346-.518.465c-.759.685-1.261 1.62-1.471 2.635.132-.052.27-.103.404-.154.216-.779.631-1.496 1.234-2.063l.586-.551.35.43.217-1.195m1.234 1.602l-.119.66c.584-.153 1.157-.285 1.721-.402-.281-.115-.577-.186-.881-.207zm6.447.449c-.053.001-.113.008-.166.01.105.231.21.462.289.707.485 1.494.392 3.046-.158 4.42 2.758-1.3 4.466-2.762 4.182-3.836-.23-.872-1.747-1.349-4.146-1.301m-1.797.127c-.123.013-.252.034-.377.049.226.338.412.707.543 1.109.551 1.696.12 3.534-1.148 4.732l-.387.367c.318-.106.61-.221.914-.332 1.122-1.288 1.513-3.131.947-4.873-.123-.378-.293-.726-.492-1.053m-2.094.312c-.89.163-1.797.357-2.715.605-.041.011-.078.024-.119.035l-.275 1.527-.947-1.156c-.214.067-.441.127-.648.197-.186.597-.198 1.257.01 1.896.398 1.224 1.443 2.061 2.646 2.158l.729.059-.006.109.623-3.17 1.295 1.582c.43-.732.532-1.636.24-2.533-.167-.513-.462-.957-.832-1.311m-6.332 1.812c-.119.048-.237.094-.354.143-.015.574.053 1.155.236 1.721.543 1.672 1.862 2.849 3.439 3.281.033-.007.068-.016.102-.023l.018-.348c-1.496-.384-2.734-1.488-3.23-3.02-.188-.579-.25-1.176-.211-1.758m-1.832.811c-2.504 1.247-4.01 2.615-3.736 3.633.308 1.168 2.879 1.544 6.326 1.125-1.05-.799-1.87-1.915-2.301-3.242-.163-.5-.252-1.01-.289-1.516m8.318 3.055l-.092.467c.126-.039.257-.075.381-.115z" fill="#fdfdfd" fill-opacity=".941"/>
 <path d="m-25.406 14.5c2.304 0 4.367 1.303 5.281 3.313l1.219-.469-1 3.469-3.313-1.844 1.281-.5c-.621-1.31-1.954-2.125-3.469-2.125-1.573 0-2.996.94-3.563 2.344l-1.781-.688c.845-2.104 2.985-3.5 5.344-3.5zm-5.5 4.719l3.313 1.781-1.281.5c.613 1.305 1.964 2.156 3.469 2.156 1.576 0 2.979-.91 3.563-2.313l1.781.688c-.877 2.103-2.979 3.469-5.344 3.469-2.292 0-4.387-1.339-5.281-3.344l-1.219.438z" fill="#fdfdfd" transform="matrix(.30901699 .95105653 -.95105653 .30901699 38.87201573 29.98254097)"/>
</svg>
