<svg viewBox="0 0 24 24" xmlns="http://www.w3.org/2000/svg">
 <path d="m11.851 7.228c-.621.006-1.238.128-1.82.361l.219.338c1.436-.569 3.087-.401 4.387.543.14.101.267.214.393.328.151-.021.295-.035.443-.053-.195-.199-.405-.388-.635-.555-.076-.055-.156-.098-.234-.148-.157-.083-.329-.186-.48-.277-.723-.362-1.499-.544-2.271-.537m.195 1.842c-.593-.031-1.186.109-1.701.424l-.625.381-.059-.092.096.207c.393-.121.792-.241 1.201-.352.618-.167 1.222-.306 1.818-.434-.241-.072-.485-.122-.73-.135zm-4.256.246l-.494.385c-.065.117-.144.261-.221.381l.289.076-.143.691c-.003.012-.002.025-.004.037.148-.06.305-.117.457-.176l.076-.404.566.148-.527-1.139zm10.03.037c-.037.001-.078.005-.115.006.527 1.074.764 2.279.654 3.48l1.578.459c1.428-.946 2.229-1.891 2.029-2.645-.23-.872-1.747-1.349-4.146-1.301m-1.762.121c-.125.013-.256.035-.383.051.72 1 1.027 2.253.793 3.477l-.15.787-.535-.141.527 1.096.887-.68-.49-.145.145-.68c.272-1.284-.039-2.653-.793-3.766zm-2.176.326c-.875.162-1.767.354-2.668.598-.385.104-.743.224-1.113.338l.918 1.977-1.979-.518c.082.845.532 1.637 1.295 2.191 1.031.749 2.41.801 3.422.168l.611-.383-1.348-2.797 2.01.525c-.075-.799-.482-1.558-1.146-2.1m-6.34 1.824c-.139.056-.269.115-.404.172 0 1.561.753 3.092 2.113 4.08.569.414 1.202.686 1.852.83.34-.074.686-.161 1.033-.248-.939.004-1.88-.277-2.682-.859-1.295-.941-2.01-2.438-1.912-3.975m-1.813.811c-2.481 1.242-3.97 2.601-3.701 3.613.312 1.183 2.94 1.556 6.453 1.111-.036-.025-.076-.042-.111-.068-1.557-1.132-2.47-2.842-2.641-4.656z" fill="#fdfdfd" fill-opacity=".941"/>
 <path d="m-25.406 14.5c2.304 0 4.367 1.303 5.281 3.313l1.219-.469-1 3.469-3.313-1.844 1.281-.5c-.621-1.31-1.954-2.125-3.469-2.125-1.573 0-2.996.94-3.563 2.344l-1.781-.688c.845-2.104 2.985-3.5 5.344-3.5zm-5.5 4.719l3.313 1.781-1.281.5c.613 1.305 1.964 2.156 3.469 2.156 1.576 0 2.979-.91 3.563-2.313l1.781.688c-.877 2.103-2.979 3.469-5.344 3.469-2.292 0-4.387-1.339-5.281-3.344l-1.219.438z" fill="#fdfdfd" transform="matrix(-.809017 -.58778527 .58778527 -.809017 -20.28136443 13.26778482)"/>
</svg>
