<svg viewBox="0 0 24 24" xmlns="http://www.w3.org/2000/svg">
 <path d="m11.925 7.192c-.949.06-1.898.383-2.707.971-.947.688-1.573 1.636-1.869 2.674.143-.057.293-.112.439-.168.294-.871.845-1.655 1.633-2.227 1.446-1.051 3.351-1.185 4.875-.346l.703.387-.227.354c.376-.056.742-.1 1.102-.139l-.045-.129c-.079-.025-.171-.052-.236-.076-.314-.114-.618-.255-.916-.406-.328-.167-.542-.32-.957-.553-.13-.073-.284-.157-.438-.24-.443-.094-.9-.13-1.357-.102m.242 1.861c-.646-.005-1.303.193-1.865.602-.115.084-.221.174-.322.27.323-.097.645-.195.979-.285.609-.165 1.205-.303 1.793-.43l.055-.084c-.209-.047-.423-.071-.639-.072zm5.654.301c-.039.001-.084.007-.123.008l.096.268.258-.066.186.736c.357 1.42.165 2.89-.443 4.188 2.753-1.299 4.458-2.759 4.174-3.832-.23-.872-1.747-1.349-4.146-1.301m-5.691.822c-.305.074-.608.14-.914.223-.685.185-1.347.388-1.982.602-.244.579-.312 1.218-.164 1.838l.168.711-.105.029 3.207-.389-1.105 1.721c.829.183 1.721.002 2.484-.553 1.031-.749 1.508-2.045 1.219-3.203l-.176-.699-3.076.416.445-.695zm4.719 1.258l-.391.104c.11 1.546-.554 3.086-1.857 4.03-.184.134-.376.253-.572.357.379-.118.752-.237 1.113-.363 1.213-1.058 1.821-2.608 1.707-4.131zm-9.27.178c-.138.055-.27.112-.404.168-.022.256-.031.511-.014.77l.389-.104c-.018-.28-.003-.558.029-.834zm-1.965.889c-2.405 1.224-3.848 2.554-3.584 3.549.275 1.042 2.346 1.459 5.236 1.24l-1.063-2.934-.262.07-.18-.748c-.093-.391-.132-.785-.148-1.178m3.74 2.563l-1.246.15.396 1.09.273-.424.615.348c.468.266.975.436 1.496.531.402-.085.816-.192 1.229-.295-.813.048-1.634-.118-2.373-.521l-.707-.385.316-.494" fill="#fdfdfd" fill-opacity=".941"/>
 <path d="m-25.406 14.5c2.304 0 4.367 1.303 5.281 3.313l1.219-.469-1 3.469-3.313-1.844 1.281-.5c-.621-1.31-1.954-2.125-3.469-2.125-1.573 0-2.996.94-3.563 2.344l-1.781-.688c.845-2.104 2.985-3.5 5.344-3.5zm-5.5 4.719l3.313 1.781-1.281.5c.613 1.305 1.964 2.156 3.469 2.156 1.576 0 2.979-.91 3.563-2.313l1.781.688c-.877 2.103-2.979 3.469-5.344 3.469-2.292 0-4.387-1.339-5.281-3.344l-1.219.438z" fill="#fdfdfd" transform="matrix(-.80901701 .58778526 -.58778526 -.80901701 3.20830103 43.11420405)"/>
</svg>
