<svg viewBox="0 0 24 24" xmlns="http://www.w3.org/2000/svg">
 <ellipse cx="8.175" cy="16.02" fill="#ef555c" rx="10.328" ry="3.055" transform="matrix(.96527118 -.26124998 .2564075 .96656877 0 0)"/>
 <path d="m10.23 6.748c-.188.05-.49.16-.707.294-.451.279-1.01.818-1.203 1.041-.255.296-.52.756-.718 1.091-.243.409-.351.648-.552.956-.182.28-.377.554-.592.81-.107.127-.25.283-.401.442 1.426-.653 3.09-1.252 4.904-1.743 1.839-.498 3.6-.822 5.175-.974-.2-.06-.391-.12-.54-.174-.314-.114-.619-.254-.917-.406-.328-.167-.542-.319-.956-.552-.339-.19-.799-.457-1.168-.586-.279-.097-1.033-.284-1.563-.3-.255-.008-.605.058-.76.099z" fill="#ef555c" fill-rule="evenodd"/>
</svg>
