<svg width="512" height="512" version="1.1" viewBox="0 0 512 512" xmlns="http://www.w3.org/2000/svg">
 <path d="m108.63 57.388c-7.963 0-15.228 2.293-20.693 6.22-4.545 3.266-7.751 7.872-8.752 13.13h-11.909c-16.447 0-29.883 13.03-29.883 29.2v66.736c0 16.17 13.436 29.19 29.883 29.19h377.47c16.447 0 29.883-13.03 29.883-29.19v-66.736c0-16.17-13.436-29.2-29.883-29.2h-262.91c-1-5.256-4.208-9.862-8.753-13.13-5.465-3.927-12.73-6.22-20.693-6.22h-43.761" fill="#cccccc" fill-rule="evenodd"/>
 <path d="m37.361 118.48c-19.928 0-38.06 15.818-36.23 35.853l24.26 265.41c1.733 18.966 16.271 34.947 36.2 34.947h383.41c19.933 0 34.1-16.05 36.2-34.853l29.632-265.41c1.123-10.05-3.137-19.263-9.971-25.663-6.833-6.399-16.258-10.284-26.22-10.284h-437.27" fill="#6997c7" fill-rule="evenodd"/>
 <g fill="#ffffff">
  <path d="m108.55 57.308c-7.963 0-15.11 2.403-20.572 6.33-4.545 3.266-7.702 7.931-8.703 13.187h-12.13c-17.677 0-29.802 12.771-29.802 30.661v3.956c0-16.17 13.355-29.27 29.802-29.27h14.286c1-5.256 2-9.657 6.549-12.923 5.465-3.927 12.609-6.33 20.572-6.33h43.78c7.963 0 15.371 2.403 20.835 6.33 4.545 3.266 5.766 7.668 6.769 12.923h264.88c16.447 0 29.802 11.455 29.802 27.625v-3.956c0-16.17-13.355-29.01-29.802-29.01h-262.95c-1-5.256-4.159-9.921-8.703-13.187-5.465-3.927-12.872-6.33-20.835-6.33z" fill-rule="evenodd" opacity=".764"/>
  <path d="m37.351 118.47c-19.928 0-38.05 15.84-36.22 35.875l0.406 4.375c3-15.936 18.732-27.563 35.813-27.563h437.28c9.966 0 19.386 3.882 26.22 10.281 4.736 4.435 8.234 10.208 9.563 16.688l0.406-3.688c1.123-10.05-3.134-19.288-9.969-25.688-6.833-6.399-16.252-10.281-26.22-10.281h-437.28" fill-rule="evenodd" opacity=".4"/>
  <path d="m162.72 325.65c-1.604 1.7474-2.8037 3.2341-3.6644 4.4208 0.97801-1.3314 2.2276-2.8277 3.661-4.4201zm198.27-50.555c0.55813 0.26864 1.1241 0.53206 1.5862 0.80465-0.36514-0.20866-0.91284-0.49555-1.591-0.80854zm-107.22 4.7083c59.18-16.267 90.941-10.48 103.25-6.28-13.535-4.6534-40.039-8.4073-53.635-16.507-12.992-7.7392-26.811-31.166-61.237-21.703-34.419 9.4636-34.502 36.006-42.46 50.22-6.5167 11.654-26.705 28.689-36.962 40.11 9.7435-10.597 34.535-30.296 91.05-45.842zm17.865-34.492c3.2376-0.88938 8.3372 0.1604 12.348 3.0319 5.6992 4.0746 7.4111 10.277 1.2154 11.981-6.203 1.7032-14.14-2.7802-16.607-7.744-1.7375-3.5044-0.18778-6.3841 3.0453-7.2684zm-25.343 4.4468c5.3038-1.4514 10.567 1.0667 11.765 5.6406 1.1906 4.5636-2.1387 9.4527-7.4417 10.905-5.3049 1.4563-10.567-1.0615-11.766-5.634-1.1906-4.5634 2.1381-9.4488 7.4431-10.911zm-33.329 18.109c2.0802-4.547 5.9813-8.0682 9.2126-8.9616 3.2292-0.88806 5.9813 0.80853 6.18 4.7303 0.28168 5.5654-4.406 13.519-10.609 15.226-6.1916 1.7031-7.7303-4.5424-4.7843-10.995zm154.45 23.684c-4.173-16.094-52.968-15.133-109.4 0.47336-56.428 15.607-99.157 39.952-94.971 56.04 2.8256 10.889 26.916 17.055 59.662 15.076 13.686 1.1737 32.02-0.83979 51.571-6.2174 19.271-5.2956 35.94-12.811 47.217-20.712 30.254-15.365 48.795-33.578 45.916-44.66zm-95.104 57.781c-24.548 6.7504-45.402 8.5874-47.051 2.2557-1.654-6.3255 16.98-16.638 41.532-23.385 24.545-6.757 45.718-7.3679 47.373-1.0393 1.654 6.3223-17.31 15.423-41.855 22.17z" stroke-width="13.041"/>
 </g>
</svg>
