<?xml version="1.0" encoding="UTF-8" standalone="no"?>
<svg xmlns="http://www.w3.org/2000/svg" height="512" viewBox="0 0 512 512" width="512" version="1.1">
 <path d="m108.63121 57.3885c-7.963 0-15.228 2.293-20.693 6.22-4.545 3.266-7.751 7.872-8.752 13.13h-11.909c-16.447 0-29.883 13.03-29.883 29.2v66.736c0 16.17 13.436 29.19 29.883 29.19h377.47c16.447 0 29.883-13.03 29.883-29.19v-66.736c0-16.17-13.436-29.2-29.883-29.2h-262.91c-1-5.256-4.208-9.862-8.753-13.13-5.465-3.927-12.73-6.22-20.693-6.22h-43.761" fill="#cccccc" fill-rule="evenodd"/>
 <path d="m37.36121 118.4785c-19.928 0-38.06 15.818-36.23 35.853l24.26 265.41c1.733 18.966 16.271 34.947 36.2 34.947h383.41c19.933 0 34.1-16.05 36.2-34.853l29.632-265.41c1.123-10.05-3.137-19.263-9.971-25.663-6.833-6.399-16.258-10.284-26.22-10.284h-437.27" fill="#6997c7" fill-rule="evenodd"/>
 <path d="m108.5512 57.3085c-7.96299 0-15.10999 2.403-20.57199 6.33-4.545 3.266-7.702 7.931-8.703 13.187h-12.13c-17.677 0-29.802 12.771-29.802 30.661v3.956c0-16.17 13.355-29.27 29.802-29.27h14.286c1-5.256 2-9.657 6.549-12.923 5.465-3.927 12.609-6.33 20.57199-6.33h43.78c7.963 0 15.371 2.403 20.835 6.33 4.545 3.266 5.766 7.668 6.769 12.923h264.88c16.447 0 29.802 11.455 29.802 27.625v-3.956c0-16.17-13.355-29.01-29.802-29.01h-262.95c-1-5.256-4.159-9.921-8.703-13.187-5.465-3.927-12.872-6.33-20.835-6.33z" fill="#ffffff" fill-rule="evenodd" opacity=".764"/>
 <path d="m37.35121 118.4685c-19.928 0-38.05 15.84-36.22 35.875l.406 4.375c3-15.936 18.732-27.563 35.813-27.563h437.27999c9.966 0 19.386 3.882 26.22 10.281 4.736 4.435 8.234 10.208 9.563 16.688l.406-3.688c1.123-10.05-3.134-19.288-9.969-25.688-6.833-6.399-16.252-10.281-26.22-10.281h-437.27999" fill="#ffffff" fill-rule="evenodd" opacity=".4"/>
 <path style="fill:#ffffff;fill-opacity:1" d="m 314.35928,178.91343 c -63.09504,0 -134.07449,70.97944 -134.07449,134.07449 l 15.76945,0 0.0417,-0.02 c 0,-55.17751 63.05526,-118.27918 118.25929,-118.27918 l 0,-15.76946 m 0,31.53892 c -47.31964,0 -102.53028,55.24379 -102.53028,102.53691 l 15.79066,0 0.0205,-0.02 c 0,-39.43523 47.28647,-86.72171 86.72171,-86.72171 l 0,-15.79069 m 0,31.56012 c -31.54686,0 -70.97282,39.42862 -70.97282,70.97283 l 15.76945,0 c 0,-23.66048 31.54354,-55.20402 55.20403,-55.20402 l 0,-15.76945 m -15.76941,31.53956 c -8.71328,0 -15.76945,7.05484 -15.76945,15.76944 0,8.7133 7.05484,15.79069 15.76945,15.79069 8.71329,0 15.76945,-7.07542 15.76945,-15.79069 0,-8.71327 -7.05484,-15.76944 -15.76945,-15.76944 m -1.78245,47.33289 c -7.72922,0 -13.98502,6.25842 -13.98502,13.98501 l 0,66.68249 c 0,7.70536 6.25845,13.96512 13.98502,13.96512 l 3.606,0 c 7.70536,0 13.94524,-6.26108 13.94524,-13.96512 l 0,-66.68249 c 0,-7.72921 -6.24054,-13.98501 -13.94524,-13.98501 z"/>
</svg>
