<svg viewBox="0 0 48 48" xmlns="http://www.w3.org/2000/svg" xmlns:xlink="http://www.w3.org/1999/xlink">
 <defs>
  <path id="a" d="m14 12h20c1.105 0 2 .895 2 2v20c0 1.105-.895 2-2 2h-20c-1.105 0-2-.895-2-2v-20c0-1.105.895-2 2-2m0 0"/>
 </defs>
 <use fill="none" height="48" stroke="#af8566" stroke-width="2.323" transform="matrix(1.2916667 0 0 1.2916667 -7.0000008 -7.0000008)" width="48" xlink:href="#a"/>
 <use fill="#fff4ab" height="48" transform="matrix(1.25 0 0 1.25 -6 -6)" width="48" xlink:href="#a"/>
 <path d="m9 30h30v2h-30z" fill="#e4d66a"/>
 <path d="m9 24h30v2h-30" fill="#e4d66a"/>
 <path d="m9 18h30v2h-30" fill="#e4d66a"/>
 <path d="m17 9h2v30h-2z" fill="#e6b2a9"/>
 <g transform="matrix(-.5 0 0 -.5 46 46)">
  <path d="m44 24c0 11.04-8.957 20-20 20-11.04 0-20-8.957-20-20 0-11.04 8.957-20 20-20 11.04 0 20 8.957 20 20" fill="#268bd2" fill-rule="evenodd"/>
  <g fill="#ffffff" fill-opacity=".902">
   <path d="m28 38h-8v-16h8z"/>
   <path d="m28 14c0 2.203-1.797 4-4 4-2.203 0-4-1.797-4-4 0-2.203 1.797-4 4-4 2.203 0 4 1.797 4 4z" fill-rule="evenodd"/>
  </g>
 </g>
</svg>
