<svg height="48" viewBox="0 0 48 48" width="48" xmlns="http://www.w3.org/2000/svg">
 <path d="m6 6h20c4 0 4 0 4 4.449219v31.101562c0 4.449219 0 4.449219-4 4.449219h-20c-4 0-4 0-4-4.449219v-31.101562c0-4.449219 0-4.449219 4-4.449219z" fill="#aaaaaa" fill-opacity=".941" fill-rule="evenodd"/>
 <path d="m18 2h20c4 0 4 0 4 4.449219v31.101562c0 4.449219 0 4.449219-4 4.449219h-20c-4 0-4 0-4-4.449219v-31.101562c0-4.449219 0-4.449219 4-4.449219z" fill="#d4d4d4" fill-rule="evenodd"/>
 <path d="m46 30h-8v-8h-8v8h-8v8h8v8h8v-8h8z" fill="#859900"/>
</svg>
