<svg viewBox="0 0 48 48" xmlns="http://www.w3.org/2000/svg">
 <path d="m-39 5h2v38h-2z" fill="#f9b13a" transform="rotate(-90)"/>
 <path d="m11.469 36.37q.304.138.773.248.497.138.966.138 1.518 0 2.373-.69.856-.662 1.545-2.18-1.739-3.312-3.257-7.01-1.49-3.726-2.484-7.534h2.76q.304 1.242.718 2.677.442 1.435.966 2.953.524 1.518 1.132 3.036.607 1.518 1.27 2.925 1.049-2.898 1.821-5.74.773-2.843 1.463-5.851h2.649q-.994 4.057-2.208 7.81-1.214 3.726-2.622 6.982-.552 1.242-1.159 2.125-.58.911-1.297 1.49-.718.58-1.628.856-.883.276-2.01.276-.304 0-.635-.055-.331-.028-.662-.11-.304-.055-.58-.138-.248-.083-.359-.138l.469-2.07z" fill="#888888"/>
 <path d="m31.701 31.847q.911 0 1.601-.028.718-.055 1.187-.166v-4.278q-.276-.138-.911-.221-.607-.11-1.49-.11-.58 0-1.242.083-.635.083-1.187.359-.524.248-.883.718-.359.442-.359 1.187 0 1.38.883 1.932.883.524 2.401.524zm-.221-12.861q1.545 0 2.594.414 1.076.386 1.711 1.132.662.718.938 1.739.276.994.276 2.208v8.969q-.331.055-.938.166-.58.083-1.325.166-.745.083-1.628.138-.856.083-1.711.083-1.214 0-2.235-.248-1.021-.248-1.766-.773-.745-.552-1.159-1.435-.414-.883-.414-2.125 0-1.187.469-2.042.497-.856 1.325-1.38.828-.524 1.932-.773 1.104-.248 2.318-.248.386 0 .8.055.414.028.773.11.386.055.662.11.276.055.386.083v-.718q0-.635-.138-1.242-.138-.635-.497-1.104-.359-.497-.994-.773-.607-.304-1.601-.304-1.27 0-2.235.193-.938.166-1.408.359l-.304-2.125q.497-.221 1.656-.414 1.159-.221 2.511-.221z" fill="#888888"/>
</svg>
