<svg height="48" viewBox="0 0 48 48" width="48" xmlns="http://www.w3.org/2000/svg">
 <path d="m42 24c0 9.942188-8.057813 18-18 18-9.942187 0-18-8.057812-18-18 0-9.942188 8.057813-18 18-18 9.942187 0 18 8.057812 18 18z" fill="#ffffff" fill-rule="evenodd"/>
 <path d="m23.96875 10.96875c-1.101562.015625-1.984375.929688-1.96875 2.03125v11c0 .46875.164062.921875.46875 1.28125l5 6c .445312.601562 1.179688.898438 1.914062.789062.734376-.117187 1.34375-.625 1.585938-1.328124.242188-.703126.070312-1.484376-.4375-2.023438l-4.53125-5.4375v-10.28125c.007812-.539062-.203125-1.0625-.585938-1.445312-.382812-.382813-.90625-.59375-1.445312-.585938z" fill="#268bd2"/>
 <path d="m24 4c-11.023438 0-20 8.976562-20 20 0 11.023438 8.976562 20 20 20 11.023438 0 20-8.976562 20-20 0-11.023438-8.976562-20-20-20zm0 4c8.859375 0 16 7.140625 16 16 0 8.859375-7.140625 16-16 16-8.859375 0-16-7.140625-16-16 0-8.859375 7.140625-16 16-16z" fill="#aaaaaa"/>
</svg>
