<svg height="48" viewBox="0 0 48 48" width="48" xmlns="http://www.w3.org/2000/svg">
 <path d="m24.050545 2.0000101c-3.128129-.0124804-4.887131 11.0458379-7.425445 12.8703009-2.537313 1.823744-13.5799976-.039-14.5577802 2.925067-.9781577 2.965194 9.0113632 8.04486 9.9657282 11.017759.95399 2.971714-4.1835733 12.878909-1.660954 14.722841 2.52362 1.84465 10.452619-6.058028 13.580747-6.045141 3.12691.01248 10.946201 8.064546 13.483046 6.240146 2.537845-1.825118-2.542191-11.855401-1.563252-14.820343.978534-2.963758 11.018204-7.948792 10.063432-10.920257-.955146-2.972649-12.034661-1.177266-14.55778-3.022571-2.52215-1.844587-4.200832-12.9557274-7.327742-12.9678019z" fill="#f1c40f"/>
 <path d="m21 16v6h-6v6h6v6h6v-6h6v-6h-6v-6z" fill="#859900" fill-rule="evenodd"/>
</svg>
