<svg height="48" viewBox="0 0 48 48" width="48" xmlns="http://www.w3.org/2000/svg">
 <path d="m36.71875 7.996094c-2.308594 0-3.992188 2.09375-5.460938 3.59375-1.378906 1.792968-2.820312 3.890625-3.210937 5.984375 0 .898437.871094 1.195312 1.230469 1.796875 1.410156 1.195312 2.851562 2.992187 1.980468 5.085937-1.289062 2.394531-3.660156 4.191407-5.519531 6.285157-1.472656 1.496093-3.390625 3.589843-5.730469 2.695312-1.742187-.898438-2.730468-2.394531-4.082031-3.292969-1.890625 0-3.507812 1.195313-5.070312 2.09375-2.007813 1.496094-4.078125 3.292969-4.800781 5.6875-.417969 1.796875 1.621093 2.992188 2.882812 3.890625 3.148438 2.394532 7.410156 2.691406 11.039062 1.496094 5.820313-2.09375 10.5-6.585938 14.640626-10.773438 3.511718-4.191406 6.902343-8.980468 7.351562-14.367187.300781-3.890625-1.648438-7.480469-4.648438-9.875l-.300781-.300781z" fill="#859900"/>
</svg>
