<svg height="48" viewBox="0 0 48 48" width="48" xmlns="http://www.w3.org/2000/svg">
 <path d="m10.546875 13.589844c-3.449219.925781-5.71875 3.535156-6.277344 7.84375-.152343 1.808594-.804687 4.324218.71875 5.527344 2.03125 1.363281 4.515625 1.140624 6.726563.707031 1.609375-.480469 2.300781-.652344 3.585937-2.011719 0 0-.148437-3.445312.539063-5.328125 5.539062-2.609375 10.933594-2.417969 16.320312 0 .6875 1.882813.539063 5.328125.539063 5.328125 1.285156 1.359375 1.976562 1.53125 3.585937 2.011719 2.210938.433593 4.695313.65625 6.726563-.707031 1.523437-1.203126.871093-3.71875.71875-5.527344-.558594-4.308594-2.828125-6.917969-6.277344-7.84375-9.003906-1.902344-18.011719-2.328125-26.90625 0z" fill="#859900"/>
 <path d="m32 32h-2.667969c-.683593 0-1.40625.355469-1.914062.851562l-3.417969 3.488282-3.417969-3.488282c-.503906-.5-1.230469-.851562-1.914062-.851562h-2.667969v2.722656c0 .84375.242188 1.503906.75 2.042969l7.25 7.234375 7.25-7.234375c.507812-.539063.75-1.199219.75-2.042969z" fill="#dc322f"/>
</svg>
