<svg height="48" viewBox="0 0 48 48" width="48" xmlns="http://www.w3.org/2000/svg">
 <path d="m42 26.002605a18 18.000078 0 0 1 -35.9999996 0 18 18.000078 0 1 1 35.9999996 0z" fill="#ffffff" fill-rule="evenodd"/>
 <path d="m24 6c-11.023438 0-20 8.976562-20 20 0 11.023438 8.976562 20 20 20 11.023438 0 20-8.976562 20-20 0-11.023438-8.976562-20-20-20zm0 4c8.859376 0 16 7.140624 16 16 0 8.859376-7.140624 16-16 16-8.859376 0-16-7.140624-16-16 0-8.859376 7.140624-16 16-16z" fill="#aaaaaa"/>
 <path d="m5.6152236 10.44365c-.7834742.783476-.7834742 2.044954 0 2.828428.9428092.942808 1.8856182 1.885618 2.8284272 2.828426 2.3570232-2.357022 4.7140452-4.714044 7.0710672-7.071066-.942808-.94281-1.885618-1.885618-2.828426-2.828428-.783475-.783474-2.044953-.783474-2.8284276 0z" fill="#aaaaaa"/>
 <rect fill="#aaaaaa" height="6" rx="2" width="8" x="20" y="2"/>
 <path d="m42.384776 10.44365c.783474.783476.783474 2.044954 0 2.828428-.942808.94281-1.885618 1.885618-2.828426 2.828426-2.357024-2.357022-4.714046-4.714044-7.071068-7.071066.942808-.94281 1.885618-1.885618 2.828426-2.828428.783474-.783474 2.044954-.783474 2.828428 0z" fill="#aaaaaa"/>
 <path d="m16 18h6v16h-6z" fill="#268bd2"/>
 <path d="m26 18h6v16h-6z" fill="#268bd2"/>
</svg>
