<svg viewBox="0 0 48 48" xmlns="http://www.w3.org/2000/svg">
 <path d="m42 26a18 18 0 0 1 -36 0 18 18 0 1 1 36 0z" fill="#ffffff" fill-rule="evenodd"/>
 <path d="m23.969 12.968c-1.102.016-1.984.93-1.969 2.031v11c0 .469.164.922.469 1.281l5 6c .445.602 1.18.898 1.914.789.734-.117 1.344-.625 1.586-1.328.242-.703.07-1.484-.438-2.023l-4.531-5.437v-10.281c.008-.539-.203-1.063-.586-1.445-.383-.383-.906-.594-1.445-.586z" fill="#268bd2"/>
 <path d="m24 6c-11.02 0-20 8.977-20 20 0 11.02 8.977 20 20 20 11.02 0 20-8.977 20-20 0-11.02-8.977-20-20-20m0 4c8.859 0 16 7.141 16 16 0 8.859-7.141 16-16 16-8.859 0-16-7.141-16-16 0-8.859 7.141-16 16-16" fill="#aaaaaa"/>
 <path d="m5.615 10.444c-.783.783-.783 2.045 0 2.828.943.943 1.886 1.886 2.828 2.828 2.357-2.357 4.714-4.714 7.07-7.07-.943-.943-1.886-1.886-2.828-2.828-.783-.783-2.045-.783-2.828 0z" fill="#aaaaaa"/>
 <rect fill="#aaaaaa" height="6" rx="2" width="8" x="20" y="2"/>
 <path d="m42.38 10.444c.783.783.783 2.045 0 2.828-.943.943-1.886 1.886-2.828 2.828-2.357-2.357-4.714-4.714-7.07-7.07.943-.943 1.886-1.886 2.828-2.828.783-.783 2.045-.783 2.828 0z" fill="#aaaaaa"/>
</svg>
