<svg height="48" viewBox="0 0 48 48" width="48" xmlns="http://www.w3.org/2000/svg">
 <path d="m8.8479706 5.9532601c-1.597657 5.6601559-1.632813 13.4921869 1.2109374 17.3554689 1.195313 1.835937 2.828125 4.246094 1.550782 6.4375-2.3632824 3.421875-6.3046884 5.269531-9.8945324 7.132812-1.21875002.125-.78125002 1.253906-.85937502 2.089844-.003906.660156-.203125 1.527344.77343802 1.214844h34.4140624c.976563.3125.777344-.554688.773438-1.214844-.07813-.835938.359375-1.964844-.859375-2.089844-3.589844-1.863281-7.53125-3.710937-9.894532-7.132812-1.277343-2.191406.355469-4.601563 1.550782-6.4375 3.003906-4.203125 3.394531-13.3554689 1.203125-17.4804689-1.980469-3.578125-3.980469-5.44140603-9.980469-5.57812503-6.007812.242188-8 2.00000003-9.9882814 5.70312503z" fill="#aaaaaa"/>
 <path d="m47.934284 22.508395h-6.442679v-6.442679h-6.442678v6.442679h-6.442679v6.442678h6.442679v6.442679h6.442678v-6.442679h6.442679z" fill="#aaaaaa"/>
</svg>
