<svg xmlns="http://www.w3.org/2000/svg" height="48" width="48">
 <path transform="matrix(1.13875 0 0 1.04903 -3.416 -1.912)" opacity=".65" fill="url(#a)" d="M45.15 41.383a21.076 2.383 0 1 1-42.15 0 21.076 2.383 0 1 1 42.15 0z"/>
 <g transform="translate(0 -1004.362)">
  <rect y="1006.36" x="9" width="30" rx="2" height="23" fill="#e5e5e5"/>
  <path fill="#787878" d="M12 1021.362h24v2H12z"/>
  <path fill="#b3b3b3" d="M45 1024.362v22H3v-20h20l2-4h18c1 0 2 1 2 2z"/>
  <path opacity=".15" d="M3 1045.362v1h42v-1z"/>
  <path fill="none" d="M25 1017.362l-5 3h3z"/>
  <path opacity=".03" d="M25 1022.362l-2 4H3v1h21l2-4h17c1 0 2 1 2 2v-1c0-1-1-2-2-2z"/>
  <path fill="#787878" d="M12 1009.362h24v2H12zM12 1013.362h24v2H12zM12 1017.362h24v2H12z"/>
  <path fill-rule="evenodd" fill="#878787" d="M42.998 1033.864c.07 3.37-1.726 6.514-4.695 8.22-2.965 1.705-6.64 1.705-9.61 0-2.97-1.706-4.763-4.85-4.69-8.22-.073-3.373 1.72-6.517 4.69-8.223 2.97-1.704 6.645-1.704 9.61 0 2.97 1.707 4.764 4.85 4.695 8.224z"/>
  <path fill="#fff" d="M38.695 1027.89c-.202.07-.373.206-.487.383l-5.177 5.01-3.23-3.082c-.13-.425-.537-.71-.99-.688-.448.026-.82.354-.904.79-.08.44.156.878.57 1.055l3.893 3.855c.372.346.95.346 1.322 0l5.84-5.783c.227-.3.258-.705.08-1.036-.18-.332-.54-.528-.917-.505z"/>
 </g>
 <radialGradient r="21.076" gradientUnits="userSpaceOnUse" gradientTransform="matrix(1 0 0 .11308 0 36.704)" cy="41.383" cx="24.076" id="a">
  <stop stop-opacity=".392" offset="0"/>
  <stop stop-opacity="0" offset="1"/>
 </radialGradient>
</svg>
