<svg xmlns="http://www.w3.org/2000/svg" height="48" width="48">
 <path transform="matrix(1.13875 0 0 1.04903 -3.416 -1.912)" opacity=".65" fill="url(#a)" d="M45.15 41.383a21.076 2.383 0 1 1-42.15 0 21.076 2.383 0 1 1 42.15 0z"/>
 <g transform="translate(0 -1004.362)">
  <rect y="1006.36" x="9" width="30" rx="2" height="23" fill="#e5e5e5"/>
  <path fill="#787878" d="M12 1021.362h24v2H12z"/>
  <path fill="#b3b3b3" d="M45 1024.362v22H3v-20h20l2-4h18c1 0 2 1 2 2z"/>
  <path opacity=".15" d="M3 1045.362v1h42v-1z"/>
  <path fill="none" d="M25 1017.362l-5 3h3z"/>
  <path opacity=".03" d="M25 1022.362l-2 4H3v1h21l2-4h17c1 0 2 1 2 2v-1c0-1-1-2-2-2z"/>
  <path fill="#787878" d="M12 1009.362h24v2H12zM12 1013.362h24v2H12zM12 1017.362h24v2H12z"/>
 </g>
 <radialGradient r="21.076" gradientUnits="userSpaceOnUse" gradientTransform="matrix(1 0 0 .11308 0 36.704)" cy="41.383" cx="24.076" id="a">
  <stop stop-opacity=".392" offset="0"/>
  <stop stop-opacity="0" offset="1"/>
 </radialGradient>
</svg>
