<svg height="48" width="48" xmlns="http://www.w3.org/2000/svg">
 <g transform="translate(0 -1004.3622)">
  <g opacity=".5" transform="translate(-15 -.99998262)">
   <path d="m21 1027.3622v14h21v-7l-1-6h-8l-1-2h-10c-.5 0-1 .5-1 1z" fill="#ef6c00"/>
   <path d="m22 22c-.5 0-1 .5-1 1v1c0-.5.5-1 1-1h9l1 2h9l1 6v-1l-1-6h-8l-1-2z" opacity=".03" transform="translate(0 1004.3622)"/>
   <path d="m23 1029.3622h10v3.9999914h-10z" fill="#fffdf0"/>
   <path d="m42 1029.3622v14h-21v-13h10l1-2h9c .5 0 1 .5 1 1z" fill="#ffa726"/>
   <path d="m21 1042.3622v1h21v-1z" opacity=".15"/>
   <path d="m32 1028.8622l-2.5 1.5h1.5z" fill="none"/>
   <path d="m32 24l-1 2h-10v1h11l1-2h8c .5 0 1 .5 1 1v-1c0-.5-.5-1-1-1z" opacity=".03" transform="translate(0 1004.3622)"/>
  </g>
  <path d="m21 1013.3622v14h21v-7l-1-6h-8l-1-2h-10c-.5 0-1 .5-1 1z" fill="#ef6c00"/>
  <path d="m22 1012.3622c-.5 0-1 .5-1 1v1c0-.5.5-1 1-1h9l1 2h9l1 6v-1l-1-6h-8l-1-2z" opacity=".03"/>
  <path d="m23 1015.3622h10v3.9999914h-10z" fill="#fffdf0"/>
  <path d="m42 1015.3622v14h-21v-13h10l1-2h9c .5 0 1 .5 1 1z" fill="#ffa726"/>
  <path d="m21 1028.3622v1h21v-1z" opacity=".15"/>
  <path d="m32 1014.8622l-2.5 1.5h1.5z" fill="none"/>
  <path d="m32 1014.3622l-1 2h-10v1h11l1-2h8c .5 0 1 .5 1 1v-1c0-.5-.5-1-1-1z" opacity=".03"/>
  <path d="m42 1030.3622h-8v-8h-4v8h-8v4h8v8h4v-8h8z" fill="#4caf50"/>
 </g>
</svg>
