<svg height="48" viewBox="0 0 48 48" width="48" xmlns="http://www.w3.org/2000/svg">
 <path d="m13.394531 38.847656l-4.242187-4.242187 25.453125-25.453125 4.242187 4.242187z" fill="#dc322f"/>
 <path d="m9.859375 38.140625c7.808594 7.8125 20.472656 7.8125 28.28125 0 7.8125-7.808594 7.8125-20.472656 0-28.28125-7.808594-7.8125-20.472656-7.8125-28.28125 0-7.8125 7.808594-7.8125 20.472656 0 28.28125zm4.242187-4.242187c-5.46875-5.464844-5.46875-14.332032 0-19.796876 5.464844-5.46875 14.332032-5.46875 19.796876 0 5.46875 5.464844 5.46875 14.332032 0 19.796876-5.464844 5.46875-14.332032 5.46875-19.796876 0z" fill="#dc322f" fill-rule="evenodd"/>
</svg>
