<svg height="48" viewBox="0 0 48 48" width="48" xmlns="http://www.w3.org/2000/svg">
 <g fill-rule="evenodd">
  <path d="m16 4h16c4 0 4-.398438 4 4v16c0 4 0 4-4 4h-16c-4 0-4 0-4-4v-16c0-4 0-4 4-4z" fill="#aaaaaa" fill-opacity=".941"/>
  <path d="m8 16h32c4 0 4 0 4 4v12c0 4 0 4-4 4h-32c-4 0-4 0-4-4v-12c0-4 0-4 4-4z" fill="#cccccc"/>
 </g>
 <path d="m12 24h24v20h-24z" fill="#dc322f"/>
 <g fill-rule="evenodd">
  <path d="m36 24c0 6.628906-5.371094 12-12 12-6.628906 0-12.003906-5.371094-12.003906-12 0-6.628906 5.375-12 12.003906-12 6.628906 0 12 5.371094 12 12z" fill="#ffffff"/>
  <path d="m32 24c0 4.417969-3.582031 8-8 8-4.417969 0-8-3.582031-8-8 0-4.417969 3.582031-8 8-8 4.417969 0 8 3.582031 8 8z" fill="#555555"/>
  <path d="m30 21c0 1.65625-1.34375 3-3 3-1.65625 0-3-1.34375-3-3 0-1.65625 1.34375-3 3-3 1.65625 0 3 1.34375 3 3z" fill="#eeeeee"/>
 </g>
</svg>
