<svg height="48" viewBox="0 0 48 48" width="48" xmlns="http://www.w3.org/2000/svg">
 <g fill="#888888">
  <path d="m12 22l20-12v4l-20 12z"/>
  <path d="m12 26l20 12v-4l-20-12z"/>
 </g>
 <g fill-rule="evenodd">
  <path d="m39.996094 12c0 4.417969-3.582032 8-8 8-4.414063 0-7.996094-3.582031-7.996094-8 0-4.417969 3.582031-8.003906 7.996094-8.003906 4.417968 0 8 3.585937 8 8.003906z" fill="#268bd2"/>
  <path d="m19.996094 24c0 4.417969-3.582032 8-8 8-4.414063 0-7.996094-3.582031-7.996094-8 0-4.417969 3.582031-8.003906 7.996094-8.003906 4.417968 0 8 3.585937 8 8.003906z" fill="#2aa198"/>
  <path d="m39.996094 36.007812c0 4.421876-3.582032 8.003907-8 8.003907-4.414063 0-7.996094-3.582031-7.996094-8.003907 0-4.417968 3.582031-8 7.996094-8 4.417968 0 8 3.582032 8 8z" fill="#dc322f"/>
 </g>
</svg>
