<svg height="48" viewBox="0 0 48 48" width="48" xmlns="http://www.w3.org/2000/svg">
 <g fill-rule="evenodd" transform="matrix(-1 0 0 1 47.999149 0)">
  <path d="m8 6h20c4 0 4 0 4 4v28c0 4 0 4-4 4h-20c-4 0-4 0-4-4v-28c0-4 0-4 4-4z" fill="#ffffff"/>
  <path d="m29.945364 10.325273l13.76964 10.781234c3.049845 2.387942 3.041205 3.009441 0 5.390617l-13.76964 10.781235c-1.918706 1.502292-1.945364.696799-1.945364-2.771879-.03911-1.347655 0-4.50648 0-4.50648-.03129 0 .0313 0 0 0-13.683579 0-20.0860595-8.893493-19.9999988-19.758955 5.4217948 5.474845 11.7382148 7.848555 19.9999988 7.680097v-3.920448c0-1.960225.02857-5.0039318 1.945364-3.675421z" fill="#268bd2"/>
 </g>
</svg>
