<svg height="24" width="24" xmlns="http://www.w3.org/2000/svg">
 <path d="m374-55.003l-5 6 5 6h11v-12zm2 3h1c .277 0 .52628.11222.70703.29297l1.293 1.293 1.293-1.293c.18075-.18075.43003-.29297.70703-.29297h1v1c0 .277-.11222.52628-.29297.70703l-1.293 1.293 1.293 1.293c.18075.18075.29297.43003.29297.70703v1h-1c-.277 0-.52628-.11222-.70703-.29297l-1.293-1.293-1.293 1.293c-.18075.18075-.43003.29297-.70703.29297h-1v-1c0-.277.11222-.52628.29297-.70703l1.293-1.293-1.293-1.293c-.18075-.18075-.29297-.43003-.29297-.70703z" fill="#333334" opacity=".5" transform="translate(-365 61.003)"/>
</svg>
