<svg height="512" viewBox="0 0 512 512" width="512" xmlns="http://www.w3.org/2000/svg">
 <path d="m231.72624 78.836003c-79.91177 0-144.63924 64.696977-144.63924 144.728987 0 79.96136 64.72747 144.72899 144.63924 144.72899 22.0702 0 42.79854-4.8761 61.5847-13.56835l54.23971 54.27339c25.49549 25.68798 25.74268 25.68798 51.41474 0 25.49548-25.51132 25.49548-25.75864 0-51.44664l-49.71975-49.75059c16.98523-23.88594 27.11986-52.75399 27.11986-84.2368 0-80.03201-64.72747-144.728987-144.63926-144.728987zm-2.25998 72.364497c19.56302-.60071 38.56105 6.74884 52.61535 20.38785 14.05431 13.63902 21.96426 32.40148 21.96426 51.97664 0 39.96302-32.38138 72.32917-72.31963 72.32917-39.93823 0-72.31961-32.36615-72.31961-72.32917-.0352-39.07964 31.00421-71.12779 70.05963-72.36449z" fill="#aaaaaa" fill-rule="evenodd"/>
 <path d="m191.82384 246.1013v19.73005h19.73005l49.8311-49.83111-19.73005-19.73005zm87.0147-47.49135c2.08686-2.08679 2.08686-5.37516 0-7.46196l-12.33128-12.33134c-2.08686-2.0868-5.37517-2.0868-7.46203 0l-10.30767 10.37092 19.72997 19.73012z" fill="#aaaaaa"/>
</svg>
