<svg height="48" viewBox="0 0 48 48" width="48" xmlns="http://www.w3.org/2000/svg">
 <g transform="matrix(-1 0 0 1 48 0)">
  <path d="m18.285714 10l-14.285714 14 14.285714 14h22.958876c1.514746-.06188 2.75541-1.376954 2.75541-2.8v-22.4c0-1.486212-.987144-2.8-2.881656-2.8z" fill="#dc322f"/>
  <path d="m22.008384 16.000311h2.66527c.02772-.00032.05544-.0012.08342 0 .67951.02987 1.35894.34288 1.832372.833333l3.414742 3.416668 3.49817-3.416668c.707946-.614667 1.190496-.814667 1.83237-.833333h2.66527v2.666667c0 .763919-.09142 1.468398-.666318 2l-3.414874 3.416666 3.331586 3.333336c.501578.501786.74958 1.209198.749608 1.916664v2.666668h-2.66527c-.707096-.000028-1.414166-.248266-1.915662-.75l-3.414878-3.416666-3.414876 3.416666c-.501498.50184-1.208592.75-1.915662.75h-2.66527v-2.666668c0-.70744.248136-1.414878.749608-1.916664l3.414878-3.333336-3.414878-3.416666c-.561678-.519014-.808002-1.251334-.749606-2z" fill="#ffffff"/>
  <path d="m22.008384 16.000311h2.66527c.02772-.00032.05544-.0012.08342 0 .67951.02987 1.35894.34288 1.832372.833333l3.414742 3.416668 3.49817-3.416668c.707946-.614667 1.190496-.814667 1.83237-.833333h2.66527v2.666667c0 .763919-.09142 1.468398-.666318 2l-3.414874 3.416666 3.331586 3.333336c.501578.501786.74958 1.209198.749608 1.916664v2.666668h-2.66527c-.707096-.000028-1.414166-.248266-1.915662-.75l-3.414878-3.416666-3.414876 3.416666c-.501498.50184-1.208592.75-1.915662.75h-2.66527v-2.666668c0-.70744.248136-1.414878.749608-1.916664l3.414878-3.333336-3.414878-3.416666c-.561678-.519014-.808002-1.251334-.749606-2z" fill="#dc322f" fill-opacity=".102"/>
 </g>
</svg>
