<svg height="512" viewBox="0 0 512 512" width="512" xmlns="http://www.w3.org/2000/svg">
 <path d="m232.14486 78.072397c-80.08177 0-144.94693 64.794403-144.94693 144.946933 0 80.08177 64.86516 144.94694 144.94693 144.94694 22.11715 0 42.88959-4.88345 61.7157-13.58878l54.35509 54.35511c25.54973 25.72667 25.79745 25.72667 51.52412 0 25.54972-25.54972 25.54972-25.79743 0-51.52411l-49.82552-49.82551c17.02136-23.92191 27.17756-52.83343 27.17756-84.36365 0-80.15253-64.86517-144.946933-144.94695-144.946933zm-2.26478 72.473463c19.60463-.60161 38.64307 6.75901 52.72727 20.41855 14.08421 13.65956 22.01099 32.45029 22.01099 52.05492 0 40.0232-32.45028 72.43809-72.47348 72.43809-40.02318 0-72.47346-32.41489-72.47346-72.43809-.0353-39.1385 31.07016-71.23491 70.20868-72.47347z" fill="#aaaaaa" fill-rule="evenodd"/>
</svg>
