<svg height="48" viewBox="0 0 48 48" width="48" xmlns="http://www.w3.org/2000/svg">
 <path d="m10.244056 7.1434322c-3.9998318 0-3.9998318 0-3.9998318 3.9998308v27.998817c0 3.99983 0 3.99983 3.9998318 3.99983h27.998816c3.999832 0 3.999832 0 3.999832-3.99983v-27.998817c0-4.398252 0-3.9998308-3.999832-3.9998308h-1.999915v27.9988158h-23.998986v-27.9988158z" fill="#bcbcbc" fill-rule="evenodd"/>
 <path d="m34.656214 6.2607196h-20.64843v24.0898344h20.64843z" fill="#ffffff"/>
 <path d="m17.360654 4.2142905v6.8828095h13.76562v-6.8828095z" fill="#aaaaaa"/>
 <g fill="#888888" transform="matrix(.86035124 0 0 .86035124 3.595034 2.7728851)">
  <path d="m16 16v4h16v-4z"/>
  <path d="m16 24v4h16v-4z"/>
 </g>
</svg>
