<svg height="48" viewBox="0 0 48 48" width="48" xmlns="http://www.w3.org/2000/svg">
 <path d="m8 4c0 22 10 18 21.558594 27.320312-.980469 1.320313-1.558594 2.898438-1.558594 4.679688 0 4.421875 3.578125 8 8 8 4.421875 0 8-3.578125 8-8 0-.71875-.199219-1.398438-.320312-2.058594l.320312.058594-.441406-.558594c-.597656-1.761718-1.820313-3.203125-3.378906-4.203125zm28 28c2.199219 0 4 1.800781 4 4 0 2.199219-1.800781 4-4 4-2.199219 0-4-1.800781-4-4 0-2.199219 1.800781-4 4-4z" fill="#aaaaaa"/>
 <path d="m40 4c0 22-10 18-21.558594 27.320312.980469 1.320313 1.558594 2.898438 1.558594 4.679688 0 4.421875-3.578125 8-8 8-4.421875 0-8-3.578125-8-8 0-.71875.140625-1.398438.320312-2.058594l-.320312.058594.441406-.558594c.597656-1.761718 1.820313-3.203125 3.378906-4.203125zm-28 28c-2.199219 0-4 1.800781-4 4 0 2.199219 1.800781 4 4 4 2.199219 0 4-1.800781 4-4 0-2.199219-1.800781-4-4-4z" fill="#cccccc"/>
</svg>
