<svg viewBox="0 0 24 24" xmlns="http://www.w3.org/2000/svg">
 <path d="m13.474 9.216l6.07 2.855c0 0-.209 6.06.365 7.777.574 1.721 1.796.84 1.849.221.077-.904.842-6.571-.825-9.132-1.114-1.71-3.632-2.397-5.354-2.971-1.721-.574-2.105 1.25-2.105 1.25" fill="#cb4b16" fill-rule="evenodd"/>
 <path d="m19.544 12.07l-8.113 8.113c-.674.674-1.76.674-2.434 0l-6.491-6.491c-.674-.674-.674-1.76 0-2.434l8.113-8.113" fill="#bcbcbc"/>
 <path d="m9.372 3.875c-2.02.017-3.957.419-5.371 1.177-.943.505-1.602 1.143-1.832 1.931-.23.787.069 1.642.738 2.287 1.339 1.292 3.863 1.95 6.638 1.95v-1.148c-2.576 0-4.919-.738-5.842-1.628-.461-.445-.539-.779-.434-1.138.105-.36.495-.826 1.272-1.243 1.024-.549 2.54-.905 4.163-1l1.172-1.173c-.169-.004-.337-.013-.505-.011z" fill="#5a5a5a"/>
</svg>
