<svg height="512" viewBox="0 0 512 512" width="512" xmlns="http://www.w3.org/2000/svg">
 <linearGradient id="a" gradientTransform="translate(.00121 .0005)" gradientUnits="userSpaceOnUse" x2="0" y1="121.74" y2="453.24">
  <stop offset="0" stop-color="#6a6a6a"/>
  <stop offset=".47"/>
  <stop offset=".494" stop-color="#ffffff"/>
  <stop offset=".901" stop-color="#ffffff"/>
  <stop offset=".955"/>
  <stop offset="1"/>
 </linearGradient>
 <g fill-rule="evenodd" transform="translate(.00121 .0005)">
  <path d="m108.63 57.37c-7.963 0-15.228 2.293-20.693 6.22-4.545 3.266-7.751 7.872-8.752 13.13h-11.909c-16.447 0-29.883 13.03-29.883 29.2v66.736c0 16.17 13.436 29.19 29.883 29.19h377.47c16.447 0 29.883-13.03 29.883-29.19v-66.736c0-16.17-13.436-29.2-29.883-29.2h-262.91c-1-5.256-4.208-9.862-8.753-13.13-5.465-3.927-12.73-6.22-20.693-6.22h-43.761" fill="#cccccc"/>
  <path d="m37.36 118.46c-19.928 0-38.06 15.818-36.23 35.853l24.26 265.41c1.733 18.966 16.271 34.947 36.2 34.947h383.41c19.933 0 34.1-16.05 36.2-34.853l29.632-265.41c1.123-10.05-3.137-19.263-9.971-25.663-6.833-6.399-16.258-10.284-26.22-10.284h-437.27" fill="#6997c7"/>
 </g>
 <path d="m37.36121 118.4505c-19.928 0-38.08 15.84-36.25 35.875l11.781 128.78 12.469 136.63c1.733 18.966 16.29 34.938 36.22 34.938h383.40999c19.933 0 34.09-16.04 36.19-34.844l15.281-136.72 14.375-128.69c1.123-10.05-3.135-19.287-9.969-25.688-6.833-6.399-16.257-10.281-26.22-10.281h-437.27999" fill="url(#a)" opacity=".05"/>
 <g fill="#ffffff" fill-rule="evenodd" transform="translate(.00121 .0005)">
  <path d="m108.55 57.29c-7.963 0-15.11 2.403-20.572 6.33-4.545 3.266-7.702 7.931-8.703 13.187h-12.13c-17.677 0-29.802 12.771-29.802 30.661v3.956c0-16.17 13.355-29.27 29.802-29.27h14.286c1-5.256 2-9.657 6.549-12.923 5.465-3.927 12.609-6.33 20.572-6.33h43.78c7.963 0 15.371 2.403 20.835 6.33 4.545 3.266 5.766 7.668 6.769 12.923h264.88c16.447 0 29.802 11.455 29.802 27.625v-3.956c0-16.17-13.355-29.01-29.802-29.01h-262.95c-1-5.256-4.159-9.921-8.703-13.187-5.465-3.927-12.872-6.33-20.835-6.33z" opacity=".764"/>
  <path d="m37.35 118.45c-19.928 0-38.05 15.84-36.22 35.875l.406 4.375c3-15.936 18.732-27.563 35.813-27.563h437.28c9.966 0 19.386 3.882 26.22 10.281 4.736 4.435 8.234 10.208 9.563 16.688l.406-3.688c1.123-10.05-3.134-19.288-9.969-25.688-6.833-6.399-16.252-10.281-26.22-10.281h-437.28" opacity=".4"/>
 </g>
 <g transform="translate(.00121 .0005)">
  <text x="-90.11" y="321.81">
   
  </text>
  <text x="359.69" y="259.9">
   
  </text>
  <text x="-752.69" y="419.8">
   
  </text>
  <text x="97.02" y="252.28">
   
  </text>
  <text x="546.83" y="190.37">
   
  </text>
  <text x="245.71" y="-175.19">
   
  </text>
  <text x="695.52" y="-237.1">
   
  </text>
  <path d="m256 161.56c-69.04 0-125 55.964-125 125v .031c0 34.771 14.179 66.22 37.09 88.88.165.167.334.334.5.5.116.113.228.231.344.344.428.435.878.853 1.313 1.281.115.116.229.229.344.344.047.046.109.079.156.125.285.291.556.587.844.875.048.046.108.079.156.125.283.289.558.589.844.875.437.447.869.904 1.313 1.344.33.335.666.669 1 1 .33.335.666.669 1 1 .428.435.878.853 1.313 1.281.115.116.229.229.344.344.047.046.109.079.156.125.061.063.127.124.188.188.223.227.431.462.656.688.005.005.026-.005.031 0 .009.009.022.022.031.031.053.051.103.105.156.156.261.265.518.549.781.813.437.447.869.904 1.313 1.344.33.335.666.669 1 1 .428.435.878.853 1.313 1.281.115.116.229.229.344.344.047.046.109.079.156.125.285.291.556.587.844.875.026.026.067.037.094.063.043.041.082.084.125.125.263.267.516.547.781.813.437.447.869.904 1.313 1.344.33.335.666.669 1 1 .428.435.878.853 1.313 1.281.115.116.229.229.344.344.047.046.109.079.156.125.285.291.556.587.844.875.016.015.047.016.063.031.053.051.103.105.156.156.263.267.516.547.781.813.437.447.869.904 1.313 1.344.33.335.666.669 1 1 .428.435.878.853 1.313 1.281.115.116.229.229.344.344.047.046.109.079.156.125.285.291.556.587.844.875.048.046.108.079.156.125.061.063.127.124.188.188.222.225.433.464.656.688.047.045.109.08.156.125.281.287.56.591.844.875.437.447.869.904 1.313 1.344.33.335.666.669 1 1 .428.435.878.853 1.313 1.281.115.116.229.229.344.344.047.046.109.079.156.125.285.291.556.587.844.875.016.015.047.016.063.031.053.051.103.105.156.156.263.267.516.547.781.813.437.447.869.904 1.313 1.344.33.335.666.669 1 1 .428.435.878.853 1.313 1.281.115.116.229.229.344.344.047.046.109.079.156.125.285.291.556.587.844.875.026.026.067.037.094.063.043.041.082.084.125.125.263.267.516.547.781.813.437.447.869.904 1.313 1.344.33.335.666.669 1 1 .428.435.878.853 1.313 1.281.115.116.229.229.344.344.047.046.109.079.156.125.285.291.556.587.844.875.016.015.047.016.063.031.053.051.103.105.156.156.263.267.516.547.781.813.437.447.869.904 1.313 1.344.33.335.666.669 1 1 .428.435.878.853 1.313 1.281.115.116.229.229.344.344.047.046.109.079.156.125.056.059.1.129.156.188.229.232.457.457.688.688.048.046.108.079.156.125.061.063.127.124.188.188.223.227.431.462.656.688.026.026.067.037.094.063.043.041.082.084.125.125.261.265.518.549.781.813.437.447.869.904 1.313 1.344.33.335.666.669 1 1 .428.435.878.853 1.313 1.281.115.116.229.229.344.344.047.046.109.079.156.125.285.291.556.587.844.875.016.015.047.016.063.031.053.051.103.105.156.156.263.267.516.547.781.813.437.447.869.904 1.313 1.344.33.335.666.669 1 1 .428.435.878.853 1.313 1.281.115.116.229.229.344.344.047.046.109.079.156.125.285.291.556.587.844.875.026.026.067.037.094.063.043.041.082.084.125.125.263.267.516.547.781.813.437.447.869.904 1.313 1.344.33.335.666.669 1 1 .428.435.878.853 1.313 1.281.115.116.229.229.344.344.047.046.109.079.156.125.285.291.556.587.844.875.048.046.108.079.156.125.283.289.558.589.844.875.437.447.869.904 1.313 1.344.33.335.666.669 1 1 .33.335.666.669 1 1 .428.435.878.853 1.313 1.281.115.116.229.229.344.344.047.046.109.079.156.125.061.063.127.124.188.188.223.227.431.462.656.688.026.026.067.037.094.063.021.02.042.041.063.063h197.63c19.933 0 34.09-16.04 36.19-34.844l8.531-76.31c-.021-.021-.041-.042-.063-.063-.265-.265-.545-.519-.813-.781-.021-.021-.042-.041-.063-.063-.01-.01-.021-.021-.031-.031-.037-.036-.057-.089-.094-.125-.288-.288-.584-.559-.875-.844-.026-.027-.036-.067-.063-.094-.021-.021-.041-.042-.063-.063-.653-.667-1.301-1.347-1.969-2-.327-.327-.669-.645-1-.969-.021-.021-.042-.041-.063-.063-.095-.092-.186-.189-.281-.281-.219-.217-.436-.44-.656-.656-.265-.265-.545-.519-.813-.781-.021-.021-.042-.041-.063-.063-.006-.006.006-.025 0-.031-.021-.021-.041-.042-.063-.063-.297-.311-.637-.598-.938-.906-.01-.011-.021-.021-.031-.031-.037-.036-.057-.089-.094-.125-.305-.319-.629-.622-.938-.938-.021-.021-.041-.042-.063-.063-.648-.662-1.307-1.321-1.969-1.969-.031-.032-.063-.062-.094-.094-.084-.082-.166-.168-.25-.25-.219-.217-.436-.44-.656-.656-.333-.333-.664-.671-1-1-.265-.265-.545-.519-.813-.781-.021-.021-.042-.041-.063-.063-.01-.01-.021-.021-.031-.031-.037-.036-.057-.089-.094-.125-.288-.288-.584-.559-.875-.844-.026-.027-.036-.067-.063-.094-.021-.021-.041-.042-.063-.063-.648-.662-1.307-1.321-1.969-1.969-.021-.021-.042-.041-.063-.063-.147-.144-.29-.294-.438-.438-.166-.164-.333-.337-.5-.5-.333-.333-.664-.671-1-1-.265-.265-.545-.519-.813-.781-.021-.021-.042-.041-.063-.063-.006-.006.006-.025 0-.031-.021-.021-.041-.042-.063-.063-.325-.34-.671-.663-1-1-.021-.021-.041-.042-.063-.063-.653-.667-1.301-1.347-1.969-2-.327-.327-.669-.645-1-.969-.031-.032-.063-.062-.094-.094-.084-.082-.166-.168-.25-.25-.219-.217-.436-.44-.656-.656-.265-.265-.545-.519-.813-.781-.021-.021-.042-.041-.063-.063-.01-.01-.021-.021-.031-.031-.037-.036-.057-.089-.094-.125-.288-.288-.584-.559-.875-.844-.026-.027-.037-.067-.063-.094-.021-.021-.041-.042-.063-.063-.279-.292-.593-.554-.875-.844-.027-.026-.036-.068-.063-.094-.021-.021-.041-.042-.063-.063-.648-.662-1.307-1.321-1.969-1.969-.021-.021-.042-.041-.063-.063-.095-.092-.186-.189-.281-.281-.219-.217-.436-.44-.656-.656-.265-.265-.545-.519-.813-.781-.021-.021-.042-.041-.063-.063-.006-.006.006-.025 0-.031-.021-.021-.041-.042-.063-.063-.297-.311-.637-.598-.938-.906-.01-.011-.021-.021-.031-.031-.037-.036-.057-.089-.094-.125-.305-.319-.629-.622-.938-.938-.021-.021-.041-.042-.063-.063-.648-.662-1.307-1.321-1.969-1.969-.031-.032-.063-.062-.094-.094-.084-.082-.166-.168-.25-.25-.219-.217-.436-.44-.656-.656-.333-.333-.664-.671-1-1-.265-.265-.545-.519-.813-.781-.021-.021-.042-.041-.063-.063-.01-.01-.021-.021-.031-.031-.037-.036-.057-.089-.094-.125-.288-.288-.584-.559-.875-.844-.026-.027-.036-.067-.063-.094-.021-.021-.041-.042-.063-.063-.648-.662-1.307-1.321-1.969-1.969-.02-.021-.042-.041-.063-.063-.2-.195-.393-.4-.594-.594-.114-.113-.229-.232-.344-.344-.114-.116-.229-.228-.344-.344-.219-.217-.436-.44-.656-.656-.265-.265-.545-.519-.813-.781-.021-.021-.042-.041-.063-.063-.006-.006.006-.025 0-.031-.021-.021-.041-.042-.063-.063-.325-.34-.671-.663-1-1-.021-.021-.041-.042-.063-.063-.653-.667-1.301-1.347-1.969-2-.327-.327-.669-.645-1-.969-.031-.032-.063-.062-.094-.094-.084-.082-.166-.168-.25-.25-.219-.217-.436-.44-.656-.656-.265-.265-.545-.519-.813-.781-.021-.021-.042-.041-.063-.063-.01-.01-.021-.021-.031-.031-.037-.036-.057-.089-.094-.125-.286-.286-.586-.561-.875-.844-.01-.011-.021-.021-.031-.031-.037-.036-.057-.089-.094-.125-.305-.319-.629-.622-.938-.938-.021-.021-.041-.042-.063-.063-.648-.662-1.307-1.321-1.969-1.969-.021-.021-.042-.041-.063-.063-.095-.092-.186-.189-.281-.281-.219-.217-.436-.44-.656-.656-.333-.333-.664-.671-1-1-.265-.265-.545-.519-.813-.781-.021-.021-.042-.041-.063-.063-.006-.006.006-.025 0-.031-.021-.021-.041-.042-.063-.063-.325-.34-.671-.663-1-1-.021-.021-.041-.042-.063-.063-.648-.662-1.307-1.321-1.969-1.969-.031-.032-.063-.062-.094-.094-.137-.133-.269-.273-.406-.406-.166-.164-.333-.337-.5-.5-.333-.333-.664-.671-1-1-.265-.265-.545-.519-.813-.781-.021-.021-.042-.041-.063-.063-.01-.01-.021-.021-.031-.031-.037-.036-.057-.089-.094-.125-.288-.288-.584-.559-.875-.844-.026-.027-.036-.067-.063-.094-.021-.021-.041-.042-.063-.063-.653-.667-1.301-1.347-1.969-2-.327-.327-.669-.645-1-.969-.021-.021-.042-.041-.063-.063-.095-.092-.186-.189-.281-.281-.219-.217-.436-.44-.656-.656-.265-.265-.545-.519-.813-.781-.021-.021-.042-.041-.063-.063-.006-.006.006-.025 0-.031-.021-.021-.041-.042-.063-.063-.325-.34-.671-.663-1-1-.021-.021-.041-.042-.063-.063-.653-.667-1.301-1.347-1.969-2-.327-.327-.669-.645-1-.969-.031-.032-.063-.062-.094-.094-.084-.082-.166-.168-.25-.25-.219-.217-.436-.44-.656-.656-.265-.265-.545-.519-.813-.781-.021-.021-.042-.041-.063-.063-.01-.01-.021-.021-.031-.031-.037-.036-.057-.089-.094-.125-.286-.286-.586-.561-.875-.844-.01-.011-.021-.021-.031-.031-.037-.036-.057-.089-.094-.125-.305-.319-.629-.622-.938-.938-.021-.021-.041-.042-.063-.063-.648-.662-1.307-1.321-1.969-1.969-.021-.021-.042-.041-.063-.063-.095-.092-.186-.189-.281-.281-.219-.217-.436-.44-.656-.656-.333-.333-.664-.671-1-1-.265-.265-.545-.519-.813-.781-.021-.021-.042-.041-.063-.063-.006-.006.006-.025 0-.031-.021-.021-.041-.042-.063-.063-.325-.34-.671-.663-1-1-.021-.021-.041-.042-.063-.063-.648-.662-1.307-1.321-1.969-1.969-.031-.032-.063-.062-.094-.094-.189-.185-.372-.379-.563-.563-.114-.113-.229-.232-.344-.344-.114-.116-.229-.228-.344-.344-.219-.217-.436-.44-.656-.656-.265-.265-.545-.519-.813-.781-.021-.021-.042-.041-.063-.063-.01-.01-.021-.021-.031-.031-.037-.036-.057-.089-.094-.125-.288-.288-.584-.559-.875-.844-.026-.027-.036-.067-.063-.094-.021-.021-.041-.042-.063-.063-.653-.667-1.301-1.347-1.969-2-.327-.327-.669-.645-1-.969-.021-.021-.042-.041-.063-.063-.095-.092-.186-.189-.281-.281-.219-.217-.436-.44-.656-.656-.265-.265-.545-.519-.813-.781-.021-.021-.042-.041-.063-.063-.006-.006.006-.025 0-.031-.021-.021-.041-.042-.063-.063-.297-.311-.637-.598-.938-.906-.01-.011-.021-.021-.031-.031-.037-.036-.057-.089-.094-.125-.305-.319-.629-.622-.938-.938-.021-.021-.041-.042-.063-.063-.648-.662-1.307-1.321-1.969-1.969-.031-.032-.063-.062-.094-.094-.084-.082-.166-.168-.25-.25-.219-.217-.436-.44-.656-.656-.333-.333-.664-.671-1-1-.265-.265-.545-.519-.813-.781-.021-.021-.042-.041-.063-.063-.01-.01-.021-.021-.031-.031-.037-.036-.057-.089-.094-.125-.288-.288-.584-.559-.875-.844-.026-.027-.036-.067-.063-.094-.021-.021-.041-.042-.063-.063-.648-.662-1.307-1.321-1.969-1.969-.021-.021-.042-.041-.063-.063-.147-.144-.29-.294-.438-.438-.166-.164-.333-.337-.5-.5-.333-.333-.664-.671-1-1-.265-.265-.545-.519-.813-.781-.021-.021-.042-.041-.063-.063-.006-.006.006-.025 0-.031-.021-.021-.041-.042-.063-.063-.325-.34-.671-.663-1-1-.021-.021-.041-.042-.063-.063-.653-.667-1.301-1.347-1.969-2-.327-.327-.669-.645-1-.969-.031-.032-.063-.062-.094-.094-.084-.082-.166-.168-.25-.25-.219-.217-.436-.44-.656-.656-.265-.265-.545-.519-.813-.781-.021-.021-.042-.041-.063-.063-.01-.01-.021-.021-.031-.031-.037-.036-.057-.089-.094-.125-.288-.288-.584-.559-.875-.844-.026-.027-.036-.067-.063-.094-.021-.021-.041-.042-.063-.063-.653-.667-1.301-1.347-1.969-2-.327-.327-.669-.645-1-.969-.021-.021-.042-.041-.063-.063-.095-.092-.186-.189-.281-.281-.219-.217-.436-.44-.656-.656-.265-.265-.545-.519-.813-.781-.021-.021-.042-.041-.063-.063-.006-.006.006-.025 0-.031-.021-.021-.041-.042-.063-.063-.297-.311-.637-.598-.938-.906-.01-.011-.021-.021-.031-.031-.037-.036-.057-.089-.094-.125-.305-.319-.629-.622-.938-.938-.021-.021-.041-.042-.063-.063-.648-.662-1.307-1.321-1.969-1.969-.031-.032-.063-.062-.094-.094-.084-.082-.166-.168-.25-.25-.219-.217-.436-.44-.656-.656-.333-.333-.664-.671-1-1-.265-.265-.545-.519-.813-.781-.021-.021-.042-.041-.063-.063-.01-.01-.021-.021-.031-.031-.037-.036-.057-.089-.094-.125-.288-.288-.584-.559-.875-.844-.026-.027-.036-.067-.063-.094-.021-.021-.041-.042-.063-.063-.648-.662-1.307-1.321-1.969-1.969-.021-.021-.042-.041-.063-.063-.147-.144-.29-.294-.438-.438-.166-.164-.333-.337-.5-.5-.333-.333-.664-.671-1-1-.265-.265-.545-.519-.813-.781-.021-.021-.042-.041-.063-.063-.006-.006.006-.025 0-.031-.021-.021-.041-.042-.063-.063-.325-.34-.671-.663-1-1-.021-.021-.041-.042-.063-.063-.653-.667-1.301-1.347-1.969-2-.327-.327-.669-.645-1-.969-.031-.032-.063-.062-.094-.094-.084-.082-.166-.168-.25-.25-.219-.217-.436-.44-.656-.656-.265-.265-.545-.519-.813-.781-.021-.021-.042-.041-.063-.063-.01-.01-.021-.021-.031-.031-.037-.036-.057-.089-.094-.125-.288-.288-.584-.559-.875-.844-.026-.027-.037-.067-.063-.094-.021-.021-.041-.042-.063-.063-.279-.292-.593-.554-.875-.844-.027-.026-.036-.068-.063-.094-.021-.021-.041-.042-.063-.063-.648-.662-1.307-1.321-1.969-1.969-.021-.021-.042-.041-.063-.063-.095-.092-.186-.189-.281-.281-.219-.217-.436-.44-.656-.656-.333-.333-.664-.671-1-1-.164-.168-.335-.333-.5-.5-.167-.165-.332-.336-.5-.5-22.621-22.62-53.857-36.625-88.37-36.625" fill-opacity=".235" fill-rule="evenodd"/>
 </g>
 <path d="m256.0012 161.5805c-69.04 0-125 55.964-125 125 0 69.04 55.964 125 125 125 69.04 0 125-55.964 125-125 0-69.04-55.964-125-125-125m-.875 49.16h1.75c10 0 18.06 9.357 18.06 21v35.906h35.906c11.643 0 21.03 8.06 21.03 18.06v1.781c0 10-9.388 18.03-21.03 18.03h-35.906v35.906c0 11.643-8.06 21.03-18.06 21.03h-1.75c-10 0-18.06-9.388-18.06-21.03v-35.906h-35.906c-11.643 0-21.03-8.03-21.03-18.03v-1.781c0-10 9.388-18.06 21.03-18.06h35.906v-35.906c0-11.643 8.06-21 18.06-21" fill="#ffffff" fill-rule="evenodd"/>
</svg>
