<svg height="48" viewBox="0 0 48 48" width="48" xmlns="http://www.w3.org/2000/svg">
 <g fill="#268bd2">
  <path d="m8 6v6h18c1.371094 0 4.132812.929688 4 2v2h-16c-8 0-10 4-10 9.601562 0 4.398438 2 8.398438 9.601562 8.398438h22.398438v-19.601562c0-4.574219-4.222656-8.398438-9.601562-8.398438zm6 16h16v6h-16c-2 0-4 0-4-2.878906 0-3.121094 2-3.121094 4-3.121094z"/>
  <path d="m0 47.996094v.003906c.00390625 0 .00390625 0 0 0v-.003906c.00390625 0 .00390625 0 .00390625 0-.00390625 0-.00390625 0-.00390625 0z"/>
  <path d="m44 38v6h-40v-6z"/>
  <path d="m48 41.015625l-8 6.984375h-2v-14h2z"/>
 </g>
</svg>
