<svg height="48" viewBox="0 0 48 48" width="48" xmlns="http://www.w3.org/2000/svg">
 <path d="m14 10v6h19.226562c1.371094 0 2.671876 1.253906 2.273438 2.699219l-.671875 3.300781h-16.828125c-5.890625 0-10.441406 5.128906-11.640625 9.601562-.601563 2.234376-.519531 4.730469.800781 6.898438 1.320313 2.167969 4 3.5 6.910156 3.5h21.628907l.699219-2.300781 5.308593-19.199219c1.390625-5.019531-2.328125-10.5-7.710937-10.5zm4 18h15.121094l-2.617188 8h-16.503906c-1.273438 0-1.289062-.667969-1.433594-.898438-.140625-.234374-.257812-.9375 0-1.902343.519532-1.925781 2.726563-5.199219 5.433594-5.199219z" fill="#268bd2"/>
</svg>
