<svg height="48" viewBox="0 0 48 48" width="48" xmlns="http://www.w3.org/2000/svg">
 <path d="m12 6v6h18c1.371094 0 4.132812.929688 4 2v2h-16c-8 0-10 4-10 9.601562 0 4.398438 2 8.398438 9.601562 8.398438h22.398438v-19.601562c0-4.574219-4.222656-8.398438-9.601562-8.398438zm6 16h16v6h-16c-2 0-4 0-4-2.878906 0-3.121094 2-3.121094 4-3.121094z" fill="#268bd2" transform="translate(0 4)"/>
 <path d="m45.97 40.59325l-5.40675-5.40675 5.40675-5.40675-5.40675-5.40675-5.40675 5.40675-5.40675-5.40675-5.40675 5.40675 5.40675 5.40675-5.40675 5.40675 5.40675 5.40675 5.40675-5.40675 5.40675 5.40675z" fill="#dc322f"/>
</svg>
