<svg height="48" viewBox="0 0 48 48" width="48" xmlns="http://www.w3.org/2000/svg">
 <g fill="#268bd2">
  <path d="m12 8v6h18c1.222656 0 2 2.765625 2 4h6c0-5.230469-3.484375-10-8.285156-10z"/>
  <path d="m10 32c0 4 .484375 5.046875 1.945312 6.898438 1.464844 1.851562 3.460938 3.101562 6.054688 3.101562 6.667969 0 13.332031 0 20 0 0-3.199219 0-6.800781 0-10h-6v4h-14c-1.136719 0-1.335938-.75-1.769531-1.300781-.433594-.546875-.222657-1.804688-.230469-2.699219z"/>
  <path d="m4 22v6h40v-6z"/>
 </g>
</svg>
