<svg height="48" viewBox="0 0 48 48" width="48" xmlns="http://www.w3.org/2000/svg">
 <path d="m10 10v6c6 0 12 0 18 0 1.425781 0 1.761719.710938 2 2v4c-5.332031 0-10.667969 0-16 0-3.0625 0-5.785156.886719-7.5 2.875-1.714844 1.988281-2.519531 4.488281-2.5 6.9375.019531 2.449219.917969 4.90625 2.625 6.875 1.707031 1.96875 4.347656 3.3125 7.375 3.3125 11.132812 0 20.097656 0 30 0 0-7.9375 0-15.875 0-23.8125 0-5.558594-4-8.1875-10-8.1875-8.757812 0-15.613281 0-24 0zm10.1875 18h9.8125v8h-9.8125c-2.039062 0-4.0625 0-4.0625-4 0-4 2.023438-4 4.0625-4z" fill="#268bd2"/>
</svg>
