<svg height="48" viewBox="0 0 48 48" width="48" xmlns="http://www.w3.org/2000/svg">
 <path d="m24.44771 3c-3.062887 0-5.59917 2.123512-6.180016 4.9618945h-15.267694v2.4809475h15.267694c.580846 2.838382 3.117129 4.961894 6.180016 4.961894 3.062887 0 5.59917-2.123512 6.180016-4.961894h12.744434v-2.4809475h-12.744434c-.580846-2.8383825-3.117129-4.9618945-6.180016-4.9618945zm-15.13956 27.29042c-3.4947153 0-6.30815 2.766256-6.30815 6.202368 0 3.436112 2.8134347 6.202368 6.30815 6.202368 3.062885 0 5.59917-2.123513 6.180016-4.961895h27.883994v-2.480947h-27.883994c-.580846-2.838382-3.117131-4.961894-6.180016-4.961894zm0 2.480947c2.096829 0 3.78489 1.659753 3.78489 3.721421 0 2.061667-1.688061 3.72142-3.78489 3.72142-2.0968293 0-3.78489-1.659753-3.78489-3.72142 0-2.061668 1.6880607-3.721421 3.78489-3.721421z" fill="#aaaaaa"/>
</svg>
