<svg height="48" width="48" xmlns="http://www.w3.org/2000/svg">
 <g stroke-linecap="round" stroke-linejoin="round" transform="translate(0 -1004.3622)">
  <path d="m4.2877502 1038.6501h9.4240837v9.4240837h-9.4240837z" fill="#268bd2" stroke="#268bd2" stroke-width="2.576"/>
  <path d="m4.2877502 1008.6501h9.4240837v9.4240837h-9.4240837z" fill="#268bd2" stroke="#268bd2" stroke-width="2.576"/>
  <path d="m4.2877502 1023.6501h9.4240837v9.4240837h-9.4240837z" fill="#268bd2" stroke="#268bd2" stroke-width="2.576"/>
  <path d="m19.28775 1038.6501h9.4240837v9.4240837h-9.4240837z" fill="#268bd2" stroke="#268bd2" stroke-width="2.576"/>
  <path d="m19.28775 1023.6501h9.4240837v9.4240837h-9.4240837z" fill="#268bd2" stroke="#268bd2" stroke-width="2.576"/>
  <path d="m34.28775 1038.6501h9.4240837v9.4240837h-9.4240837z" fill="#268bd2" stroke="#268bd2" stroke-width="2.576"/>
  <path d="m37.287956 1005.6501h9.4240837v9.4240837h-9.4240837z" fill="#dc322f" stroke="#dc322f" stroke-width="2.576"/>
  <path d="m-488.30875 884.74774h9.4240837v9.4240837h-9.4240837z" fill="#dc322f" stroke="#dc322f" stroke-width="2.576" transform="matrix(.8660254 -.5 .5 .8660254 0 0)"/>
  <path d="m-703.07141 750.28412h9.4240837v9.4240837h-9.4240837z" fill="#dc322f" stroke="#dc322f" stroke-width="2.576" transform="matrix(.70710678 -.70710678 .70710678 .70710678 0 0)"/>
 </g>
</svg>
