<svg viewBox="0 0 48 48" xmlns="http://www.w3.org/2000/svg">
 <path d="m6 21.998v14h21v-7l-1-6h-8l-1-2h-10c-.5 0-1 .5-1 1z" fill="#757575"/>
 <path d="m7 21c-.5 0-1 .5-1 1v1c0-.5.5-1 1-1h9l1 2h9l1 6v-1l-1-6h-8l-1-2z" opacity=".015"/>
 <path d="m8 23.998h10v4h-10z" fill="#fffdf0"/>
 <path d="m27 23.998v14h-21v-13h10l1-2h9c .5 0 1 .5 1 1z" fill="#bdbdbd"/>
 <path d="m6 36.998v1h21v-1z" opacity=".075"/>
 <path d="m17 23l-1 2h-10v1h11l1-2h8c .5 0 1 .5 1 1v-1c0-.5-.5-1-1-1z" opacity=".015"/>
 <path d="m21 8.998v14h21v-7l-1-6h-8l-1-2h-10c-.5 0-1 .5-1 1z" fill="#757575"/>
 <path d="m22 7.998c-.5 0-1 .5-1 1v1c0-.5.5-1 1-1h9l1 2h9l1 6v-1l-1-6h-8l-1-2z" opacity=".03"/>
 <path d="m23 10.998h10v4h-10z" fill="#fffdf0"/>
 <path d="m7 20.998c-.251 0-.5.126-.688.314-.093.093-.172.202-.227.318 0 0 0 .001 0 .002-.054.117-.086.241-.086.365 0 .001 0 .001 0 .002v1 1.998.002 1 9.998 1 1h21v-1-1-5.998-1-.002-3.998-1c0 0 0-.002 0-.002 0-.124-.032-.249-.086-.365 0 0 0-.002 0-.002-.054-.117-.133-.227-.227-.32-.188-.188-.438-.313-.688-.313h-8l-1-1.998v-.002h-10z" fill="#ffffff" opacity=".5"/>
 <path d="m42 10.998v14h-21v-13h10l1-2h9c .5 0 1 .5 1 1z" fill="#bdbdbd"/>
 <path d="m21 23.998v1h21v-1z" opacity=".15"/>
 <path d="m32 9.998l-1 2h-10v1h11l1-2h8c .5 0 1 .5 1 1v-1c0-.5-.5-1-1-1z" opacity=".03"/>
 <path d="m42 25.998h-8v-8h-4v8h-8v4h8v8h4v-8h8z" fill="#4caf50"/>
</svg>
