<svg height="48" viewBox="0 0 48 48" width="48" xmlns="http://www.w3.org/2000/svg">
 <circle cx="36" cy="36" fill="#dc322f" r="6"/>
 <path d="m14 6l8 14-15.9999998-.000001z" fill="#268bd2"/>
 <g fill="#ffe149" fill-rule="evenodd">
  <path d="m23 12.25c-1.014242-.01434-1.014242 1.514344 0 1.5 6.269231 0 9.757154 2.791542 11.282422 5.607422 1.525268 2.81588 1.488281 5.048828 1.488281 5.048828-.01434 1.014242 1.514344 1.014242 1.5 0 0 0 .05678-2.579552-1.667969-5.763672-1.724732-3.18412-5.871965-6.392578-12.602734-6.392578z" overflow="visible"/>
  <path d="m33.570312 21.65625c-.253667.000419-.419537.266021-.308593.494141l2.429687 4.992187c.124984.25454.487034.256835.615235.0039l2.5-4.992187c.114668-.228384-.051087-.497601-.306641-.498041z" overflow="visible"/>
 </g>
 <g fill="#ffe149" fill-rule="evenodd" transform="matrix(-1 0 0 -1 49.999729 48.9999)">
  <path d="m23 12.25c-1.014242-.01434-1.014242 1.514344 0 1.5 6.269231 0 9.757154 2.791542 11.282422 5.607422 1.525268 2.81588 1.488281 5.048828 1.488281 5.048828-.01434 1.014242 1.514344 1.014242 1.5 0 0 0 .05678-2.579552-1.667969-5.763672-1.724732-3.18412-5.871965-6.392578-12.602734-6.392578z" overflow="visible"/>
  <path d="m33.570312 21.65625c-.253667.000419-.419537.266021-.308593.494141l2.429687 4.992187c.124984.25454.487034.256835.615235.0039l2.5-4.992187c.114668-.228384-.051087-.497601-.306641-.498041z" overflow="visible"/>
 </g>
</svg>
