<svg height="48" viewBox="0 0 48 48" width="48" xmlns="http://www.w3.org/2000/svg">
 <path d="m12.13176 23.033379q-1.694712 1.310096-2.127404 1.514423-.6490383.30048-1.3822111.30048-1.1418267 0-1.8870189-.781249-.7331729-.78125-.7331729-2.055288 0-.805289.3605769-1.394231.4927883-.817307 1.7067303-1.538461 1.2259613-.721153 4.0624997-1.754807v-.432692q0-1.646635-.528847-2.259615-.516826-.612981-1.514422-.612981-.7572117 0-1.2019232.408654-.4567306.408654-.4567306.937499l.024038.697116q0 .552884-.2884615.853365-.2764423.300481-.7331729.300481-.4447114 0-.7331729-.312501-.276442-.312499-.276442-.853364 0-1.033654 1.0576921-1.899039 1.057692-.865384 2.96875-.865384 1.466346 0 2.403845.492789.709134.372595 1.045673 1.165864.216346.516827.216346 2.115384v3.737981q0 1.574519.0601 1.935095.0601.348559.192308.468751.144231.120196.324519.120196.192308 0 .336539-.08413.252404-.15625.973557-.877404v.673077q-1.346153 1.802884-2.572115 1.802884-.588941 0-.937499-.408653-.348557-.408655-.360577-1.394231zm0-.78125v-4.194711q-1.814904.721155-2.3437501 1.021635-.949519.528846-1.3581727 1.105769-.4086538.576923-.4086538 1.26202 0 .865384.5168268 1.442307.5168269.564903 1.1899036.564903.9134612 0 2.4038462-1.201923z" fill="#2d2d2d" transform="matrix(1.0999998 0 0 1.0999998 .39785279 -7.6141052)"/>
 <path d="m25.398441 30.331187c.226666-.146667.566666-.3 1.02-.46.466666-.16 1-.24 1.6-.24.746666 0 1.406666.133333 1.98.4.586666.266667 1.08.64 1.48 1.12.4.48.7 1.053333.9 1.72.213333.666667.32 1.4.32 2.2 0 .84-.126667 1.6-.38 2.28-.24.666667-.586667 1.233333-1.04 1.7-.453334.466667-1 .826667-1.64 1.08-.64.253333-1.36.38-2.16.38-.866667 0-1.633334-.06-2.3-.18-.666667-.12-1.185673-.24-1.61234-.36v-14.9l1.83234-.32zm0 8.32c.186666.05333.446666.106667.78.16.346666.04.773333.06 1.28.06 1 0 1.8-.326667 2.4-.98.6-.666667.9-1.606667.9-2.82 0-.533333-.05333-1.033333-.16-1.5-.106667-.466667-.28-.866667-.52-1.2-.24-.346667-.553334-.613333-.94-.8-.373334-.2-.826667-.3-1.36-.3-.506667 0-.973334.08667-1.4.26-.426667.173333-.753334.353333-.98.54z" fill="#2d2d2d" transform="matrix(1.0917031 0 0 1.0917031 -6.7271855 -3.2261884)"/>
 <path d="m25.667969 21.671763q0 .908203.126953 1.669922.136719.761719.449219 1.318359.3125.546875.820312.84961.517578.302734 1.269531.302734.9375 0 1.5625-.507812.634766-.507813.78125-1.5625l1.777344.117187q-.08789.654297-.380859 1.259766-.292969.605468-.800782 1.064453-.498046.458984-1.220703.742187-.722656.273438-1.669922.273438-1.240234 0-2.109375-.419922-.86914-.419922-1.416015-1.152344-.53711-.742187-.78125-1.738281-.244141-1.005859-.244141-2.177734 0-1.064454.175781-1.875.175782-.820313.488282-1.425782.322265-.615234.751953-1.02539.429687-.419922.927734-.664063.507813-.253906 1.064453-.361328.556641-.117187 1.123047-.117187.888672 0 1.582031.24414.69336.244141 1.191407.673828.507812.419922.820312.996094.3125.576172.439453 1.240234l-1.80664.136719q-.136719-.878906-.69336-1.396484-.55664-.517578-1.582031-.517578-.751953 0-1.259766.253906-.498046.244141-.810546.751953-.3125.498047-.449219 1.259766-.126953.761718-.126953 1.787109z" fill="#2d2d2d" transform="matrix(1.2756512 0 0 1.2756512 -.40135894 -10.696573)"/>
</svg>
