<svg height="48" viewBox="0 0 48 48" width="48" xmlns="http://www.w3.org/2000/svg">
 <path d="m10 4h20c4 0 4 0 4 4v28c0 4 0 4-4 4h-20c-4 0-4 0-4-4v-28c0-4 0-4 4-4z" fill="#ffffff" fill-rule="evenodd"/>
 <path d="m26.519288 1026.0609l13.480712 13.3816-4.895887 4.9197-13.510881-13.4114c-8.620601 2.4448-14.1624158-3.0561-13.5466578-12.2245l10.0312798 6.0888 2.283863-2.4215-6.157573-9.7796c8.004844-1.8336 15.393931 6.7235 12.315144 13.4469z" fill="#268bd2" transform="matrix(.75 0 0 .75 12 -739.27165)"/>
</svg>
