<svg height="48" viewBox="0 0 48 48" width="48" xmlns="http://www.w3.org/2000/svg">
 <path d="m38 16v24c0 4 0 4-4 4h-20c-4 0-4 0-4-4v-24c8 0 22 0 28 0z" fill="#dc322f"/>
 <g fill="#ffffff" fill-opacity=".667">
  <path d="m14 20v20h4v-20z"/>
  <path d="m22 20v20h4v-20z"/>
  <path d="m30 20v20h4v-20z"/>
 </g>
 <path d="m10 12h28v-4h-8v-4h-12v4h-8z" fill="#dc322f"/>
 <path d="m36.534669 43.931373c1.216216-.509931 2.280037-1.096059 3.182675-1.755453 8.868115-6.963201 2.819275-17.346458-7.713444-17.346458v-6.00195l-12.0039 9.002926 12.0039 10.503413v-6.00195c9.032232 1.51514 9.061538 2.880818 4.545422 10.488759 0 0-1.500487 1.515141 0 1.110713z" fill="#859900"/>
</svg>
