<svg height="48" width="48" xmlns="http://www.w3.org/2000/svg">
 <path d="m40.452416 3.9999973c-.304755 0-.596244.1137779-.810156.3323112l-4.122335 4.1214015-3.697646 0c-.304466-.0022-.615466.117334-.830933.332334l-5.380268 5.379668c-.436956.427756-.436956 1.233911 0 1.661667l6.585113 6.584358c.219777.219555.520266.339777.830933.332333.298222-.0022.599111-.121556.810156-.332333l5.401068-5.400424c.215111-.215334.3348-.505645.332356-.810067l0-3.717979 4.10158-4.1006236c.436955-.4277783.436955-1.2339118 0-1.6616675l-2.388934-2.3886674c-.214-.2184445-.526156-.3323112-.830934-.3323112z" fill="#888888" overflow="visible"/>
 <path d="m14.972877 25.260557c-.298222.0022-.599111.142445-.810156.353112l-5.401068 5.379645c-.215111.215334-.3348.526423-.332356.830845l0 3.697201-4.1015801 4.121402c-.4369557.427778-.4369557 1.213134 0 1.640912l2.388934 2.388645c.4278001.436911 1.213267.436911 1.6410893 0l4.1223358-4.100647 3.697646 0c .304466.0022.615466-.117333.830933-.332333l5.380268-5.400424c.436978-.427755.436978-1.213111 0-1.640889l-6.585113-6.584357c-.219777-.219556-.520289-.360556-.830933-.353112z" fill="#888888" overflow="visible"/>
</svg>
