<svg height="48" viewBox="0 0 48 48" width="48" xmlns="http://www.w3.org/2000/svg">
 <path d="m9.9999999 16v24c0 4 0 4 4.0000001 4h20c4 0 4 0 4-4v-24c-8 0-22 0-28.0000001 0z" fill="#dc322f"/>
 <g fill="#ffffff" fill-opacity=".667" transform="matrix(-1 0 0 1 48 0)">
  <path d="m14 20v20h4v-20z"/>
  <path d="m22 20v20h4v-20z"/>
  <path d="m30 20v20h4v-20z"/>
 </g>
 <path d="m38 12h-28.0000001v-4h8.0000001v-4h12v4h8z" fill="#dc322f"/>
 <path d="m11.465331 43.931373c-1.216216-.509931-2.2800371-1.096059-3.1826751-1.755453-8.86811507-6.963201-2.819275-17.346458 7.7134441-17.346458v-6.00195l12.0039 9.002926-12.0039 10.503413v-6.00195c-9.0322321 1.51514-9.0615381 2.880818-4.545422 10.488759 0 0 1.500487 1.515141 0 1.110713z" fill="#859900"/>
</svg>
