<svg height="48" viewBox="0 0 48 48" width="48" xmlns="http://www.w3.org/2000/svg">
 <path d="m10.666667 4h18.666666c4.666667 0 4.666667 0 4.666667 4.5005493v26.9989017c0 4.500549 0 4.500549-4.666667 4.500549h-18.666666c-4.666667 0-4.666667 0-4.666667-4.500549v-26.9989017c0-4.5005493 0-4.5005493 4.666667-4.5005493z" fill="#ffffff" fill-rule="evenodd"/>
 <g fill="#888888" transform="matrix(1.1666667 0 0 1.1251373 -15 -9.503845)">
  <path d="m22.285714 18.223416v3.555122h15.428571v-3.555122z"/>
  <path d="m22.285714 34.221463v3.555122h7.714286v-3.555122z"/>
  <path d="m22.285714 26.22244v3.555121h15.428571v-3.555121z"/>
 </g>
 <path d="m42.00026 20.252644c0 0 .0013-.974212-2.170715-2.228212-2.095348-1.20975-3.072731-.677873-3.072731-.677873l-11.299814 19.57259-.624456 7.080851 5.815456-4.083851" fill="#ff6f03"/>
 <path d="m25.457 36.919l-.624 7.081 5.815-4.084" fill="#ffc13d"/>
 <path d="m25.114202 40.698943l-.281202 3.301057 2.722095-1.891807m-2.440893-1.40925" fill="#2d2d2d"/>
</svg>
