<svg height="48" viewBox="0 0 48 48" width="48" xmlns="http://www.w3.org/2000/svg">
 <path d="m10.400011 4.6037826l15.199978-.00376c3.799995 0 3.799995 0 3.799995 3.8499949v23.0999695c0 3.849995 0 3.849995-3.799995 3.849995h-15.199978c-3.799995 0-3.799995 0-3.799995-3.849995v-23.09621c0-3.8499949 0-3.8499949 3.799995-3.8499949z" style="fill:#ffffff;fill-rule:evenodd;stroke:#cfcfcf;stroke-width:1.20000005;stroke-dasharray:4.80000019 4.80000019;stroke-dashoffset:1.56000006"/>
 <path d="m15.400011 8.6038244l15.199978-.0038c3.799995 0 3.799995 0 3.799995 3.8499936v23.099969c0 3.849995 0 3.849995-3.799995 3.849995h-15.199978c-3.799995 0-3.799995 0-3.799995-3.849995v-23.09621c0-3.8499936 0-3.8499936 3.799995-3.8499936z" style="fill:#c2c2c2;fill-rule:evenodd;stroke:#888888;stroke-width:1.20000005;stroke-dasharray:4.80000019 4.80000019;stroke-dashoffset:1.56000006"/>
 <g fill="#888888" transform="translate(-7 -3.9999578)">
  <path d="m22 18v4h16v-4z"/>
  <path d="m22 34v4h8v-4z"/>
  <path d="m22 26v4h16v-4z"/>
 </g>
 <path d="m22 12.003906h16c4 0 4 0 4 4v23.996094c0 4 0 4-4 4h-16c-4 0-4 0-4-4v-23.996094c0-4 0-4 4-4z" fill="#ffffff" fill-rule="evenodd"/>
 <g fill="#888888">
  <path d="m22 18v4h16v-4z"/>
  <path d="m22 34v4h8v-4z"/>
  <path d="m22 26v4h16v-4z"/>
 </g>
</svg>
