<svg height="48" viewBox="0 0 48 48" width="48" xmlns="http://www.w3.org/2000/svg">
 <path d="m6 46v-44h36v44z" fill="#aaaaaa"/>
 <path d="m30.492488 33.292909c1.038493-3.679162 1.061345-8.770065-.787122-11.281239-.776966-1.193379-1.838311-2.760006-1.008024-4.184443 1.536158-2.224255 4.098113-3.425251 6.43155-4.636403.7922-.08125.50782-.815052.558603-1.35842.0025-.429109.132033-.992791-.502744-.789662h-22.369503c-.634777-.203129-.505282.360553-.502743.789662.05079.543368-.233597 1.277169.558603 1.35842 2.333436 1.211152 4.895392 2.412148 6.43155 4.636403.830287 1.424437-.231059 2.991064-1.008025 4.184443-1.95257 2.732076-2.206481 8.681196-.782043 11.362489 1.287326 2.32582 2.587347 3.536972 6.487409 3.625841 3.905142-.157425 5.200085-1.300021 6.492489-3.707091z" fill="#ffffff" fill-opacity=".902"/>
</svg>
