<svg height="48" viewBox="0 0 48 48" width="48" xmlns="http://www.w3.org/2000/svg">
 <g transform="matrix(2.0952381 0 0 2.0952381 -1.1428572 -1.1428572)">
  <path d="m22.5 12.000002c0 5.797165-4.701667 10.499998-10.5 10.499998-5.797167 0-10.5-4.701667-10.5-10.499998 0-5.7971691 4.7016663-10.5000027 10.5-10.5000027 5.797164 0 10.5 4.7016671 10.5 10.5000027m0 0" fill="#e2727f"/>
  <path d="m17.727273 12.002294c0 3.160424-2.563527 5.724979-5.727273 5.724979-3.1637449 0-5.7272725-2.564555-5.7272725-5.724979 0-3.1650132 2.5635276-5.7295675 5.7272725-5.7295675 3.163746 0 5.727273 2.5645543 5.727273 5.7295675m0 0" fill="#dc322f"/>
  <path d="m16.486364 9.7568214c0 1.2393536-1.003826 2.2431806-2.243183 2.2431806-1.239356 0-2.243181-1.003827-2.243181-2.2431806 0-1.2393591 1.003825-2.2431833 2.243181-2.2431833 1.239357 0 2.243183 1.0038242 2.243183 2.2431833m0 0" fill="#ef9999"/>
 </g>
</svg>
