<svg height="48" viewBox="0 0 48 48" width="48" xmlns="http://www.w3.org/2000/svg">
 <path d="m12.509196 22l-2.39556 8.113636-8.113636 2.395346 8.113636 2.377382 2.39556 8.113636 2.377168-8.113636 8.113636-2.377382-8.113636-2.395346" fill="#e2b854"/>
 <path d="m37.499998 11l-1.888887 6.611111-6.611111 1.894074 6.611111 1.883704 1.888887 6.611111 1.888891-6.611111 6.611111-1.883704-6.611111-1.894074" fill="#e2b854"/>
 <path d="m29.499997 2.0000008l-1.499997 4.9999992-5 1.4944431 5 1.5055569 1.499997 5 1.500003-5 5-1.5055569-5-1.4944431" fill="#e2b854"/>
 <g transform="matrix(1.2363013 1.7348283 -1.7656211 1.2147399 60.093733 8.2584703)">
  <path d="m-7.9003906 16.000781c-.73015-.001-2.1015834.447585-2.1006094 1.59961.001 1.183275 1.3704594 1.599609 2.1006094 1.599609h14.8005866c.8864 0 1.599609-.713209 1.599609-1.599609 0-.8864-.713209-1.59961-1.599609-1.59961z" fill="#5c6982"/>
  <path d="m-13.400391 16.000781c-.8864-.000035-1.599609.71321-1.599609 1.59961 0 .8864.713209 1.599641 1.599609 1.599609l5.5000004-.000195c-.558275 0-1.0996094-.737011-1.0996094-1.599609 0-.862598.5569594-1.600196 1.0996094-1.599196z" fill="#c59da1"/>
 </g>
</svg>
