<svg height="48" viewBox="0 0 48 48" width="48" xmlns="http://www.w3.org/2000/svg">
 <linearGradient id="a" gradientTransform="matrix(1 0 0 .97188003 0 .16871985)" gradientUnits="userSpaceOnUse" x1="2.251" x2="4.751" y1="4.75" y2="4.75">
  <stop offset="0" stop-color="#e2d290" stop-opacity=".706"/>
  <stop offset=".505" stop-color="#e2d290"/>
  <stop offset="1" stop-color="#e2d290" stop-opacity=".706"/>
 </linearGradient>
 <g transform="matrix(2.8571429 0 0 2.8571429 .285714 .2857136)">
  <path d="m9 9h7v7h-7z" fill="#b8ccd3"/>
  <path d="m12.5 10.758559c-1.333334 0-1.877719 1.586714-1.136719 2.498047.159.195333.327219.437266.199219.697265-.06464.131242-.152777.225729-.25.308594.33573.897327 1.930206 1.06583 2.375 0-.09722-.08286-.185358-.177352-.25-.308594-.128-.259999.07355-.478932.199219-.697265.764-1.325667.196614-2.498047-1.136719-2.498047z" fill="#e5b58b"/>
  <path d="m11.3125 14.264c-.498867.493376-1.3125.441201-1.3125 1.736h5c0-1.294799-.813633-1.242624-1.3125-1.736-.359087.291488-.758149.476-1.1875.476-.429351 0-.828413-.184512-1.1875-.476z" fill="#cf362d"/>
  <path d="m11 12.225356c.465721-.324686.750318-.762784 1.5-.766797.749682-.004 1.066025.398033 1.5.655469.0332-2.041425-3.042969-1.941397-3 .111328z" fill="#96413c"/>
 </g>
 <g transform="matrix(2.8571429 0 0 2.8571429 .285714 1.9999996)">
  <path d="m9 0h7v7h-7z" fill="#3db2e1"/>
  <path d="m13.943376 3.45l-3.943376 3.55h6v-1z" fill="#a2866a"/>
  <path d="m13 2c0 .5234285-.476572 1-1 1-.523429 0-1-.4765715-1-1 0-.5234286.476571-1.00000011 1-1.00000011.523428 0 1 .47657151 1 1.00000011z" fill="#e5d740"/>
  <path d="m11.352941 2.5l-2.352941 2.9v1.6h5z" fill="#94785c"/>
 </g>
 <g transform="matrix(2.8571429 0 0 2.8571429 2 .2857136)">
  <path d="m0 9h7v7h-7z" fill="#4fb45e"/>
  <path d="m3.4667969 9.901c-.6381705 0-1.15625.487821-1.15625 1.089844 0 .02961.00121.06023.00391.08984-.089792-.02095-.1807596-.03301-.2734375-.0332-.5618406.006346-1.0410194.489774-1.0410194 1.091797 0 .450317.2931574.852956.7382812 1.015626-.133441.181893-.2046935.397828-.2050781.61914 0 .602024.5178867 1.089652 1.15625 1.089844.2657283-.000359.5225854-.0859.7285157-.244141.211891.180357.4871354.280673.7734374.28125.6385554 0 1.1542969-.48939 1.1542969-1.091797-.0003596-.203622-.0613765-.403506-.1757812-.576172.4916548-.136517.8298853-.561535.8300781-1.044921 0-.602215-.384505-1.081576-1.2714844-1.089844-.037686 0-.075786.000406-.1132812.0039.00461-.03711.00723-.07383.00781-.111328 0-.602407-.5169246-1.090036-1.15625-1.089844zm.0332031 1.699219a.89999998.89999998 0 0 1 .9003906.900391.89999998.89999998 0 0 1 -.9003906.90039.89999998.89999998 0 0 1 -.9003906-.90039.89999998.89999998 0 0 1 .9003906-.900391z" fill="#f1ef5d"/>
  <circle cx="3.5" cy="12.5" fill="#9d8d6d" r=".6"/>
 </g>
 <g transform="matrix(2.8571429 0 0 2.8571429 2 1.9999996)">
  <path d="m0 0h7v7h-7z" fill="#3c345d"/>
  <path d="m4.3645834 3.5702999c-.2702083.026117-.5589583.042446-.86375.042446-.305 0-.59375-.016328-.86375-.042446l-.3862504 2.2188949c.8416671.2912097 1.6770837.2707513 2.5000004 0z" fill="url(#a)"/>
  <path d="m6 2.4637879c0 .4042075-1.1193749.8262122-2.4999999.8262122-1.3806251 0-2.5000001-.4220047-2.5000001-.8262122 0-.4042074 1.119375-.8677879 2.5000001-.8677879 1.380625 0 2.4999999.4635805 2.4999999.8677879z" fill="#787878"/>
  <path d="m4.5416667 2.0499999c0 .21-.4664583.399-1.0416666.399-.5752084 0-1.0416667-.189-1.0416667-.399 0-.63.4166667-1.0499999 1.0416667-1.0499999.625 0 1.0416666.4199999 1.0416666 1.0499999z" fill="#cccccc"/>
 </g>
</svg>
