<svg height="48" viewBox="0 0 48 48" width="48" xmlns="http://www.w3.org/2000/svg">
 <g fill="#268bd2">
  <path d="m40.265625 11.980469l-4.242187-4.242188c-4.246094-4.246093-7.074219-1.414062-9.902344 1.414063l-16.96875 16.96875c-2.828125 2.828125-5.65625 5.65625-1.414063 9.898437l4.242188 4.242188c4.242187 4.246093 7.070312 1.414062 9.898437-1.414063l16.53125-16.878906c2.828125-2.828125 6.097656-5.746094 1.855469-9.988281zm-5.65625 5.65625l-16.972656 16.96875c0 0-1.414063 1.414062-3.527344-.699219-2.128906-2.128906-.714844-3.542969-.714844-3.542969l16.96875-16.96875c-.121093.121094 1.414063-1.414062 3.589844.761719 2.070313 2.066406.65625 3.480469.65625 3.480469z"/>
  <path d="m44.507812 7.738281l-11.316406 11.3125c-2.828125 2.828125-7.070312-1.414062-4.242187-4.242187l11.316406-11.316406c2.828125-2.828126 7.070313 1.414062 4.242187 4.246093z"/>
  <path d="m19.050781 33.191406l-11.3125 11.316406c-2.828125 2.828126-7.070312-1.414062-4.242187-4.246093l11.3125-11.3125c2.828125-2.828125 7.070312 1.414062 4.242187 4.242187z"/>
 </g>
 <g fill-opacity=".102">
  <path d="m44.507812 7.738281l-11.316406 11.3125c-2.828125 2.828125-7.070312-1.414062-4.242187-4.242187l11.316406-11.316406c2.828125-2.828126 7.070313 1.414062 4.242187 4.246093z"/>
  <path d="m19.050781 33.191406l-11.3125 11.316406c-2.828125 2.828126-7.070312-1.414062-4.242187-4.246093l11.3125-11.3125c2.828125-2.828125 7.070312 1.414062 4.242187 4.242187z"/>
 </g>
 <path d="m18 30h28l-14 16z" fill="#cb4b16"/>
</svg>
