<svg height="48" viewBox="0 0 48 48" width="48" xmlns="http://www.w3.org/2000/svg">
 <path d="m8 14h14l-7 8z" fill="#cb4b16" transform="matrix(2 0 0 2 2 2)"/>
 <g fill="#888888" transform="matrix(2.708382 0 0 2.6280072 2 3.294118)">
  <path d="m2.1865443 1.7906657l-2.1865443 6.0882635h1.0091742l.5802753-1.6487256h2.1444952l.5886849 1.6487256h1.0680428l-2.1865441-6.0882635zm1.2194188 3.4777812h-1.488532l.7484708-2.2154751z"/>
  <path d="m7.7909159 2.8060887c.9552075 0 1.2025378.2733183 1.2025378.7283714 0 .4808108-.3240881.7555599-1.1598945.7555599-.2956541 0-.5913081 0-.8869622 0v-1.4839313zm-.085288 2.3682797c1.2622384 0 1.7313134.3262644 1.7313134.8671767 0 .6611149-.6396479.822816-1.7227846.822816h-.7675605v-1.6814068zm-1.7980439-3.3828479v6.0874087h1.9174443c2.2345027 0 2.6609347-1.0303089 2.6609347-1.7085956 0-.5924276-.409375-1.3050578-1.2451809-1.4596042.5458327-.3348504.7761059-.7899035.7761059-1.3222298 0-.5409121-.3159476-1.6326835-2.0383442-1.5969791z"/>
  <path d="m14.298703 1.7906657c-1.964623 0-3.221979 1.3138284-3.221979 3.0312511 0 1.6916613 1.196236 3.0570124 3.160858 3.0570124.558826 0 1.213699-.1288066 1.85111-.3950072l.15717-.06011-.349266-.8501242-.15717.06011c-.462777.1803293-.925554.2747876-1.309747.2747876-1.414528 0-2.252766-.83295-2.252766-2.0952557 0-1.133499.785847-2.0866687 2.095596-2.0866687.279413 0 .707264 0 1.370869.2404392l.165902.06011.349267-.8415371-.157171-.06011c-.63741-.2490263-1.231164-.3348974-1.702673-.3348974z"/>
 </g>
</svg>
