<svg height="48" viewBox="0 0 48 48" width="48" xmlns="http://www.w3.org/2000/svg">
 <path d="m9.4780708 9.703125c-1.597657 5.660156-1.632813 13.492187 1.2109372 17.355469 1.195313 1.835937 2.828125 4.246094 1.550782 6.4375-2.3632822 3.421875-6.3046882 5.269531-9.8945322 7.132812-1.21875.125-.78125 1.253906-.859375 2.089844-.00391.660156-.203125 1.527344.773438 1.214844h34.4140622c.976563.3125.777344-.554688.773438-1.214844-.07813-.835938.359375-1.964844-.859375-2.089844-3.589844-1.863281-7.53125-3.710937-9.894532-7.132812-1.277343-2.191406.355469-4.601563 1.550782-6.4375 3.003906-4.203125 3.394531-13.355469 1.203125-17.480469-1.980469-3.578125-3.980469-5.441406-9.980469-5.578125-6.007812.242188-8 2-9.9882812 5.703125z" fill="#aaaaaa"/>
 <path d="m29.253837 26.156631h19.164108v6.388036h-19.164108z" fill="#aaaaaa"/>
</svg>
