<svg height="48" viewBox="0 0 48 48" width="48" xmlns="http://www.w3.org/2000/svg">
 <g fill="#1d699f" transform="matrix(.77272727 0 0 .78125 .4545455 -8.9375)">
  <path d="m6 14c-4 0-4 0-4 4v24c0 4 0 4 4 4h36c4 0 4 0 4-4 0-8.851562 0-18.882812 0-24 0-4 0-4-4-4z"/>
  <path d="m6 46h36c4 0 4 0 4-4v-24l-44 24c0 4 0 4 4 4z"/>
 </g>
 <path d="m5.090909 27h27.818184c3.090906 0 3.090906 0 3.090906-3.124999v-18.7500066l-33.999999 18.7500066c0 3.124999 0 3.124999 3.090909 3.124999z" fill-opacity=".102"/>
 <path d="m32.909093 27h-27.818184c-3.090909 0-3.090909 0-3.090909-3.124999v-18.7500066l33.999999 18.7500066c0 3.124999 0 3.124999-3.090906 3.124999z" fill="#1d699f"/>
 <g fill="#268bd2" transform="matrix(.77272727 0 0 .78125 10.454545 10.0625)">
  <path d="m6 14c-4 0-4 0-4 4v24c0 4 0 4 4 4h36c4 0 4 0 4-4 0-8.851562 0-18.882812 0-24 0-4 0-4-4-4z"/>
  <path d="m6 46h36c4 0 4 0 4-4v-24l-44 24c0 4 0 4 4 4z"/>
 </g>
 <path d="m15.090909 46h27.818182c3.090909 0 3.090909 0 3.090909-3.125v-18.75l-34 18.75c0 3.125 0 3.125 3.090909 3.125z" fill-opacity=".102"/>
 <path d="m42.909091 46h-27.818182c-3.090909 0-3.090909 0-3.090909-3.125v-18.75l34 18.75c0 3.125 0 3.125-3.090909 3.125z" fill="#268bd2"/>
 <path d="m12 24.125l17 9.375 17-9.375c0-3.125 0-3.125-3.090909-3.125h-27.818182c-3.090909 0-3.090909 0-3.090909 3.125z" fill="#ffffff" fill-opacity=".102"/>
 <path d="m2 5.1249944l17 9.3750126 16.999999-9.3750126c0-3.124994 0-3.124994-3.090906-3.124994h-27.818184c-3.090909 0-3.090909 0-3.090909 3.124994z" fill="#ffffff" fill-opacity=".102"/>
</svg>
