<svg height="48" viewBox="0 0 48 48" width="48" xmlns="http://www.w3.org/2000/svg">
 <path d="m6 46h36c4 0 4 0 4-4v-26l-22-14-22 14v26c0 4 0 4 4 4z" fill="#268bd2"/>
 <path d="m6 46h36c4 0 4 0 4-4v-26l-22-14-22 14v26c0 4 0 4 4 4z" fill-opacity=".102"/>
 <path d="m8 8v32h32v-32z" fill="#ffffff"/>
 <g fill="#268bd2">
  <path d="m6 46h36c4 0 4 0 4-4v-24l-44 24c0 4 0 4 4 4z"/>
  <path d="m42 46h-36c-4 0-4 0-4-4v-24l44 24c0 4 0 4-4 4z"/>
 </g>
 <path d="m42 46h-36c-4 0-4 0-4-4v-24l44 24c0 4 0 4-4 4z" fill="#ffffff" fill-opacity=".102"/>
 <path d="m30.537516 25.222661l-10.414556 8.331644c-2.088829 2.088829-2.082911 2.082912 0 4.165823l10.414556 8.331644c1.449753 1.162762 1.449753.730795 1.449753-2.145043.02959-1.041455.06509-2.210135 0-3.724979.02367 0-.02367 0 0 0 10.349464 0 15.213536-6.627445 15.148444-15.02418-4.100731 4.230913-8.899711 6.065295-15.148444 5.935113 0-1.491175.02959-2.023737 0-3.029689 0-1.514844 0-3.869954-1.449753-2.840333z" fill="#859900" fill-rule="evenodd"/>
</svg>
