<svg height="48" viewBox="0 0 48 48" width="48" xmlns="http://www.w3.org/2000/svg">
 <path d="m2 18l22 12 22-12c0-4 0-4-4-4h-36c-4 0-4 0-4 4z" fill="#ffffff" fill-opacity=".102"/>
 <g fill="#aaaaaa">
  <path d="m6 14c-4 0-4 0-4 4v24c0 4 0 4 4 4h36c4 0 4 0 4-4 0-8.851562 0-18.882812 0-24 0-4 0-4-4-4z"/>
  <path d="m6 46h36c4 0 4 0 4-4v-24l-44 24c0 4 0 4 4 4z"/>
 </g>
 <path d="m6 46h36c4 0 4 0 4-4v-24l-44 24c0 4 0 4 4 4z" fill-opacity=".102"/>
 <path d="m42 46h-36c-4 0-4 0-4-4v-24l44 24c0 4 0 4-4 4z" fill="#aaaaaa" fill-opacity=".8"/>
 <path d="m22 10c-6 24 6 22 16 30 2-6 0-6 0-8 0 0 2-4 6 2 0-4 8-14-6-26 0 6-4 6-4 6-2-2-2-4-2-6 0-2 0-6 0-6-4 2-6 6-6 10v4c0 0-2 0-4-6z" fill="#cb4b16"/>
</svg>
