<svg height="48" viewBox="0 0 48 48" width="48" xmlns="http://www.w3.org/2000/svg">
 <g fill-rule="evenodd">
  <path d="m24.085938 17.707031l-13.75 11c-2.757813 2.757813-2.75 2.75 0 5.5l13.75 11c1.914062 1.535157 1.914062.964844 1.914062-2.828125.039062-1.375.085938-2.921875 0-4.921875.03125 0-.03125 0 0 0 13.664062 0 20.085938-18.371093 20-29.457031-5.414062 5.585938-11.75 17.628906-20 17.457031 0-1.96875.039062-2.671875 0-4 0-2 0-5.109375-1.914062-3.75z" fill="#859900"/>
  <path d="m24.085938 17.707031l-13.75 11c-2.757813 2.757813-2.75 2.75 0 5.5l13.75 11c1.914062 1.535157 1.914062.964844 1.914062-2.828125.039062-1.375.085938-2.921875 0-4.921875.03125 0-.03125 0 0 0 13.664062 0 20.085938-18.371093 20-29.457031-5.414062 5.585938-11.75 17.628906-20 17.457031 0-1.96875.039062-2.671875 0-4 0-2 0-5.109375-1.914062-3.75z" fill-opacity=".102"/>
  <path d="m24.085938 8.21875l-13.75 11c-2.757813 2.757812-2.75 2.75 0 5.5l13.75 11c1.914062 1.535156 1.914062.964844 1.914062-2.828125.039062-1.375.085938-2.921875 0-4.921875.03125 0-.03125 0 0 0 13.664062 0 20.085938-8.75 20-19.835938-5.414062 5.585938-11.75 8.007813-20 7.835938 0-1.96875.039062-2.671875 0-4 0-2 0-5.109375-1.914062-3.75z" fill="#859900"/>
 </g>
</svg>
