<svg height="48" viewBox="0 0 48 48" width="48" xmlns="http://www.w3.org/2000/svg">
 <g fill="#268bd2">
  <path d="m6 14c-4 0-4 0-4 4v24c0 4 0 4 4 4h36c4 0 4 0 4-4 0-8.851562 0-18.882812 0-24 0-4 0-4-4-4z"/>
  <path d="m6 46h36c4 0 4 0 4-4v-24l-44 24c0 4 0 4 4 4z"/>
 </g>
 <path d="m6 46h36c4 0 4 0 4-4v-24l-44 24c0 4 0 4 4 4z" fill-opacity=".102"/>
 <path d="m42 46h-36c-4 0-4 0-4-4v-24l44 24c0 4 0 4-4 4z" fill="#268bd2"/>
 <path d="m2 18l22 12 22-12c0-4 0-4-4-4h-36c-4 0-4 0-4 4z" fill="#ffffff" fill-opacity=".102"/>
 <path d="m46 14c0 6.628906-5.371094 12-12 12-6.628906 0-12-5.371094-12-12 0-6.628906 5.371094-12 12-12 6.628906 0 12 5.371094 12 12z" fill="#dc322f" fill-rule="evenodd"/>
 <g fill="#ffffff" fill-opacity=".902">
  <path d="m32 6h4v12h-4z"/>
  <path d="m32 20h4v2h-4z"/>
 </g>
</svg>
