<svg height="48" viewBox="0 0 48 48" width="48" xmlns="http://www.w3.org/2000/svg">
 <g fill="#268bd2">
  <path d="m6 14c-4 0-4 0-4 4v24c0 4 0 4 4 4h36c4 0 4 0 4-4 0-8.851562 0-18.882812 0-24 0-4 0-4-4-4z"/>
  <path d="m6 46h36c4 0 4 0 4-4v-24l-44 24c0 4 0 4 4 4z"/>
 </g>
 <path d="m6 46h36c4 0 4 0 4-4v-24l-44 24c0 4 0 4 4 4z" fill-opacity=".102"/>
 <path d="m42 46h-36c-4 0-4 0-4-4v-24l44 24c0 4 0 4-4 4z" fill="#268bd2"/>
 <path d="m2 18l22 12 22-12c0-4 0-4-4-4h-36c-4 0-4 0-4 4z" fill="#ffffff" fill-opacity=".102"/>
 <g transform="translate(-4 -.00000016)">
  <path d="m24 4c6 0 13.684211 0 13.684211 10v6c2 0 6.315789-.0039 6.315789 4v16c0 4-3.84375 4-6 4h-28c-2.15625 0-6 0-6-4v-16c0-4.003906 4.3157895-4 6.315789-4v-6c0-10 7.684211-10 13.684211-10zm0 6c-2 0-7.368421 0-7.368421 6v4h14.736842v-4c0-6-5.368421-6-7.368421-6z" fill="#dc322f" transform="matrix(.475 0 0 .54285714 25.1 22.114286)"/>
  <path d="m36.5 36a2.5 2.5 0 0 0 -2.5 2.5 2.5 2.5 0 0 0 1 1.996094v3.503906h3v-3.501953a2.5 2.5 0 0 0 1-1.998047 2.5 2.5 0 0 0 -2.5-2.5z" fill-opacity=".102"/>
 </g>
</svg>
