<svg height="48" viewBox="0 0 48 48" width="48" xmlns="http://www.w3.org/2000/svg">
 <g fill="#268bd2">
  <path d="m6 14c-4 0-4 0-4 4v24c0 4 0 4 4 4h36c4 0 4 0 4-4 0-8.851562 0-18.882812 0-24 0-4 0-4-4-4z"/>
  <path d="m6 46h36c4 0 4 0 4-4v-24l-44 24c0 4 0 4 4 4z"/>
 </g>
 <path d="m6 46h36c4 0 4 0 4-4v-24l-44 24c0 4 0 4 4 4z" fill-opacity=".102"/>
 <path d="m42 46h-36c-4 0-4 0-4-4v-24l44 24c0 4 0 4-4 4z" fill="#268bd2"/>
 <path d="m2 18l22 12 22-12c0-4 0-4-4-4h-36c-4 0-4 0-4 4z" fill="#ffffff" fill-opacity=".102"/>
 <path d="m22 10c-6 24 6 22 16 30 2-6 0-6 0-8 0 0 2-4 6 2 0-4 8-14-6-26 0 6-4 6-4 6-2-2-2-4-2-6 0-2 0-6 0-6-4 2-6 6-6 10v4c0 0-2 0-4-6z" fill="#cb4b16"/>
 <path d="m29.5 44.71875c0 .351562.046875.757812.125 1.210938.640625.09375 1.179688.0625 1.65625 0 .15625 0 .304688.023437.445312 0 .476563-.054688.9375-.226563 1.34375-.570313.132813-.117187.25-.226563.375-.382813.75-.695312 1.453126-1.445312 2.171876-2.171874l2.164062-2.164063c.710938.726563 1.445312 1.4375 2.164062 2.164063.71875.726562 1.429688 1.460937 2.164063 2.171874.109375.148438.257813.273438.382813.382813.148437.132813.289062.234375.445312.320313.296875.148437.625.210937.953125.25.210937.03125.421875.070312.640625.070312.101562 0 .210938 0 .320312 0 .367188-.015625.71875-.0625 1.078126-.070312.054687-.359376.0625-.710938.070312-1.015626 0-.0625 0-.132812 0-.195312-.007812-.140625-.054688-.25-.070312-.382812 0-.023438.007812-.039063 0-.0625-.023438-.65625-.109376-1.273438-.570313-1.789063-.117187-.132813-.226563-.25-.382813-.382813l-4.328124-4.335937 4.328124-4.335937c.148438-.109376.273438-.265626.382813-.382813.132813-.148437.234375-.289063.320313-.445313.148437-.289062.210937-.585937.25-.898437.046874-.351563.078124-.710937.070312-1.085937-.007812-.304688-.015625-.648438-.070312-1.015626-.664063-.117187-1.195313-.125-1.65625-.0625-.171876 0-.335938.03125-.507813.0625-.609375.09375-1.21875.34375-1.65625.953126-.75.695312-1.445313 1.445312-2.164063 2.171874l-2.164062 2.171876-4.335938-4.34375c-.125-.15625-.242187-.265626-.375-.382813-.148437-.125-.296874-.234375-.453124-.320313-.257813-.132812-.53125-.210937-.820313-.25-.023437-.007812-.046875 0-.070313 0-.585937-.140624-1.257812-.117187-2.101562 0-.109375.671876-.117188 1.195313-.0625 1.65625.023438.164063.015625.359376.0625.507813.023438.070313.046875.132813.0625.195313.117188.539062.34375 1.070312.898438 1.46875.695312.75 1.4375 1.445312 2.164062 2.164062.726562.71875 1.4375 1.460938 2.164062 2.171875-.726562.695313-1.453124 1.390625-2.164062 2.109375-.015625.007812.007812.046875 0 .0625-.726562.71875-1.46875 1.421875-2.164062 2.164062-.15625.109376-.273438.265626-.382813.382813-.078125.085937-.132813.164063-.195313.257813-.03125.046874-.101562.078124-.125.125-.007812.023437.007813.046874 0 .070312-.132812.257812-.210937.539062-.257812.828125 0 .039063.007812.085937 0 .125-.0625.257813-.125.523437-.125.828125z" fill="#dc322f" fill-rule="evenodd"/>
</svg>
