<svg height="48" viewBox="0 0 48 48" width="48" xmlns="http://www.w3.org/2000/svg">
 <path d="m6 46h36c4 0 4 0 4-4v-26l-22-14-22 14v26c0 4 0 4 4 4z" fill="#268bd2"/>
 <path d="m6 46h36c4 0 4 0 4-4v-26l-22-14-22 14v26c0 4 0 4 4 4z" fill-opacity=".102"/>
 <path d="m8 8v32h32v-32z" fill="#ffffff"/>
 <g fill="#268bd2">
  <path d="m6 46h36c4 0 4 0 4-4v-24l-44 24c0 4 0 4 4 4z"/>
  <path d="m42 46h-36c-4 0-4 0-4-4v-24l44 24c0 4 0 4-4 4z"/>
 </g>
 <path d="m42 46h-36c-4 0-4 0-4-4v-24l44 24c0 4 0 4-4 4z" fill="#ffffff" fill-opacity=".102"/>
 <path d="m41.121094 14.914062c2.054687 9.230469 1.5 8.085938-6.15625 4.195313-8.03125 4.238281-7.75 4.597656-6.09375-4.285156-7.226563-6.25-6.398438-5.6875 2.375-6.839844 3.953125-8.28125 3.617187-7.6875 7.578125.054687 9.257812 1.070313 9.039062.707032 2.296875 6.875z" fill="#cb4b16" fill-rule="evenodd"/>
</svg>
