<svg height="48" viewBox="0 0 48 48" width="48" xmlns="http://www.w3.org/2000/svg">
 <path d="m6 46h36c4 0 4 0 4-4v-26l-22-14-22 14v26c0 4 0 4 4 4z" fill="#268bd2"/>
 <path d="m6 46h36c4 0 4 0 4-4v-26l-22-14-22 14v26c0 4 0 4 4 4z" fill-opacity=".102"/>
 <path d="m8 8v32h32v-32z" fill="#ffffff"/>
 <g fill="#268bd2">
  <path d="m6 46h36c4 0 4 0 4-4v-24l-44 24c0 4 0 4 4 4z"/>
  <path d="m42 46h-36c-4 0-4 0-4-4v-24l44 24c0 4 0 4-4 4z"/>
 </g>
 <path d="m42 46h-36c-4 0-4 0-4-4v-24l44 24c0 4 0 4-4 4z" fill="#ffffff" fill-opacity=".102"/>
</svg>
