<svg height="48" viewBox="0 0 48 48" width="48" xmlns="http://www.w3.org/2000/svg">
 <path d="m26.5 4.9999768c-1.122739 0-2.245477.2890761-3.25.8691407-2.009045 1.160129-3.25 3.3088616-3.25 5.6289055v20.501555c0 1.426787.764437 2.751234 2 3.464844 1.235563.71361 2.764437.71361 4 0 1.235563-.71361 2-2.038057 2-3.464844v-14.999578c0-.554-.446-1-1-1h-1c-.554 0-1 .446-1 1v14.999578c0 .360184-.188558.68731-.5.867188-.311442.179874-.688558.179875-1 0-.311442-.179877-.5-.507004-.5-.867188v-20.501555c0-1.253246.665034-2.4047325 1.75-3.0312493 1.084966-.6265168 2.415034-.6265168 3.5 0 1.084966.6265168 1.75 1.7780033 1.75 3.0312493v22.501977c0 2.146385-1.141525 4.122192-3 5.195312-1.858475 1.073122-4.141525 1.073122-6 0-1.858475-1.07312-3-3.048927-3-5.195312v-19c0-.554-.446-1-1-1h-1c-.554 0-1 .446-1 1v19c0 3.213244 1.717459 6.188228 4.5 7.794922 2.782541 1.606694 6.217459 1.606694 9 0 2.782541-1.606694 4.5-4.581678 4.5-7.794922v-22.501977c0-2.3200439-1.240955-4.4687765-3.25-5.6289055-1.004523-.5800647-2.127261-.8691407-3.25-.8691407z" fill="#808080"/>
</svg>
