<svg height="48" viewBox="0 0 48 48" width="48" xmlns="http://www.w3.org/2000/svg">
 <g fill="#aaaaaa">
  <path d="m2 38c0-1.835938 0-4.164062 0-6 2.9375-.03125 7.0625.117188 10 0 3.96875 0 5.121094 0 6-2l4-12c2.75-8.25 2.734375-8 6-8 3.09375 0 4.90625 0 8 0-1.03125-.882812-1.445312-1.9375-.90625-3.367188.570312-2.070312 3.570312-2.59375 4.851562-.890624 2.398438 2.414062 3.726563 4.78125 6.054688 7.257812-2.46875 2.609375-3.929688 5.125-6.476562 7.664062-1.671876 1.546876-4.765626.15625-4.632813-2.140624-.054687-1.203126.328125-1.765626 1.109375-2.523438-3.453125.03125-.554688-.125-4 0-4 0-3.054688 0-4 2l-4 12c-2.75 8.25-2.5 8-8 8-2.578125 0-11.421875 0-14 0z"/>
  <path d="m2 38c0-1.835938 0-4.164062 0-6 2.9375-.03125 7.0625.117188 10 0 3.96875 0 5.121094 0 6-2l4-12c2.75-8.25 2.734375-8 6-8 3.09375 0 4.90625 0 8 0-1.03125-.882812-1.445312-1.9375-.90625-3.367188.570312-2.070312 3.570312-2.59375 4.851562-.890624 2.398438 2.414062 3.726563 4.78125 6.054688 7.257812-2.46875 2.609375-3.929688 5.125-6.476562 7.664062-1.671876 1.546876-4.765626.15625-4.632813-2.140624-.054687-1.203126.328125-1.765626 1.109375-2.523438-3.453125.03125-.554688-.125-4 0-4 0-3.054688 0-4 2l-4 12c-2.75 8.25-2.5 8-8 8-2.578125 0-11.421875 0-14 0z"/>
  <path d="m2 10c0 1.835938 0 4.164062 0 6 2.9375.03125 7.0625-.117188 10 0 3.96875 0 5.121094 0 6 2l4 12c2.75 8.25 2.734375 8 6 8 3.09375 0 4.90625 0 8 0-1.03125.882812-1.445312 1.9375-.90625 3.367188.570312 2.070312 3.570312 2.59375 4.851562.890624 2.398438-2.414062 3.726563-4.78125 6.054688-7.257812-2.46875-2.609375-3.929688-5.125-6.476562-7.664062-1.671876-1.546876-4.765626-.15625-4.632813 2.140624-.054687 1.203126.328125 1.765626 1.109375 2.523438-3.453125-.03125-.554688.125-4 0-4 0-3.054688 0-4-2l-4-12c-2.75-8.25-2.5-8-8-8-2.578125 0-11.421875 0-14 0z"/>
 </g>
</svg>
