<svg viewBox="0 0 24 24" xmlns="http://www.w3.org/2000/svg">
 <path d="m12 10.5c.828 0 1.5.672 1.5 1.5 0 .828-.672 1.5-1.5 1.5-.828 0-1.5-.672-1.5-1.5 0-.828.672-1.5 1.5-1.5z" fill="none" stroke="#888888" stroke-linejoin="round"/>
 <path d="m12 1.5c-5.822 0-10.5 4.68-10.5 10.5 0 5.822 4.68 10.5 10.5 10.5 5.822 0 10.5-4.68 10.5-10.5 0-5.822-4.68-10.5-10.5-10.5m0 6.3c2.313 0 4.2 1.887 4.2 4.2 0 2.313-1.887 4.2-4.2 4.2-2.313 0-4.2-1.887-4.2-4.2 0-2.313 1.887-4.2 4.2-4.2" fill="#d1d1d1"/>
 <circle cx="12" cy="12" fill="none" r="10.5" stroke="#888888" stroke-linejoin="round"/>
 <circle cx="12" cy="12" fill="none" r="4.5" stroke="#888888" stroke-linejoin="round"/>
 <path d="m23 18l-4.5 5-4.5-5h3v-5h3v5z" fill="#859900"/>
</svg>
