<svg viewBox="0 0 48 48" xmlns="http://www.w3.org/2000/svg">
 <path d="m-40-21h2v10h-2z" fill="#3daee9" transform="matrix(0 -1 -1 0 0 0)"/>
 <path d="m-40-37h2v10h-2z" fill="#3daee9" transform="matrix(0 -1 -1 0 0 0)"/>
 <path d="m21-42h6v6h-6z" fill="none" stroke="#313131" stroke-width="2" transform="scale(1 -1)"/>
 <path d="m-12-20h2v8.5h-2z" fill="#3daee9" transform="matrix(0 -1 -1 0 0 0)"/>
 <path d="m8-13h4v4h-4z" fill="none" stroke="#313131" stroke-width="2" transform="scale(1 -1)"/>
 <path d="m24 28l5-6h-10z" fill="#cb4b16"/>
 <path d="m-12-36.5h2v8.5h-2z" fill="#3daee9" transform="matrix(0 -1 -1 0 0 0)"/>
 <path d="m36-13h4v4h-4z" fill="none" stroke="#313131" stroke-width="2" transform="scale(1 -1)"/>
</svg>
