<svg viewBox="0 0 48 48" xmlns="http://www.w3.org/2000/svg">
 <rect fill="#e5e1c7" height="36" rx="4" width="32" x="8" y="8"/>
 <rect fill="#eae7d1" height="32" rx="2" width="28" x="10" y="10"/>
 <rect fill="#999999" height="6" rx="1" width="2" x="12" y="6"/>
 <rect fill="#999999" height="6" rx="1" width="2" x="16" y="6"/>
 <rect fill="#999999" height="6" rx="1" width="2" x="20" y="6"/>
 <rect fill="#999999" height="6" rx="1" width="2" x="26" y="6"/>
 <rect fill="#999999" height="6" rx="1" width="2" x="30" y="6"/>
 <rect fill="#999999" height="6" rx="1" width="2" x="34" y="6"/>
 <path d="m12 16h24v2h-24z" fill="#999999"/>
 <path d="m12 20h24v2h-24z" fill="#999999"/>
 <path d="m12 24h16v2h-16z" fill="#999999"/>
 <path d="m12 28h16v2h-16z" fill="#999999"/>
 <path d="m12 32h24v2h-24z" fill="#999999"/>
 <path d="m12 36h24v2h-24z" fill="#999999"/>
</svg>
