<svg height="48" viewBox="0 0 48 48" width="48" xmlns="http://www.w3.org/2000/svg">
 <rect fill="#b4b4b4" height="10" rx="2" width="10" x="35.9" y="19.05"/>
 <rect fill="#b4b4b4" height="10" rx="2" width="10" x="2" y="19.05"/>
 <rect fill="#b4b4b4" height="10" rx="2" transform="matrix(.70710678 .70710678 -.70710678 .70710678 0 0)" width="10" x="11.99" y="-4.93"/>
 <rect fill="#b4b4b4" height="10" rx="2" transform="rotate(90)" width="10" x="2.1" y="-28.95"/>
 <rect fill="#b4b4b4" height="10" rx="2" transform="matrix(-.70710678 .70710678 -.70710678 -.70710678 0 0)" width="10" x="-21.88" y="-38.94"/>
 <rect fill="#b4b4b4" height="10" rx="2" transform="matrix(.70710678 .70710678 -.70710678 .70710678 0 0)" width="10" x="45.89" y="-4.93"/>
 <rect fill="#b4b4b4" height="10" rx="2" transform="rotate(90)" width="10" x="36" y="-28.95"/>
 <rect fill="#b4b4b4" height="10" rx="2" transform="matrix(-.70710678 .70710678 -.70710678 -.70710678 0 0)" width="10" x="12.02" y="-38.94"/>
 <path d="m8 1.5a6.5 6.5 0 0 0 -6.5 6.5 6.5 6.5 0 0 0 6.5 6.5 6.5 6.5 0 0 0 6.5-6.5 6.5 6.5 0 0 0 -6.5-6.5zm0 3.5a3 3 0 0 1 3 3 3 3 0 0 1 -3 3 3 3 0 0 1 -3-3 3 3 0 0 1 3-3z" fill="#b4b4b4" transform="matrix(2.75 0 0 2.75 2 2.0499992)"/>
 <path d="m24 11.049999a13 13 0 0 0 -13 13 13 13 0 0 0 13 13 13 13 0 0 0 13-13 13 13 0 0 0 -13-13zm0 7a6 6 0 0 1 6 6 6 6 0 0 1 -6 6 6 6 0 0 1 -6-6 6 6 0 0 1 6-6z" fill="#dadada"/>
</svg>
