<svg height="48" viewBox="0 0 48 48" width="48" xmlns="http://www.w3.org/2000/svg">
 <path d="m16 8.0010954a8.0000001 8.0000001 0 0 1 -16.00000005 0 8.0000001 8.0000001 0 1 1 16.00000005 0z" fill="#dc322f" fill-rule="evenodd" transform="matrix(2.5 0 0 2.5 4.0000004 4.0000004)"/>
 <path d="m19.861722 16.003074c-2.538322-.077896-5.073186 1.323968-7.861722 4.319054l3.278246 2.589568c2.391902-2.569072 3.74237-2.955688 4.441822-2.934222.699454.02146 1.602024.58374 2.897134 1.57734 1.295108.993598 2.982758 2.418522 5.521078 2.496416 2.53832.0779 5.073184-1.323966 7.86172-4.319052l-3.278246-2.58957c-2.391902 2.569074-3.742368 2.95569-4.44182 2.934226-.699454-.02146-1.602026-.58374-2.897134-1.57734-1.29511-.9936-2.98276-2.418524-5.521078-2.49642zm0 7.948796c-2.538322-.0779-5.073186 1.323968-7.861722 4.319056l3.278246 2.586464c2.391902-2.569072 3.74237-2.95569 4.441822-2.934224.699454.02146 1.602024.583738 2.897134 1.577338 1.295108.9936 2.982758 2.418526 5.521078 2.496422 2.53832.0779 5.073184-1.32397 7.86172-4.319056l-3.278246-2.586464c-2.391902 2.569072-3.742368 2.95569-4.44182 2.934224-.699454-.02146-1.602026-.583738-2.897134-1.57734-1.29511-.993598-2.98276-2.418524-5.521078-2.49642z" fill="#ffffff" fill-opacity=".902" fill-rule="evenodd" overflow="visible"/>
</svg>
