<svg viewBox="0 0 48 48" xmlns="http://www.w3.org/2000/svg">
 <radialGradient id="a" cx="24.08" cy="41.38" gradientTransform="matrix(1 0 0 .11307633 0 36.703704)" gradientUnits="userSpaceOnUse" r="21.08">
  <stop offset="0" stop-opacity=".392"/>
  <stop offset="1" stop-opacity="0"/>
 </radialGradient>
 <path d="m45.15 41.38a21.08 2.383 0 1 1 -42.15 0 21.08 2.383 0 1 1 42.15 0z" fill="url(#a)" opacity=".65" transform="matrix(1.1387537 0 0 1.0490275 -3.4162611 -1.9120725)"/>
 <g transform="translate(0 -1004.3622)">
  <rect fill="#eae7d1" height="23" rx="2" width="30" x="9" y="1006.36"/>
  <path d="m12 1021.36h24v2h-24z" fill="#7a7a68"/>
  <path d="m45 1024.36v22h-42v-20h20l2-4h18c1 0 2 1 2 2z" fill="#7e57c2"/>
  <path d="m3 1045.36v1h42v-1z" opacity=".15"/>
  <path d="m25 1022.36l-2 4h-20v1h21l2-4h17c1 0 2 1 2 2v-1c0-1-1-2-2-2z" opacity=".03"/>
  <path d="m12 1009.36h24v2h-24z" fill="#7a7a68"/>
  <path d="m12 1013.36h24v2h-24z" fill="#7a7a68"/>
  <path d="m12 1017.36h24v2h-24z" fill="#7a7a68"/>
  <g transform="translate(49.811526 7.469875)">
   <path d="m-6.813 1026.39c.068 3.37-1.726 6.514-4.695 8.219-2.965 1.706-6.641 1.706-9.61 0-2.969-1.706-4.763-4.849-4.691-8.219-.072-3.374 1.722-6.517 4.691-8.223 2.969-1.706 6.645-1.706 9.61 0 2.969 1.706 4.763 4.849 4.695 8.223z" fill="#4caf50" fill-rule="evenodd"/>
   <path d="m-11.12 1020.42c-.201.071-.373.207-.487.384l-5.178 5.01-3.231-3.083c-.129-.425-.536-.712-.988-.689-.449.026-.821.354-.905.791-.08.441.156.877.57 1.054l3.893 3.855c.373.346.95.346 1.323 0l5.839-5.783c.228-.298.258-.704.08-1.035-.179-.331-.54-.527-.916-.505z" fill="#ffffff"/>
  </g>
 </g>
</svg>
