<svg height="48" width="48" xmlns="http://www.w3.org/2000/svg">
 <g fill-rule="evenodd" transform="matrix(.75000002 0 0 .75000002 -.00000068 -741.27167)">
  <path d="m31.105329 1010.4703c-8.335742.269-17.907873 2.3741-22.6752781 9.9029 6.9836821 10.1262 21.5190551 11.1143 32.6400611 8.9159 5.68946-1.2155 11.382278-3.8035 14.499837-8.9159-5.047054-8.0124-15.692247-9.978-24.46462-9.9029z" fill="#e7f4e8" overflow="visible"/>
  <path d="m32.1875 51.4375c0 3.520815-2.854185 6.375-6.375 6.375-3.520815 0-6.375-2.854185-6.375-6.375 0-3.520815 2.854185-6.375 6.375-6.375 3.520815 0 6.375 2.854185 6.375 6.375z" fill="#2d2d2d" transform="matrix(1.232493 0 0 1.232493 .18627444 958.60871)"/>
  <path d="m10.589482 1020.3627c3.088026 4.6796 11.506981 8.0418 21.431572 8.0418 9.922836 0 18.300076-3.3636 21.389465-8.0418m-42.821037-.0005c3.088026-4.6799 11.506981-8.0423 21.431572-8.0423 9.922836 0 18.300076 3.3638 21.389465 8.0423m-21.410537-15.8112c-14.677711 0-27.3951331 6.0862-31.87367576 15.5365l-.12630514.2971.12630514.2514c4.47854726 9.4508 17.19596076 15.5374 31.87367576 15.5374 14.677705 0 27.353017-6.0866 31.831564-15.5374l.168453-.2514-.168453-.2971c-4.478547-9.4503-17.153863-15.5365-31.831569-15.5365z" fill="#4caf50" overflow="visible"/>
 </g>
</svg>
