<svg height="48" viewBox="0 0 48 48" width="48" xmlns="http://www.w3.org/2000/svg">
 <path d="m7.0742404 6c-.5859377.0585115-1.0781234.6076174-1.0742174 1.1966799v33.6066381c0 .628075.5703117 1.196682 1.1992173 1.196682h33.6015427c.628905 0 1.199217-.568607 1.199217-1.196682v-33.6066381c0-.6280734-.570312-1.1966799-1.199217-1.1966799zm31.9257636 1.9990223c.552283 0 .999999.4474955.999999.9995121 0 .5520145-.447716.9995101-.999999.9995101-.552284 0-1-.4474956-1-.9995101 0-.5520166.447716-.9995121 1-.9995121zm-30.9999862 3.9980397h31.9999852v27.968775h-31.9999852z" fill="#888888"/>
 <path d="m27.999987 14.01366h9.9999943v23.988291h-9.9999943z" fill="#268bd2"/>
</svg>
