<svg height="48" viewBox="0 0 48 48" width="48" xmlns="http://www.w3.org/2000/svg">
 <g fill="#268bd2" transform="matrix(.77272727 0 0 .78125 .45454546 -8.9375)">
  <path d="m6 14c-4 0-4 0-4 4v24c0 4 0 4 4 4h36c4 0 4 0 4-4 0-8.851562 0-18.882812 0-24 0-4 0-4-4-4z"/>
  <path d="m6 46h36c4 0 4 0 4-4v-24l-44 24c0 4 0 4 4 4z"/>
 </g>
 <path d="m5.0909098 27h27.8181812c3.090909 0 3.090909 0 3.090909-3.125v-18.75l-33.9999995 18.75c0 3.125 0 3.125 3.0909093 3.125z" fill-opacity=".102"/>
 <path d="m32.909091 27h-27.8181812c-3.0909093 0-3.0909093 0-3.0909093-3.125v-18.75l33.9999995 18.75c0 3.125 0 3.125-3.090909 3.125z" fill="#268bd2"/>
 <path d="m2.0000005 5.125l16.9999995 9.375 17-9.375c0-3.125 0-3.125-3.090909-3.125h-27.8181812c-3.0909093 0-3.0909093 0-3.0909093 3.125z" fill="#ffffff" fill-opacity=".102"/>
 <g fill="#268bd2" transform="matrix(.77272727 0 0 .78125 10.454545 10.0625)">
  <path d="m6 14c-4 0-4 0-4 4v24c0 4 0 4 4 4h36c4 0 4 0 4-4 0-8.851562 0-18.882812 0-24 0-4 0-4-4-4z"/>
  <path d="m6 46h36c4 0 4 0 4-4v-24l-44 24c0 4 0 4 4 4z"/>
 </g>
 <path d="m15.090909 46h27.818182c3.090909 0 3.090909 0 3.090909-3.125v-18.75l-34 18.75c0 3.125 0 3.125 3.090909 3.125z" fill-opacity=".102"/>
 <path d="m42.909091 46h-27.818182c-3.090909 0-3.090909 0-3.090909-3.125v-18.75l34 18.75c0 3.125 0 3.125-3.090909 3.125z" fill="#268bd2"/>
 <path d="m12 24.125l17 9.375 17-9.375c0-3.125 0-3.125-3.090909-3.125h-27.818182c-3.090909 0-3.090909 0-3.090909 3.125z" fill="#ffffff" fill-opacity=".102"/>
 <path d="m41.122604 14.914062c2.054687 9.230469 1.5 8.085938-6.15625 4.195313-8.03125 4.238281-7.75 4.597656-6.09375-4.285156-7.226563-6.25-6.398438-5.6875 2.375-6.839844 3.953125-8.28125 3.617187-7.6875 7.578125.054687 9.257812 1.070313 9.039062.707032 2.296875 6.875z" fill="#cb4b16" fill-rule="evenodd"/>
</svg>
