<svg height="48" viewBox="0 0 48 48" width="48" xmlns="http://www.w3.org/2000/svg">
 <path d="m36.000002 10c2 0 2 0 2 2v28c0 2 0 2-2 2h-24.000002c-2 0-2 0-2-2v-28c0-2 0-2 2-2" fill="#e6b07f" fill-rule="evenodd"/>
 <path d="m34.000002 9.999999h-20.000002v28.000001h20.000002" fill="#ffffff"/>
 <path d="m16 6v6.142857h16.000001v-6.142857" fill="#aaaaaa"/>
 <path d="m16 30v2h14.000001v-2h-10z" fill="#868686"/>
 <path d="m16 34v2h14.000001v-2z" fill="#868686"/>
 <path d="m16 22v2h4.000001v-2z" fill="#868686"/>
 <path d="m16 26v2h4.000001v-2z" fill="#868686"/>
 <path d="m16 14v2h14.000001v-2z" fill="#868686"/>
 <path d="m16 18v2h4.000001v-2z" fill="#868686"/>
 <path d="m42 23.999998l-9.999999-9.999998v6h-9.999998v7.999998h9.999998v6z" fill="#268bd2"/>
</svg>
