<svg height="48" viewBox="0 0 48 48" width="48" xmlns="http://www.w3.org/2000/svg">
 <path d="m20.197266 3.0175781c-4.839616.1937594-6.443275 1.6000128-8.044922 4.5625-1.287013 4.5281559-1.316139 10.7941559.974609 13.8847659.962915 1.468769 2.278997 3.397223 1.25 5.15039-1.903692 2.737475-5.0788878 4.214437-7.970703 5.705078-.708005.418189-.7089844.296887-.7089844 1.671876 0 1.02501-.0001101 1.02539.6386719 1.02539h18.0937505c.614962-1.634078-.546286-3.372193-1.431641-4.722656-2.290748-3.09061-2.261623-9.354657-.974609-13.882813 1.510453-2.793811 3.058601-4.189919 7.285156-4.503906-.119878-1.729407-.472698-3.3105574-1.070313-4.4277342-1.595393-2.8625244-3.207681-4.3535192-8.041015-4.4628907z" fill="#aaaaaa"/>
 <path d="m23.719758 16.972082c-1.287013 4.528155-1.315325 10.793784.975423 13.884394.962915 1.468769 2.278237 3.396847 1.24924 5.150014-1.903692 2.737475-5.078752 4.21561-7.970567 5.706251-.708005.418188-.708005.296855-.708005 1.671844 0 1.02501 0 1.02501.638782 1.02501h27.722412c.638806 0 .638806 0 .638806-1.02501 0-1.374989 0-1.288726-.708028-1.671844-2.891788-1.490641-6.066852-2.968776-7.970544-5.706251-1.028997-1.753167.286325-3.681245 1.24924-5.150014 2.419794-3.362532 2.734429-10.684395.969169-13.984357-1.595393-2.862524-3.206503-4.353152-8.039837-4.462523-4.839616.193759-6.444444 1.599999-8.046091 4.562486z" fill="#aaaaaa"/>
</svg>
