<svg height="48" viewBox="0 0 48 48" width="48" xmlns="http://www.w3.org/2000/svg">
 <path d="m36 10c2 0 2 0 2 2v28c0 2 0 2-2 2h-24c-2 0-2 0-2-2v-28c0-2 0-2 2-2" fill="#e6b07f" fill-rule="evenodd"/>
 <path d="m34 9.999999h-20v28.000001h20" fill="#ffffff"/>
 <path d="m16 6v6.142857h16v-6.142857" fill="#aaaaaa"/>
 <path d="m16 30v2h16v-2" fill="#868686"/>
 <path d="m16 34v2h16v-2" fill="#868686"/>
 <path d="m16.000002 22l-.000002 2h15.999998l.000002-2" fill="#868686"/>
 <path d="m16.000002 26l-.000002 2h15.999998l.000002-2" fill="#868686"/>
 <path d="m16.000004 13.999999l-.000002 2h15.999998l.000002-2" fill="#868686"/>
 <path d="m16.000004 17.999999l-.000002 2h15.999998l.000002-2" fill="#868686"/>
</svg>
