<svg height="48" viewBox="0 0 48 48" width="48" xmlns="http://www.w3.org/2000/svg">
 <path d="m12.453909 8.5624861c-1.287013 4.5281559-1.315325 10.7937849.975423 13.8843949.962915 1.468769 2.278237 3.396847 1.24924 5.150014-1.903692 2.737475-5.078752 4.21561-7.970567 5.706251-.708005.418188-.708005.296855-.708005 1.671844 0 1.02501 0 1.02501.638782 1.02501h27.722412c.638806 0 .638806 0 .638806-1.02501 0-1.374989 0-1.288726-.708028-1.671844-2.891788-1.490641-6.066852-2.968776-7.970544-5.706251-1.028997-1.753167.286325-3.681245 1.24924-5.150014 2.419794-3.362532 2.734429-10.684396.969169-13.9843577-1.595393-2.8625244-3.206503-4.3531518-8.039837-4.4625233-4.839616.1937594-6.444444 1.5999989-8.046091 4.5624861z" fill="#6c71c4"/>
 <path d="m19.453909 16.562486c-1.287013 4.528156-1.315325 10.793785.975423 13.884395.962915 1.468769 2.278237 3.396847 1.24924 5.150014-1.903692 2.737475-5.078752 4.21561-7.970567 5.706251-.708005.418188-.708005.296855-.708005 1.671844 0 1.02501 0 1.02501.638782 1.02501h27.722412c.638806 0 .638806 0 .638806-1.02501 0-1.374989 0-1.288726-.708028-1.671844-2.891788-1.490641-6.066852-2.968776-7.970544-5.706251-1.028997-1.753167.286325-3.681245 1.24924-5.150014 2.419794-3.362532 2.734429-10.684396.969169-13.984358-1.595393-2.862524-3.206503-4.353152-8.039837-4.462523-4.839616.193759-6.444444 1.599999-8.046091 4.562486z" fill="#cb4b16"/>
 <path d="m48 32h-8v-8h-8v8h-8v8h8v8h8v-8h8z" fill="#aaaaaa"/>
</svg>
