<svg viewBox="0 0 48 48" xmlns="http://www.w3.org/2000/svg">
 <path d="m20 31h8v10h-8z" fill="#2d2d2d"/>
 <path d="m24 4c-8.284265 0-14.999992 6.715735-15 15 0 8.284271 6.715729 15 15 15 8.284271 0 15-6.715729 15-15-.000007-8.284265-6.715735-14.9999999-15-15zm0 8.5c3.58985.000004 6.499996 2.910157 6.5 6.5.000008 3.589852-2.910142 6.499996-6.5 6.5-3.589858-.000004-6.500008-2.910148-6.5-6.5.000004-3.589843 2.91015-6.499996 6.5-6.5z" fill="#888888"/>
 <path d="m14.277778 39.8c.277778-1.066667 19.166666-1.066667 19.444444 0 .277778 1.066667.277778 3.2.277778 3.2h-20c0 0 0-2.133333.277778-3.2z" fill="#888888"/>
 <path d="m24 12c-3.865992.000004-6.999996 3.134003-7 6.999988-.000009 3.865995 3.133999 7.000008 7 7.000012 3.866001-.000004 7.000009-3.134017 7-7.000012-.000004-3.865985-3.134008-6.999984-7-6.999988zm-.05127 2c2.899498 0 5.05127 2.151761 5.05127 5.051254 0 2.899494-2.151771 4.948746-5.05127 4.948746-2.899499 0-4.94873-2.049252-4.94873-4.948746 0-2.899493 2.049232-5.051254 4.94873-5.051254z" fill="#2d2d2d"/>
</svg>
