<svg height="48" viewBox="0 0 48 48" width="48" xmlns="http://www.w3.org/2000/svg">
 <path d="m36 10c2 0 2 0 2 2v28c0 2 0 2-2 2h-24c-2 0-2 0-2-2v-28c0-2 0-2 2-2" fill="#e6b07f" fill-rule="evenodd"/>
 <path d="m34 9.999999h-20v28.000001h20" fill="#ffffff"/>
 <path d="m16 6v6.142857h16v-6.142857" fill="#aaaaaa"/>
 <path d="m18.999998 17.999998l10.000002.000006c3 .000002 3 0 3 2.999998v7.999368c0 2.999998 0 2.999998-3 2.999998-1.124966 0-2.437684-.0094-3.562642-.0094.375792.321372.725348.79471.529142 1.314522-.208346.754988-1.297648.94274-1.764984.324638-.870832-.878228-1.353932-1.738298-2.20166-2.63912.898484-.95018 1.42853-1.863758 2.354206-2.787138.607962-.5622 1.73386-.0578 1.686082.779812.0196.43531-.319888.730878-.602786 1.007286 1.25616-.0122 2.308396.05386 3.562642.0094 1 0 1 0 1-.999998v-7.999368c0-1 0-1-1-1l-10.000002-.000004c-.999998 0-.999998 0-.999998 1v7.999366c0 1 0 1 .999998 1h .000002c1 0 1 0 1 1 0 1 0 1-1 1h-.000002c-2.999998 0-2.999998 0-2.999998-3v-7.999366c0-3 0-3.000002 2.999998-3z" fill="#868686"/>
</svg>
