<svg height="48" viewBox="0 0 48 48" width="48" xmlns="http://www.w3.org/2000/svg">
 <path d="m12 6h24c4 0 4 0 4 4v28c0 4 0 4-4 4h-24c-4 0-4 0-4-4v-28c0-4 0-4 4-4z" fill="#6c71c4" fill-rule="evenodd"/>
 <path d="m18.449219 15.136719c-.886719 3.113281-.90625 7.421875.675781 9.546875.664062 1.007812 1.570312 2.332031.859375 3.539062-1.3125 1.882813-3.503906 2.898438-5.496094 3.921875-.679687.07031-.433593.691407-.476562 1.148438-.0039.367187-.113281.84375.429687.671875h19.117188c.542968.171875.433594-.304688.429687-.671875-.04297-.457031.203125-1.078125-.476562-1.148438-1.992188-1.023437-4.183594-2.039062-5.496094-3.921875-.710937-1.207031.195313-2.53125.859375-3.539062 1.671875-2.3125 1.886719-7.347656.667969-9.617188-1.097657-1.964844-2.210938-2.992187-5.542969-3.066406-3.339844.132812-4.445312 1.101562-5.550781 3.136719z" fill="#2d2d2d" fill-opacity=".533"/>
</svg>
