<svg height="48" width="48" xmlns="http://www.w3.org/2000/svg">
 <path d="m3.0024378 4.3437926l0 7.9187574 0 31.577769 2.1092619 2.159681 37.7766033 0 2.109261-2.159681 0-31.577769 0-7.9187574-20.997564 0z" fill="#dc322f" overflow="visible"/>
 <path d="m5.9999999 13l0 27 36.0000001 0 0-27z" fill="#f4f4f4" overflow="visible"/>
 <path d="m4.406175 3l-1.4061747.7031403 0 2.2968597 12.2553517 0 13.754145 0 15.990503 0 0-2.2968583-1.406175-.7031402-14.584328 0-13.754145 0z" fill="#dc7876" overflow="visible"/>
 <path d="m10 0h3v9h-3z" fill="#e4e4e4" overflow="visible"/>
 <rect fill="#777f8a" height="3" rx=".75" ry=".75" width="3" x="36" y="34"/>
 <rect fill="#777f8a" height="3" rx=".75" ry=".75" width="3" x="27" y="34"/>
 <rect fill="#777f8a" height="3" rx=".75" ry=".75" width="3" x="18" y="34"/>
 <rect fill="#777f8a" height="3" rx=".75" ry=".75" width="3" x="36" y="16"/>
 <rect fill="#777f8a" height="3" rx=".75" ry=".75" width="3" x="27" y="16"/>
 <rect fill="#777f8a" height="3" rx=".75" ry=".75" width="3" x="18" y="16"/>
 <rect fill="#777f8a" height="3" rx=".75" ry=".75" width="3" x="36" y="22"/>
 <rect fill="#777f8a" height="3" rx=".75" ry=".75" width="3" x="27" y="22"/>
 <rect fill="#777f8a" height="3" rx=".75" ry=".75" width="3" x="18" y="22"/>
 <rect fill="#777f8a" height="3" rx=".75" ry=".75" width="3" x="36" y="28"/>
 <rect fill="#777f8a" height="3" rx=".75" ry=".75" width="3" x="27" y="28"/>
 <path d="m17.100584 26.499506c-.331815-.000391-.600876.268791-.600584.600619v4.799225c-.0003.331857.268769.60092.600584.60065h4.79883c.331814.00036.600877-.268822.600585-.60065v-4.799225c.000375-.331828-.268771-.60092-.600585-.600619z" fill="#d480e2" overflow="visible"/>
 <rect fill="#777f8a" height="3" rx=".75" ry=".75" width="3" x="18" y="28"/>
 <rect fill="#777f8a" height="3" rx=".75" ry=".75" width="3" x="9" y="34"/>
 <rect fill="#777f8a" height="3" rx=".75" ry=".75" width="3" x="9" y="16"/>
 <rect fill="#777f8a" height="3" rx=".75" ry=".75" width="3" x="9" y="22"/>
 <rect fill="#777f8a" height="3" rx=".75" ry=".75" width="3" x="9" y="28"/>
 <path d="m35 0h3v9h-3z" fill="#e4e4e4" overflow="visible"/>
 <path d="m48 32h-8v-8h-8v8h-8v8h8v8h8v-8h8z" fill="#859900"/>
</svg>
