<svg height="48" viewBox="0 0 48 48" width="48" xmlns="http://www.w3.org/2000/svg">
 <g fill="#268bd2" transform="matrix(.77272727 0 0 .78125 .45454546 -8.9375)">
  <path d="m6 14c-4 0-4 0-4 4v24c0 4 0 4 4 4h36c4 0 4 0 4-4 0-8.851562 0-18.882812 0-24 0-4 0-4-4-4z"/>
  <path d="m6 46h36c4 0 4 0 4-4v-24l-44 24c0 4 0 4 4 4z"/>
 </g>
 <path d="m5.0909095 27h27.8181815c3.090909 0 3.090909 0 3.090909-3.125v-18.75l-33.9999995 18.75c0 3.125 0 3.125 3.090909 3.125z" fill-opacity=".102"/>
 <path d="m32.909091 27h-27.8181815c-3.090909 0-3.090909 0-3.090909-3.125v-18.75l33.9999995 18.75c0 3.125 0 3.125-3.090909 3.125z" fill="#268bd2"/>
 <path d="m2.0000005 5.125l16.9999995 9.375 17-9.375c0-3.125 0-3.125-3.090909-3.125h-27.8181815c-3.090909 0-3.090909 0-3.090909 3.125z" fill="#ffffff" fill-opacity=".102"/>
 <g transform="matrix(.77272727 0 0 .77272727 10.454545 10.454546)">
  <path d="m6 46h36c4 0 4 0 4-4v-26l-22-14-22 14v26c0 4 0 4 4 4z" fill="#268bd2"/>
  <path d="m6 46h36c4 0 4 0 4-4v-26l-22-14-22 14v26c0 4 0 4 4 4z" fill-opacity=".102"/>
  <path d="m8 8v32h32v-32z" fill="#ffffff"/>
  <g fill="#268bd2">
   <path d="m6 46h36c4 0 4 0 4-4v-24l-44 24c0 4 0 4 4 4z"/>
   <path d="m42 46h-36c-4 0-4 0-4-4v-24l44 24c0 4 0 4-4 4z"/>
  </g>
  <path d="m42 46h-36c-4 0-4 0-4-4v-24l44 24c0 4 0 4-4 4z" fill="#ffffff" fill-opacity=".102"/>
 </g>
</svg>
