<svg height="48" viewBox="0 0 48 48" width="48" xmlns="http://www.w3.org/2000/svg">
 <g transform="matrix(2.5 0 0 2.5 4 3.9999998)">
  <path d="m24 4c-2.224566 0-4.356656.3785731-6.355469 1.0488281-.206408.8002067-1.004642 1.1388205-2.660156 1.1171875-.630932.3196121-1.243716.666487-1.833984 1.0488282-.34441.7128023-.637416 1.0065309-1.464844 1.046875-1.638088 1.2835245-3.0798724 2.8051632-4.2500001 4.5312502-.5171734.777651.056218 1.903945-1.8359375 3.367187-1.0271739 2.407849-1.5996094 5.056568-1.5996094 7.839844 0 6.652782 3.261073 12.530103 8.257812 16.166016-.002841.00096.011564.004684.009766.005859-.335611.219385 17.413843 4.142871 25.302734-1.509766.001029-.000952.002878-.001.003907-.001953 2.156985-1.998148 3.872628-4.457421 4.984375-7.232422.223898-1.335901.320895-1.886759.990234-3.222656.0003-.0014.001654-.002506.001953-.003906.289887-1.355364.449219-2.759244.449219-4.201172 0-.010474.000016-.02078 0-.03125.000394-.000335-.000394-.001618 0-.001953-.406654-1.07033-.35763-1.380986-.128906-2.212891-.000072-.000644.000072-.001309 0-.001953-.156472-1.398107-.466975-2.747215-.896485-4.042969.00026-.000591-.000259-.001362 0-.001953l-9.427734-11.285156c-.000788-.0004289-.001165-.0015243-.001953-.0019531-2.836585-1.5432941-6.088347-2.4199219-9.544922-2.4199219z" fill="#298fd9" transform="matrix(.4 0 0 .4 -1.6 -1.5999999)"/>
  <path d="m33.544922 6.4199219c-.524729.2320317-1.005594.5340929-1.375.8828125-.729954-1.2354436-.948904.7574323-2.101563.2578125-.791644-.0358662-3.030545 1.5325017-2.617187.40625 1.185582-.7163168-2.497164-1.1960799-3.228516.1601562-.440218.8163505-1.603637 1.6218302-.080078 1.578125.625243 1.7967599 1.005952-2.9232397 1.498047-1.0996093-.342015.9608345 1.703675.45502.058594 1.3144531-.355389.9342231-1.94712.8314231-2.027344.2890621-.548931.796303-.819298.330795-1.03125 1.191407-1.282252.245783-1.050759.576883-.822266 1.466797-.938576-.265523-2.086155 1.432415-.61914 1.845703 1.024478-1.137206 2.622898-2.92714 3.613281-.59961.80077-.228014-1.617884-2.309527.123047-1.140625.465705.629015 1.118854 2.477934 1.283203.679688 1.038076.299763.606519-2.289219 1.673828-.888672.420472-1.419286 2.147972 1.611671.298828.673828-2.075039-.05773-1.310848 1.676092.173828 1.394531-.09908 1.808548-2.277239.486005-3.107422 1.173828-1.452377-.0871-.995756-2.188793-2.398437-1.285156-1.994276-.169852-2.764754 1.74823-3.833984 3.080078-.48363 1.537915.015005 4.452809 1.779297 4.3125 1.403341-.46432 3.565605-.226598 2.980468 1.701172 1.339229 1.67894-.206465 3.804772.976563 5.587891.653794.900405.222156 2.643227 1.648437 1.794922 1.559942-.440859 1.678379-2.620226 2.449219-3.865235 1.335382-1.195955-.52831-3.528347 1.517578-4.597656.763461-.567166 1.652441-2.793761-.121094-1.960937-.849162-1.115929-2.262925-3.047381-2.085937-4.15625 1.123528.82298 1.446037 4.478475 3.173828 3.066406 1.652452-.58497 1.726928-2.397601-.066406-2.447266-.652565-.718186-.668049-1.931923.072265-.460937 1.756182.42025 4.004134.557251 4.173829 2.763671.05219 1.10638 1.292642 2.543143 1.220703.603516.122199-1.451316 2.37017-3.421934 2.669921-.876953.03326.189303.869757-.505842.660157.628906.464166-.0062 1.668578 2.420988 2.074219.492188.08339-.624485-1.381687-2.352789-.230469-2.126953.165987 1.320636.380312-.10292 1.05664-.550782-1.607534-4.849639-5.007178-8.8829184-9.429687-11.2890621zm-22.103516 2.3359375c-.770472-.081191-1.381865 3.1831846-2.3105466 1.9003906-.3284877.36579-.6441618.741476-.9453125 1.130859.764677.655475.518614 2.382765-.2753907.806641-.5468181.7269-.5042554.682883-.4746093.199219-.7151214 1.054894-1.3301495 2.181544-1.8359375 3.367187.0713023.015772.1387893.020731.2148437.048828 1.2498509-1.144035 1.603615 2.160125 1.8300781.316407.3702422-2.047565 2.8718008-2.963982 3.9589848-4.333985-.582277-1.189684 1.525701-1.169981 1.376953-.0625.868841.721201.783894-2.1449575.037109-1.402344-.214511-.9260763-.22179-.9995711-.974609-1.1933589-.214642-.5378911-.413174-.7574917-.601563-.7773437zm10.267578.8222656c-.528922.47866.189807 1.565946-.05664 1.792969 1.44129.0919.289331-1.233271.05664-1.792969zm-.673828 1.027344c-.786436.686586.754658.689729 0 0zm9.519532 1.603515c.006299.639546 1.695521 2.904618.15039 1.970704-.11431-.717039-1.468163-1.497072-.15039-1.970704zm-6.88086 1.03125c-.927398.783523.688824 1.079044 0 0zm-1.089844.650391c-.121327.28325.327902.08844 0 0zm1.876954.40625c-.519031.597775.980367.537231 0 0zm-17.0820318 3.609375c-.1439776-.006489-.2905963.012721-.4394531.025391-.2356795.576862 2.2598101 1.174069.8632813.099609-.1379013-.086044-.2798505-.118511-.4238282-.125zm-1.3300781.439453c-.0997679-.036194-.3046864.035584-.7011719.275391-.2649798.216924-.4882912.306169-.6757812.316406-.0637766.244026-.134757.484855-.1894531.732422.8929785.409126 1.6594492.983528 2.21875 1.878906 1.8667618.069049-.4055379-.631418-.3125-1.550781-.6926109-.460827-.04054-1.543762-.3398438-1.652344zm2.3652344 2.271485c-1.0807703.617709-1.1261935 2.397381-1.4257813 3.49414.071934 2.074577 2.4242601 3.077365 2.0625 5.148438.0512661 2.185123.3001898 4.53192 1.5839848 6.363281.548144.821688 1.507162.737749.636718-.220703-.197552-1.19331-.470587-2.706912.923828-3.175782-.633088-1.221806 1.315911-1.373603 1.228516-2.830078 1.504585-.983695 1.270575-2.951923 2.121094-4.423828-.754211-1.414979-2.89419-.9836-3.583984-2.722656-1.038789-.909301-2.0171428-1.729856-3.5468755-1.632812zm31.7148435.425781c-.307503 1.096425 2.098845 2.667863.708985.816406zm-3.126953.058593c-.910262.833991.647915 1.163254 0 0zm6.869141.650391c-1.49899.230646-2.260733 2.482629-.550782 2.623047.303923-.113566.517023-.2532.679688-.40625-.001152-.749737-.047404-1.488559-.128906-2.216797zm-3.832032.353516c-.084269 1.134054 1.608627 3.715624 3.457032 3.361328-1.531474-.439765-2.113985-1.981401-3.28125-3.130859zm-9.140624 4.230469c-.095151.841385-1.247809.981654-.980469 1.820312-.266546 3.242162 2.071161-1.609357.980469-1.820312zm12.652343 1.865234c-.767202.566302-1.455937 1.160422-1.083984 2.449219-.078621.372723-.029164.618824.091797.777343.415413-1.0369.753882-2.112369.992187-3.226562zm-30.474609 6.359375c-.738096.224796.706397.54417 0 0zm-.736328.162109c-.662575.63018.573934.522037 0 0z" fill="#70e963" transform="matrix(.4 0 0 .4 -1.6 -1.5999999)"/>
  <path d="m19.837891 5.0292969c-.68763-.00899-1.602084.0570412-2.19336.0195312-.919279.308259-1.805935.6844634-2.660156 1.1171875.113382.033719.197757.0674274.361328.0996094.724247.9356848-1.536029 2.471232.390625 2.953125 1.904174-1.2874988 3.650109-1.4933851 4.419922-3.4257812 1.008999-.6176375.532725-.7525494-.318359-.7636719zm5.416015.2714843c-.953331-.1067183-1.427404.8290012-.064453.4238282.229449.1093825.479653-.0551748.498047-.3066406-.151798-.0647716-.297404-.1019421-.433594-.1171876zm5.199219.4238282c-1.005316.0815-1.53137 2.0117088-.568359 1.1113281-.407587-.9851024 1.535072-.3115149 1.02539-1.0195313-.160234-.07744-.313414-.1034394-.457031-.0917968zm-17.302734 1.4902344c-.340973.2208616-.669847.4566286-.996094.6972656-.04255.053941-.119227.1104876-.224609.1679687-.08077.061334-.164342.1191136-.244141.1816407.709327.9810434 1.200451.447114 1.533203-.3378907.822731.1934795.490425-.2568357-.068359-.7089843zm7.072265.8144531c-.208315-.021766-.51084-.0243779-.929687.0019531-.714778 1.2463896 2.387897.150406.929687-.0019531zm-6.574218 30.2695311c-.284851.742713-1.378931.802366-.957032 1.664063-.134515.09743-.280625.161392-.433594.203125 3.299703 2.401051 7.348883 3.833984 11.742188 3.833984 5.246504 0 10.006892-2.03521 13.574219-5.339844-2.071236.02625-4.144195.326959-6.056641 1.128906.707495-1.241039-1.080705-.247238-1.664062-1.326171-2.06774 1.278279-4.525942 1.007965-6.878907 1.117187-1.898155-.203955-3.085267 1.548579-5.076171.796875-1.708682.112199-3.70252.45744-3.992188-1.814453z" fill="#e6e6e6" transform="matrix(.4 0 0 .4 -1.6 -1.5999999)"/>
 </g>
</svg>
