<svg viewBox="0 0 48 48" xmlns="http://www.w3.org/2000/svg">
 <path d="m24 20.5c1.932 0 3.5 1.568 3.5 3.5 0 1.932-1.568 3.5-3.5 3.5-1.932 0-3.5-1.568-3.5-3.5 0-1.932 1.568-3.5 3.5-3.5z" fill="none" stroke="#888888" stroke-linejoin="round"/>
 <path d="m24 4c-11.09 0-20 8.914-20 20 0 11.09 8.914 20 20 20 11.09 0 20-8.914 20-20 0-11.09-8.914-20-20-20m0 12c4.406 0 8 3.594 8 8 0 4.406-3.594 8-8 8-4.406 0-8-3.594-8-8 0-4.406 3.594-8 8-8z" fill="#d1d1d1"/>
 <path d="m24 3c-11.622 0-21 9.378-21 21 0 11.622 9.378 21 21 21 11.622 0 21-9.378 21-21 0-11.622-9.378-21-21-21m0 2c10.55 0 19 8.45 19 19 0 10.55-8.45 19-19 19-10.55 0-19-8.45-19-19 0-10.55 8.45-19 19-19m0 10c-4.95 0-9 4.05-9 9 0 4.95 4.05 9 9 9 4.95 0 9-4.05 9-9 0-4.95-4.05-9-9-9zm0 2c3.863 0 7 3.137 7 7 0 3.863-3.137 7-7 7-3.863 0-7-3.137-7-7 0-3.863 3.137-7 7-7z" fill="#888888"/>
 <path d="m44 7.839c0 0 .001-1.237-2.757-2.83-2.661-1.537-3.903-.861-3.903-.861l-14.352 24.859-.793 8.993 7.385-5.187" fill="#ff6f03"/>
 <path d="m22.989 29.01l-.793 8.993 7.385-5.187" fill="#ffc13d"/>
 <path d="m22.549 33.806l-.357 4.192 3.457-2.403m-3.1-1.79" fill="#2d2d2d"/>
</svg>
