<svg height="48" viewBox="0 0 48 48" width="48" xmlns="http://www.w3.org/2000/svg">
 <g fill="#268bd2">
  <path d="m10.000203 22h-4.0002036v-4h4.0002036v-4.772875l4.999816-.775027v5.547902h6.999981v4h-6.999981v7.115177c0 .67169.06459 1.214209.193757 1.627556.129171.413348.310011.736276.542519.968784.232508.232508.516684.387513.852529.465016.335845.0775.710442.116254 1.123789.116254.439182 0 .839613-.01292 1.201292-.03875.387513-.02583.749193-.06458 1.085038-.116254.361679-.0775.723359-.18084 1.085038-.310011.387513-.129171.713651-.297094 1.152833-.503767l.658772 4.107642c-.878363.361679-1.98042.620022-3.013789.775027-1.007535.155005-1.989236.232508-2.945102.232508-1.110872 0-2.092573-.09042-2.945103-.271259-.852529-.180839-1.429698-.529601-2.023885-1.046286-.594187-.516685-1.192476-1.240043-1.502487-2.170076-.310011-.955867-.465017-2.19591-.465017-3.720129z"/>
  <path d="m42 23.961248q0 6.355221-2.131324 9.455328-2.131324 3.100108-6.200215 3.100108-4.068892 0-6.200216-3.100108-2.131324-3.100107-2.131324-9.455328 0-6.277718 2.170076-9.377826 2.170075-3.100108 6.161464-3.100108 4.068891 0 6.200215 3.100108 2.131324 3.061356 2.131324 9.377826zm-4.301399 0q0-4.107643-1.046286-6.238967-1.007535-2.170075-2.983854-2.170075-1.937567 0-2.983854 2.170075-1.046286 2.131324-1.046286 6.238967 0 4.146394 1.046286 6.316469 1.046287 2.131324 2.983854 2.131324 1.976319 0 2.983854-2.131324 1.046286-2.170075 1.046286-6.316469zm-1.860065-.387514q0 1.046287-.620021 1.821314-.58127.736275-1.511303.736275-1.007535 0-1.588805-.736275-.58127-.775027-.58127-1.821314 0-1.046286.58127-1.821313.58127-.775027 1.588805-.775027.930033 0 1.511303.775027.620021.775027.620021 1.821313z"/>
 </g>
</svg>
