<?xml version="1.0" encoding="UTF-8" standalone="no"?>
<svg xmlns="http://www.w3.org/2000/svg" height="48" viewBox="0 0 48 48" width="48" version="1.1">
 <path fill="#8a8a8a" d="m6.289062 4c-1.144531 0-2.289062 1.144531-2.289062 2.289062v35.488282c0 1.078125 1.144531 2.222656 2.222656 2.222656h35.554688c1.078125 0 2.222656-1.144531 2.222656-2.222656v-35.554688c0-1.078125-1.144531-2.222656-2.222656-2.222656z"/>
 <path fill-opacity=".196" fill="#ffffff" d="m6.289062 4c-1.144531 0-2.289062 1.144531-2.289062 2.289062v13.710938c4.441406 0 35.558594 0 40 0v-13.777344c0-1.078125-1.144531-2.222656-2.222656-2.222656z"/>
 <path fill="#ffffff" d="m24 8h-4v-4h4v8h-4v4h4v8.03125l-4-.03125v8h8v-8l-4 .03125v-4.03125h4v-4h-4v-4h4v-4z"/>
 <path fill-rule="evenodd" fill="#4c4c4c" d="m29.183594 16.707031l13.75 11c2.757812 2.757813 2.75 2.75 0 5.5l-13.75 11c-1.914063 1.535157-1.914063.964844-1.914063-2.828125-.039062-1.375-.085937-2.921875 0-4.921875-.03125 0 .03125 0 0 0-13.664062 0-20.085937-8.75-20-19.835937 5.414063 5.585937 11.75 8.007812 20 7.835937 0-1.96875-.039062-2.671875 0-4 0-2 0-5.109375 1.914063-3.75z"/>
</svg>
