<svg xmlns="http://www.w3.org/2000/svg" height="48" width="48">
 <path fill="#9b9b9b" d="M6.29 4C5.144 4 4 5.145 4 6.29v35.487C4 42.855 5.145 44 6.223 44h35.554C42.855 44 44 42.855 44 41.777V6.223C44 5.145 42.855 4 41.777 4z"/>
 <path fill-opacity=".196" fill="#fff" d="M6.29 4C5.144 4 4 5.145 4 6.29V20h40V6.223C44 5.145 42.855 4 41.777 4z"/>
 <path fill="#fff" d="M24 8h-4V4h4v8h-4v4h4v8.03L20 24v8h8v-8l-4 .03V20h4v-4h-4v-4h4V8z"/>
 <path fill="#828282" d="M46 30h-8v-8h-8v8h-8v8h8v8h8v-8h8z"/>
</svg>
