<svg xmlns="http://www.w3.org/2000/svg" height="48" width="48">
 <path fill="#9b9b9b" d="M6.29 4C5.144 4 4 5.145 4 6.29v35.487C4 42.855 5.145 44 6.223 44h35.554C42.855 44 44 42.855 44 41.777V6.223C44 5.145 42.855 4 41.777 4z"/>
 <path fill-opacity=".196" fill="#fff" d="M6.29 4C5.144 4 4 5.145 4 6.29V20h40V6.223C44 5.145 42.855 4 41.777 4z"/>
 <path fill="#fff" d="M24 8h-4V4h4v8h-4v4h4v8.03L20 24v8h8v-8l-4 .03V20h4v-4h-4v-4h4V8z"/>
 <path fill-rule="evenodd" fill="#757575" d="M29.184 16.707l13.75 11c2.757 2.758 2.75 2.75 0 5.5l-13.75 11c-1.914 1.535-1.914.965-1.914-2.828-.04-1.376-.086-2.923 0-4.923-.032 0 .03 0 0 0-13.665 0-20.086-8.75-20-19.836 5.414 5.587 11.75 8.01 20 7.837 0-1.97-.04-2.672 0-4 0-2 0-5.11 1.914-3.75z"/>
</svg>
