<svg viewBox="0 0 48 48" xmlns="http://www.w3.org/2000/svg">
 <g fill="#888888" transform="matrix(2.708382 0 0 2.6280072 2 3.2941173)">
  <path d="m2.187 1.791l-2.187 6.088h1.01l.58-1.649h2.144l.589 1.649h1.068l-2.187-6.088zm1.219 3.478h-1.489l.748-2.215z"/>
  <path d="m7.791 2.806c.955 0 1.203.273 1.203.728 0 .481-.324.756-1.16.756-.296 0-.591 0-.887 0v-1.484zm-.085 2.368c1.262 0 1.731.326 1.731.867 0 .661-.64.823-1.723.823h-.768v-1.681zm-1.798-3.383v6.087h1.917c2.235 0 2.661-1.03 2.661-1.709 0-.592-.409-1.305-1.245-1.46.546-.335.776-.79.776-1.322 0-.541-.316-1.633-2.038-1.597z"/>
  <path d="m14.299 1.791c-1.965 0-3.222 1.314-3.222 3.03 0 1.692 1.196 3.057 3.161 3.057.559 0 1.214-.129 1.851-.395l.157-.06-.349-.85-.157.06c-.463.18-.926.275-1.31.275-1.415 0-2.253-.833-2.253-2.095 0-1.133.786-2.087 2.096-2.087.279 0 .707 0 1.371.24l.166.06.349-.842-.157-.06c-.637-.249-1.231-.335-1.703-.335"/>
 </g>
 <path d="m24 34l16-16 6 6-22 22c-4.586-4.586-9.414-9.422-14-14l6-6z" fill="#859900"/>
</svg>
