<svg height="48" viewBox="0 0 48 48" width="48" xmlns="http://www.w3.org/2000/svg">
 <path d="m7.0742403 5.9824521c-.5859356.05854-1.0781233.6079136-1.0742173 1.1972632v33.6230197c0 .628381.5703117 1.197265 1.1992172 1.197265h33.6015428c.628905 0 1.199217-.568884 1.199217-1.197265v-33.6230197c0-.6283796-.570312-1.1972632-1.199217-1.1972632zm31.9257637 1.9999967c.552284 0 .999999.4477157.999999.9999993 0 .5522836-.447715.9999993-.999999.9999993-.552284 0-.999999-.4477157-.999999-.9999993 0-.5522836.447715-.9999993.999999-.9999993zm-30.9999823 3.9999892h31.9999813v27.982407h-31.9999813z" fill="#888888"/>
 <path d="m8.000001 24.000011h31.999979v3.9999974h-31.999979z" fill="#268bd2"/>
</svg>
