<svg height="48" width="48" xmlns="http://www.w3.org/2000/svg">
 <path d="m3.0024378 4.3437926l0 7.9187574 0 31.577769 2.1092619 2.159681 37.7766033 0 2.109261-2.159681 0-31.577769 0-7.9187574-20.997564 0z" fill="#aaaaaa" overflow="visible"/>
 <path d="m5.9999999 13l0 27 36.0000001 0 0-27z" fill="#f4f4f4" overflow="visible"/>
 <path d="m4.406175 3l-1.4061747.7031403 0 2.2968597 12.2553517 0 13.754145 0 15.990503 0 0-2.2968583-1.406175-.7031402-14.584328 0-13.754145 0z" fill="#cccccc" fill-opacity=".941" overflow="visible"/>
 <path d="m10 0h3v9h-3z" fill="#e4e4e4" overflow="visible"/>
 <path d="m26.248579 14.51036c-1.048399.120683-.683699 1.322001-.749529 2.04876v3.946057h-17.2391594c-1.0483978.120682-.6836981 1.322-.7495286 2.048759v15.186352c.1207116 1.048152 1.3223124.683538 2.0492428.749352h12.1918022c1.048397-.120683.683698-1.322.749529-2.04876v-3.94604h17.239174c1.048397-.120683.683698-1.322.749528-2.048761v-15.186366c-.120712-1.048152-1.322312-.683538-2.049243-.749353z" fill="#dc1f1e" overflow="visible"/>
 <rect fill="#777f8a" height="3" rx=".75" ry=".75" width="3" x="36" y="34"/>
 <rect fill="#777f8a" height="3" rx=".75" ry=".75" width="3" x="27" y="34"/>
 <rect fill="#777f8a" height="3" rx=".75" ry=".75" width="3" x="18" y="34"/>
 <rect fill="#777f8a" height="3" rx=".75" ry=".75" width="3" x="36" y="16"/>
 <rect fill="#777f8a" height="3" rx=".75" ry=".75" width="3" x="27" y="16"/>
 <rect fill="#777f8a" height="3" rx=".75" ry=".75" width="3" x="18" y="16"/>
 <rect fill="#777f8a" height="3" rx=".75" ry=".75" width="3" x="36" y="22"/>
 <rect fill="#777f8a" height="3" rx=".75" ry=".75" width="3" x="27" y="22"/>
 <rect fill="#777f8a" height="3" rx=".75" ry=".75" width="3" x="18" y="22"/>
 <rect fill="#777f8a" height="3" rx=".75" ry=".75" width="3" x="36" y="28"/>
 <rect fill="#777f8a" height="3" rx=".75" ry=".75" width="3" x="27" y="28"/>
 <rect fill="#777f8a" height="3" rx=".75" ry=".75" width="3" x="18" y="28"/>
 <rect fill="#777f8a" height="3" rx=".75" ry=".75" width="3" x="9" y="34"/>
 <rect fill="#777f8a" height="3" rx=".75" ry=".75" width="3" x="9" y="16"/>
 <rect fill="#777f8a" height="3" rx=".75" ry=".75" width="3" x="9" y="22"/>
 <rect fill="#777f8a" height="3" rx=".75" ry=".75" width="3" x="9" y="28"/>
 <path d="m35 0h3v9h-3z" fill="#e4e4e4" overflow="visible"/>
</svg>
