<svg height="48" viewBox="0 0 48 48" width="48" xmlns="http://www.w3.org/2000/svg">
 <g fill="#aaaaaa" transform="matrix(1.3898305 0 0 1.3898305 -9.3559322 -9.3559322)">
  <path d="m35.367188 19.214844c-1.96875-4.390625-6.375-7.214844-11.339844-7.214844-5.078125 0-9.726563 3.089844-11.554688 7.675781l3.851563 1.445313c1.21875-3.066406 4.316406-5.117188 7.703125-5.117188 3.265625 0 6.15625 1.832032 7.496094 4.695313l-2.808594 1.089843 7.183594 4.019532 2.101562-7.609375z"/>
  <path d="m24.027344 32.003906c-3.242188 0-6.191406-1.894531-7.511719-4.738281l2.765625-1.035156-7.105469-3.933594-2.175781 7.410156 2.652344-.996093c1.929687 4.378906 6.441406 7.289062 11.375 7.289062 5.097656 0 9.609375-2.964844 11.5-7.554688l-3.832032-1.480468c-1.257812 3.0625-4.269531 5.039062-7.667968 5.039062z"/>
 </g>
</svg>
