<svg height="48" viewBox="0 0 48 48" width="48" xmlns="http://www.w3.org/2000/svg">
 <path d="m16 10c0-2.210938-1.789062-4-4-4-2.210938 0-4 1.789062-4 4 0 2.210938 1.789062 4 4 4 2.210938 0 4-1.789062 4-4z" fill="#268bd2" fill-rule="evenodd"/>
 <path d="m30 42c .609375 0 1.191406-.261719 1.625-.6875l7.6875-7.4375c.425781-.402344.667969-.976562.6875-1.5625.027344-.929688-.5-1.761719-1.375-2.125-.878906-.363281-1.902344-.167969-2.5625.5l-4.0625 3.9375v-28.625h-4v28.625l-4.0625-3.9375c-.902344-.875-2.351562-.875-3.25 0-.902344.875-.902344 2.3125 0 3.1875l7.6875 7.4375c.429688.425781 1.011719.6875 1.625.6875z" fill="#dc322f"/>
 <g fill="#268bd2" fill-rule="evenodd">
  <path d="m16 22c0-2.210938-1.789062-4-4-4-2.210938 0-4 1.789062-4 4 0 2.210938 1.789062 4 4 4 2.210938 0 4-1.789062 4-4z"/>
  <path d="m16 34c0-2.210938-1.789062-4-4-4-2.210938 0-4 1.789062-4 4 0 2.210938 1.789062 4 4 4 2.210938 0 4-1.789062 4-4z"/>
 </g>
</svg>
