<svg height="512" viewBox="0 0 512 512" width="512" xmlns="http://www.w3.org/2000/svg">
 <text x="-1160.48" y="549.52">
  
 </text>
 <text x="-454.14" y="393.89">
  
 </text>
 <text x="-420.77" y="385.77">
  
 </text>
 <text x="-163.95" y="117.32">
  
 </text>
 <text x="-474.79" y="484.09">
  
 </text>
 <text x="231.56" y="328.46">
  
 </text>
 <text x="264.93" y="320.34">
  
 </text>
 <text x="-1157.49" y="509.78">
  
 </text>
 <text x="-451.15" y="354.15">
  
 </text>
 <text x="-417.78" y="346.02">
  
 </text>
 <text transform="matrix(.8660254 .5 -.5 .8660254 0 0)" x="-1065.35" y="389.69">
  
 </text>
 <text transform="matrix(.8660254 .5 -.5 .8660254 0 0)" x="-359.01" y="234.06">
  
 </text>
 <text transform="matrix(.8660254 .5 -.5 .8660254 0 0)" x="-325.63" y="225.94">
  
 </text>
 <text transform="matrix(.8660254 .5 -.5 .8660254 0 0)" x="-68.82" y="-42.49">
  
 </text>
 <text x="729.64" y="231.36">
  
 </text>
 <text x="1310.91" y="151.36">
  
 </text>
 <text x="239.33" y="-29.9">
  
 </text>
 <text x="1337.38" y="-246.37">
  
 </text>
 <text x="1918.65" y="-326.37">
  
 </text>
 <text x="1529.53" y="-798.77">
  
 </text>
 <text x="2110.79" y="-878.78">
  
 </text>
 <text x="277.99" y="535.94">
  
 </text>
 <path d="m258 92.265625c-.29198 14.175035.57282 28.578095-.41211 42.617185-4.3636 3.02698-10.3514.0784-15.37349 1.59729-57.14532 5.07896-109.00604 47.40447-124.74111 102.70123-15.91693 52.59338 1.11069 113.7289 42.99154 149.6068 38.5621 34.18362 95.9964 45.75089 144.43916 27.57537 47.02972-16.88861 84.22218-59.33218 92.93781-108.78538 1.59479-8.29743 2.40463-16.73307 2.57812-25.17773-14.9362 0-29.87239 0-44.80859 0-.0164 47.22762-38.509 90.89633-85.29435 96.6688-41.17967 6.21369-85.16153-16.00066-103.35867-53.80798-17.98102-35.55894-12.70652-81.76906 14.85866-111.3293 18.88791-20.72246 46.90744-34.3419 75.07756-32.63503 3.40327 4.49801-.34602 10.57143 1.10547 15.74023 0 10.3431 0 20.6862 0 31.0293 38.70359-23.2234 77.4094-46.44311 116.11328-69.66602-38.70394-23.22347-77.40963-46.44401-116.11328-69.667968 0 1.177734 0 2.355469 0 3.533203z" fill="#aaaaaa" fill-opacity=".941" overflow="visible"/>
</svg>
