<svg height="48" viewBox="0 0 48 48" width="48" xmlns="http://www.w3.org/2000/svg">
 <path d="m10 6c-6 0-6 4-6 5.929688v34.070312h40v-34c0-2 0-6-6-6z" fill="#ffffff"/>
 <path d="m10 6c-6 0-6 4-6 5.929688v34.070312h40v-34c0-2 0-6-6-6zm0 2h28c4 0 4.125 2.003906 4 4v32h-36v-32c0-2 0-4 4-4z" fill="#888888"/>
 <path d="m6 20h12v24h-12z" fill-opacity=".102"/>
 <path d="m6 18v2h12v24h2v-24h22v-2z" fill="#888888" fill-opacity=".902"/>
 <path d="m47.970416 42.343146l-5.656854-5.656854 5.656854-5.656854-5.656854-5.656854-5.656854 5.656854-5.656854-5.656854-5.656854 5.656854 5.656854 5.656854-5.656854 5.656854 5.656854 5.656854 5.656854-5.656854 5.656854 5.656854z" fill="#dc322f"/>
</svg>
