<svg height="512" viewBox="0 0 512 512" width="512" xmlns="http://www.w3.org/2000/svg">
 <text fill="#aaaaaa" x="-1160.48" y="549.52">
  
 </text>
 <text fill="#aaaaaa" x="-454.14" y="393.89">
  
 </text>
 <text fill="#aaaaaa" x="-420.77" y="385.77">
  
 </text>
 <text fill="#aaaaaa" x="-163.95" y="117.32">
  
 </text>
 <text fill="#aaaaaa" x="-474.79" y="484.09">
  
 </text>
 <text fill="#aaaaaa" x="231.56" y="328.46">
  
 </text>
 <text fill="#aaaaaa" x="264.93" y="320.34">
  
 </text>
 <text fill="#aaaaaa" x="-1157.49" y="509.78">
  
 </text>
 <text fill="#aaaaaa" x="-451.15" y="354.15">
  
 </text>
 <text fill="#aaaaaa" x="-417.78" y="346.02">
  
 </text>
 <text fill="#aaaaaa" transform="matrix(.8660254 .5 -.5 .8660254 0 0)" x="-1065.35" y="389.69">
  
 </text>
 <text fill="#aaaaaa" transform="matrix(.8660254 .5 -.5 .8660254 0 0)" x="-359.01" y="234.06">
  
 </text>
 <text fill="#aaaaaa" transform="matrix(.8660254 .5 -.5 .8660254 0 0)" x="-325.63" y="225.94">
  
 </text>
 <text fill="#aaaaaa" transform="matrix(.8660254 .5 -.5 .8660254 0 0)" x="-68.82" y="-42.49">
  
 </text>
 <text fill="#aaaaaa" x="729.64" y="231.36">
  
 </text>
 <text fill="#aaaaaa" x="1310.91" y="151.36">
  
 </text>
 <text fill="#aaaaaa" x="239.33" y="-29.9">
  
 </text>
 <text fill="#aaaaaa" x="1337.38" y="-246.37">
  
 </text>
 <text fill="#aaaaaa" x="1918.65" y="-326.37">
  
 </text>
 <text fill="#aaaaaa" x="1529.53" y="-798.77">
  
 </text>
 <text fill="#aaaaaa" x="2110.79" y="-878.78">
  
 </text>
 <text fill="#aaaaaa" x="277.99" y="535.94">
  
 </text>
 <path d="m256 62.934176l0 55.161484c-91.39476 0-165.485081 74.09032-165.485081 165.48508 0 91.39507 74.090321 165.48508 165.485081 165.48508 91.39508 0 165.48508-74.09001 165.48508-165.48509l-55.1618 0c0 60.92995-49.39333 110.32329-110.32328 110.32329-60.92995 0-110.32328-49.39334-110.32328-110.32328 0-60.92994 49.39333-110.32328 110.32328-110.32328l0 55.16181 137.90419-82.74271-137.90419-82.742384z" fill="#aaaaaa" overflow="visible"/>
</svg>
