<svg height="48" viewBox="0 0 48 48" width="48" xmlns="http://www.w3.org/2000/svg">
 <path d="m7 7h34v34h-34z" fill="#ffffff"/>
 <path d="m7.0742404 5.9824561c-.5859377.05854-1.0781234.6079136-1.0742174 1.1972633v33.6230216c0 .628379.5703117 1.197259 1.1992173 1.197259h33.6015427c.628905 0 1.199217-.56888 1.199217-1.197259v-33.6230196c0-.6283816-.570312-1.1972653-1.199217-1.1972653zm31.9257636 1.9999968c.552283 0 .999999.4477157.999999.9999994 0 .5522836-.447716.9999993-.999999.9999993-.552284 0-1-.4477157-1-.9999993 0-.5522837.447716-.9999994 1-.9999994zm-30.9999842 3.9999891h31.9999832v27.982419h-31.9999832z" fill="#888888"/>
 <path d="m46 30h-8v-8h-8v8h-8v8h8v8h8v-8h8z" fill="#aaaaaa"/>
</svg>
