<svg height="48" viewBox="0 0 48 48" width="48" xmlns="http://www.w3.org/2000/svg">
 <path d="m10 10h28c7.9375 0 8 0 8 8v12c0 8 0 8-8 8-4 0-4 0-7.078125 0 1.035156.882812 1.777344 2.191406 1.238281 3.621094-.574218 2.074218-3.570312 2.59375-4.855468.890625-2.394532-2.414063-3.722657-4.777344-6.054688-7.253907 2.472656-2.613281 3.929688-5.128906 6.472656-7.667968 1.671875-1.542969 4.769532-.15625 4.636719 2.144531.054687 1.199219-.691406 1.503906-1.46875 2.265625 3.109375 0 3.109375 0 7.109375 0 2 0 2 0 2-2v-12c0-2 0-2-2-2-6.304688 0-28 0-28 0-2 0-2 0-2 2v12c0 2 0 2 2 2h4c2 0 2 0 2.023438 2.058594-.023438.644531-.011719 1.320312-.023438 1.941406 0 2 0 2-2 2h-4c-8 0-8 0-8-8v-12c0-8-.0625-8 8-8z" fill="#268bd1" transform="matrix(0 -1 1 0 0 47.999985)"/>
</svg>
