<svg height="48" viewBox="0 0 48 48" width="48" xmlns="http://www.w3.org/2000/svg">
 <path d="m14.011564 9.7032176c-1.597682 5.6602484-1.632838 13.4924064 1.210956 17.3557514 1.195332 1.835967 2.828169 4.246163 1.550806 6.437604-2.363319 3.421931-6.304786 5.269617-9.8946866 7.132928-1.218769.125002-.7812622 1.253927-.8593884 2.089878-.00391.660167-.2031282 1.527369.7734501 1.214864h34.4145999c.976578.312505.777356-.554697.77345-1.214864-.07813-.835951.359381-1.964876-.859388-2.089878-3.589901-1.863311-7.531368-3.710997-9.894687-7.132928-1.277363-2.191441.355475-4.601637 1.550806-6.437604 3.003953-4.203193 3.394584-13.355686 1.203144-17.4807534-1.9805-3.5781831-3.980531-5.4414944-9.980625-5.5782156-6.007906.242192-8.000125 2.0000325-9.988437 5.7032176z" fill="#aaaaaa"/>
</svg>
