<svg xmlns="http://www.w3.org/2000/svg" viewBox="0 0 24 24" width="24" height="24"><path d="M0 2.5V2h99l.125.375q.125.375.5.5T100.5 3h2q.5 0 .875-.125t.5-.5L104 2h6v.5q0 .5-.5.5h-4q-.5 0-.875.125t-.5.5Q104 4 103.5 4h-3q-.5 0-.875-.125T99 3.5t-.625-.375Q98 3 97.5 3t-.875.125q-.375.125-.375.375t.375.375Q97 4 97.5 4t.875.125q.375.125.5.5T98.5 5h-2q-.5 0-.875.125t-.5.5Q95 6 94.5 6h-2q-.5 0-.625-.375t-.5-.5Q91 5 90.5 5t-.875.125q-.375.125-.375.375t.375.375Q90 6 90.5 6t.5.5q0 .5-.5.5H89l-.125-.375q-.125-.375-.5-.5T87.5 6q-.5 0-.875.125t-.375.375q0 .25.375.375l.75.25q.375.125.5.5T87.5 8H86l-.125-.375q-.125-.375-.5-.5T84.5 7q-.5 0-.875.125T83 7.5t-.625.375Q82 8 81.5 8t-.875.125q-.375.125-.375.375t.375.375Q81 9 81.5 9t.875-.125Q82.75 8.75 83 8.5t.625-.375Q84 8 84.5 8h.5v.5q0 .5-.5.5H84l-.375.125Q83.25 9.25 83 9.5t-.625.375L82 10h-1l-.375.125q-.375.125-.625.375t-.625.375L79 11l-.375.125q-.375.125-.625.375t-.625.375L77 12h-1l-.125-.375q-.125-.375-.5-.5T74.5 11q-.5 0-.875.125t-.5.5Q73 12 72.5 12t-.875.125q-.375.125-.5.5T70.5 13q-.5 0-.875.125t-.5.5Q69 14 68.5 14t-.875.125q-.375.125-.5.5L67 15l-.375.125q-.375.125-.375.375t.375.375L67 16l-.125.375q-.125.375-.5.5L66 17l-.125-.375q-.125-.375-.5-.5t-.75 0q-.375.125-.625.375t-.625.375l-.75.25q-.375.125-.5.5L62 18h-.5q-.5 0-.875.125t-.5.5L60 19l-.375.125q-.375.125-.625.375t-.625.375l-.75.25q-.375.125-.5.5L57 21l-.375.125q-.375.125-.625.375t-.625.375l-.75.25q-.375.125-.484.516l-.11.39.11-.01.11-.017-.22.03q-.215.034-.402.096l-.188.062.28-.094L54 23l-.375.125q-.375.125-.375.375t.375.375L54 24l-.28-.094-.282-.094.187.063q.188.063.406.094l.22.03-.11-.02-.11-.014-.14.39q-.14.39-.39.64l-.5.5-.5.5-.5.5q-.25.25-.622.375-.374.126-.377-.37V26l.376-.125q.375-.125.5-.5L52 25l.375-.125q.375-.125.375-.375t-.375-.375q-.375-.125-.75 0t-.5.5L51 25l-.375.125q-.375.125-.625.375l-.5.5q-.25.25-.25.5t.375.375L50 27l-.125.375q-.125.375-.375.625l-.5.5-.5.5-.5.5q-.25.25-.625.375L47 30v-1l.375-.125q.375-.125.625-.375l.5-.5q.25-.25.25-.5t-.25-.25q-.25 0-.5.25t-.625.375l-.75.25q-.375.125-.5.5L46 29l-.375.125q-.375.125-.375.375t.375.375L46 30v.5q0 .5-.375.625T45 31.5l-.5.5-.5.5-.5.5-.5.5-.5.5-.5.5-.5.5-.5.5-.5.5-.5.5-.5.5-.5.5-.5.5-.5.5-.5.5-.5.5-.5.5-.5.5-.5.5-.5.5-.5.5-.5.5-.5.5-.5.5-.5.5-.5.5-.5.5-.5.5-.5.5-.5.5-.5.5-.5.5-.5.5q-.25.25-.375.625L28 49l-.125.375q-.125.375-.375.625l-.5.5-.5.5-.5.5-.5.5q-.25.25-.375.625L25 53l-.125.375q-.125.375-.375.625l-.5.5-.5.5-.5.5-.5.5q-.25.25-.375.625L22 57l-.125.375q-.125.375-.375.625l-.5.5-.5.5q-.25.25-.375.625L20 60l-.125.375q-.125.375-.375.625l-.5.5-.5.5-.25.25.188-.188.187-.187L18.5 62q-.125.125-.22.28l-.093.157.047-.078.047-.08-.26-.3-.267-.296-.062.032-.06.03.124-.063q.126-.062.25-.187l.126-.125-.19.19-.186.187.25-.25.5-.5q.25-.25.376-.625t0-.75q-.125-.375-.375-.375t-.374.375l-.25.75q-.123.375-.373.625t-.25.5v.25-.375.125q0 .125.064.188l.063.062-.03-.03-.032-.032-.28.28q-.28.282-.03.532.25.25.624.375L18 63l-.125.375q-.125.375-.375.625t-.375.625L17 65l-.125.375q-.125.375-.375.625t-.375.625L16 67l-.125.375q-.125.375-.375.625t-.375.625L15 69l-.375.125q-.375.125-.5.5l-.25.75q-.125.375-.375.625t-.375.625L13 72l-.125.375q-.125.375-.375.625t-.375.625L12 74l-.125.375q-.125.375-.375.625t-.375.625L11 76v1-.75.25q0 .25-.03.47l-.033.218.016-.11.016-.11-.36.14q-.36.142-.488.517Q9.997 78 10 78.5v.5l-.125.375Q9.75 79.75 9.5 80t-.375.625L9 81l-.125.375Q8.75 81.75 8.5 82t-.375.625L8 83v1l-.125.375Q7.75 84.75 7.5 85t-.375.625L7 86v1-.75.25q0 .25-.03.47l-.032.218.015-.11.016-.11-.36.14q-.36.142-.488.517Q5.997 88 6 88.5V90v-.75.25q0 .25-.03.47l-.032.218.015-.11.016-.11-.36-.11q-.36-.108-.488-.483l-.25-.75q-.125-.375-.375-.375t-.376.375q-.124.375 0 .75.126.375.38.625.253.25.375.625L5 91v2l-.125.375Q4.75 93.75 4.5 94t-.375.625L4 95v2-.75.25q0 .25-.03.47l-.033.218.016-.11.016-.11-.36.14q-.36.142-.488.517Q2.997 98 3 98.5v1.5l-.125.375q-.125.375-.375.625t-.375.625Q2 102 2 102.5v2.5l-.125.375q-.125.375-.375.625t-.375.625L1 107v5-.75.25q0 .25-.03.47l-.032.218.015-.11.016-.11-.49.016L0 112v-6l.375-.125q.375-.125.5-.5T1 104.5v-1q0-.5-.125-.875l-.125-.375.094.28.094.282-.063-.187q-.063-.188-.188-.313l-.125-.124.063.062.063.063.28-.282q.282-.28.032-.53-.25-.25-.625-.372L0 101V2.5m1.125 97.875q.125.375.375.375t.375-.375Q2 100 2 99.5t-.125-.875l-.125-.375.094.28.093.282-.062-.187q-.063-.188-.156-.28l-.098-.095.047.047.047.047.264-.297q.27-.297.02-.547-.25-.25-.625-.375t-.5.25q-.125.375.14.672l.266.297.05-.047.048-.047-.094.094q-.093.094-.155.28l-.064.19.094-.283.093-.28-.125.378Q1 99 1 99.5t.125.875m1-4q.125.375.375.375t.375-.375q.125-.375 0-.75l-.125-.375.094.28.094.282-.063-.187q-.063-.188-.156-.28l-.098-.095.047.047.047.047.264-.297q.267-.297.14-.672L3 94h-.5q-.5 0-.625.375t.14.672l.266.297.05-.047.048-.047-.094.094q-.092.094-.155.28l-.064.19.094-.283.093-.28-.125.378q-.125.375 0 .75m.75-2.75L3 94l.375-.125Q3.75 93.75 4 93.5t-.016-.547l-.265-.297-.05.047-.048.047.094-.094q.092-.094.155-.28l.064-.19-.094.283-.093.28.125-.378q.125-.375 0-.75l-.125-.375.094.28.096.28-.063-.186q-.063-.187-.156-.28l-.095-.094.048.046.046.047.264-.298q.27-.296.02-.546-.25-.25-.625-.375-.375-.124-.5.25-.125.376.14.673l.266.297.05-.046.046-.047-.094.094q-.09.096-.154.28l-.063.19.094-.28.093-.28-.124.375q-.126.375 0 .75l.124.375-.093-.28-.093-.28.063.185q.063.188.156.28l.095.095-.046-.046-.046-.047-.264.297q-.266.297-.14.672m2.25-7.25q.124.375.374.375t.375-.372q.123-.375 0-.75-.125-.375-.38-.376-.25 0-.376.376-.125.375 0 .75M6 84.5q.25.25.5.25t.5-.25q.25-.25-.03-.53l-.282-.282-.032.03-.03.032.06-.063q.064-.062.064-.187v-.125.375-.5.375-.125q0-.125-.063-.188l-.062-.062.03.03.032.032.282-.28q.28-.282.03-.532-.25-.25-.628-.375-.376-.125-.5.25-.125.375.156.656l.28.285.033-.03.03-.032-.06.064q-.063.062-.063.187v.126-.376.5-.374.125q0 .126.062.19l.06.06-.03-.03-.03-.03-.283.28q-.28.28-.03.53m1.126-3.124q.125.377.375.377t.377-.374l.25-.75Q8.25 80.25 8.5 80t.375-.625q.125-.375 0-.75T8.5 78.25q-.25 0-.375.375l-.25.75Q7.75 79.75 7.5 80t-.375.625q-.125.375 0 .75M9.25 76.5q0 .25.25.25t.25-.25v-.25.375-.125q0-.125-.063-.188l-.062-.062.03.03.033.032.28-.28q.282-.282.032-.532-.25-.25-.625-.375t-.5.25q-.125.375.156.656l.286.285.03-.03.032-.032-.063.064q-.062.062-.062.187v.126-.376.25m1-2q0 .25.25.25t.25-.25v-.25.376-.125q0-.124-.062-.187l-.06-.062.03.03.032.033.28-.28q.28-.284.03-.534-.25-.25-.623-.374-.375-.124-.5.25-.126.375.155.656l.283.28.03-.03.032-.03-.063.062q-.062.062-.062.187v.124-.374.25m1-2q0 .25.25.25t.25-.25v-.25.374-.125q0-.126-.063-.19l-.063-.06.03.03.032.03.28-.28q.282-.28.032-.53-.25-.25-.625-.376-.376-.126-.5.25-.126.374.155.655l.283.282.03-.03.032-.032-.063.063q-.062.062-.062.187v.125-.375.25m1-2q0 .25.25.25t.25-.25v-.25.375-.125q0-.125-.063-.188l-.062-.062.03.03.033.032.28-.28q.284-.282.034-.532-.25-.25-.625-.375-.376-.125-.5.25-.126.375.155.656l.283.283.03-.03.032-.033-.064.064q-.062.063-.062.188v.126-.376.25m1-2q0 .25.25.25t.25-.25q0-.25-.25-.25t-.25.25m.875-1.125q.124.374.374.374t.375-.376L15 67v.75-.25q0-.25-.125-.375L14.75 67l.063.063.062.062-.063-.438q-.062-.437-.312-.437t-.313.438l-.062.437.063-.063.062-.062-.125.125Q14 67.25 14 67.5v.25V67l.125.375m1.063-2.063q.062.438.312.438t.313-.438l.062-.437-.063.063-.062.062.125-.125Q16 64.75 16 64.5v-.25.75l-.125-.375q-.125-.375-.375-.375t-.375.375L15 65v-.75.25q0 .25.125.375l.125.125-.063-.063-.062-.062.063.438M16.25 63.5q0 .25.25.25t.25-.25q0-.25-.25-.25t-.25.25m-1.28 5.594L15 69l.094-.28.094-.282-.063.187L15 69l-.063.188.032-.094M19.25 58.5q0 .25.25.25t.5-.25l.5-.5q.25-.25.375-.625t0-.75q-.125-.375-.375-.375t-.375.375l-.25.75q-.125.375-.375.625t-.25.5m2-3q0 .25.25.25t.5-.25l.5-.5.5-.5.5-.5q.25-.25.375-.625t0-.75q-.125-.375-.375-.375t-.375.375l-.25.75q-.125.375-.375.625l-.5.5-.5.5q-.25.25-.25.5m3-4q0 .25.25.25t.25-.25q0-.25-.25-.25t-.25.25m1-1q0 .25.25.25t.25-.25q0-.25-.25-.25t-.25.25m.875-1.125q.125.375.375.375t.375-.375q.125-.375 0-.75t-.375-.375q-.25 0-.375.375t0 .75M27.25 47.5q0 .25.25.25t.25-.25q0-.25-.25-.25t-.25.25m1-1q0 .25.25.25t.5-.25l.5-.5.5-.5.5-.5q.25-.25.25-.5t-.25-.25q-.25 0-.5.25l-.5.5-.5.5-.5.5q-.25.25-.25.5m3-3q0 .25.25.25t.25-.25q0-.25-.25-.25t-.25.25m1-1q0 .25.25.25t.5-.25l.5-.5q.25-.25.375-.625L34 41l.375-.125q.375-.125.625-.375l.5-.5.5-.5.5-.5q.25-.25.375-.625L37 38l.375-.125q.375-.125.625-.375l.5-.5.5-.5.5-.5q.25-.25.25-.5t-.375-.375q-.375-.125-.75 0T38 35.5l-.5.5-.5.5-.5.5-.5.5-.5.5-.5.5-.5.5-.5.5-.5.5q-.25.25-.375.625l-.25.75q-.125.375-.375.625t-.25.5m8-8q0 .25.25.25t.5-.25l.5-.5.5-.5.5-.5q.25-.25.25-.5t-.25-.25q-.25 0-.5.25l-.5.5-.5.5-.5.5q-.25.25-.25.5m3-3q0 .25.25.25t.5-.25l.5-.5q.25-.25.25-.5t-.25-.25q-.25 0-.5.25l-.5.5q-.25.25-.25.5m33.375-20.625q.375.125.75 0T78 10.5t.625-.375l.75-.25q.375-.125.375-.375t-.375-.375q-.375-.125-.75 0T78 9.5t-.625.375l-.75.25q-.375.125-.375.375t.375.375M93.5 5q.5 0 .875-.125t.375-.375q0-.25-.375-.375T93.5 4q-.5 0-.875.125t-.375.375q0 .25.375.375T93.5 5" fill="none"/><path d="M13.768 7.74c2.44.034 2.756 1.858 3.47 1.905.88.053 1.385 1.118 1.027 1.84-.362.72-.907.352-.926 1.208-.014.498.224.866.418.875.55-.406 1.127-.412 1.416-.15.288.264.288.793.284 1.472 1.303 1.438 1.628 1.553 1.972 2.227.264.524.53 1.46-.187 1.76-.516 1.975-1.975 2.652-3.43 2.48-.487-.047-1.74.91-4.344.367-2.017-.418-11.054-2.547-9.988-6.47.936-3.458 4.164-11.2 5.122-12.098 0 0-.19 1.884.655 2.655.373-3.044 2.755-4.026 3.59-4.123-.82.94-1.234 2.02-.994 2.953 1.856-2.222 4.967-1.997 6.408-1.267-6.21 1.062-4.498 4.374-4.498 4.374z" fill="#fefefe" fill-rule="evenodd"/></svg>