<svg xmlns="http://www.w3.org/2000/svg" viewBox="0 0 24 24" width="24" height="24"><path d="M0 2.5V2h99l.125.4q.125.3.5.5.375.1.875.1h2q.5 0 .875-.1.375-.2.5-.5L104 2h6v.5q0 .5-.5.5h-4q-.5 0-.875.1t-.5.5Q104 4 103.5 4h-3q-.5 0-.875-.1-.375-.2-.625-.4-.25-.3-.625-.4Q98 3 97.5 3t-.875.1q-.375.1-.375.4 0 .2.375.4.375.1.875.1t.875.1q.375.1.5.5T98.5 5h-2q-.5 0-.875.1t-.5.5Q95 6 94.5 6h-2q-.5 0-.625-.4t-.5-.5Q91 5 90.5 5t-.875.1q-.375.1-.375.4 0 .2.375.4.375.1.875.1t.5.5q0 .5-.5.5H89l-.125-.4q-.125-.4-.5-.5Q88 6 87.5 6t-.875.1q-.375.1-.375.4 0 .2.375.4l.75.2q.375.1.5.5T87.5 8H86l-.125-.4q-.125-.4-.5-.5Q85 7 84.5 7t-.875.1q-.375.1-.625.4-.25.2-.625.4Q82 8 81.5 8t-.875.1q-.375.1-.375.4 0 .2.375.4.375.1.875.1t.875-.1q.375-.2.625-.4.25-.3.625-.4Q84 8 84.5 8h.5v.5q0 .5-.5.5H84l-.375.1q-.375.1-.625.4-.25.2-.625.4L82 10h-1l-.375.1q-.375.1-.625.4-.25.2-.625.4L79 11l-.375.1q-.375.1-.625.4-.25.2-.625.4L77 12h-1l-.125-.4q-.125-.4-.5-.5Q75 11 74.5 11t-.875.1q-.375.1-.5.5t-.625.4q-.5 0-.875.1t-.5.5Q71 13 70.5 13t-.875.1q-.375.1-.5.5t-.625.4q-.5 0-.875.1t-.5.5L67 15l-.375.1q-.375.1-.375.4 0 .2.375.4L67 16l-.125.4q-.125.3-.5.5L66 17l-.125-.4q-.125-.4-.5-.5-.375-.1-.75 0t-.625.4-.625.4l-.75.2q-.375.1-.5.5L62 18h-.5q-.5 0-.875.1t-.5.5L60 19l-.375.1q-.375.1-.625.4-.25.2-.625.4l-.75.2q-.375.1-.5.5L57 21l-.375.1q-.375.1-.625.4-.25.2-.625.4l-.75.2q-.375.1-.484.5l-.11.4h.22-.22q-.216.1-.403.1l-.188.1.28-.1.28-.1-.375.1q-.375.1-.375.4 0 .2.375.4L54 24l-.28-.1-.282-.1.187.1q.188 0 .406.1h.22-.22l-.14.4q-.14.3-.39.6l-.5.5-.5.5-.5.5q-.25.2-.623.4Q51 27 51 26.5V26l.375-.1q.375-.2.5-.5L52 25l.375-.1q.375-.2.375-.4 0-.3-.375-.4-.375-.1-.75 0t-.5.5L51 25l-.375.1q-.375.1-.625.4l-.5.5q-.25.2-.25.5 0 .2.375.4L50 27l-.125.4q-.125.3-.375.6l-.5.5-.5.5-.5.5q-.25.2-.625.4L47 30v-1l.375-.1q.375-.2.625-.4l.5-.5q.25-.3.25-.5 0-.3-.25-.3t-.5.3q-.25.2-.625.4l-.75.2q-.375.1-.5.5L46 29l-.375.1q-.375.1-.375.4 0 .2.375.4L46 30v.5q0 .5-.375.6-.375.1-.625.4l-.5.5-.5.5-.5.5-.5.5-.5.5-.5.5-.5.5-.5.5-.5.5-.5.5-.5.5-.5.5-.5.5-.5.5-.5.5-.5.5-.5.5-.5.5-.5.5-.5.5-.5.5-.5.5-.5.5-.5.5-.5.5-.5.5-.5.5-.5.5-.5.5-.5.5-.5.5-.5.5-.5.5q-.25.2-.375.6L28 49l-.125.4q-.125.3-.375.6l-.5.5-.5.5-.5.5-.5.5q-.25.2-.375.6L25 53l-.125.4q-.125.3-.375.6l-.5.5-.5.5-.5.5-.5.5q-.25.2-.375.6L22 57l-.125.4q-.125.3-.375.6l-.5.5-.5.5q-.25.2-.375.6L20 60l-.125.4q-.125.3-.375.6l-.5.5-.5.5-.25.2.188-.1.187-.2-.125.1q-.125.1-.22.3l-.093.1h.047l.047-.1-.262-.3-.266-.3h-.124.125l.25-.2.126-.1-.19.2-.186.1.25-.2.5-.5q.25-.3.376-.6.125-.4 0-.8t-.375-.4q-.25 0-.374.4l-.25.8q-.124.3-.374.6-.25.2-.25.5v.2-.3.1q0 .1.064.2h.062-.062l-.282.3q-.28.2-.03.5.25.2.625.4L18 63l-.125.4q-.125.3-.375.6-.25.2-.375.6L17 65l-.125.4q-.125.3-.375.6-.25.2-.375.6L16 67l-.125.4q-.125.3-.375.6-.25.2-.375.6L15 69l-.375.1q-.375.1-.5.5l-.25.8q-.125.3-.375.6-.25.2-.375.6L13 72l-.125.4q-.125.3-.375.6-.25.2-.375.6L12 74l-.125.4q-.125.3-.375.6-.25.2-.375.6L11 76v1-.8.3q0 .2-.03.5l-.033.2.016-.1.016-.1-.36.1q-.36.1-.487.5-.123.4-.123.9v.5l-.125.4q-.125.3-.375.6-.25.2-.375.6L9 81l-.125.4q-.125.3-.375.6-.25.2-.375.6L8 83v1l-.125.4q-.125.3-.375.6-.25.2-.375.6L7 86v1-.8.3q0 .2-.03.5l-.032.2.015-.1.016-.1-.36.1q-.36.1-.487.5Q6 88 6 88.5V90v-.8.3q0 .2-.03.5l-.032.2.015-.1.016-.1-.36-.1q-.36-.2-.487-.5l-.25-.8q-.125-.4-.375-.4t-.376.4q-.125.4 0 .8.125.3.378.6.25.2.375.6L5 91v2l-.125.4q-.125.3-.375.6-.25.2-.375.6L4 95v2-.8.3q0 .2-.03.5l-.033.2.016-.1.016-.1-.36.1q-.36.1-.487.5Q3 98 3 98.5v1.5l-.125.4q-.125.3-.375.6-.25.2-.375.6-.125.4-.125.9v2.5l-.125.4q-.125.3-.375.6-.25.2-.375.6L1 107v5-.8.3q0 .2-.03.5l-.032.2.015-.1.016-.1H0v-6l.375-.1q.375-.2.5-.5.125-.4.125-.9v-1q0-.5-.125-.9l-.125-.4.094.3.094.3-.063-.2q-.063-.2-.188-.3l-.125-.1h.063l.063.1.28-.3q.282-.2.032-.5-.25-.2-.625-.4L0 101V2.5m1.125 97.9q.125.3.375.3t.375-.3Q2 100 2 99.5t-.125-.9l-.125-.4.094.3.093.3-.062-.2q-.063-.2-.156-.3l-.097-.1.047.1h.048l.264-.3q.268-.3.018-.5-.25-.3-.625-.4-.375-.1-.5.3-.125.3.14.6l.266.3h.05l.047-.1-.094.1q-.093.1-.155.3l-.063.2.094-.3.093-.2-.125.3Q1 99 1 99.5t.125.9m1-4q.125.3.375.3t.375-.3q.125-.4 0-.8l-.125-.4.094.3.094.3-.063-.2q-.063-.2-.156-.3l-.097-.1.047.1h.048l.264-.3q.266-.3.14-.6L3 94h-.5q-.5 0-.625.4-.125.3.14.6l.266.3h.05l.047-.1-.094.1q-.092.1-.155.3l-.063.2.094-.3.093-.2-.125.3q-.125.4 0 .8m.75-2.8L3 94l.375-.1q.375-.2.625-.4.25-.3-.016-.5l-.265-.3h-.097.094q.092-.1.155-.3l.063-.2-.094.3-.093.2.125-.3q.125-.4 0-.8l-.125-.4.094.3.095.3-.063-.2q-.063-.2-.156-.3l-.095-.1.048.1h.046l.264-.3q.27-.3.02-.5-.25-.3-.625-.4-.375-.1-.5.3-.125.3.14.6l.266.3h.05l.045-.1-.094.1q-.09.1-.154.3l-.063.2.094-.3.094-.3-.124.4q-.125.4 0 .8l.125.3-.093-.2-.094-.3.063.2q.063.2.156.3h.095-.093l-.264.3q-.266.3-.14.6m2.25-7.2q.124.4.374.4t.375-.4q.123-.4 0-.8-.127-.3-.38-.3-.25 0-.376.3-.125.4 0 .8M6 84.5q.25.2.5.2t.5-.2q.25-.3-.03-.5l-.282-.3h-.062.06q.064-.1.064-.2v-.1.3-.5.4-.1q0-.1-.063-.2l-.062-.1.03.1h.032l.282-.3q.28-.3.03-.5-.25-.3-.627-.4-.375-.1-.5.3-.125.3.156.6l.28.3h.063-.06q-.064.1-.064.2v.1-.3.5-.4.1q0 .1.062.2l.062.1-.03-.1h-.032l-.282.3q-.28.3-.03.5m1.126-3.1q.125.4.375.4t.377-.4l.25-.8q.123-.4.373-.6.25-.3.375-.6.125-.4 0-.8t-.375-.4q-.25 0-.375.4l-.25.8q-.125.3-.375.6-.25.2-.375.6-.125.4 0 .8m2.125-4.9q0 .2.25.2t.25-.2v-.3.4-.1q0-.1-.063-.2l-.062-.1.03.1h.033l.28-.3q.282-.3.032-.5-.25-.3-.625-.4-.375-.1-.5.3-.125.3.156.6l.285.3h.062-.063q-.062.1-.062.2v.1-.3.2m1-2q0 .3.25.3t.25-.3v-.2.3-.1q0-.1-.062-.2h-.062.063l.28-.3q.28-.2.03-.5-.25-.2-.623-.4-.375-.1-.5.3t.156.6l.283.3h.062-.063q-.062.1-.062.2v.1-.3.2m1-2q0 .3.25.3t.25-.3v-.2.3-.1q0-.1-.063-.2h-.063.063l.28-.3q.282-.2.032-.5-.25-.2-.625-.4-.375-.1-.5.3t.156.6l.283.3h.062-.063q-.062.1-.062.2v.1-.3.2m1-2q0 .3.25.3t.25-.3v-.2.3-.1q0-.1-.063-.2h-.062.063l.28-.3q.284-.2.034-.5-.25-.2-.625-.4-.376-.1-.5.3-.126.4.155.6l.283.3h.062-.064q-.062.1-.062.2v.1-.3.2m1-2q0 .3.25.3t.25-.3q0-.2-.25-.2t-.25.2m.875-1.1q.123.4.373.4t.375-.4L15 67v.7-.2q0-.3-.125-.4l-.125-.1.063.1h.062l-.063-.4q-.062-.5-.312-.5t-.313.5l-.062.4h.063l.062-.1-.125.1q-.125.1-.125.4v.2-.7l.125.4m1.063-2.1q.062.4.312.4t.313-.4l.062-.4h-.063l-.062.1.125-.1q.125-.2.125-.4v-.3.8l-.125-.4q-.125-.4-.375-.4t-.375.4L15 65v-.8.3q0 .2.125.4l.125.1-.063-.1h-.062l.063.4m1.062-1.8q0 .2.25.2t.25-.2q0-.3-.25-.3t-.25.3m-1.28 5.6L15 69l.094-.3.094-.3-.063.2L15 69l-.063.2.032-.1m4.28-10.6q0 .2.25.2t.5-.2l.5-.5q.25-.3.375-.6.125-.4 0-.8t-.375-.4q-.25 0-.375.4l-.25.8q-.125.3-.375.6-.25.2-.25.5m2-3q0 .2.25.2t.5-.2l.5-.5.5-.5.5-.5q.25-.3.375-.6.125-.4 0-.8t-.375-.4q-.25 0-.375.4l-.25.8q-.125.3-.375.6l-.5.5-.5.5q-.25.2-.25.5m3-4q0 .2.25.2t.25-.2q0-.3-.25-.3t-.25.3m1-1q0 .2.25.2t.25-.2q0-.3-.25-.3t-.25.3m.875-1.1q.125.3.375.3t.375-.3q.125-.4 0-.8t-.375-.4q-.25 0-.375.4t0 .8m1.125-1.9q0 .2.25.2t.25-.2q0-.3-.25-.3t-.25.3m1-1q0 .2.25.2t.5-.2l.5-.5.5-.5.5-.5q.25-.3.25-.5 0-.3-.25-.3t-.5.3l-.5.5-.5.5-.5.5q-.25.2-.25.5m3-3q0 .2.25.2t.25-.2q0-.3-.25-.3t-.25.3m1-1q0 .2.25.2t.5-.2l.5-.5q.25-.3.375-.6L34 41l.375-.1q.375-.2.625-.4l.5-.5.5-.5.5-.5q.25-.3.375-.6L37 38l.375-.1q.375-.2.625-.4l.5-.5.5-.5.5-.5q.25-.3.25-.5 0-.3-.375-.4-.375-.1-.75 0t-.625.4l-.5.5-.5.5-.5.5-.5.5-.5.5-.5.5-.5.5-.5.5-.5.5q-.25.2-.375.6l-.25.8q-.125.3-.375.6-.25.2-.25.5m8-8q0 .2.25.2t.5-.2l.5-.5.5-.5.5-.5q.25-.3.25-.5 0-.3-.25-.3t-.5.3l-.5.5-.5.5-.5.5q-.25.2-.25.5m3-3q0 .2.25.2t.5-.2l.5-.5q.25-.3.25-.5 0-.3-.25-.3t-.5.3l-.5.5q-.25.2-.25.5m33.375-20.6q.375.1.75 0 .375-.2.625-.4.25-.3.625-.4l.75-.2q.375-.2.375-.4 0-.3-.375-.4-.375-.1-.75 0T78 9.5t-.625.4l-.75.2q-.375.1-.375.4 0 .2.375.4M93.5 5q.5 0 .875-.1.375-.2.375-.4 0-.3-.375-.4Q94 4 93.5 4t-.875.1q-.375.1-.375.4 0 .2.375.4.375.1.875.1" fill="none"/><path d="M13.154 8.064c2.466.108 2.787 1.94 3.508 1.94.893.11 1.4 1.188 1.038 1.835-.362.754-.914.43-.934 1.294-.014.43.227.863.423.863.554-.432 1.137-.432 1.428-.216.292.325.292.864.29 1.51 1.316 1.51 1.646 1.62 1.993 2.266.27.54.536 1.51-.188 1.834-.52 1.942-1.995 2.59-3.467 2.48-.49-.107-1.758.864-4.39.325-2.037-.432-11.175-2.59-10.097-6.472.947-3.56 4.21-11.327 5.178-12.298 0 0-.194 1.942.66 2.697.38-3.02 2.79-4.1 3.632-4.207-.828.97-1.247 2.05-1.005 3.02 1.877-2.265 5.022-2.05 6.48-1.294-6.28 1.08-4.55 4.424-4.55 4.424z" fill="#499bee" fill-rule="evenodd"/></svg>