<svg width="96" height="96" version="1" xmlns="http://www.w3.org/2000/svg" xmlns:xlink="http://www.w3.org/1999/xlink">
 <defs>
  <linearGradient id="linearGradient3361" x1="48.036" x2="48.036" y1="25.911" y2="85.821" gradientTransform="scale(1.0599 .94353)" gradientUnits="userSpaceOnUse">
   <stop stop-color="#c6953a" offset="0"/>
   <stop stop-color="#ab7a1f" offset="1"/>
  </linearGradient>
  <linearGradient id="ButtonShadow" x1="45.448" x2="45.448" y1="80.472" y2="7.017" gradientTransform="matrix(1.0059 0 0 .99417 0 12)" gradientUnits="userSpaceOnUse">
   <stop stop-color="#000000" offset="0"/>
   <stop stop-color="#000000" stop-opacity=".58824" offset="1"/>
  </linearGradient>
  <linearGradient id="linearGradient3706" x1="48" x2="48" y1="78" y2="5.988" gradientTransform="translate(0,8)" gradientUnits="userSpaceOnUse">
   <stop stop-color="#c29656" offset="0"/>
   <stop stop-color="#ddc08b" offset="1"/>
  </linearGradient>
  <linearGradient id="linearGradient3664" x1="45.448" x2="45.448" y1="80.472" y2="5.297" gradientTransform="matrix(1.0059 0 0 .99417 0 12)" gradientUnits="userSpaceOnUse" xlink:href="#ButtonShadow"/>
  <clipPath id="clipPath3860">
   <rect x="6" y="18" width="84" height="72" rx="6" ry="6" fill="#ff00ff"/>
  </clipPath>
  <linearGradient id="linearGradient3123" x1="48.022" x2="48.022" y1="22.933" y2="81.481" gradientUnits="userSpaceOnUse">
   <stop stop-color="#ffffff" offset="0"/>
   <stop stop-color="#ffffff" stop-opacity="0" offset="1"/>
  </linearGradient>
  <linearGradient id="linearGradient3105" x1="34.86" x2="34.86" y1="16.275" y2="26.987" gradientTransform="matrix(.72 0 0 .72 1.92 -5.52)" gradientUnits="userSpaceOnUse">
   <stop stop-color="#dab980" offset="0"/>
   <stop stop-color="#c29856" offset=".717"/>
   <stop stop-color="#a2773a" offset="1"/>
  </linearGradient>
  <linearGradient id="linearGradient3952" x1="43" x2="43" y1="91" y2="7" gradientUnits="userSpaceOnUse" xlink:href="#ButtonShadow"/>
  <linearGradient id="linearGradient3961" x1="45" x2="45" y1="92" y2="7" gradientUnits="userSpaceOnUse" xlink:href="#ButtonShadow"/>
  <radialGradient id="radialGradient2874" cx="48" cy="90.172" r="42" gradientTransform="matrix(1.1573 0 0 .99591 -7.551 .19713)" gradientUnits="userSpaceOnUse">
   <stop stop-color="#ffffff" offset="0"/>
   <stop stop-color="#ffffff" stop-opacity="0" offset="1"/>
  </radialGradient>
  <linearGradient id="linearGradient3080" x1="36.357" x2="36.357" y1="16" y2="73.995" gradientUnits="userSpaceOnUse">
   <stop stop-color="#ffffff" offset="0"/>
   <stop stop-color="#ffffff" stop-opacity="0" offset="1"/>
  </linearGradient>
  <filter id="filter3041" x="0" y="0" width="1" height="1" color-interpolation-filters="sRGB">
   <feColorMatrix type="saturate" values="0"/>
  </filter>
  <filter id="filter3045" x="0" y="0" width="1" height="1" color-interpolation-filters="sRGB">
   <feColorMatrix type="saturate" values="0"/>
  </filter>
  <filter id="filter3049" x="0" y="0" width="1" height="1" color-interpolation-filters="sRGB">
   <feColorMatrix type="saturate" values="0"/>
  </filter>
  <filter id="filter3053" x="0" y="0" width="1" height="1" color-interpolation-filters="sRGB">
   <feColorMatrix type="saturate" values="0"/>
  </filter>
 </defs>
 <g display="none">
  <path d="m14.969 8.8029c-1.6398 0-2.9688 1.2823-2.9688 2.875v7.3221c-3.324 0-7 2.676-7 6v61c0 3.324 2.676 6 6 6h74c3.324 0 6-2.676 6-6v-61c0-3.324-3.7474-6-7.0714-6v-0.13461c0-2.3891-1.9777-4.3125-4.4375-4.3125h-43.335l-1.4688-2.875c-0.73336-1.4246-1.3289-2.875-2.9688-2.875h-16.75z" fill="url(#linearGradient3664)" filter="url(#filter3174)" opacity=".9"/>
 </g>
 <g filter="url(#filter3041)">
  <g fill="url(#linearGradient3961)">
   <path d="m14.125 4c-4.4339 0-8.125 3.5684-8.125 8v2.1562c-2.3764 1.8021-4 4.6028-4 7.8438v63c0 5.5036 4.4964 10 10 10h72c5.5036 0 10-4.4964 10-10v-63c0-3.4834-1.8534-6.4531-4.5312-8.2188-0.9872-3.2895-3.9427-5.7812-7.5938-5.7812h-39.5c-1.4026-1.3548-2.5397-2.5096-3.6875-3.1562-1.4952-0.84233-2.9309-0.81421-3.8125-0.84375a0.9278 0.9278 0 0 0-0.03125 0c-0.0012-1.73e-5 -0.03009-1.73e-5 -0.03125 0h-0.03125-20.656z" opacity=".08"/>
   <path d="m14.125 4.9375c-3.9406 0-7.1875 3.1433-7.1875 7.0625v2.5938c-2.3826 1.6221-4 4.2939-4 7.4062v63c0 5.0014 4.0611 9.0625 9.0625 9.0625h72c5.0014 0 9.0625-4.0611 9.0625-9.0625v-63c0-3.2608-1.7732-6.0397-4.3438-7.625-0.76119-3.0957-3.4773-5.4375-6.8438-5.4375h-39.812c-1.5975-1.5412-2.7721-2.6775-3.8438-3.2812-1.2732-0.71724-2.4475-0.68767-3.375-0.71875a1.0438 1.0438 0 0 0-0.03125 0h-0.03125-20.656z" opacity=".1"/>
   <path d="m14.125 5.9688c-3.3887 0-6.1562 2.688-6.1562 6.0312v3.125c-2.3751 1.394-4 3.9205-4 6.875v63c0 4.4381 3.5931 8.0312 8.0312 8.0312h72c4.4381 0 8.0312-3.5931 8.0312-8.0312v-63c0-3.032-1.7122-5.6044-4.1875-6.9688-0.49189-2.8596-2.9286-5.0625-5.9688-5.0625h-40.188c-1.8348-1.7748-3.0086-2.8654-3.9688-3.4062-1.0373-0.58435-1.9404-0.56139-2.9062-0.59375a1.0438 1.0438 0 0 0-0.03125 0h-20.656z" opacity=".2"/>
   <path d="m14.125 7c-2.8429 0-5.125 2.23-5.125 5v3.6875c-2.3641 1.1214-4 3.5128-4 6.3125v63c0 3.878 3.122 7 7 7h72c3.878 0 7-3.122 7-7v-63c0-2.8097-1.6534-5.1964-4.0312-6.3125-0.16965-2.6184-2.3622-4.6875-5.0938-4.6875h-40.594c-4.2205-4.1123-4.5028-3.9331-6.5-4h-20.656z" opacity=".3"/>
  </g>
  <path d="m15 7c-2.77 0-5 2.23-5 5v3.3438c-2.3335 0.82091-4 3.0351-4 5.6562v64c0 3.324 2.676 6 6 6h72c3.324 0 6-2.676 6-6v-64c0-2.6419-1.6999-4.8512-4.0625-5.6562-0.32604-2.4503-2.3952-4.3438-4.9375-4.3438h-40.531c-4.1123-4.1123-4.3665-3.9331-6.3125-4h-19.156z" fill="url(#linearGradient3952)" opacity=".45"/>
 </g>
 <g filter="url(#filter3045)">
  <rect x="10.54" y="23.14" width="75" height="62.679" rx="6" ry="6" fill="url(#linearGradient3361)"/>
  <path d="m15 6c-2.77 0-5 2.23-5 5v59.812c0 2.3933 1.9192 4.3125 4.3125 4.3125h67.375c2.3933 0 4.3125-1.9192 4.3125-4.3125v-55.812c0-2.77-2.23-5-5-5h-40.531c-4.1123-4.1123-4.3665-3.9331-6.3125-4z" fill="url(#linearGradient3105)"/>
  <path d="m15 6c-2.77 0-5 2.23-5 5v59.812c0 2.3933 1.9192 4.3125 4.3125 4.3125h67.375c2.3933 0 4.3125-1.9192 4.3125-4.3125v-55.812c0-2.77-2.23-5-5-5h-40.531c-4.1123-4.1123-4.3665-3.9331-6.3125-4h-19.156zm0 1.0312h19.125 0.03125c0.96498 0.031157 1.1925-0.016972 1.8125 0.34375 0.63029 0.36673 1.7068 1.3318 3.75 3.375a1.0438 1.0438 0 0 0 0.75 0.28125h40.531c2.2099 0 3.9688 1.7589 3.9688 3.9688v55.812c0 1.8353-1.4459 3.2812-3.2812 3.2812h-67.375c-1.8353 0-3.2812-1.4459-3.2812-3.2812v-59.812c0-2.2099 1.7589-3.9688 3.9688-3.9688z" fill="#ffffff" opacity=".2"/>
 </g>
 <g filter="url(#filter3049)">
  <rect x="6" y="14" width="84" height="76" rx="6" ry="6" fill="url(#linearGradient3706)"/>
  <path d="m12 14c-3.324 0-6 2.676-6 6v2 60 2c0 0.33472 0.04135 0.6507 0.09375 0.96875 0.0487 0.2956 0.09704 0.59692 0.1875 0.875 0.00988 0.03038 0.020892 0.0636 0.03125 0.09375 0.098865 0.28777 0.23488 0.54745 0.375 0.8125 0.14459 0.27351 0.31562 0.53562 0.5 0.78125s0.37378 0.47347 0.59375 0.6875c0.43995 0.42806 0.94291 0.81453 1.5 1.0938 0.27854 0.13961 0.57347 0.24695 0.875 0.34375-0.2562-0.10022-0.48671-0.23627-0.71875-0.375-0.00741-0.0044-0.023866 0.0045-0.03125 0-0.031933-0.0193-0.062293-0.04251-0.09375-0.0625-0.1204-0.0767-0.23102-0.16351-0.34375-0.25-0.10617-0.0808-0.21328-0.16111-0.3125-0.25-0.17793-0.16143-0.34746-0.34539-0.5-0.53125-0.10758-0.13026-0.21839-0.26528-0.3125-0.40625-0.025089-0.03838-0.038446-0.08587-0.0625-0.125-0.064763-0.10303-0.13023-0.20452-0.1875-0.3125-0.10101-0.19471-0.20567-0.4157-0.28125-0.625-0.00796-0.02181-0.023589-0.04055-0.03125-0.0625-0.031825-0.09195-0.035804-0.18683-0.0625-0.28125-0.030332-0.10662-0.070389-0.20303-0.09375-0.3125-0.072879-0.34151-0.125-0.6982-0.125-1.0625v-2-60-2c0-2.7818 2.2182-5 5-5h2 68 2c2.7818 0 5 2.2182 5 5v2 60 2c0 0.3643-0.05212 0.72099-0.125 1.0625-0.04415 0.20689-0.08838 0.39766-0.15625 0.59375-0.0077 0.02195-0.0233 0.04069-0.03125 0.0625-0.06274 0.17374-0.13838 0.36745-0.21875 0.53125-0.04158 0.0828-0.07904 0.16995-0.125 0.25-0.0546 0.09721-0.12677 0.18835-0.1875 0.28125-0.09411 0.14096-0.20492 0.276-0.3125 0.40625-0.14317 0.17445-0.30314 0.347-0.46875 0.5-0.01117 0.0102-0.01998 0.02115-0.03125 0.03125-0.13839 0.12556-0.28509 0.23444-0.4375 0.34375-0.10257 0.07315-0.20432 0.15336-0.3125 0.21875-0.0074 0.0045-0.02384-0.0044-0.03125 0-0.23204 0.13873-0.46255 0.27478-0.71875 0.375 0.30153-0.0968 0.59646-0.20414 0.875-0.34375 0.55709-0.27922 1.0601-0.66569 1.5-1.0938 0.21997-0.21403 0.40937-0.44186 0.59375-0.6875s0.35541-0.50774 0.5-0.78125c0.14012-0.26505 0.27614-0.52473 0.375-0.8125 0.01041-0.03078 0.02133-0.06274 0.03125-0.09375 0.09046-0.27808 0.1388-0.5794 0.1875-0.875 0.0524-0.31805 0.09375-0.63403 0.09375-0.96875v-2-60-2c0-3.324-2.676-6-6-6z" fill="url(#linearGradient3080)" opacity=".35"/>
  <path d="m12 90c-3.324 0-6-2.676-6-6v-2-56-2c0-0.33472 0.04135-0.6507 0.09375-0.96875 0.0487-0.2956 0.09704-0.59692 0.1875-0.875 0.00988-0.03038 0.020892-0.0636 0.03125-0.09375 0.098865-0.28777 0.23488-0.54745 0.375-0.8125 0.14459-0.27351 0.31562-0.53562 0.5-0.78125s0.37378-0.47347 0.59375-0.6875c0.43995-0.42806 0.94291-0.81453 1.5-1.0938 0.27854-0.13961 0.57347-0.24695 0.875-0.34375-0.2562 0.10022-0.48671 0.23627-0.71875 0.375-0.00741 0.0044-0.023866-0.0045-0.03125 0-0.031933 0.0193-0.062293 0.04251-0.09375 0.0625-0.1204 0.0767-0.23102 0.16351-0.34375 0.25-0.10617 0.0808-0.21328 0.16111-0.3125 0.25-0.17793 0.16143-0.34746 0.34539-0.5 0.53125-0.10758 0.13026-0.21839 0.26528-0.3125 0.40625-0.025089 0.03838-0.038446 0.08587-0.0625 0.125-0.064763 0.10303-0.13023 0.20452-0.1875 0.3125-0.10101 0.19471-0.20567 0.4157-0.28125 0.625-0.00796 0.02181-0.023589 0.04055-0.03125 0.0625-0.031825 0.09195-0.035804 0.18683-0.0625 0.28125-0.030332 0.10662-0.070389 0.20303-0.09375 0.3125-0.072879 0.34151-0.125 0.6982-0.125 1.0625v2 56 2c0 2.7818 2.2182 5 5 5h2 68 2c2.7818 0 5-2.2182 5-5v-2-56-2c0-0.3643-0.05212-0.72099-0.125-1.0625-0.04415-0.20689-0.08838-0.39766-0.15625-0.59375-0.0077-0.02195-0.0233-0.04069-0.03125-0.0625-0.06274-0.17374-0.13838-0.36745-0.21875-0.53125-0.04158-0.0828-0.07904-0.16995-0.125-0.25-0.0546-0.09721-0.12677-0.18835-0.1875-0.28125-0.09411-0.14096-0.20492-0.276-0.3125-0.40625-0.14317-0.17445-0.30314-0.347-0.46875-0.5-0.01117-0.0102-0.01998-0.02115-0.03125-0.03125-0.13839-0.12556-0.28509-0.23444-0.4375-0.34375-0.10257-0.07315-0.20432-0.15336-0.3125-0.21875-0.0074-0.0045-0.02384 0.0044-0.03125 0-0.23204-0.13873-0.46255-0.27478-0.71875-0.375 0.30153 0.0968 0.59646 0.20414 0.875 0.34375 0.55709 0.27922 1.0601 0.66569 1.5 1.0938 0.21997 0.21403 0.40937 0.44186 0.59375 0.6875s0.35541 0.50774 0.5 0.78125c0.14012 0.26505 0.27614 0.52473 0.375 0.8125 0.01041 0.03078 0.02133 0.06274 0.03125 0.09375 0.09046 0.27808 0.1388 0.5794 0.1875 0.875 0.0524 0.31805 0.09375 0.63403 0.09375 0.96875v2 56 2c0 3.324-2.676 6-6 6h-72z" fill="url(#radialGradient2874)" opacity=".2"/>
 </g>
 <g filter="url(#filter3053)">
  <path d="m15.969 22.531c-2.8459 0.0043-5.4332 2.5916-5.4375 5.4375v48.062c0.0043 2.8459 2.5916 5.4332 5.4375 5.4375h64.062c2.8459-0.0043 5.4332-2.5916 5.4375-5.4375v-48.062c-0.0043-2.8459-2.5916-5.4332-5.4375-5.4375z" clip-path="url(#clipPath3860)" fill="url(#linearGradient3123)" filter="url(#filter3870)" opacity=".15"/>
 </g>
 <path d="m29.646 55.41c-0.3346 0.36453-0.58487 0.67464-0.76441 0.92219 0.20402-0.27774 0.46468-0.58987 0.7637-0.92205zm41.36-10.546c0.11643 0.056 0.23449 0.11099 0.3309 0.16784-0.07617-0.0435-0.19042-0.10337-0.33188-0.16866zm-22.366 0.98216c12.345-3.3933 18.971-2.1862 21.539-1.31-2.8234-0.97072-8.3524-1.7539-11.189-3.4434-2.7101-1.6144-5.593-6.5013-12.774-4.5274-7.18 1.9742-7.1971 7.511-8.8573 10.476-1.3594 2.4311-5.5709 5.9847-7.7104 8.3671 2.0325-2.2106 7.2042-6.3198 18.993-9.5627zm3.7268-7.1952c0.67537-0.18552 1.7392 0.0335 2.5758 0.63247 1.1889 0.84999 1.546 2.1439 0.25353 2.4992-1.294 0.3553-2.9496-0.57997-3.4643-1.6154-0.36245-0.73102-0.03917-1.3318 0.63525-1.5162zm-5.2866 0.92763c1.1064-0.30277 2.2044 0.22252 2.4542 1.1766 0.24836 0.95197-0.44613 1.9718-1.5524 2.2749-1.1066 0.3038-2.2044-0.22143-2.4543-1.1753-0.24836-0.95194 0.44602-1.9711 1.5527-2.2762zm-6.9526 3.7777c0.43394-0.94852 1.2477-1.683 1.9217-1.8694 0.67363-0.18526 1.2477 0.16865 1.2892 0.98676 0.05876 1.161-0.91911 2.8201-2.2131 3.1762-1.2916 0.35527-1.6126-0.94757-0.99803-2.2936zm32.219 4.9406c-0.8705-3.3574-11.049-3.1569-22.821 0.0988-11.771 3.2557-20.684 8.3342-19.811 11.69 0.58944 2.2714 5.6147 3.5576 12.446 3.1449 2.855 0.24483 6.6794-0.17519 10.758-1.297 4.0201-1.1047 7.4972-2.6724 9.8497-4.3207 6.3111-3.2051 10.179-7.0045 9.5782-9.3162zm-19.84 12.053c-5.1207 1.4082-9.471 1.7914-9.8151 0.47053-0.34504-1.3195 3.5421-3.4708 8.6636-4.8783 5.1202-1.4095 9.5369-1.537 9.8823-0.2168 0.34504 1.3188-3.6109 3.2173-8.7311 4.6248z" fill="#919191" fill-opacity=".78431" stroke-width="2.7203"/>
</svg>
