<svg height="512" viewBox="0 0 512 512" width="512" xmlns="http://www.w3.org/2000/svg">
 <path d="m471.95 253.05c0 120.9-98.01 218.9-218.9 218.9-120.9 0-218.9-98.01-218.9-218.9 0-120.9 98.01-218.9 218.9-218.9 120.9 0 218.9 98.01 218.9 218.9" fill="#80b3ff" fill-rule="evenodd"/>
 <path d="m116.32 368.99c-.162-64.876 93.71-252.33 137.4-253.32 21.85-.525 54.59 40.995 82.12 94.63 27.536 53.639 49.872 119.41 50.92 167.5 0 0-105.71-206.49-132.08-207.1-26.851-.66-99.73 145.48-91.06 161.75 8.466 15.898 165.56-35.35 165.56-35.35-3.386 5.217-105.95 73.03-182.87 89.01-11.611-.525-29.03 0-29.995-17.12" fill="#ffffff" fill-rule="evenodd"/>
</svg>
