<svg width="512" height="512" version="1.1" viewBox="0 0 512 512" xmlns="http://www.w3.org/2000/svg">
 <path d="m471.95 253.05c0 120.9-98.01 218.9-218.9 218.9-120.9 0-218.9-98.01-218.9-218.9 0-120.9 98.01-218.9 218.9-218.9 120.9 0 218.9 98.01 218.9 218.9" fill="#a7c510" fill-rule="evenodd"/>
 <path d="m228.68 151.82c-42.667-0.0485-73.847 32.67-93.781 70.781-25.981 49.659-53.392 123.06-0.49684 123.06 55.67 0 101.92-30.901 134.63-54.252 11.863 21.631 29.132 54.252 53.258 54.252s46.121-9.5005 56.87-17.959l40.074-55.815-4.3382-4.9926c-50.726 25.133-68.03 42.413-96.532-11.827l35.978-33.082 52.834-65.401-3.8899-4.8229-95.065 83.25c-15.39-31.858-47.006-83.153-79.579-83.19m-35.59 41.153c30.21 0 47.926 44.497 65.704 77.47-26.211 14.905-60.456 33.288-85.553 28.15-29.75-6.0953-37.323-37.214-25.339-60.59 10.627-21.909 23.666-45.006 45.151-45.006" fill="#ffffff" stroke-width="12.118"/>
</svg>
