<svg width="512" height="512" version="1.1" viewBox="0 0 512 512" xmlns="http://www.w3.org/2000/svg">
 <g fill-rule="evenodd">
  <path d="m472.79 252.14c0 120.9-98.01 218.9-218.9 218.9-120.9 0-218.9-98.01-218.9-218.9 0-120.9 98.01-218.9 218.9-218.9 120.9 0 218.9 98.01 218.9 218.9" fill="#1793d1"/>
  <path d="m471.95 253.05c0 120.9-98.01 218.9-218.9 218.9-120.9 0-218.9-98.01-218.9-218.9 0-120.9 98.01-218.9 218.9-218.9 120.9 0 218.9 98.01 218.9 218.9" fill="#fb1616"/>
  <path d="m192.03 91.971v9.531c0 3.657-2.937 6.625-6.594 6.625h-15c-3.657 0-6.594-2.968-6.594-6.625v-3.656c-12.402 7.348-20.688 20.857-20.688 36.38v16.531c17.827-12.963 39.25-20.817 61.59-20.781 6.798-0.164 13.62 0.247 20.313 1.438 48.51 6.959 88.23 49.821 92.91 98.31 6.706 53.04-31.342 106.12-82.56 119.19-26.21 8.156-53.55-0.03-80.12-1.125-4.433-0.647-8.439 0.106-12.12 1.75v26.438c0 15.518 8.286 29.03 20.688 36.38 0.175-3.499 3.051-6.281 6.594-6.281h15c3.657 0 6.594 2.968 6.594 6.625v5.531h160v-5.531c0-3.657 2.937-6.625 6.594-6.625h15c3.543 0 6.418 2.782 6.594 6.281 12.402-7.348 20.688-20.857 20.688-36.37v-241.75c0-15.518-8.286-29.03-20.688-36.37v3.656c0 3.657-2.937 6.625-6.594 6.625h-15c-3.657 0-6.594-2.968-6.594-6.625v-9.531h-160m166.59 46.16h15c3.657 0 6.594 2.937 6.594 6.594v10.375c0 3.657-2.937 6.625-6.594 6.625h-15c-3.657 0-6.594-2.968-6.594-6.625v-10.375c0-3.657 2.937-6.594 6.594-6.594m0 53.594h15c3.657 0 6.594 2.937 6.594 6.594v10.375c0 3.657-2.937 6.625-6.594 6.625h-15c-3.657 0-6.594-2.968-6.594-6.625v-10.375c0-3.657 2.937-6.594 6.594-6.594m0 53.594h15c3.657 0 6.594 2.937 6.594 6.594v10.375c0 3.657-2.937 6.594-6.594 6.594h-15c-3.657 0-6.594-2.937-6.594-6.594v-10.375c0-3.657 2.937-6.594 6.594-6.594m0 53.56h15c3.657 0 6.594 2.968 6.594 6.625v10.375c0 3.657-2.937 6.594-6.594 6.594h-15c-3.657 0-6.594-2.937-6.594-6.594v-10.375c0-3.657 2.937-6.625 6.594-6.625m-188.19 53.594h15c3.657 0 6.594 2.968 6.594 6.625v10.375c0 3.657-2.937 6.594-6.594 6.594h-15c-3.657 0-6.594-2.937-6.594-6.594v-10.375c0-3.657 2.937-6.625 6.594-6.625m188.19 0h15c3.657 0 6.594 2.968 6.594 6.625v10.375c0 3.657-2.937 6.594-6.594 6.594h-15c-3.657 0-6.594-2.937-6.594-6.594v-10.375c0-3.657 2.937-6.625 6.594-6.625" fill="#ffffff"/>
 </g>
 <path d="m207.4373 141.9213c-54.777 0-98.94001 44.545-98.94001 99.32 0 4.733.082 9.218.722 13.774.041.066-.058.273-.015.339 3.113 24.07 10.95 47.45-2.46 64.3l-20.800995 20.816-.604.604c-5.355 5.98-5.144 15.13.604 20.875l1.841 1.841c5.748 5.748 14.879995 5.944 20.859995.589l.015.015.604-.604 20.80101-20.801c17.538-13.438 40.725-5.081 66.43-2.828 3.574.392 7.268.015 10.946.015 1.855 0 3.473.081 5.303-.015 52.21-2.867 93.63-46.35 93.63-99.28 0-27.391-11.01-51.676-28.962-69.62-17.948-17.95-42.586-29.32-69.976-29.32v-.029m0 26.517c20.13 0 38.41 8.01 51.605 21.2 13.19 13.187 21.18 31.476 21.18 51.605 0 40.25-32.538 72.79-72.79 72.79-40.25 0-72.79-32.892-72.79-73.14 0-40.25 32.538-72.45 72.79-72.45" fill="#ffffff"/>
</svg>
