<svg width="512" height="512" version="1.1" viewBox="0 0 512 512" xmlns="http://www.w3.org/2000/svg">
 <g>
  <path d="m471.95 253.05c0 120.9-98.01 218.9-218.9 218.9-120.9 0-218.9-98.01-218.9-218.9 0-120.9 98.01-218.9 218.9-218.9 120.9 0 218.9 98.01 218.9 218.9" fill="#8c8abc" fill-rule="evenodd"/>
  <path d="m270.42 389.34v-194.79h-43.286v194.79m-10.822-205.61-97.394-54.108v183.97l97.394 64.93m162.32-64.93v-183.97l-97.394 54.108v194.79m75.751-248.9c-43.286 0-64.93 5.6272-108.22 43.286-43.286-36.739-64.93-43.286-108.22-43.286l86.573 54.108h43.286" fill="#ffffff"/>
  <path d="m411.12 337.64-1.602-65.744c-10.578-4.355-18.16-14.497-18.456-26.624-0.29551-12.127 6.8188-22.877 17.111-27.719l0.63353 25.147c0.26206 12.46 24.018 11.882 23.714-0.57784l-0.63351-25.147c3.3589 1.4142 6.3775 3.3561 8.9281 5.7042 5.7403 5.3456 9.4506 12.652 9.6753 21.02 0.27423 12.107-6.8826 22.816-17.196 27.638l1.602 65.744c-1.9361 12.639-21.593 12.619-23.714 0.57784" fill="#ffffff"/>
 </g>
</svg>
