<?xml version="1.0" encoding="UTF-8" standalone="no"?>
<svg xmlns="http://www.w3.org/2000/svg" height="512" width="512" version="1.1">
 <defs>
  <clipPath id="a"/>
  <clipPath id="clipPath-572739784">
   <g transform="translate(0,-1004.3622)">
    <path d="m -24,13 c 0,1.105 -0.672,2 -1.5,2 -0.828,0 -1.5,-0.895 -1.5,-2 0,-1.105 0.672,-2 1.5,-2 0.828,0 1.5,0.895 1.5,2 z" transform="matrix(15.333333,0,0,11.5,414.99999,878.8622)" style="fill:#1890d0"/>
   </g>
  </clipPath>
 </defs>
 <path fill-rule="evenodd" fill="#d45500" d="M471.95 253.05c0 120.9-98.006 218.91-218.91 218.91S34.13 373.954 34.13 253.05 132.136 34.14 253.04 34.14s218.91 98.006 218.91 218.91"/>
 <g clip-path="url(#a)" transform="matrix(10.30845 0 0 8.80294 13.215 33.216)" fill="#fff">
  <path d="M8 13.996h2c.55 0 1 .45 1 1v2c0 .555-.45 1-1 1H8c-.55 0-1-.445-1-1v-2c0-.55.45-1 1-1m0 0M14 13.996h2c.55 0 1 .45 1 1v2c0 .555-.45 1-1 1h-2c-.55 0-1-.445-1-1v-2c0-.55.45-1 1-1m0 0M20 13.996h2c.55 0 1 .45 1 1v2c0 .555-.45 1-1 1h-2c-.55 0-1-.445-1-1v-2c0-.55.45-1 1-1m0 0M26 13.996h2c.55 0 1 .45 1 1v2c0 .555-.45 1-1 1h-2c-.55 0-1-.445-1-1v-2c0-.55.45-1 1-1m0 0M32 13.996h2c.55 0 1 .45 1 1v2c0 .555-.45 1-1 1h-2c-.55 0-1-.445-1-1v-2c0-.55.45-1 1-1m0 0M38 13.996h2c.55 0 1 .45 1 1v2c0 .555-.45 1-1 1h-2c-.55 0-1-.445-1-1v-2c0-.55.45-1 1-1m0 0M8 19.996h2c.55 0 1 .45 1 1v2c0 .555-.45 1-1 1H8c-.55 0-1-.445-1-1v-2c0-.55.45-1 1-1m0 0M14 19.996h2c.55 0 1 .45 1 1v2c0 .555-.45 1-1 1h-2c-.55 0-1-.445-1-1v-2c0-.55.45-1 1-1m0 0M20 19.996h2c.55 0 1 .45 1 1v2c0 .555-.45 1-1 1h-2c-.55 0-1-.445-1-1v-2c0-.55.45-1 1-1m0 0M26 19.996h2c.55 0 1 .45 1 1v2c0 .555-.45 1-1 1h-2c-.55 0-1-.445-1-1v-2c0-.55.45-1 1-1m0 0M32 19.996h2c.55 0 1 .45 1 1v2c0 .555-.45 1-1 1h-2c-.55 0-1-.445-1-1v-2c0-.55.45-1 1-1m0 0M38 19.996h2c.55 0 1 .45 1 1v2c0 .555-.45 1-1 1h-2c-.55 0-1-.445-1-1v-2c0-.55.45-1 1-1m0 0M8 25.996h2c.55 0 1 .45 1 1v2c0 .555-.45 1-1 1H8c-.55 0-1-.445-1-1v-2c0-.55.45-1 1-1m0 0M14 25.996h2c.55 0 1 .45 1 1v2c0 .555-.45 1-1 1h-2c-.55 0-1-.445-1-1v-2c0-.55.45-1 1-1m0 0M20 25.996h2c.55 0 1 .45 1 1v2c0 .555-.45 1-1 1h-2c-.55 0-1-.445-1-1v-2c0-.55.45-1 1-1m0 0M26 25.996h2c.55 0 1 .45 1 1v2c0 .555-.45 1-1 1h-2c-.55 0-1-.445-1-1v-2c0-.55.45-1 1-1m0 0M32 25.996h2c.55 0 1 .45 1 1v2c0 .555-.45 1-1 1h-2c-.55 0-1-.445-1-1v-2c0-.55.45-1 1-1m0 0M38 25.996h2c.55 0 1 .45 1 1v2c0 .555-.45 1-1 1h-2c-.55 0-1-.445-1-1v-2c0-.55.45-1 1-1m0 0M14 31.996h20c.55 0 1 .45 1 1v2c0 .555-.45 1-1 1H14c-.55 0-1-.445-1-1v-2c0-.55.45-1 1-1m0 0"/>
 </g>
 <g transform="matrix(8.6917472,0,0,7.422352,47.398067,70.470889)" style="fill:#ffffff;fill-opacity:1">
  <g clip-path="url(#clipPath-572739784)" style="fill:#ffffff;fill-opacity:1">
   <g style="fill:#ffffff;fill-opacity:1">
    <path d="m 8,13.996 2,0 c 0.551,0 1,0.449 1,1 l 0,2 c 0,0.555 -0.449,1 -1,1 l -2,0 c -0.551,0 -1,-0.445 -1,-1 l 0,-2 c 0,-0.551 0.449,-1 1,-1 m 0,0" style="fill:#ffffff;fill-opacity:1"/>
    <path d="m 14,13.996 2,0 c 0.551,0 1,0.449 1,1 l 0,2 c 0,0.555 -0.449,1 -1,1 l -2,0 c -0.551,0 -1,-0.445 -1,-1 l 0,-2 c 0,-0.551 0.449,-1 1,-1 m 0,0" style="fill:#ffffff;fill-opacity:1"/>
    <path d="m 20,13.996 2,0 c 0.551,0 1,0.449 1,1 l 0,2 c 0,0.555 -0.449,1 -1,1 l -2,0 c -0.551,0 -1,-0.445 -1,-1 l 0,-2 c 0,-0.551 0.449,-1 1,-1 m 0,0" style="fill:#ffffff;fill-opacity:1"/>
    <path d="m 26,13.996 2,0 c 0.551,0 1,0.449 1,1 l 0,2 c 0,0.555 -0.449,1 -1,1 l -2,0 c -0.551,0 -1,-0.445 -1,-1 l 0,-2 c 0,-0.551 0.449,-1 1,-1 m 0,0" style="fill:#ffffff;fill-opacity:1"/>
    <path d="m 32,13.996 2,0 c 0.551,0 1,0.449 1,1 l 0,2 c 0,0.555 -0.449,1 -1,1 l -2,0 c -0.551,0 -1,-0.445 -1,-1 l 0,-2 c 0,-0.551 0.449,-1 1,-1 m 0,0" style="fill:#ffffff;fill-opacity:1"/>
    <path d="m 38,13.996 2,0 c 0.551,0 1,0.449 1,1 l 0,2 c 0,0.555 -0.449,1 -1,1 l -2,0 c -0.551,0 -1,-0.445 -1,-1 l 0,-2 c 0,-0.551 0.449,-1 1,-1 m 0,0" style="fill:#ffffff;fill-opacity:1"/>
    <path d="m 8,19.996 2,0 c 0.551,0 1,0.449 1,1 l 0,2 c 0,0.555 -0.449,1 -1,1 l -2,0 c -0.551,0 -1,-0.445 -1,-1 l 0,-2 c 0,-0.551 0.449,-1 1,-1 m 0,0" style="fill:#ffffff;fill-opacity:1"/>
    <path d="m 14,19.996 2,0 c 0.551,0 1,0.449 1,1 l 0,2 c 0,0.555 -0.449,1 -1,1 l -2,0 c -0.551,0 -1,-0.445 -1,-1 l 0,-2 c 0,-0.551 0.449,-1 1,-1 m 0,0" style="fill:#ffffff;fill-opacity:1"/>
    <path d="m 20,19.996 2,0 c 0.551,0 1,0.449 1,1 l 0,2 c 0,0.555 -0.449,1 -1,1 l -2,0 c -0.551,0 -1,-0.445 -1,-1 l 0,-2 c 0,-0.551 0.449,-1 1,-1 m 0,0" style="fill:#ffffff;fill-opacity:1"/>
    <path d="m 26,19.996 2,0 c 0.551,0 1,0.449 1,1 l 0,2 c 0,0.555 -0.449,1 -1,1 l -2,0 c -0.551,0 -1,-0.445 -1,-1 l 0,-2 c 0,-0.551 0.449,-1 1,-1 m 0,0" style="fill:#ffffff;fill-opacity:1"/>
    <path d="m 32,19.996 2,0 c 0.551,0 1,0.449 1,1 l 0,2 c 0,0.555 -0.449,1 -1,1 l -2,0 c -0.551,0 -1,-0.445 -1,-1 l 0,-2 c 0,-0.551 0.449,-1 1,-1 m 0,0" style="fill:#ffffff;fill-opacity:1"/>
    <path d="m 38,19.996 2,0 c 0.551,0 1,0.449 1,1 l 0,2 c 0,0.555 -0.449,1 -1,1 l -2,0 c -0.551,0 -1,-0.445 -1,-1 l 0,-2 c 0,-0.551 0.449,-1 1,-1 m 0,0" style="fill:#ffffff;fill-opacity:1"/>
    <path d="m 8,25.996 2,0 c 0.551,0 1,0.449 1,1 l 0,2 c 0,0.555 -0.449,1 -1,1 l -2,0 c -0.551,0 -1,-0.445 -1,-1 l 0,-2 c 0,-0.551 0.449,-1 1,-1 m 0,0" style="fill:#ffffff;fill-opacity:1"/>
    <path d="m 14,25.996 2,0 c 0.551,0 1,0.449 1,1 l 0,2 c 0,0.555 -0.449,1 -1,1 l -2,0 c -0.551,0 -1,-0.445 -1,-1 l 0,-2 c 0,-0.551 0.449,-1 1,-1 m 0,0" style="fill:#ffffff;fill-opacity:1"/>
    <path d="m 20,25.996 2,0 c 0.551,0 1,0.449 1,1 l 0,2 c 0,0.555 -0.449,1 -1,1 l -2,0 c -0.551,0 -1,-0.445 -1,-1 l 0,-2 c 0,-0.551 0.449,-1 1,-1 m 0,0" style="fill:#ffffff;fill-opacity:1"/>
    <path d="m 26,25.996 2,0 c 0.551,0 1,0.449 1,1 l 0,2 c 0,0.555 -0.449,1 -1,1 l -2,0 c -0.551,0 -1,-0.445 -1,-1 l 0,-2 c 0,-0.551 0.449,-1 1,-1 m 0,0" style="fill:#ffffff;fill-opacity:1"/>
    <path d="m 32,25.996 2,0 c 0.551,0 1,0.449 1,1 l 0,2 c 0,0.555 -0.449,1 -1,1 l -2,0 c -0.551,0 -1,-0.445 -1,-1 l 0,-2 c 0,-0.551 0.449,-1 1,-1 m 0,0" style="fill:#ffffff;fill-opacity:1"/>
    <path d="m 38,25.996 2,0 c 0.551,0 1,0.449 1,1 l 0,2 c 0,0.555 -0.449,1 -1,1 l -2,0 c -0.551,0 -1,-0.445 -1,-1 l 0,-2 c 0,-0.551 0.449,-1 1,-1 m 0,0" style="fill:#ffffff;fill-opacity:1"/>
    <path d="m 14,31.996 20,0 c 0.551,0 1,0.449 1,1 l 0,2 c 0,0.555 -0.449,1 -1,1 l -20,0 c -0.551,0 -1,-0.445 -1,-1 l 0,-2 c 0,-0.551 0.449,-1 1,-1 m 0,0" style="fill:#ffffff;fill-opacity:1"/>
   </g>
  </g>
 </g>
</svg>
