<svg width="512" height="512" version="1.1" viewBox="0 0 512 512" xmlns="http://www.w3.org/2000/svg">
 <path d="m471.95 253.05c0 120.9-98.01 218.9-218.9 218.9-120.9 0-218.9-98.01-218.9-218.9 0-120.9 98.01-218.9 218.9-218.9 120.9 0 218.9 98.01 218.9 218.9" fill="#2480dc" fill-rule="evenodd"/>
 <g transform="matrix(1.2108 0 0 1.2108 -316.51 -49.04)" fill="#ffffff" stroke-width="11.268">
  <path d="m584.29 130.75v101.41h-101.41v-101.41m101.41 0"/>
  <path d="m358.93 130.75h101.41v101.41h-101.41m0-101.41"/>
  <path d="m460.34 254.92v101.41h-101.41v-101.41m101.41 0"/>
  <path d="m483.1 254.92h101.41v101.41h-101.41m0-101.41"/>
 </g>
</svg>
