<svg xmlns="http://www.w3.org/2000/svg" height="1814.2" width="1814.2" version="1.1" viewBox="0 0 512 512">
 <g transform="translate(0 215)">
  <path d="m478 38.05c0 125.09-101.41 226.5-226.5 226.5s-226.5-101.41-226.5-226.5 101.41-226.5 226.5-226.5 226.5 101.41 226.5 226.5" fill-rule="evenodd" fill="#cf641d"/>
  <path d="m180.01 85.94c0-0.112-0.774-0.886-1.721-1.721l-1.721-1.517 1.517 1.721c1.418 1.608 1.924 2.01 1.924 1.517" fill="#ffffff"/>
  <path d="m252.92-146.23c-46.065 0.0543-91.738 17.103-126.74 49.805l-10.214 9.6609c-3.9522-5.2103-7.1132-12.45-7.6899-17.982-0.28266-2.7143-0.76848-4.9289-1.1041-4.9289-0.33565 0-2.2562 2.1856-4.2588 4.8506-7.3378 9.7619-12.114 22.928-14.235 39.118-0.58046 4.4292-2.2449 21.452-2.6424 25.829-5.8261 9.088-10.575 20.112-15.256 35.214-2.6739 8.6173-7.0135 24.921-6.9794 26.303 0.01262 0.51358 1.3098-1.4751 2.8783-4.4166 3.0714-5.7579 3.8904-6.3964 2.6032-2.0897-1.8714 6.2602-3.1585 20.508-3.5093 38.645l-0.39497 19.323 1.4991-5.5207c0.83158-3.0399 1.8613-6.4065 2.2878-7.493 0.98174-2.4972 1.2846-1.6632 2.4846 7.098 3.0525 22.288 12.258 47.892 24.686 68.57 20.129 33.5 58.564 64.797 99.53 81.038 12.938 5.1295 36.517 11.006 26.739 6.664-3.7793-1.6783-8.2691-4.6652-7.7681-5.1661 0.1754-0.1754 2.6083 0.52494 5.4021 1.5773 6.664 2.5086 18.45 5.6847 26.342 7.098 3.4739 0.62211 9.4956 1.1445 13.368 1.1836l7.0198 0.0795-3.0764-2.7206-3.1156-2.7206 8.9088-0.0391c26.207-0.0972 65.342-8.4445 82.501-17.588 5.2595-2.8026 14.106-11.764 19.559-19.796 2.925-4.3093 4.5099-5.715 9.4249-8.4785 23.446-13.183 46.658-40.907 49.805-59.46 0.93632-5.522 0.56785-13.098-0.9464-19.13-0.77353-3.0777-0.50727-3.9131 6.033-18.889 10.988-25.161 11.353-26.412 11.988-42.707 0.4997-12.836-0.3243-22.249-3.0764-35.056-2.0228-9.4148-2.6171-10.583-3.3515-6.664-0.46689 2.4922-4.7282 12.181-5.363 12.185-0.10221 0-0.0908-5.7428 0.0391-12.776 0.47699-25.785-4.5036-44.738-16.642-63.207-4.4532-6.7788-11.542-15.095-16.48-19.401-3.3705-2.9376-3.8235-3.0373-3.8235-0.86817 0 1.2619-0.98679 0.54892-4.4166-3.1547-3.9938-4.3143-18.203-15.853-19.52-15.853-0.29906 0-0.5527 1.6518-0.5527 3.667 0 0.13123-0.001 0.23218 0 0.35458-6.7233-4.3333-29.111-17.503-35.61-20.94-27.091-14.317-56.797-21.25-86.325-21.216m-1.065 8.3208c19.737-0.11609 39.676 3.05 58.993 9.6609 2.2827 0.7811 6.6122 2.3673 10.726 3.9042 8.0053 2.9919 15.155 6.6614 22.083 11.199-9.1928-3.691-20.405-7.5712-22.398-7.5712-0.70665 0 1.5736 1.7994 5.0475 4.0229 14.649 9.3732 31.431 25.144 41.957 39.396 9.1208 12.347 9.2824 12.732 3.4702 8.0444-6.8192-5.4942-16.202-10.249-23.029-11.672-3.0903-0.64482-5.8034-0.97921-6.033-0.74955-0.22966 0.22966 1.9206 2.5528 4.7712 5.1661 9.1448 8.3801 23.529 29.793 26.933 40.065 2.8619 8.6363 5.098 22.802 5.6784 35.924l0.51234 11.238-2.3269-3.5497c-1.2821-1.9685-3.4563-4.8456-4.8115-6.3889-2.549-2.8985-8.63-7.4981-9.1877-6.9403-0.17414 0.17414 0.5792 8.2918 1.6568 18.061 2.2613 20.514 2.1174 31.977-0.51232 44.645-2.2032 10.604-2.308 10.788-3.5496 7.2167-1.0676-3.0739-3.2556-6.033-4.4557-6.033-0.36721 0-0.67006 1.3994-0.67006 3.1156 0 7.2028-5.9687 28.568-10.687 38.329-1.889 3.908-5.1182 9.2054-7.2167 11.791-7.1321 8.7915-14.465 12.669-13.842 7.3353 0.2183-1.8663-0.008-2.1692-1.7351-2.1692-1.2619 0-2.8796 0.94641-4.3383 2.5629-1.2745 1.4108-3.8412 4.3181-5.7176 6.428-2.8039 3.1522-10.171 9.0804-10.171 8.2022 0-0.1325 0.34576-1.3918 0.74956-2.8001 0.4038-1.4082 0.52494-2.5238 0.27635-2.5238s-2.8089 0.68772-5.6784 1.5382c-9.9827 2.9578-26.588 5.5598-35.484 5.5598-9.2596 0-15.231-1.2266-21.374-4.3383-6.3598-3.2241-5.9699-3.85 2.0114-3.3515 6.7523 0.42147 6.9491 0.36973 5.3238-0.9464-2.3774-1.9244-10.986-4.4683-21.333-6.3094-11.075-1.971-13.527-2.9856-18.652-7.8476-3.4891-3.3755-7.3126-5.6986-10.966-9.4136 9.5044 2.4783 18.864 2.2487 28.552 2.0001 11.592-0.29023 14.662-0.6221 18.966-2.0897 6.2968-2.1477 17.583-8.7738 26.701-15.655 7.9574-6.0078 9.594-6.6185 16.286-5.9939 4.7472 0.44292 5.0399 0.38109 6.3472-1.6165 1.7136-2.6159 1.2038-6.6993-1.3414-10.49-5.1497-7.6684-21.336-12.841-33.401-10.648-2.6512 0.48204-8.1997 2.6058-12.619 4.8115-4.3421 2.1666-9.8199 4.3509-12.185 4.8506-4.9781 1.0499-13.288 0.46689-19.756-1.3805-6.1908-1.7679-17.035-7.4943-22.162-11.711l-4.3383-3.5888-7.1776-4.5743c1.4865-9.7379 4.5276-18.408 8.5568-22.437l3.0361-3.0361-4.5743-2.13c-3.9093-1.831-5.5939-2.13-11.672-2.13-6.3043 0-7.6974 0.24102-12.264 2.4051-10.043 4.7598-17.573 13.824-20.979 25.198-2.2663 7.57-1.9307 19.663 0.78867 27.643 2.3458 6.8835 5.6368 13.248 9.4249 18.179 1.8335 2.3862 1.9811 2.7711 0.59182 1.5773-4.9175-4.2235-11.805-17.064-13.881-25.868-1.5105-6.4091-1.5193-17.985 0-23.936 4.1011-16.064 16.979-28.419 32.612-31.311 10.183-1.8827 21.404 2.0039 30.6 10.607 2.8064 2.6247 5.3642 4.5339 5.6784 4.2197 0.3142-0.31421 0.59182-5.0727 0.59182-10.568v-10.017l-1.8537-2.761 5.5598-4.6929 3.667-2.8001c2.024-1.5357 7.3895-4.8027 11.949-7.2558 15.193-8.1732 16.917-9.2937 18.652-12.383 2.5692-4.573 3.773-11.007 2.6815-14.315-1.2619-3.8235-4.144-4.4279-23.699-5.0475l-16.168-0.51232-3.7074-2.5629c-1.4739-1.0171-7.0362-5.7844-10.095-8.3599 1.8133-6.3598 4.298-12.491 7.1372-17.273 3.1686-5.3339 12.732-17.32 16.799-21.058 1.1458-1.0524 2.0897-2.2045 2.0897-2.5629 0-1.0297-9.3555-0.73693-15.064 0.4732-6.0305 1.2783-14.019 4.7194-19.44 8.399-8.4634 5.7466-21.964 20.485-24.725 26.973-1.0322 2.4266-0.0921-6.3598 1.2228-11.47 0.96281-3.7516 0.93505-3.8512-1.1041-4.732-1.2379-0.53377-6.8419-0.86817-13.918-0.86817-9.8805 0.0025-12.87 0.29149-18.139 1.7742-1.1874 0.3344-2.3559 0.68015-3.5093 1.065-1.7956-1.6114-4.8065-4.2689-7.2558-6.4671 2.0859-1.3325 4.544-3.9434 4.6538-3.9434 0.16405 0 3.2645-2.7446 6.9012-6.0734 33.061-30.256 75.55-46.394 118.97-46.65m137.47 52.166c0.20695 0.22588 0.42652 0.44544 0.63094 0.67006h-0.63094z" fill="#ffffff"/>
 </g>
</svg>
