<?xml version="1.0" encoding="UTF-8" standalone="no"?>
<svg xmlns="http://www.w3.org/2000/svg" height="512" viewBox="0 0 512 512" width="512" version="1.1">
 <path d="m471.95 253.05c0 120.9-98.01 218.9-218.9 218.9-120.9 0-218.9-98.01-218.9-218.9 0-120.9 98.01-218.9 218.9-218.9 120.9 0 218.9 98.01 218.9 218.9" fill="#1793d1" fill-rule="evenodd" style="fill:#7370b8;fill-opacity:1"/>
 <path d="M 347.69678,149.82073 220.342,237.98942 161.56287,169.41377 34.874249,250.85226 c -0.401658,5.46646 -0.666164,10.9623 -0.666164,16.53652 0,1.15599 0.05878,2.29239 0.07837,3.44838 L 161.56287,189.01661 220.342,257.59226 347.69678,169.42357 481.89933,303.62612 c 0.93067,-5.76036 1.61642,-11.58929 2.10625,-17.48679 l -136.3088,-136.3088 z" style="fill:#ffffff;fill-opacity:1;stroke-width:9.79652119"/>
 <path style="fill:#ffffff;fill-opacity:1;" d="m 181.15591,179.21029 c 0,10.82516 -8.76789,19.59305 -19.59304,19.59305 -10.82516,0 -19.59305,-8.76789 -19.59305,-19.59305 0,-10.82515 8.76789,-19.59304 19.59305,-19.59304 10.82515,0 19.59304,8.76789 19.59304,19.59304 m 0,0"/>
 <path style="fill:#ffffff;fill-opacity:1;" d="m 239.93504,247.78595 c 0,10.82515 -8.76789,19.59304 -19.59304,19.59304 -10.82516,0 -19.59305,-8.76789 -19.59305,-19.59304 0,-10.82516 8.76789,-19.59305 19.59305,-19.59305 10.82515,0 19.59304,8.76789 19.59304,19.59305 m 0,0"/>
 <path style="fill:#ffffff;fill-opacity:1;" d="m 367.28982,159.61725 c 0,10.82516 -8.76789,19.59304 -19.59304,19.59304 -10.82516,0 -19.59305,-8.76788 -19.59305,-19.59304 0,-10.82516 8.76789,-19.59304 19.59305,-19.59304 10.82515,0 19.59304,8.76788 19.59304,19.59304 m 0,0"/>
</svg>
