<svg height="512" viewBox="0 0 512 512" width="512" xmlns="http://www.w3.org/2000/svg">
 <path d="m471.95 253.05c0 120.9-98.01 218.9-218.9 218.9-120.9 0-218.9-98.01-218.9-218.9 0-120.9 98.01-218.9 218.9-218.9 120.9 0 218.9 98.01 218.9 218.9" fill="#ef6a47" fill-rule="evenodd"/>
 <path d="m252.40665 88.373467c52.74833 1.05515 92.97853 27.990223 111.05517 52.102363l-114.03211 83.86722-35.43145-132.227132c13.39052-2.870055 26.23279-3.981527 38.4061-3.737853m-46.568 33.142985l33.79125 130.81337 126.84794 73.07894c-23.48457 47.4358-72.39505 80.05581-128.90537 80.05581-79.38915 0-143.744134-64.35843-143.744134-143.74414 0-68.48133 47.901304-125.74451 112.009164-140.20398m167.69766 38.71069c49.83804 60.38955 36.82682 127.57206 14.18821 162.74374l-128.29618-78.98686 114.11257-83.75343" fill="#ffffff" fill-rule="evenodd"/>
</svg>
