<svg xmlns="http://www.w3.org/2000/svg" height="512" width="512" version="1.1" viewBox="0 0 512 512">
 <path fill-rule="evenodd" fill-opacity=".847" d="m471.95 253.05c0 120.9-98.01 218.91-218.91 218.91s-218.91-98.01-218.91-218.91 98.01-218.91 218.91-218.91 218.91 98.01 218.91 218.91" fill="#00bced"/>
 <path d="m309.87 91.493c-10.422-0.0662-22.159 0.82863-35.828 1.9447v-0.0574c-28.071 3.9127-58.239 18.673-82.779 62.336-56.109 99.774-52.129 134.5-61.071 145.72-8.976 11.175-33.167 17.243-29.669 29.946 5.9462 11.918 8.0087 13.239 8.0087 13.239s34.352 53.051 136.8 38.722c102.44-14.33 116.65-37.678 115.71-49.269-0.92819-11.604-22.551-20.07-22.551-20.07s-15.998-60.942-11.888-85.96c4.1088-25.029 19.711-61.499 35.139-69.348 15.382-7.9231 23.082 26.508 31.039 18.01 7.9262-8.5147-13.172-58.643-38.942-73.583-12.887-8.7575-26.601-11.52-43.971-11.63zm-49.461 43.914 10.49 26.488 27.801 10.04-21.44 17.301-0.45957 28.078-22.752-14.724-30.435 9.9055 8.526-27.216-15.864-25.099 28.854-1.5519 15.28-23.221zm-9.302 113.29 7.089 27.609 26.316 13.565-23.423 14.379-3.9948 27.772-20.664-17.474-31.46 5.9299 11.85-25.885-12.559-26.958 28.816 2.1842 18.029-21.123z" fill="#ffffff"/>
</svg>
