<?xml version="1.0" encoding="UTF-8" standalone="no"?>
<svg
   xmlns:dc="http://purl.org/dc/elements/1.1/"
   xmlns:cc="http://creativecommons.org/ns#"
   xmlns:rdf="http://www.w3.org/1999/02/22-rdf-syntax-ns#"
   xmlns:svg="http://www.w3.org/2000/svg"
   xmlns="http://www.w3.org/2000/svg"
   xmlns:sodipodi="http://sodipodi.sourceforge.net/DTD/sodipodi-0.dtd"
   xmlns:inkscape="http://www.inkscape.org/namespaces/inkscape"
   version="1.1"
   viewBox="0 0 512 512"
   id="svg6"
   sodipodi:docname="kdenlive.svg"
   inkscape:version="0.92.4 5da689c313, 2019-01-14">
  <metadata
     id="metadata12">
    <rdf:RDF>
      <cc:Work
         rdf:about="">
        <dc:format>image/svg+xml</dc:format>
        <dc:type
           rdf:resource="http://purl.org/dc/dcmitype/StillImage" />
      </cc:Work>
    </rdf:RDF>
  </metadata>
  <defs
     id="defs10" />
  <sodipodi:namedview
     pagecolor="#ffffff"
     bordercolor="#666666"
     borderopacity="1"
     objecttolerance="10"
     gridtolerance="10"
     guidetolerance="10"
     inkscape:pageopacity="0"
     inkscape:pageshadow="2"
     inkscape:window-width="1920"
     inkscape:window-height="1021"
     id="namedview8"
     showgrid="false"
     inkscape:zoom="0.4609375"
     inkscape:cx="256"
     inkscape:cy="256"
     inkscape:window-x="0"
     inkscape:window-y="0"
     inkscape:window-maximized="1"
     inkscape:current-layer="svg6" />
  <path
     d="m471.95 253.05c0 120.9-98.01 218.9-218.9 218.9-120.9 0-218.9-98.01-218.9-218.9 0-120.9 98.01-218.9 218.9-218.9 120.9 0 218.9 98.01 218.9 218.9"
     fill="#18222d"
     fill-rule="evenodd"
     id="path2"
     style="fill:#567ba3;fill-opacity:1" />
  <path
     d="m447.66 152.78c5.31 10.284 9.821 21.03 13.469 32.19v13.594c0 2.223 1.777 4.03 4 4.03h.969c3.824 16.202 5.844 33.1 5.844 50.47 0 19.659-2.609 38.687-7.469 56.813-1.906.31-3.344 1.938-3.344 3.938v7.313c-4.348 13.3-9.934 26.02-16.625 38.06h-229.75c-4.396 0-7.938-3.541-7.938-7.938v-190.53c0-4.396 3.541-7.938 7.938-7.938h232.91m-271.22 0c4.396 0 7.938 3.541 7.938 7.938v190.53c0 4.396-3.541 7.938-7.938 7.938h-114.87c-17.462-31.438-27.406-67.61-27.406-106.12 0-36.14 8.768-70.24 24.281-100.28h118m259.31 20.75h-11.03c-2.223 0-4.03 1.808-4.03 4.03v21c0 2.223 1.808 4.03 4.03 4.03h11.03c2.223 0 4.03-1.808 4.03-4.03v-21c0-2.223-1.808-4.03-4.03-4.03m-40.41 0h-11.06c-2.223 0-4 1.808-4 4.03v21c0 2.223 1.777 4.03 4 4.03h11.06c2.223 0 4-1.808 4-4.03v-21c0-2.223-1.777-4.03-4-4.03m-40.41 0h-11.06c-2.223 0-4.03 1.808-4.03 4.03v21c0 2.223 1.808 4.03 4.03 4.03h11.06c2.223 0 4-1.808 4-4.03v-21c0-2.223-1.777-4.03-4-4.03m-40.44 0h-11.03c-2.223 0-4.03 1.808-4.03 4.03v21c0 2.223 1.808 4.03 4.03 4.03h11.03c2.223 0 4.03-1.808 4.03-4.03v-21c0-2.223-1.808-4.03-4.03-4.03m-40.41 0h-11.06c-2.223 0-4 1.808-4 4.03v21c0 2.223 1.777 4.03 4 4.03h11.06c2.223 0 4-1.808 4-4.03v-21c0-2.223-1.777-4.03-4-4.03m-40.41 0h-11.06c-2.223 0-4.03 1.808-4.03 4.03v21c0 2.223 1.808 4.03 4.03 4.03h11.06c2.223 0 4-1.808 4-4.03v-21c0-2.223-1.777-4.03-4-4.03m-77.22 0h-11.06c-2.223 0-4 1.808-4 4.03v21c0 2.223 1.777 4.03 4 4.03h11.06c2.223 0 4-1.808 4-4.03v-21c0-2.223-1.777-4.03-4-4.03m-40.41 0h-11.06c-2.223 0-4.03 1.808-4.03 4.03v21c0 2.223 1.808 4.03 4.03 4.03h11.06c2.223 0 4-1.808 4-4.03v-21c0-2.223-1.777-4.03-4-4.03m-40.44 0h-11.06c-2.223 0-4 1.808-4 4.03v21c0 2.223 1.777 4.03 4 4.03h11.06c2.223 0 4.03-1.808 4.03-4.03v-21c0-2.223-1.808-4.03-4.03-4.03m80.84 132.34h-11.06c-2.223 0-4 1.777-4 4v21.03c0 2.223 1.777 4 4 4h11.06c2.223 0 4-1.777 4-4v-21.03c0-2.223-1.777-4-4-4m-40.41 0h-11.06c-2.223 0-4.03 1.777-4.03 4v21.03c0 2.223 1.808 4 4.03 4h11.06c2.223 0 4-1.777 4-4v-21.03c0-2.223-1.777-4-4-4m-40.44 0h-11.06c-2.223 0-4 1.777-4 4v21.03c0 2.223 1.777 4 4 4h11.06c2.223 0 4.03-1.777 4.03-4v-21.03c0-2.223-1.808-4-4.03-4m360.13 3.938h-11.03c-2.223 0-4.03 1.777-4.03 4v21.03c0 2.223 1.808 4 4.03 4h11.03c2.223 0 4.03-1.777 4.03-4v-21.03c0-2.223-1.808-4-4.03-4m-40.41 0h-11.06c-2.223 0-4 1.777-4 4v21.03c0 2.223 1.777 4 4 4h11.06c2.223 0 4-1.777 4-4v-21.03c0-2.223-1.777-4-4-4m-40.41 0h-11.06c-2.223 0-4.03 1.777-4.03 4v21.03c0 2.223 1.808 4 4.03 4h11.06c2.223 0 4-1.777 4-4v-21.03c0-2.223-1.777-4-4-4m-40.44 0h-11.03c-2.223 0-4.03 1.777-4.03 4v21.03c0 2.223 1.808 4 4.03 4h11.03c2.223 0 4.03-1.777 4.03-4v-21.03c0-2.223-1.808-4-4.03-4m-40.41 0h-11.06c-2.223 0-4 1.777-4 4v21.03c0 2.223 1.777 4 4 4h11.06c2.223 0 4-1.777 4-4v-21.03c0-2.223-1.777-4-4-4m-40.41 0h-11.06c-2.223 0-4.03 1.777-4.03 4v21.03c0 2.223 1.808 4 4.03 4h11.06c2.223 0 4-1.777 4-4v-21.03c0-2.223-1.777-4-4-4"
     fill="#ffffff"
     fill-rule="evenodd"
     id="path4" />
  <path
     inkscape:connector-curvature="0"
     style="opacity:1;fill:#ffffff;fill-rule:evenodd"
     d="m 141.68923,104.67847 v 315.66 h 107.13 v -315.66 h -107.12"
     id="path18" />
</svg>
