<?xml version="1.0" encoding="UTF-8" standalone="no"?>
<svg
   xmlns:dc="http://purl.org/dc/elements/1.1/"
   xmlns:cc="http://creativecommons.org/ns#"
   xmlns:rdf="http://www.w3.org/1999/02/22-rdf-syntax-ns#"
   xmlns:svg="http://www.w3.org/2000/svg"
   xmlns="http://www.w3.org/2000/svg"
   xmlns:sodipodi="http://sodipodi.sourceforge.net/DTD/sodipodi-0.dtd"
   xmlns:inkscape="http://www.inkscape.org/namespaces/inkscape"
   height="512"
   viewBox="0 0 512 512"
   width="512"
   version="1.1"
   id="svg848"
   sodipodi:docname="key.svg"
   inkscape:version="0.92.4 5da689c313, 2019-01-14">
  <metadata
     id="metadata854">
    <rdf:RDF>
      <cc:Work
         rdf:about="">
        <dc:format>image/svg+xml</dc:format>
        <dc:type
           rdf:resource="http://purl.org/dc/dcmitype/StillImage" />
        <dc:title></dc:title>
      </cc:Work>
    </rdf:RDF>
  </metadata>
  <defs
     id="defs852" />
  <sodipodi:namedview
     pagecolor="#ffffff"
     bordercolor="#666666"
     borderopacity="1"
     objecttolerance="10"
     gridtolerance="10"
     guidetolerance="10"
     inkscape:pageopacity="0"
     inkscape:pageshadow="2"
     inkscape:window-width="1920"
     inkscape:window-height="1021"
     id="namedview850"
     showgrid="false"
     inkscape:zoom="0.921875"
     inkscape:cx="-74.110023"
     inkscape:cy="366.09996"
     inkscape:window-x="0"
     inkscape:window-y="0"
     inkscape:window-maximized="1"
     inkscape:current-layer="svg848" />
  <path
     d="m 471.95,250.88051 c 0,120.9 -98.01,218.9 -218.9,218.9 -120.9,0 -218.9,-98.01 -218.9,-218.9 0,-120.9 98.01,-218.900002 218.9,-218.900002 120.9,0 218.9,98.010002 218.9,218.900002"
     id="path832"
     inkscape:connector-curvature="0"
     style="fill:#e4a63a;fill-rule:evenodd;fill-opacity:1" />
  <path
     inkscape:connector-curvature="0"
     style="fill:#ffffff;stroke-width:13.85561371;fill-opacity:1"
     d="m 403.95356,186.9056 c -28.22898,-29.73251 -75.2015,-30.95098 -104.93401,-2.72199 -9.29454,8.82453 -15.81464,19.50477 -19.51069,30.8855 -0.001,0.0393 -0.10944,0.0659 -0.11052,0.10499 l -194.569668,-5.04713 -21.533216,20.44432 20.44432,21.53322 13.985989,0.36279 14.358825,-13.63272 13.63272,14.35881 13.98598,0.36282 13.63273,14.35881 13.98597,0.3628 14.35883,-13.63273 13.98598,0.3628 13.63273,14.35883 14.35881,-13.63272 54.65111,1.41764 c 0.009,0.0493 0.0964,0.0612 0.10499,0.11051 3.10105,11.55706 9.05866,22.56096 17.88319,31.8555 28.22899,29.73253 75.20151,30.95098 104.93402,2.722 l 0.22107,-0.20989 c 29.56675,-28.26272 30.66313,-75.06195 2.5009,-104.72413 z m -18.49019,38.01748 c 7.50801,7.90791 7.16324,20.44384 -0.7261,27.99154 -7.928,7.52709 -20.46447,7.20191 -27.99156,-0.72609 -7.52709,-7.928 -7.20189,-20.46446 0.72611,-27.99156 7.92799,-7.52709 20.46446,-7.2019 27.99155,0.72611 z"
     id="path8" />
</svg>
