<svg width="512" height="512" version="1.1" viewBox="0 0 512 512" xmlns="http://www.w3.org/2000/svg">
 <path d="m471.95 253.05c0 120.9-98.01 218.9-218.9 218.9-120.9 0-218.9-98.01-218.9-218.9 0-120.9 98.01-218.9 218.9-218.9 120.9 0 218.9 98.01 218.9 218.9" fill="#299ebf" fill-rule="evenodd"/>
 <path d="m159.84 116.17v275.32h39.332v-172.92l63.068-63.068h45.094v70.138a39.332 39.332 0 0 0-29.499 38.024 39.332 39.332 0 0 0 39.332 39.332 39.332 39.332 0 0 0 39.332-39.332 39.332 39.332 0 0 0-29.499-38.044v-70.119h29.499v-39.332zm39.332 39.332h35.261l-35.261 35.261zm118 88.496a19.666 19.666 0 0 1 19.666 19.666 19.666 19.666 0 0 1-19.666 19.666 19.666 19.666 0 0 1-19.666-19.666 19.666 19.666 0 0 1 19.666-19.666z" fill="#ffffff" stroke-width="9.8329"/>
</svg>
