<svg width="512" height="512" version="1.1" viewBox="0 0 512 512" xmlns="http://www.w3.org/2000/svg">
 <path d="m471.95 253.05c0 120.9-98.01 218.9-218.9 218.9-120.9 0-218.9-98.01-218.9-218.9 0-120.9 98.01-218.9 218.9-218.9 120.9 0 218.9 98.01 218.9 218.9" fill="#d9a76b" fill-rule="evenodd"/>
 <g transform="matrix(11.92 0 0 11.92 -29.707 -42.724)" fill="#ffffff">
  <g fill="#ffffff">
   <g fill="#ffffff">
    <path d="m23 30.5c0 3.039-2.461 5.5-5.5 5.5s-5.5-2.461-5.5-5.5 2.461-5.5 5.5-5.5 5.5 2.461 5.5 5.5"/>
    <path d="m36 30.5c0 3.039-2.461 5.5-5.5 5.5s-5.5-2.461-5.5-5.5 2.461-5.5 5.5-5.5 5.5 2.461 5.5 5.5"/>
    <path d="m23 17.5c0 3.039-2.461 5.5-5.5 5.5s-5.5-2.461-5.5-5.5 2.461-5.5 5.5-5.5 5.5 2.461 5.5 5.5"/>
    <path d="m36 17.5c0 3.039-2.461 5.5-5.5 5.5s-5.5-2.461-5.5-5.5 2.461-5.5 5.5-5.5 5.5 2.461 5.5 5.5"/>
   </g>
  </g>
 </g>
</svg>
