<svg width="512" height="512" version="1.1" viewBox="0 0 512 512" xmlns="http://www.w3.org/2000/svg">
 <path d="m471.95 253.05c0 120.9-98.01 218.9-218.9 218.9-120.9 0-218.9-98.01-218.9-218.9 0-120.9 98.01-218.9 218.9-218.9 120.9 0 218.9 98.01 218.9 218.9" fill="#3c8dac" fill-rule="evenodd"/>
 <path d="m253.04 80.001c-30.577 0-85.615 89.834-85.615 140.65v116.19c0 50.818 34.796 61.153 85.615 61.153s85.615-10.335 85.615-61.153v-116.19c0-50.818-55.038-140.65-85.615-140.65zm0 207.92a24.461 24.461 0 0 1 24.461 24.461 24.461 24.461 0 0 1-24.461 24.461 24.461 24.461 0 0 1-24.461-24.461 24.461 24.461 0 0 1 24.461-24.461z" fill="#ffffff" stroke-width="12.231"/>
</svg>
