<svg height="512" viewBox="0 0 512 512" width="512" xmlns="http://www.w3.org/2000/svg">
 <path d="m471.95 253.05c0 120.9-98.01 218.91-218.91 218.91s-218.91-98.01-218.91-218.91 98.01-218.91 218.91-218.91 218.91 98.01 218.91 218.91" fill="#f78914" fill-rule="evenodd"/>
 <path d="m253.03 34.16c-95.02 0-175.89 60.54-206.16 145.16-.317 6.813-.329 13.708-.031 20.719 3.854 90.6 77.74 181.53 178.44 170.63 57.53-6.228 103.53-60.934 74.16-107.62-9.332-14.832-31.998-16.11-42.656-9 51.21-1.445 26.21 59.56-18.781 68.875-61.47 12.721-108.65-46.673-112.91-101.94-7.957-103.28 91.92-176.43 187.44-176.09 3.01.011 6 .095 8.969.219-21.54-7.087-44.556-10.938-68.47-10.938m52.09 106.22c-2.944-.038-6 .047-9 .188-3.093.145-6.26.441-9.406.781-57.53 6.228-103.53 60.934-74.16 107.63 9.332 14.832 31.998 16.11 42.656 9-51.21 1.445-26.21-59.56 18.781-68.875 61.47-12.721 108.65 46.673 112.91 101.94 7.759 100.71-87.05 172.77-180.34 175.97 14.976 3.237 30.524 4.969 46.47 4.969 101.85 0 187.46-69.58 211.91-163.78-5.348-83.76-69.911-166.66-159.81-167.81" fill="#ffffff"/>
</svg>
