<svg xmlns="http://www.w3.org/2000/svg" height="512" width="512" version="1.1" viewBox="0 0 512 512">
 <path opacity=".705" fill-rule="evenodd" d="m471.95 253.05c0 120.9-98.01 218.9-218.9 218.9-120.9 0-218.9-98.01-218.9-218.9 0-120.9 98.01-218.9 218.9-218.9 120.9 0 218.9 98.01 218.9 218.9" fill="#989898"/>
 <path d="m241.87 408.57c-55.009-29.611-99.85-89.709-122.15-163.7-7.9956-26.535-16.334-71.087-13.862-74.065 0.64631-0.77876 5.8114-2.9423 11.478-4.8079 45.88-15.105 96.479-38.833 123.87-58.088 4.4817-3.1504 8.7286-5.728 9.4377-5.728 0.70909 0 5.4279 2.3246 10.486 5.1657 22.369 12.564 64.305 30.756 119.44 51.813 10.232 3.9077 19.244 7.7196 20.027 8.4709 1.568 1.5038 0.96871 7.2016-3.1404 29.854-15.22 83.905-55.417 154.94-111.69 197.36-8.0415 6.063-30.333 19.345-32.42 19.318-0.61748-0.008-5.7836-2.5239-11.48-5.5904z" fill="#ffffff"/>
</svg>
