<svg xmlns="http://www.w3.org/2000/svg" height="512" width="512" version="1.1" viewBox="0 0 512 512">
 <path opacity=".705" fill="#989898" d="m471.95 253.05c0 120.9-98.01 218.9-218.9 218.9-120.9 0-218.9-98.01-218.9-218.9 0-120.9 98.01-218.9 218.9-218.9 120.9 0 218.9 98.01 218.9 218.9" fill-rule="evenodd"/>
 <path fill="#ffffff" display="block" d="m252.95 100.84c-60.31 45.16-154.83 72.88-154.83 72.88 24.44 208.52 157.54 259.13 157.54 259.13s131.74-52.636 158.22-262.17c0 0-114.08-41.503-160.94-69.846zm0.75172 15.764 34.458 60.302h-34.458l34.458 60.304h-68.917l34.46-60.304h-34.46l34.46-60.302z"/>
</svg>
