<svg width="512" height="512" version="1.1" viewBox="0 0 512 512" xmlns="http://www.w3.org/2000/svg">
 <path d="m471.95 253.05c0 120.9-98.01 218.9-218.9 218.9-120.9 0-218.9-98.01-218.9-218.9 0-120.9 98.01-218.9 218.9-218.9 120.9 0 218.9 98.01 218.9 218.9" fill="#2c9b49" fill-rule="evenodd"/>
 <path d="m159.58 112.93c-11.616 0-20.965 9.3517-20.965 20.968v7e-3h15.428c3.0893 0 5.5761 2.4868 5.5761 5.5761v9.8153c0 3.0893-2.4868 5.5761-5.5761 5.5761h-15.428v21.004h15.428c3.0893 0 5.5761 2.4891 5.5761 5.5784v9.813c0 3.0893-2.4868 5.5762-5.5761 5.5762h-15.428v21.006h15.428c3.0893 0 5.5761 2.4868 5.5761 5.5761v9.813c0 3.0893-2.4868 5.5784-5.5761 5.5784h-15.428v21.004h15.428c3.0893 0 5.5761 2.4868 5.5761 5.5761v9.8153c0 3.0893-2.4868 5.5761-5.5761 5.5761h-15.428v20.968h15.428c3.0893 0 5.5761 2.4868 5.5761 5.5762v9.813c0 3.0893-2.4868 5.5784-5.5761 5.5784h-15.428v21.004h15.428c3.0893 0 5.5761 2.4868 5.5761 5.5761v9.8153c0 3.0893-2.4868 5.5762-5.5761 5.5762h-15.428v0.0654c0 11.616 9.3494 20.968 20.965 20.968h188.89c11.616 0 20.968-9.3517 20.968-20.968v-230.86c0-11.616-9.3517-20.968-20.968-20.968zm104.17 21.078a52.455 52.455 0 0 1 37.845 15.391 52.455 52.455 0 0 1 6.6534 65.988l15.615 15.613-14.834 14.834-15.651-15.651a52.455 52.455 0 0 1-65.952-6.6173 52.455 52.455 0 0 1 0-74.166 52.455 52.455 0 0 1 36.323-15.391zm1.2264 20.968v0.0361a31.488 31.488 0 0 0-22.716 9.2213 31.488 31.488 0 0 0 0 44.498 31.488 31.488 0 0 0 35.801 6.134l-13.533-13.533 14.834-14.831 13.533 13.53a31.488 31.488 0 0 0-6.134-35.799 31.488 31.488 0 0 0-21.785-9.2574zm-1.2264 104.95a52.455 52.455 0 0 1 37.845 15.353 52.455 52.455 0 0 1 6.6534 66.024l15.615 15.577-14.834 14.872-15.651-15.69a52.455 52.455 0 0 1-65.952-6.6173 52.455 52.455 0 0 1 0-74.166 52.455 52.455 0 0 1 36.323-15.353zm1.2264 21.004a31.488 31.488 0 0 0-22.716 9.219 31.488 31.488 0 0 0 0 44.501 31.488 31.488 0 0 0 35.801 6.134l-13.533-13.569 14.834-14.834 13.533 13.569a31.488 31.488 0 0 0-6.134-35.801 31.488 31.488 0 0 0-21.785-9.219z" fill="#ffffff"/>
</svg>
