<svg width="512" height="512" version="1.1" viewBox="0 0 512 512" xmlns="http://www.w3.org/2000/svg">
 <path d="m471.95 253.05c0 120.9-98.01 218.9-218.9 218.9-120.9 0-218.9-98.01-218.9-218.9 0-120.9 98.01-218.9 218.9-218.9 120.9 0 218.9 98.01 218.9 218.9" fill="#3855e4" fill-rule="evenodd"/>
 <path d="m300.32 115.5c-8.8039-0.21165-17.723 0.46065-26.602 2.237-27.077 5.4072-85.694 36.169-113.63 71.028-3.079 3.838-3.1573 4.145-4.9362 6.4439-23.233 1.4182-38.441-3.7644-44.791 0.68102-8.2002 5.7576 4.4871 38.521 15.392 58.068-0.94869 4.0048-1.4761 8.255-1.1915 12.985 0.99974 16.684 3.3172 30.803 6.4439 43.137a28.41 14.205 0 0 0-20.645 13.666 28.41 14.205 0 0 0 16.316 12.839c-0.20916 2.9429 1.268 5.7823 5.0093 8.4379 16.906 11.994 27.411 18.856 34.772 22.76 20.408 13.699 44.953 13.682 66.165 9.2403 28.364-5.9408 55.938-15.297 75.746-29.666 7.2727-3.1484 13.524-6.9528 18.432-11.477 5.0949-2.2312 7.3897-3.2746 11.721-5.155 15.034-6.5542 37.227-17.153 55.66-26.164 18.433-9.0121 37.204-8.146 37.204-8.146s-25.206-27.666-42.165-33.605c-11.961-4.1782-38.055 0-38.055 0s20.787-17.069 32.584-23.295c14.091-7.4144 44.815-16.438 44.815-16.438s-23.894-19.708-39.952-24.705c-27.682-8.6505-39.004-4.2057-43.04-1.3374 2.8331-2.7363 15.57-14.955 24.535-19.915 14.747-8.1927 48.001-16.146 48.001-16.146s-56.162-43.994-117.79-45.472zm-82.919 111.2c25.366 0 25.009 50.72 12.304 76.086-12.661 25.366-63.028 0-63.028 0l-25.386 5.5198s-4.6726-5.4301-5.4226-8.8268c-3.4409-15.528-10.061-43.667 5.4226-47.417 14.822-3.5733 25.386 38.031 25.386 38.031s7.0798-33.053 17.8-45.228c8.2934-9.4405 20.264-18.164 32.924-18.164zm-6.5168 26.213a12.682 25.364 0 0 0-12.693 25.362 12.682 25.364 0 0 0 12.693 25.362 12.682 25.364 0 0 0 12.669-25.362 12.682 25.364 0 0 0-12.669-25.362zm-60.062 14.079a9.5116 19.023 0 0 0-9.5077 19.016 9.5116 19.023 0 0 0 9.5077 19.04 9.5116 19.023 0 0 0 9.5077-19.04 9.5116 19.023 0 0 0-9.5077-19.016z" fill="#ffffff" fill-rule="evenodd" stroke-width="40.963"/>
</svg>
