<svg xmlns="http://www.w3.org/2000/svg" height="512" viewBox="0 0 512 512" width="512">
 <path d="M471.95 253.05c0 120.9-98.01 218.9-218.9 218.9-120.9 0-218.9-98.01-218.9-218.9 0-120.9 98.01-218.9 218.9-218.9 120.9 0 218.9 98.01 218.9 218.9" fill="#d5a513" fill-rule="evenodd"/>
 <g fill="#fff">
  <path d="M104.192 204.694v85.627h99.94v-85.626zm214.092 0v85.627h99.94v-85.626z"/>
  <path d="M132.734 247.5a28.548 42.822 0 1 1-57.096 0 28.548 42.822 0 1 1 57.096 0zM446.76 247.5a28.548 42.822 0 1 1-57.095 0 28.548 42.822 0 1 1 57.096 0zM261.183 133.33c-63.07 0-114.203 51.082-114.203 114.202 0 63.07 51.083 114.203 114.203 114.203 63.07 0 114.203-51.082 114.203-114.203 0-63.07-51.083-114.203-114.203-114.203zm0 71.364c23.67 0 42.838 19.168 42.838 42.838s-19.167 42.84-42.837 42.84-42.84-19.17-42.84-42.84 19.17-42.838 42.84-42.838z"/>
 </g>
</svg>
