<svg width="512" height="512" version="1.1" viewBox="0 0 512 512" xmlns="http://www.w3.org/2000/svg">
 <path d="m471.95 253.05c0 120.9-98.01 218.9-218.9 218.9-120.9 0-218.9-98.01-218.9-218.9 0-120.9 98.01-218.9 218.9-218.9 120.9 0 218.9 98.01 218.9 218.9" fill="#d12727" fill-rule="evenodd"/>
 <path d="m111.49 363.67c-10.618-12.555-7.001-24.118 3.8389-35.122 13.197-12.322 25.717-17.398 38.436-24.585v-9.4514c0.72344-1.8669 1.8086-3.8272 8.0745-7.1877l15.379-0.37338c3.4072-4.4923 6.5459-7.7244 11.528-7.1877 8.8446 0.75844 31.458 39.591 65.728 39.334 13.745-1.4352 23.897-2.8237 33.827-9.4514l-69.567-74.117c-9.5447 8.4362-18.354 18.343-29.218 24.2-14.504-11.073-27.922-23.663-38.821-39.707l66.498-58.575 55.355-3.4072 11.143 11.342c-9.8598 11.47-19.731 21.68-29.591 31.014l69.952 73.744c7.4327-5.4141 9.148-22.018 9.183-37.7-2.2753-52.076-60.162-101.61-99.391-144.3 46.557 10.933 146.6 63.382 151.33 159.69-3.1271 21.668-6.3592 43.325-21.528 64.293l20.373 20.805-37.665 35.122-17.678-15.881c-21.015 6.0442-31.014 17.036-68.038 15.881-17.456-0.60676-54.911-6.5576-83.405-45.005-9.6731 15.426-21.201 28.809-34.982 39.707-8.8446 5.0407-17.888 9.2413-30.746-3.0221z" fill="#ffffff" stroke-width="11.668"/>
</svg>
