<svg width="512" height="512" version="1.1" viewBox="0 0 512 512" xmlns="http://www.w3.org/2000/svg">
 <path d="m471.95 253.05c0 120.9-98.01 218.9-218.9 218.9-120.9 0-218.9-98.01-218.9-218.9 0-120.9 98.01-218.9 218.9-218.9 120.9 0 218.9 98.01 218.9 218.9" fill="#c977a1" fill-rule="evenodd"/>
 <path d="m160.41 376.47h80.401s-39.845-57.429 28.715-57.429c68.823 0 28.715 57.429 28.715 57.429h80.401v-80.401s-57.429 27.509-57.429-34.458c0-63.436 57.429-34.458 57.429-34.458v-80.401h-80.401s28.761-45.944-28.715-45.944c-45.944 0-40.201 22.972-28.715 45.944h-80.401v80.401s-57.429-34.458-57.429 34.458c0 68.915 57.429 34.458 57.429 34.458" fill="#ffffff" stroke-width="11.486"/>
</svg>
