<svg xmlns="http://www.w3.org/2000/svg" height="512" width="512">
 <path d="M471.95 253.05c0 120.9-98.01 218.9-218.9 218.9-120.9 0-218.9-98.01-218.9-218.9 0-120.9 98.01-218.9 218.9-218.9 120.9 0 218.9 98.01 218.9 218.9" fill="#20a35e" fill-rule="evenodd"/>
 <path d="M405.733 371.882l-8.923 9.59-2.386-2.123c-1.313-1.17-25.478-23.412-53.7-49.43-46.14-42.533-51.29-47.605-51.06-50.3.222-2.568-1.348-4.487-10.92-13.35-6.146-5.692-11.782-10.115-12.523-9.828-.74.287-4.904 2.976-9.254 5.976-13.697 9.446-32.194 15.087-49.38 15.06-41.36-.066-77.15-28.665-86.753-69.32-2.634-11.15-2.407-29.715.5-41.066 6.445-25.15 23.46-46.262 46.475-57.665 14.188-7.03 23.864-9.272 40-9.272 15.687 0 25.363 2.174 38.96 8.755 46.454 22.486 63.53 79.927 37.223 125.214l-4.858 8.365 8.338 7.745c14.284 13.27 15.217 13.937 17.502 12.51 1.79-1.118 7.91 4.186 55.89 48.435 29.634 27.33 53.86 50.01 53.837 50.4-.025.392-4.06 5.028-8.967 10.302zm-131.96-203.015c-3.535-11.558-8.22-19.23-17.427-28.546-14.574-14.744-31.953-21.492-52.67-20.45-28.39 1.425-52.932 20.206-61.596 47.138-16.837 52.334 29.65 101.716 83.243 88.43 30.777-7.63 53.215-38.563 51.188-70.57-.308-4.892-1.54-12.092-2.736-16z" fill="#fff"/>
</svg>
