<svg xmlns="http://www.w3.org/2000/svg" height="512" viewBox="0 0 512 512" width="512">
 <path d="M471.95 253.05c0 120.9-98.01 218.9-218.9 218.9-120.9 0-218.9-98.01-218.9-218.9 0-120.9 98.01-218.9 218.9-218.9 120.9 0 218.9 98.01 218.9 218.9" fill="#88b6c9" fill-rule="evenodd"/>
 <g fill="#fff">
  <path d="M278.37 73.28l20.2 89.063-43.014 69.448-68.53-43.905-20.2-89.064zM90.65 220.017l88.645-20.296 69.12 43.218-43.698 68.855-88.645 20.296zM237.17 408.927l-20.202-89.064 43.014-69.448 68.53 43.906 20.2 89.066zM426.292 261.87l-88.644 20.297-69.12-43.217 43.698-68.855L400.87 149.8z"/>
 </g>
</svg>
