<svg height="512" viewBox="0 0 135.47 135.47" width="512" xmlns="http://www.w3.org/2000/svg">
 <g transform="translate(0 -161.53332)">
  <path d="m66.95544 170.43814c-32.05691 0-58.05223 25.99267-58.05223 58.05223 0 32.05692 25.99267 58.0443 58.05223 58.0443 32.056923 0 58.0443-25.98209 58.0443-58.04165 0-32.05692-25.982085-58.05223-58.04165-58.05223" fill="#924565" fill-rule="evenodd"/>
  <path d="m100.98087 181.4591v94.05938c14.55208-10.54603 24.01887-27.68071 24.01887-47.02969 0-19.34634-9.46838-36.48075-24.01887-47.02969" fill="#924565"/>
  <path d="m77.962112 171.48827v113.99309c8.471959-1.6256 16.290397-5.08661 23.018758-9.96315v-94.05938c-6.730478-4.87944-14.544418-8.34496-23.018758-9.97161" fill="#d23638"/>
  <path d="m31.92461 182.20522c-13.98402 10.59921-23.01875 27.38702-23.01875 46.28621 0 18.89919 9.03287 35.687 23.01875 46.28621v-92.56977" fill="#79c943"/>
  <path d="m54.94336 171.68804c-8.509 1.79069-16.32929 5.44644-23.01875 10.51718v92.57242c6.68867 5.06942 14.5116 8.71908 23.01875 10.50899v-113.59621" fill="#6ea6c1"/>
  <path d="m66.95544 170.43814c-4.11903 0-8.13726.4326-12.01472 1.24857v113.59621c3.87614.81545 7.89516 1.24857 12.01472 1.24857 3.762645 0 7.442735-.36644 11.005085-1.05013v-113.99309c-3.563144-.68394-7.242175-1.05013-11.005085-1.05013" fill="#f3f284"/>
  <path d="m89.363009 191.94454c-17.389211.12752-34.790069-.1651-52.173189.14896-7.81765 1.2184-13.33765 8.85719-13.75013 16.47825-.43286 8.13038.0648 16.27716-.14261 24.41575.0267 6.43387-.28258 12.91352.40719 19.31458 1.33085 6.70825 6.42673 13.07571 13.46888 14.1314 14.21262.35639 28.43213-.0206 42.648189.15637 6.458215-.0553 12.956118.16854 19.388668-.32174 7.942793-1.82853 13.059833-10.05416 12.891563-17.97473.21034-10.93258-.0611-21.86781.10451-32.8004-.0849-4.74715.22701-9.76286-2.08174-14.06525-2.55985-5.40491-8.07588-9.78059-14.319256-9.43372-2.1463-.0765-4.293923-.0627-6.441017-.05" fill="#ffffff"/>
  <path d="m38.87257 199.24174h57.803522c4.707468 0 8.469318 4.6617 8.469318 10.53333v39.04192c0 5.8711-3.76873 10.58069-8.469318 10.58069h-57.803522c-4.69927 0-8.46931-4.70906-8.46931-10.58069v-39.04192c0-5.8711 3.76131-10.53333 8.46931-10.53333" fill="#4ba077"/>
  <path d="m77.962112 199.24439v60.15038h18.711334c1.574007 0 3.049059-.52388 4.307684-1.44701v-57.26642c-1.258625-.91599-2.731296-1.4388-4.307684-1.4388h-18.711334" fill="#d23638"/>
  <path d="m38.86992 199.24439c-2.89189 0-5.42025 1.76292-6.94531 4.48151v51.16513c1.52665 2.73209 4.05844 4.50585 6.94531 4.50585h16.07344v-60.15037h-16.07344" fill="#6ea6c1"/>
  <path d="m31.92461 203.72643c-.95753 1.70656-1.52135 3.78778-1.52135 6.05235v39.04191c0 2.26457.56303 4.35372 1.52135 6.06902v-51.16248" fill="#79c943"/>
  <path d="m54.94336 199.24439v60.15038h23.018752v-60.15038z" fill="#f3f284"/>
  <path d="m100.98087 200.68372v57.26642c2.49925-1.8333 4.15898-5.22287 4.15898-9.12812v-39.04192c0-3.90525-1.65946-7.27578-4.15898-9.09505" fill="#924565"/>
  <path d="m38.87257 199.24439c-4.7072 0-8.47196 4.66222-8.47196 10.53386v39.04191c0 5.87111 3.77296 10.58175 8.47196 10.58175h13.65647c17.854082-13.34294 12.8905-34.54929 26.52977-60.15831h-40.18492" fill="#ffffff" fill-opacity=".33"/>
 </g>
</svg>
