<svg height="512" viewBox="0 0 135.47 135.47" width="512" xmlns="http://www.w3.org/2000/svg">
 <g transform="translate(0 -161.53332)">
  <path d="m124.8701 228.48613c0 31.98813-25.931813 57.91994-57.919939 57.91994-31.988125 0-57.9199386-25.93181-57.9199386-57.91994 0-31.98812 25.9318136-57.91993 57.9199386-57.91993 31.988126 0 57.919939 25.93181 57.919939 57.91993" fill="#68af4c" fill-rule="evenodd"/>
  <rect fill="#ffffff" height="71.44" rx="14.706" width="85.704" x="24.89" y="193.54"/>
  <rect fill="#4e8439" height="58.042" rx="8.792" width="72.472" x="31.5" y="200.24"/>
  <path d="m80.996885 203.57562v38.20054c0 3.94891-3.169973 7.12735-7.118879 7.12735h-38.216418v.13229c0 3.27766 2.634192 5.92005 5.91185 5.92005h52.321356c3.277658 0 5.91185-2.64239 5.91185-5.92005v-39.53934c0-3.27765-2.634192-5.92005-5.91185-5.92005h-12.898438" fill="#ffffff"/>
  <path d="m70.873926 244.69187c3.277659 0 5.91185-2.64239 5.91185-5.92005v-35.19752l-41.126834 41.11889h35.213397" fill="#ffffff"/>
 </g>
</svg>
