<svg height="512" viewBox="0 0 512 512" width="512" xmlns="http://www.w3.org/2000/svg">
 <path d="m471.95 253.05c0 120.9-98.01 218.9-218.9 218.9-120.9 0-218.9-98.01-218.9-218.9 0-120.9 98.01-218.9 218.9-218.9 120.9 0 218.9 98.01 218.9 218.9" fill="#4076b0" fill-rule="evenodd"/>
 <g fill="#ffffff">
  <path d="m199.99 157.18c-30.902 30.442-30.995 79.959-.135 110.36l14.694-14.475c-22.921-22.58-22.817-58.798.135-81.41l-14.69-14.47m97.33 14.343c22.921 22.58 23.09 59.06.135 81.68l14.694 14.475c30.902-30.442 30.725-80.22-.135-110.63z"/>
  <path d="m153.84 111.72c-56.36 55.52-56.53 145.83-.25 201.28l26.799-26.401c-41.804-41.18-41.615-107.24.246-148.48l-26.8-26.4m177.52 26.16c41.804 41.18 42.11 107.72.246 148.96l26.799 26.4c56.36-55.52 56.04-146.32-.246-201.76l-26.799 26.401"/>
 </g>
 <path d="m261.89 212.11l.121 269.67" fill="none" stroke="#ffffff" stroke-linecap="round" stroke-width="21.375"/>
</svg>
