<svg xmlns="http://www.w3.org/2000/svg" height="512" width="512" version="1.1" viewBox="0 0 512 512">
 <path fill-rule="evenodd" d="m471.95 253.05c0 120.9-98.01 218.9-218.9 218.9-120.9 0-218.9-98.01-218.9-218.9 0-120.9 98.01-218.9 218.9-218.9 120.9 0 218.9 98.01 218.9 218.9" fill="#33678e"/>
 <g transform="matrix(4.0487 0 0 4.0487 -.60046 -4.0849)" fill="#ffffff">
  <path d="m102.98 48.043c-6.7578-14.641-21.863-24.043-38.895-24.043-17.414 0-33.328 10.289-39.598 25.598l13.199 4.8047c4.1758-10.211 14.789-17.066 26.398-17.066 11.207 0 21.117 6.1289 25.707 15.668l-9.6289 3.625 24.625 13.395 7.1992-25.371z"/>
  <path d="m64.086 90.676c-11.102 0-21.227-6.3164-25.754-15.793l9.4922-3.457-24.367-13.102-7.457 24.695 9.0859-3.3125c6.625 14.586 22.094 24.301 39 24.301 17.48 0 32.957-9.8867 39.43-25.184l-13.137-4.9414c-4.3203 10.199-14.637 16.793-26.293 16.793z"/>
 </g>
</svg>
