<svg width="512" height="512" version="1.1" viewBox="0 0 512 512" xmlns="http://www.w3.org/2000/svg">
 <path d="m471.95 253.05c0 120.9-98.01 218.9-218.9 218.9-120.9 0-218.9-98.01-218.9-218.9 0-120.9 98.01-218.9 218.9-218.9 120.9 0 218.9 98.01 218.9 218.9" fill="#ba6cd0" fill-rule="evenodd"/>
 <path class="ColorScheme-Text" d="m193.72 96.617c-21.174 0-38.339 17.165-38.339 38.339s17.165 38.339 38.339 38.339 38.339-17.165 38.339-38.339-17.165-38.339-38.339-38.339zm42.42 0c9.2588 10.224 15.088 23.605 15.088 38.339 0 31.534-25.975 57.508-57.508 57.508-14.734 0-28.116-5.8296-38.339-15.088v187.61c0 21.393 16.952 38.339 38.339 38.339 21.387 0 38.339-16.946 38.339-38.339 0 0 2.8875-38.558 0-57.508-1.1677-7.664-1.3192-14.002-6.9265-22.202 0 0-0.11266-0.14337-0.15336-0.22428-5.5527-11.04-12.078-20.092-12.093-35.044v-0.0383c0-31.534 25.975-57.508 57.508-57.508h0.0383c18.46 0.0192 35.825 8.9397 46.613 23.924l0.37381 0.56166 38.526 57.808c18.153-18.924 29.466-44.488 29.466-72.709 0-58.229-47.924-105.43-105.43-105.43zm34.258 115.02c-21.175 0-38.339 17.164-38.339 38.339 0.01 9.048 4.1972 17.148 9.0604 24.711l73.72 111.09c7.1694 10.907 19.201 17.559 32.236 17.559 21.175 0 38.339-17.165 38.339-38.339-0.018-7.9005-2.4765-15.602-7.0388-22.052l-76.903-115.35c-7.1943-10.001-18.755-15.934-31.075-15.95z" fill="#ffffff" stroke-width="19.169"/>
</svg>
