<svg xmlns="http://www.w3.org/2000/svg" height="512" width="512">
 <path d="M471.95 253.05c0 120.9-98.01 218.9-218.9 218.9-120.9 0-218.9-98.01-218.9-218.9 0-120.9 98.01-218.9 218.9-218.9 120.9 0 218.9 98.01 218.9 218.9" fill="#81b0dd" fill-rule="evenodd"/>
 <path d="M219.872 124.746c14.11-3.365 26.554-5.02 40.663-5.02 43.1 0 67.194 20.09 67.194 55.644 0 38.472-30.266 62.71-78.375 62.71-2.885 0-6.64 0-12.008-.39-.827 1.654-1.654 3.32-2.493 5.02 38.304 50.613 78.71 101.18 117.047 151.806 19.477-1.264 21.49-1.264 26.028-1.264 3.757 0 3.757 0 29.874 1.264v-11.18c-13.282-1.264-19.912-5.11-25.29-12.232-31.405-41.267-62.755-82.544-94.16-123.766 23.232-5.847 33.977-10.442 47.695-20.09 21.578-15.463 33.194-36.382 33.194-60.62 0-40.183-29.045-62.756-80.486-62.756-53.89 0-60.53 1.264-74.64 1.264-13.718 0-16.59 0-74.684-1.264v11.18c5.68.437 17.34 2.225 22.976 2.617 19.084 1.262 21.745 5.02 21.745 37.643V343.11c0 33.06-5.723 38.392-24.808 39.655-6.64.436-13.282.827-19.867 1.263v10.52c24.462-.826 38.952-1.218 60.53-1.218 21.578 0 37.957.392 62.453 1.22 0-4.15-1.487-6.374-1.487-10.522-6.64-.436-13.28-.827-19.91-1.263-19.086-1.263-23.323-6.596-23.323-39.656 0-72.763 2.18-145.57 2.18-218.32" fill="#fff"/>
</svg>
