<svg xmlns="http://www.w3.org/2000/svg" height="512" width="512" version="1.1" viewBox="0 0 512 512">
 <path fill-rule="evenodd" d="m471.95 253.05c0 120.9-98.01 218.9-218.9 218.9-120.9 0-218.9-98.01-218.9-218.9 0-120.9 98.01-218.9 218.9-218.9 120.9 0 218.9 98.01 218.9 218.9" fill="#427188"/>
 <g fill="#ffffff">
  <path d="m279.49 422.59l9.0157-1.3393 6.16-8.8985c8.0414-11.616 13.572-23.748 17.513-38.413 4.2162-15.688 5.3361-45.97 2.4178-65.321-3.0036-19.904-5.6596-30.042-7.8549-29.974-1.0369 0.0312-5.549 4.7604-10.027 10.51-13.746 17.648-38.565 41.913-55.01 53.777-29.633 21.38-61.396 32.941-90.518 32.951-13.193 0.005-13.466 1.1435-2.4058 10.022 25.2 20.227 55.79 33.417 86.308 37.22 8.3457 1.0402 36.061 0.70991 44.404-0.52973"/>
  <path d="m320.99 411.2c24.275-9.7057 49.776-28.813 66.141-49.562 11.447-14.51 21.881-32.98 27.703-49.034l2.6873-7.4066-3.8276-7.1724c-8.5466-16.013-25.805-34.128-44.652-46.871-11.934-8.0685-35.676-19.387-51.929-24.763-17.816-5.8895-18.236-5.8138-14.619 2.6643 10.494 24.622 19.307 54.655 22.664 77.297 2.4467 16.473 2.4443 43.009 0 57.592-2.2783 13.562-7.654 30.078-13.256 40.713-4.2114 8-4.9716 10.847-2.8942 10.847 0.65679 0 6.0506-1.9399 11.983-4.3123z"/>
  <path d="m171.35 363.23c25.761-4.4865 53.937-19.279 80.943-42.486 12.481-10.727 12.468-10.75-8.1869-13.333-66.037-8.2751-118.63-35.312-144.41-74.228-3.5883-5.4174-7.1741-9.8498-7.968-9.8498-2.3745 0-3.3958 10.13-3.3934 33.634 0 30.054 3.5028 46.126 15.615 71.724 4.9824 10.531 18.622 31.869 21.515 33.658 4.7466 2.9357 31.189 3.4474 45.879 0.88889"/>
  <path d="m211.65 288.49c0-0.49609-2.4046-6.6883-5.3361-13.762-23.244-56.088-28.54-108.85-14.983-149.26 1.9992-5.9604 5.496-14.335 7.7707-18.613 5.1256-9.6336 5.2639-11.379 0.82639-10.352-7.0863 1.6396-35.101 16.627-44.964 24.048-13.007 9.797-30.409 28.056-38.943 40.865-7.2415 10.871-18.2 32.794-19.343 38.679-1.5325 7.9483 11.465 29.284 27.715 45.495 17.009 16.973 37.567 29.069 65.558 38.595 14.256 4.8528 21.7 6.3291 21.688 4.3015"/>
  <path d="m422.99 280.08c0.53649-3.1387 0.93586-14.895 0.88654-26.126-0.071-16.348-0.62551-22.919-2.7799-32.981-5.9532-27.796-20.01-56.073-38.084-76.628-5.3541-6.0889-5.7607-6.3063-11.799-6.3063-23.667 0-53.759 9.1664-75.951 23.134-17.782 11.193-45.117 34.215-45.117 37.999 0 1.8102 2.2602 2.4396 15.235 4.2414 18.563 2.5778 47.322 9.6697 63.555 15.688 15.967 5.9111 39.314 18.102 51.496 26.886 10.543 7.6036 29.63 26.51 35.101 34.77 4.3653 6.5862 6.2394 6.4168 7.452-0.67508"/>
  <path d="m212.13 226.4c15.871-22.209 41.5-48.432 62.695-64.144 22.222-16.477 50.931-29.378 72.751-32.697 13.884-2.1117 14.416-2.2595 14.416-4.0168 0-0.90571-4.737-4.8805-10.525-8.8324-17.855-12.187-34.868-19.772-56.441-25.163-11.942-2.9838-15.025-3.2589-37.084-3.3033-32.095-0.06486-34.451 0.38318-39.72 7.5399-15.349 20.848-23.441 48.132-23.405 78.895 0.0277 23.618 6.1396 59.459 10.138 59.459 0.90939 0 4.1428-3.4847 7.1861-7.7429"/>
 </g>
</svg>
