<?xml version="1.0" encoding="UTF-8" standalone="no"?>
<svg xmlns="http://www.w3.org/2000/svg" height="512" viewBox="0 0 512 512" width="512" version="1.1">
 <defs>
  <clipPath id="clipPath-713493829">
   <g transform="translate(0,-1004.3622)">
    <path d="m -24,13 c 0,1.105 -0.672,2 -1.5,2 -0.828,0 -1.5,-0.895 -1.5,-2 0,-1.105 0.672,-2 1.5,-2 0.828,0 1.5,0.895 1.5,2 z" transform="matrix(15.333333,0,0,11.5,414.99999,878.8622)" style="fill:#1890d0"/>
   </g>
  </clipPath>
 </defs>
 <path style="fill:#33678e;fill-rule:evenodd;fill-opacity:1" d="m 471.95,253.05 c 0,120.9 -98.01,218.9 -218.9,218.9 -120.9,0 -218.9,-98.01 -218.9,-218.9 0,-120.9 98.01,-218.9 218.9,-218.9 120.9,0 218.9,98.01 218.9,218.9"/>
 <g transform="matrix(10.912402,0,0,12.379525,-5.709266,-31.960822)">
  <g clip-path="url(#clipPath-713493829)">
   <g>
    <path d="M 11.965,20 C 11.395,20.027 11,20.156 11,20.766 l 0,12.773 c 0,0.809 0.699,1.457 1.574,1.457 l 22.824,0 C 36.277,34.996 37,34.348 37,33.539 L 37,20.766 C 37,19.953 36.277,20 35.398,20 l -22.824,0 c -0.219,0 -0.422,-0.012 -0.609,0 m 0,0" style="fill:#f9f9f9;fill-opacity:1"/>
    <path d="M 15.05,13.402 11.8,18 l 11.195,0 0,-7 -5.508,0 c -0.813,0 -2.438,2.402 -2.438,2.402 M 24.987,11 l 0,7 11.188,0 -3.25,-4.598 c 0,0 -1.625,-2.402 -2.441,-2.402 m -5.492,0" style="fill:#f9f9f9;fill-opacity:1"/>
   </g>
  </g>
 </g>
</svg>
