<svg xmlns="http://www.w3.org/2000/svg" height="512" width="512" version="1.1" viewBox="0 0 512 512">
 <path fill-rule="evenodd" d="m473.36 253.24c0 120.9-98.01 218.9-218.9 218.9-120.9 0-218.9-98.01-218.9-218.9 0-120.9 98.01-218.9 218.9-218.9 120.9 0 218.9 98.01 218.9 218.9" fill="#33678e"/>
 <path d="m271.25 105.69v68.287c-14.038-6.7139-32.113-19.972-39.734-30.355-8.9124-12.143-24.355-22.118-36.072-21.819-20.135 0.51423-35.706 3.9062-46.692 11.719-10.864 7.8125-16.296 18.921-16.296 33.325 0 12.085 3.6011 21.24 10.803 27.466 7.3242 6.1035 21.118 11.047 41.382 14.832l22.339 4.5776c27.588 5.249 47.913 14.526 60.974 27.832 13.184 13.184 19.775 30.884 19.775 53.101 0 26.489-8.9111 46.57-26.733 60.242-17.7 13.672-43.701 20.508-78.003 20.508-12.939 0-26.733-1.4648-41.382-4.3945-14.526-2.9297-29.602-7.2632-45.227-13l0.76703-86.409c15.011 8.4102 33.931 31.731 54.1 49.724 20.169 17.994 23.425 19.949 35.577 24.05 20.009 6.7537 33.579-4.1504 45.054-12.451 11.475-8.3008 17.212-20.142 17.212-35.522 0-13.428-4.1504-23.926-12.451-31.494-8.1787-7.5684-21.667-13.245-40.466-17.029l-22.522-4.3945c-27.588-5.4932-47.546-14.099-59.875-25.818s-18.494-28.015-18.494-48.889c0-24.17 8.4839-43.213 25.452-57.129 17.09-13.916 40.588-20.874 70.496-20.874 12.817 0 25.879 1.1597 39.185 3.479s26.917 5.7983 40.833 10.437z" fill="#ffffff"/>
 <path d="m328.31 234.28l36.163 11.505-18.409 104.77 53.158-11.505 10.738 26.447h-81.65z" fill="#ffffff"/>
</svg>
