<svg height="512" viewBox="0 0 512 512" width="512" xmlns="http://www.w3.org/2000/svg">
 <path d="m471.95 253.05c0 120.9-98.01 218.9-218.9 218.9-120.9 0-218.9-98.01-218.9-218.9 0-120.9 98.01-218.9 218.9-218.9 120.9 0 218.9 98.01 218.9 218.9" fill="#29ab0f" fill-rule="evenodd"/>
 <path d="m254.75 109.37c-38.38 0-77.24 25.637-77.24 64.52v70.74h-28.461v158.01h213.9v-158.01h-29.32v-72.7c0-29.22-30.22-62.56-78.886-62.56m-.55 35.438c20.665-.108 43.17 14.316 43.17 36.3v63.52h-84.73l.034-.034v-63.21c0-23.843 23.745-36.48 41.522-36.573m.963 134.47c11.824 0 21.414 9.59 21.414 21.414 0 7.05-3.436 13.286-8.696 17.19l8.49 47.641h-42.04l8.421-47.4c-5.441-3.882-9.01-10.234-9.01-17.427 0-11.824 9.59-21.414 21.414-21.414" fill="#ffffff" fill-rule="evenodd"/>
</svg>
