<svg height="512" viewBox="0 0 512 512" width="512" xmlns="http://www.w3.org/2000/svg">
 <path d="m471.95 253.05c0 120.9-98.01 218.9-218.9 218.9-120.9 0-218.9-98.01-218.9-218.9 0-120.9 98.01-218.9 218.9-218.9 120.9 0 218.9 98.01 218.9 218.9" fill="#cea814" fill-rule="evenodd"/>
 <path d="m192.42 90.76c-13.811 0-24.931 10.669-24.931 23.922 0 13.253 11.12 23.922 24.931 23.922h37.81v111.93h51.54v-111.93h37.81c13.811 0 24.931-10.669 24.931-23.922 0-13.253-11.12-23.922-24.931-23.922zm37.81 159.8v82.14h-53.46l39.62 44.28 39.62 44.28 39.595-44.28 39.62-44.28h-53.46v-82.14h-51.54" fill="#ffffff" fill-rule="evenodd"/>
</svg>
