<svg height="512" viewBox="0 0 512 512" width="512" xmlns="http://www.w3.org/2000/svg">
 <path d="m471.95 253.05c0 120.9-98.01 218.9-218.9 218.9-120.9 0-218.9-98.01-218.9-218.9 0-120.9 98.01-218.9 218.9-218.9 120.9 0 218.9 98.01 218.9 218.9" fill="#68af4c" fill-rule="evenodd"/>
 <g fill="#ffffff">
  <path d="m156.72 120c-27.13 0-49.41 22.28-49.41 49.41v108.28c0 27.13 22.28 49.41 49.41 49.41h198.56c27.13 0 49.41-22.28 49.41-49.41v-108.28c0-27.13-22.28-49.41-49.41-49.41zm3.938 24.19h190.69c15.53 0 27.938 12.309 27.938 27.813v103.09c0 15.504-12.433 27.938-27.938 27.938h-190.69c-15.503 0-27.938-12.434-27.938-27.938v-103.09c0-15.504 12.409-27.813 27.938-27.813m157.5 161.81c5.155 0 9.313 4.157 9.313 9.313 0 5.155-4.157 9.344-9.313 9.344-5.155 0-9.344-4.189-9.344-9.344s4.189-9.313 9.344-9.313"/>
  <g fill-rule="evenodd">
   <rect height="46.17" rx="11.08" width="50.17" x="229.14" y="340.16"/>
   <rect height="16" rx="8" width="160.02" x="173.8" y="376"/>
  </g>
 </g>
 <path d="m199.69189 170.40836c-10.93648.60355-19.63874 10.46963-19.63874 22.53561 0 12.45622 9.2536 22.57198 20.68727 22.57198 11.43459 0 20.72067-10.11576 20.72067-22.57198 0-12.45622-9.28608-22.53561-20.72067-22.53561-.35733 0-.69661-.0197-1.04943 0zm59.23929 46.5044c-3.3775.00098-7.06901.58192-11.14673 1.82144-11.58979 5.1724-35.14925 44.45982-44.65731 35.1786-29.49873-43.05023-49.23222-.59568-54.61925 33.64713h158.6151c-14.58198-32.32208-20.68908-70.65405-48.19452-70.64324z" fill="#ffffff" stroke="#ffffff" stroke-width="2.006"/>
 <path d="m302.67506 160.18144c0 0 72.24558 34.76121 68.36818 34.76121-3.8774 0-68.07582 34.36544-68.07582 34.36544z" fill="#ffffff" fill-rule="evenodd"/>
</svg>
