<svg height="512" viewBox="0 0 512 512" width="512" xmlns="http://www.w3.org/2000/svg">
 <path d="m471.95 253.05c0 120.9-98.01 218.9-218.9 218.9-120.9 0-218.9-98.01-218.9-218.9 0-120.9 98.01-218.9 218.9-218.9 120.9 0 218.9 98.01 218.9 218.9" fill="#68af4c" fill-rule="evenodd"/>
 <path d="m159.54 138.93c-17.762 0-32.02 14.1-32.02 31.672v104.05c0 17.569 14.257 31.672 32.02 31.672h154.93c.914-.709 2.056-1.178 3.308-1.178s2.261.469 3.175 1.178h31.49c17.762 0 32.02-14.1 32.02-31.672v-104.05c0-17.569-14.257-31.672-32.02-31.672h-192.91" fill="#68af4c" fill-rule="evenodd"/>
 <g fill="#ffffff">
  <path d="m156.72 120c-27.13 0-49.41 22.28-49.41 49.41v108.28c0 27.13 22.28 49.41 49.41 49.41h198.56c27.13 0 49.41-22.28 49.41-49.41v-108.28c0-27.13-22.28-49.41-49.41-49.41zm3.938 24.19h190.69c15.53 0 27.938 12.309 27.938 27.813v103.09c0 15.504-12.433 27.938-27.938 27.938h-190.69c-15.503 0-27.938-12.434-27.938-27.938v-103.09c0-15.504 12.409-27.813 27.938-27.813m157.5 161.81c5.155 0 9.313 4.157 9.313 9.313 0 5.155-4.157 9.344-9.313 9.344-5.155 0-9.344-4.189-9.344-9.344s4.189-9.313 9.344-9.313"/>
  <g fill-rule="evenodd">
   <rect height="46.17" rx="11.08" width="50.17" x="229.14" y="340.16"/>
   <rect height="16" rx="8" width="160.02" x="173.8" y="376"/>
  </g>
 </g>
 <path d="m224.83 163.97c-12.12.614-21.764 10.651-21.764 22.926 0 12.672 10.255 22.963 22.926 22.963 12.672 0 22.963-10.291 22.963-22.963s-10.291-22.926-22.963-22.926c-.396 0-.772-.02-1.163 0zm65.65 47.31c-3.743.001-7.834.592-12.353 1.853-12.844 5.262-38.953 45.23-49.49 35.788-32.691-43.796-54.56-.606-60.53 34.23h175.78c-16.16-32.882-22.928-71.878-53.41-71.867z" fill="#ffffff" stroke="#ffffff" stroke-width="2.13"/>
 <path d="m159.53 138.94c-17.762 0-32 14.09-32 31.656v104.06c0 17.569 14.251 32.34 32 31.656l43.44-1.667c63.747-36.02 43.63-94.69 93.87-165.71z" fill="#ffffff" fill-opacity=".079"/>
</svg>
