<svg height="512" viewBox="0 0 512 512" width="512" xmlns="http://www.w3.org/2000/svg">
 <path d="m471.94 253.04342c0 120.8954-98.00438 218.90438-218.90438 218.90438-120.8954 0-218.90438-98.00438-218.90438-218.90438 0-120.89541 98.00438-218.90438 218.90438-218.90438 120.89541 0 218.90438 98.00437 218.90438 218.90438" fill="#f38725" fill-rule="evenodd"/>
 <path d="m123.37398 380.9629h265.2055l-26.8642-52.5867h-208.87402c0 0-11.79719 22.2426-29.46499 52.5867z" fill="#ffffff" stroke="#ffffff" stroke-width="19.295"/>
 <path d="m255.25175 81.3694c-4.89903.024-9.5937 3.26527-19.37579 9.6154l-20.53576 79.57649 81.17487-.048-20.53576-79.53082c-10.73083-6.44604-15.82967-9.63937-20.73327-9.6154m-49.18443 125.00473l-7.63455 29.57118h115.00344l-7.5866-29.47413zm107.36546 29.57118l9.42245 36.43164zm9.42245 36.43164l-133.79582-.097-11.93533 46.24113c56.95485 32.55672 95.06936 34.55926 157.71444.19295z" fill="#ffffff"/>
</svg>
