<svg width="512" height="512" version="1.1" viewBox="0 0 512 512" xmlns="http://www.w3.org/2000/svg">
 <path d="m471.95 253.05c0 120.9-98.01 218.9-218.9 218.9-120.9 0-218.9-98.01-218.9-218.9 0-120.9 98.01-218.9 218.9-218.9 120.9 0 218.9 98.01 218.9 218.9" fill="#ff8646" fill-rule="evenodd"/>
 <path d="m171.62 113.35a28.522 28.522 0 1 0 0 57.04h159.42s12.343 0.40176 23.193 4.9225c10.85 4.5208 16.612 6.4341 16.612 23.494 0 17.06-5.7619 18.972-16.612 23.493-10.85 4.5208-23.193 4.9242-23.193 4.9242h-159.42a28.522 28.522 0 0 0-28.52 28.518v113.87a28.522 28.522 0 1 0 57.04 0v-85.354h130.9s21.82 0.4037 45.131-9.3096c23.312-9.7132 51.711-36.27 51.711-76.145 0-39.876-28.399-66.432-51.711-76.145-23.312-9.7133-45.131-9.3112-45.131-9.3112z" color="#000000" color-rendering="auto" dominant-baseline="auto" fill="#ffffff" image-rendering="auto" shape-rendering="auto" solid-color="#000000" style="font-feature-settings:normal;font-variant-alternates:normal;font-variant-caps:normal;font-variant-ligatures:normal;font-variant-numeric:normal;font-variant-position:normal;isolation:auto;mix-blend-mode:normal;shape-padding:0;text-decoration-color:#000000;text-decoration-line:none;text-decoration-style:solid;text-indent:0;text-orientation:mixed;text-transform:none;white-space:normal"/>
</svg>
