<svg width="512" height="512" version="1.1" viewBox="0 0 512 512" xmlns="http://www.w3.org/2000/svg">
 <path d="m471.95 253.05c0 120.9-98.01 218.9-218.9 218.9-120.9 0-218.9-98.01-218.9-218.9 0-120.9 98.01-218.9 218.9-218.9 120.9 0 218.9 98.01 218.9 218.9" fill="#45cc45" fill-rule="evenodd"/>
 <path d="m213.4 110.3c-30.462 0.30185-62.464 13.287-78.472 40.431-18.918 29.502-12.402 71.597 14.209 94.356 21.109 19.895 51.269 24.394 79.17 23.292 24.422 0.21051 48.88-0.43051 73.278 0.33797 11.047 1.9777 25.31 3.9555 31.057 14.81 3.6959 11.719 2.4614 29.069-11.991 32.355-18.39 8.1414-38.766 4.4908-58.223 5.3131-38.234 0.0629-76.472-0.12607-114.7 0.0951-19.534 0.77929-31.237 25.989-19.226 41.413 7.1717 11.377 21.121 11.575 33.036 11.124 47.084-0.12268 94.179 0.2472 141.26-0.18823 29.699-1.577 60.041-15.766 74.617-42.75 17.173-29.36 10.108-69.716-15.684-91.848-21.109-19.895-51.27-24.394-79.171-23.292-24.422-0.21051-48.88 0.43051-73.278-0.33797-11.046-1.9778-25.309-3.9558-31.056-14.81-3.6959-11.719-2.4614-29.069 11.991-32.355 18.39-8.1415 38.765-4.4908 58.222-5.3131 38.234-0.0629 76.473 0.12607 114.7-0.0951 19.534-0.77929 31.237-25.989 19.226-41.413-7.1717-11.377-21.121-11.575-33.036-11.124h-135.93z" color="#000000" color-rendering="auto" dominant-baseline="auto" fill="#ffffff" image-rendering="auto" shape-rendering="auto" solid-color="#000000" style="font-feature-settings:normal;font-variant-alternates:normal;font-variant-caps:normal;font-variant-ligatures:normal;font-variant-numeric:normal;font-variant-position:normal;isolation:auto;mix-blend-mode:normal;shape-padding:0;text-decoration-color:#000000;text-decoration-line:none;text-decoration-style:solid;text-indent:0;text-orientation:mixed;text-transform:none;white-space:normal"/>
</svg>
