<svg width="512" height="512" version="1.1" viewBox="0 0 512 512" xmlns="http://www.w3.org/2000/svg">
 <path d="m471.95 253.05c0 120.9-98.01 218.9-218.9 218.9-120.9 0-218.9-98.01-218.9-218.9 0-120.9 98.01-218.9 218.9-218.9 120.9 0 218.9 98.01 218.9 218.9" fill="#4496ff" fill-rule="evenodd"/>
 <path d="m154.59 122.97a26.265 26.265 0 0 0-25.867 26.634v209.54a26.265 26.265 0 0 0 44.166 19.215l87.051-81.109 87.05 81.109a26.265 26.265 0 0 0 44.166-19.215v-209.54a26.265 26.265 0 1 0-52.525 0v149.18l-60.788-56.638a26.265 26.265 0 0 0-35.805 0l-60.789 56.639v-149.18a26.265 26.265 0 0 0-26.658-26.634z" color="#000000" color-rendering="auto" dominant-baseline="auto" fill="#ffffff" image-rendering="auto" shape-rendering="auto" solid-color="#000000" style="font-feature-settings:normal;font-variant-alternates:normal;font-variant-caps:normal;font-variant-ligatures:normal;font-variant-numeric:normal;font-variant-position:normal;isolation:auto;mix-blend-mode:normal;shape-padding:0;text-decoration-color:#000000;text-decoration-line:none;text-decoration-style:solid;text-indent:0;text-orientation:mixed;text-transform:none;white-space:normal"/>
</svg>
