<svg width="512" height="512" version="1.1" viewBox="0 0 512 512" xmlns="http://www.w3.org/2000/svg">
 <path d="m471.95 253.05c0 120.9-98.01 218.9-218.9 218.9-120.9 0-218.9-98.01-218.9-218.9 0-120.9 98.01-218.9 218.9-218.9 120.9 0 218.9 98.01 218.9 218.9" fill="#ff5944" fill-rule="evenodd"/>
 <path d="m241.25 89.62c-11.486 0.86387-24.876-1.6767-34.189 6.7783-11.189 9.3182-12.105 25.282-12.28 38.868-0.424 32.943-1.3124 50.959 1.0492 82.461 2.6022 12.505 17.406 19.413 28.869 14.472 9.8356-3.3834 16.407-13.882 14.641-24.202 0.36377-28.386-0.87011-44.727 0.65941-72.921 5.9481-3.6412 13.307-1.0532 19.936-1.8176 19.678 0.38884 41.432-3.41 58.653 8.4197 22.571 13.813 33.537 44.083 24.326 69.267-6.702 21.71-27.209 38.149-50.012 39.847-38.509 2.3706-77.627-3.8462-115.91 1.3917-7.3272 1.0025-14.852 2.3434-21.441 5.7026-13.899 7.0867-28.661 15.364-36.304 29.542-16.784 24.56-12.252 59.771 7.6797 81.169 14.386 16.49 36.637 24.677 58.292 23.29 13.475-1.0371 28.613 1.9101 40.192-7.0079 10.932-7.2139 13.875-20.828 14.081-33.477 0.2287-14.432 1.7043-23.385-6.3204-36.887-6.9387-8.3091-20.152-9.997-28.657-3.0366-9.8421 7.2068-10.909 13.021-9.1849 24.151 0.33521 4.7977 0.81914 13.22-6.207 12.637-12.103 0.56418-27.16-0.8842-33.071-13.309-8.1818-14.215-0.94484-36.506 16.158-39.484 24.762-3.1031 50.18-0.41634 75.269-0.60192 23.859 0.0631 48.505 2.0186 71.64-5.0419 35.13-11.491 63.389-42.973 69.24-79.726 7.2286-37.409-9.345-78.148-39.874-100.72-18.869-13.863-42.678-18.737-65.937-19.588-13.767 0.13008-27.531-0.33028-41.298-0.17722z" fill="#ffffff" stroke-width="1.2359"/>
</svg>
