<svg xmlns="http://www.w3.org/2000/svg" height="512" viewBox="0 0 512 512" width="512">
 <path d="M471.95 253.05c0 120.9-98.01 218.9-218.9 218.9-120.9 0-218.9-98.01-218.9-218.9 0-120.9 98.01-218.9 218.9-218.9 120.9 0 218.9 98.01 218.9 218.9" fill="#e3b041" fill-rule="evenodd"/>
 <g fill="#fff">
  <path d="M299.5 174.884c-52.826 14.084-93.45 61.297-140.26 93.988 19.95-8.16 45.02-20.983 55.247-21.878l-33 36.594 25.47-11.123c-11.387 33.85-24.886 65.464-57.738 77.838l108.313 83.313 113.41-89.053c-44.296 1.206-83.67-3.994-87.88-54.88-1.08-6.095.492-48.43 61.34-67.793-6.14-4.213-26.72-1.39-41.253-1.435-.632-5.74 2.915-30.58 49.863-33.358-11.788-12.11-26.63-13.05-47.705-6.462-2.24-2.158-3.547-1.93-5.74-5.74m-12.202 18.298c3.008 1.297 3.41 3.27 3.95 5.383-5.247 1.08-12.65 3.593-14.705.723-.94-.988 5.476-4.615 10.802-6.004"/>
  <path d="M185.08 108.835c-58.876 27.308-99.73 86.85-99.73 156.043 0 95.055 77.08 172.135 172.183 172.135 95.056 0 172.136-77.08 172.136-172.135 0-68.334-39.867-127.3-97.57-154.964l-1.792 1.79c45.56 25.564 76.45 74.21 76.45 130.17 0 75.152-55.466 137.034-127.702 147.434l-21.523 36.273-21.523-36.272c-72.236-10.4-127.7-72.282-127.7-147.434 0-56.544 31.52-105.593 77.836-130.927-.31-.677-.757-1.435-1.08-2.158m0 .045"/>
 </g>
</svg>
