<?xml version="1.0" encoding="UTF-8" standalone="no"?>
<svg
  xmlns:dc="http://purl.org/dc/elements/1.1/"
  xmlns:cc="http://creativecommons.org/ns#"
  xmlns:rdf="http://www.w3.org/1999/02/22-rdf-syntax-ns#"
  xmlns:svg="http://www.w3.org/2000/svg"
  xmlns="http://www.w3.org/2000/svg"
  xmlns:sodipodi="http://sodipodi.sourceforge.net/DTD/sodipodi-0.dtd"
  xmlns:inkscape="http://www.inkscape.org/namespaces/inkscape"
  height="512"
  viewBox="0 0 512 512"
  width="512"
  version="1.1"
  id="svg18"
  sodipodi:docname="zotero.svg"
  inkscape:version="0.92.2 5c3e80d, 2017-08-06">
 <metadata
   id="metadata24">
  <rdf:RDF>
   <cc:Work
     rdf:about="">
    <dc:format>image/svg+xml</dc:format>
    <dc:type
      rdf:resource="http://purl.org/dc/dcmitype/StillImage" />
    <dc:title></dc:title>
   </cc:Work>
  </rdf:RDF>
 </metadata>
 <defs
   id="defs22" />
 <sodipodi:namedview
   pagecolor="#ffffff"
   bordercolor="#666666"
   borderopacity="1"
   objecttolerance="10"
   gridtolerance="10"
   guidetolerance="10"
   inkscape:pageopacity="0"
   inkscape:pageshadow="2"
   inkscape:window-width="1920"
   inkscape:window-height="1021"
   id="namedview20"
   showgrid="false"
   inkscape:zoom="0.4609375"
   inkscape:cx="811.68049"
   inkscape:cy="537.08392"
   inkscape:window-x="0"
   inkscape:window-y="0"
   inkscape:window-maximized="1"
   inkscape:current-layer="svg18" />
 <path
   d="m471.95 253.05c0 120.9-98.01 218.9-218.9 218.9-120.9 0-218.9-98.01-218.9-218.9 0-120.9 98.01-218.9 218.9-218.9 120.9 0 218.9 98.01 218.9 218.9"
   fill="#1793d1"
   fill-rule="evenodd"
   id="path2"
   style="fill:#8e3456;fill-opacity:1" />
 <path
   d="m256 1c-140.83 0-255 114.17-255 255 0 140.83 114.17 255 255 255 140.83 0 255-114.17 255-255 0-140.83-114.17-255-255-255m8.827 44.931c120.9 0 218.9 98 218.9 218.9 0 120.9-98 218.9-218.9 218.9-120.9 0-218.93-98-218.93-218.9 0-120.9 98.03-218.9 218.93-218.9"
   fill-opacity=".067"
   fill-rule="evenodd"
   id="path4" />
 <g
   fill-opacity=".129"
   fill-rule="evenodd"
   id="g10">
  <path
    d="m256 4.433c-138.94 0-251.57 112.63-251.57 251.57 0 138.94 112.63 251.57 251.57 251.57 138.94 0 251.57-112.63 251.57-251.57 0-138.94-112.63-251.57-251.57-251.57m5.885 38.556c120.9 0 218.9 98 218.9 218.9 0 120.9-98 218.9-218.9 218.9-120.9 0-218.93-98-218.93-218.9 0-120.9 98.03-218.9 218.93-218.9"
    id="path6" />
  <path
    d="m256 8.356c-136.77 0-247.64 110.87-247.64 247.64 0 136.77 110.87 247.64 247.64 247.64 136.77 0 247.64-110.87 247.64-247.64 0-136.77-110.87-247.64-247.64-247.64m2.942 31.691c120.9 0 218.9 98 218.9 218.9 0 120.9-98 218.9-218.9 218.9-120.9 0-218.93-98-218.93-218.9 0-120.9 98.03-218.9 218.93-218.9"
    id="path8" />
 </g>
 <path
   d="m 330.30836,111.70481 -27.752,3.223 -2.236,0.568 11.867,11.867 -46.14,-12.02 h -3.336 l -37.533,12.662 -1.113,0.934 -4.193,-4.193 -49.85401,-8.834 -5.498,0.152 -15.7037,25.47279 110.51873,96.17233 -110.51873,159.73094 111.31891,79.18638 c 101.20058,-24.42841 195.30281,-60.80282 214.0178,-224.04844 l -3.92,-41.37 -102.07105,-106.22882 -37.85895,6.72582"
   id="path12"
   inkscape:connector-curvature="0"
   style="opacity:0.25"
   sodipodi:nodetypes="ccccccccccccccccccc" />
 <path
   d="m253.04 7.859c-135.42 0-245.19 109.78-245.19 245.19 0 135.42 109.78 245.19 245.19 245.19 135.42 0 245.19-109.78 245.19-245.19 0-135.42-109.78-245.19-245.19-245.19zm0 26.297c120.9 0 218.9 98 218.9 218.9 0 120.9-98 218.9-218.9 218.9-120.9 0-218.93-98-218.93-218.9 0-120.9 98.03-218.9 218.93-218.9z"
   fill="#ffffff"
   fill-rule="evenodd"
   stroke="#000000"
   stroke-opacity=".31"
   stroke-width="4.904"
   id="path16" />
 <g
   transform="matrix(12.18587,0,0,12.18587,-33.971403,-41.251447)"
   id="g39">
  <g
    id="g37">
   <g
     id="g35">
    <path
      inkscape:connector-curvature="0"
      d="m 33,36 h -18 v -3 l 14,-18 h -14 v -3 h 18 v 3 l -14,18 h 14 v 3"
      style="fill:#eaeaea;fill-opacity:1"
      id="path33" />
   </g>
  </g>
 </g>
</svg>
