<svg height="512" viewBox="0 0 135.47 135.47" width="512" xmlns="http://www.w3.org/2000/svg">
 <g transform="translate(0 -161.53335)">
  <path d="m124.88333 228.48775c0 31.98812-25.931809 57.91994-57.919935 57.91994-31.988126 0-57.9199391-25.93182-57.9199391-57.91994 0-31.98813 25.9318131-57.91994 57.9199391-57.91994 31.988126 0 57.919935 25.93181 57.919935 57.91994" fill="#b93d48" fill-rule="evenodd"/>
  <path d="m39.131873 193.54687c-7.818702 0-14.23961 7.68615-14.23961 17.04446v37.35123c0 9.35831 6.420908 17.04446 14.23961 17.04446h57.224085c7.818702 0 14.239612-7.68615 14.239612-17.04446v-37.35123c0-9.35831-6.42091-17.04446-14.239612-17.04446z" fill="#ffffff"/>
  <path d="m96.440625 200.30433c-19.502438.0463-39.018105-.0945-58.515252.0744-4.437856.84957-6.738937 5.80787-6.441017 9.96315.06985 13.4919-.184943 26.99808.140494 40.48125.514086 3.9362 3.811323 7.97454 8.069792 7.51496 19.386021-.0775 38.793209.15954 58.166002-.12303 4.406636-1.00436 6.551086-6.00816 6.241516-10.20313-.091-13.41464.18839-26.84463-.1479-40.24842-.54795-3.67771-3.43138-7.63005-7.515752-7.4586" fill="#b93d48"/>
  <path d="m43.867915 204.31806c-4.659313.29607-7.599892 5.26441-7.329223 9.59114.237596 12.97517-.221985 25.32592.11086 36.57601 15.499292-14.91986 33.686751-32.37707 47.52446-46.17774-13.434219.002-26.871084-.006-40.306626.008" fill="#ffffff"/>
 </g>
</svg>
