<svg viewBox="0 0 48 48" xmlns="http://www.w3.org/2000/svg">
 <path d="m9.5 6c-1.913 0-3.5 1.587-3.5 3.5v29c0 1.913 1.587 3.5 3.5 3.5h29c1.913 0 3.5-1.587 3.5-3.5v-29c0-1.913-1.587-3.5-3.5-3.5m-29 3h29c .303 0 .5.197.5.5v20.5h-30v-20.5c0-.303.197-.5.5-.5m-.5 24h14v6h-13.5c-.303 0-.5-.197-.5-.5m16-5.5h14v5.5c0 .303-.197.5-.5.5h-13.5" fill="#ececec" opacity=".5"/>
 <path d="m24.01 45.991c3.084-.098 3.158.006 4.709-1.571 1.11-1.111 5.129-5.179 6.239-6.289 2.22 2.221 4.099 4.068 6.318 6.289 1.588 1.577 1.542 1.611 4.709 1.571-.028-3.102.018-3.135-1.57-4.712-2.22-2.221-4.099-4.068-6.318-6.289 1.754-1.804 4.099-4.056 6.318-6.277 1.588-1.565 1.622-1.497 1.57-4.712-3.087.074-3.121.006-4.709 1.571-2.22 2.221-4.881 4.838-6.318 6.277-2.22-2.221-4.02-4.056-6.239-6.277-1.551-1.565-1.591-1.473-4.709-1.571-.021 3.24.018 3.148 1.57 4.712 1.11 1.111 5.129 5.166 6.239 6.277-2.22 2.221-4.02 4.068-6.239 6.289-1.551 1.577-1.625 1.473-1.57 4.712z" fill="#ef555c" fill-rule="evenodd"/>
</svg>
