<svg viewBox="0 0 48 48" xmlns="http://www.w3.org/2000/svg">
 <g fill="#ececec" opacity=".5">
  <rect height="38.4" rx="1" width="6.5" x="41.5" y="4.8"/>
  <rect height="26.4" rx="1" width="6.5" x="31.91" y="16.8"/>
  <rect height="16.8" rx="1" width="6.5" x="22.32" y="26.4"/>
  <rect height="7.2" rx="1" width="6.5" x="12.73" y="36"/>
  <path d="m1.253 24c-.166 0-.306.014-.449.075-.137.063-.271.196-.375.3l-.075.075c-.077.092-.178.188-.225.3-.23.439-.153.973.225 1.35l6.892 6.9v9c0 .665.535 1.2 1.199 1.2.664 0 1.199-.535 1.199-1.2v-9l6.892-6.9c.378-.377.455-.911.225-1.35-.047-.112-.148-.208-.225-.3l-.075-.075c-.218-.216-.533-.358-.824-.372h-.075-7.117-7.117-.075zm2.922 2.4h3.071v3zm5.469 0h3.071l-3.071 3.075z"/>
 </g>
 <path d="m24.01 45.991c3.084-.098 3.158.006 4.709-1.571 1.11-1.111 5.129-5.179 6.239-6.289 2.22 2.221 4.099 4.068 6.318 6.289 1.588 1.577 1.542 1.611 4.709 1.571-.028-3.102.018-3.135-1.57-4.712-2.22-2.221-4.099-4.068-6.318-6.289 1.754-1.804 4.099-4.056 6.318-6.277 1.588-1.565 1.622-1.497 1.57-4.712-3.087.074-3.121.006-4.709 1.571-2.22 2.221-4.881 4.838-6.318 6.277-2.22-2.221-4.02-4.056-6.239-6.277-1.551-1.565-1.591-1.473-4.709-1.571-.021 3.24.018 3.148 1.57 4.712 1.11 1.111 5.129 5.166 6.239 6.277-2.22 2.221-4.02 4.068-6.239 6.289-1.551 1.577-1.625 1.473-1.57 4.712z" fill="#ef555c" fill-rule="evenodd"/>
</svg>
