<svg width="512" height="513" version="1.1" xmlns="http://www.w3.org/2000/svg">
 <g>
  <rect x="33.69" y="71.73" width="183.68" height="44.561" fill="#79bff8" fill-rule="evenodd" stroke-opacity="0"/>
  <rect x="8.7" y="115.21" width="493.44" height="326.06" fill="#5491d6" fill-rule="evenodd"/>
  <path d="m184.15 301.25c-1.2221 1.3314-2.1362 2.4641-2.792 3.3682 0.74518-1.0144 1.6972-2.1545 2.7894-3.3677zm151.06-38.519c0.42524 0.20468 0.85646 0.40538 1.2086 0.61304-0.2782-0.15898-0.6955-0.37756-1.2122-0.61602zm-81.69 3.5873c45.089-12.394 69.29-7.9852 78.669-4.7848-10.312-3.5455-30.507-6.4059-40.866-12.577-9.8985-5.8966-20.428-23.745-46.657-16.536-26.224 7.2107-26.287 27.434-32.351 38.264-4.9652 8.8794-20.347 21.859-28.162 30.56 7.4234-8.0741 26.313-23.083 69.369-34.927zm13.612-26.28c2.4668-0.67761 6.3524 0.12221 9.4079 2.3101 4.3423 3.1045 5.6466 7.8304 0.92602 9.1283-4.7261 1.2977-10.773-2.1183-12.653-5.9002-1.3238-2.67-0.14307-4.8641 2.3202-5.5379zm-19.309 3.3881c4.0411-1.1058 8.0513 0.81274 8.9638 4.2976 0.90713 3.477-1.6295 7.2018-5.6699 8.3089-4.0419 1.1096-8.0513-0.80877-8.9643-4.2926-0.90714-3.4769 1.6291-7.1992 5.671-8.3135zm-25.394 13.798c1.585-3.4644 4.5572-6.147 7.019-6.8279 2.4604-0.67663 4.5572 0.61601 4.7086 3.6041 0.21461 4.2404-3.357 10.3-8.0831 11.601-4.7174 1.2976-5.8898-3.4609-3.6452-8.3774zm117.68 18.045c-3.1794-12.263-40.357-11.53-83.353 0.36066-42.993 11.891-75.547 30.44-72.358 42.698 2.1529 8.2964 20.507 12.994 45.457 11.487 10.428 0.89422 24.396-0.63986 39.293-4.7371 14.683-4.0348 27.383-9.7606 35.975-15.781 23.051-11.706 37.178-25.584 34.984-34.027zm-72.463 44.024c-18.703 5.1432-34.592 6.5429-35.849 1.7186-1.2602-4.8194 12.937-12.677 31.643-17.818 18.701-5.1482 34.833-5.6137 36.095-0.79187 1.2602 4.817-13.189 11.751-31.89 16.892z" fill="#ffffff" stroke-width="9.9357"/>
 </g>
</svg>
